<?xml version="1.0" encoding="UTF-8" standalone="no"?>
<!-- Created with Inkscape (http://www.inkscape.org/) -->

<svg
   xmlns:dc="http://purl.org/dc/elements/1.1/"
   xmlns:cc="http://creativecommons.org/ns#"
   xmlns:rdf="http://www.w3.org/1999/02/22-rdf-syntax-ns#"
   xmlns:svg="http://www.w3.org/2000/svg"
   xmlns="http://www.w3.org/2000/svg"
   xmlns:sodipodi="http://sodipodi.sourceforge.net/DTD/sodipodi-0.dtd"
   xmlns:inkscape="http://www.inkscape.org/namespaces/inkscape"
   width="210mm"
   height="297mm"
   viewBox="0 0 744.09448819 1052.3622047"
   id="svg4935"
   version="1.1"
   inkscape:version="0.91 r13725"
   sodipodi:docname="dymek.svg">
  <defs
     id="defs4937" />
  <sodipodi:namedview
     id="base"
     pagecolor="#ffffff"
     bordercolor="#666666"
     borderopacity="1.0"
     inkscape:pageopacity="0.0"
     inkscape:pageshadow="2"
     inkscape:zoom="0.175"
     inkscape:cx="874.71506"
     inkscape:cy="504.96983"
     inkscape:document-units="px"
     inkscape:current-layer="layer1"
     showgrid="false"
     inkscape:window-width="1304"
     inkscape:window-height="745"
     inkscape:window-x="54"
     inkscape:window-y="-8"
     inkscape:window-maximized="1" />
  <metadata
     id="metadata4940">
    <rdf:RDF>
      <cc:Work
         rdf:about="">
        <dc:format>image/svg+xml</dc:format>
        <dc:type
           rdf:resource="http://purl.org/dc/dcmitype/StillImage" />
        <dc:title></dc:title>
      </cc:Work>
    </rdf:RDF>
  </metadata>
  <g
     inkscape:label="Layer 1"
     inkscape:groupmode="layer"
     id="layer1">
    <path
       style="fill:#000000"
       d="m 393.40779,385.35292 c -11.7285,-2.37038 -23.45117,-9.63308 -28.01264,-17.35503 -0.92593,-1.56748 -2.03085,-2.84997 -2.45536,-2.84997 -0.42452,0 -1.97627,-1.9125 -3.44834,-4.25 -2.90667,-4.61551 -4.29948,-5.94562 -8.79151,-8.39572 -3.27626,-1.78697 -10.6384,-2.1579 -56.55709,-2.84948 -37.21903,-0.56055 -39.06389,-0.77372 -50.76431,-5.86551 -15.37411,-6.69052 -20.04658,-10.78387 -25.33247,-22.19272 -1.2605,-2.72061 -2.61461,-5.17355 -3.00913,-5.45096 -1.2322,-0.86644 -8.89409,-24.07422 -8.89409,-26.9401 0,-1.4972 -0.3375,-3.05487 -0.75,-3.46149 -1.40504,-1.38501 -2.96203,-25.05184 -2.62262,-39.86482 0.26181,-11.42612 0.79519,-16.16212 2.35553,-20.91516 1.1094,-3.37939 2.01709,-8.10948 2.01709,-10.51131 0,-2.40183 0.67312,-5.97796 1.49581,-7.94696 1.92476,-4.60658 11.49335,-17.32742 15.68963,-20.85835 4.48945,-3.77762 21.77756,-11.49742 25.74791,-11.49742 0.91666,0 2.09415,-0.42393 2.61665,-0.94206 3.03308,-3.00772 39.59524,-3.31968 65.95,-0.56271 2.2,0.23015 12.55,0.6938 23,1.03034 10.45,0.33655 20.575,0.77146 22.5,0.96647 14.56457,1.47548 26.5801,3.28815 29.5,4.45039 1.1,0.43784 4.25,1.7317 7,2.87525 2.75,1.14354 6.0125,2.35771 7.25,2.69813 1.2375,0.34043 2.25,1.0213 2.25,1.51303 0,0.49174 1.9125,1.39496 4.25,2.00716 8.82369,2.31095 16.8473,9.44205 25.41792,22.59053 10.72017,16.44619 11.85148,23.61161 9.84787,62.37347 -1.06179,20.54138 -2.13296,27.9441 -4.55803,31.5 -0.37509,0.55 -0.99895,2.32255 -1.38636,3.93901 -0.38741,1.61645 -1.51326,4.09145 -2.5019,5.5 -0.98863,1.40854 -3.6474,6.17308 -5.90838,10.58785 -4.42614,8.64246 -12.8868,18.18512 -18.40234,20.75573 -2.75812,1.28547 -8.74768,2.47005 -13.4831,2.66659 -2.2295,0.0925 -4.5331,6.09492 -3.9649,10.33117 0.77145,5.75158 6.40187,16.52641 10.84416,20.75226 2.11478,2.01175 3.84506,4.16882 3.84506,4.7935 0,2.4222 -11.71737,3.20141 -20.73506,1.37889 z m 12.30167,-3.78663 c 0.0366,-0.5051 -1.65087,-3.57564 -3.75,-6.82341 -2.09914,-3.24777 -3.81661,-6.56237 -3.81661,-7.36578 0,-0.80341 -0.75919,-3.59829 -1.68708,-6.21084 -1.59507,-4.49102 -1.5897,-5.00509 0.0986,-9.42574 2.1536,-5.63915 4.48141,-7.28418 11.14871,-7.87865 6.13726,-0.54722 8.93242,-1.94863 14.70083,-7.37057 4.03902,-3.79646 15.73894,-22.58649 15.73894,-25.27674 0,-0.62322 1.07239,-3.25567 2.38308,-5.84988 2.91649,-5.77253 4.24269,-12.23899 5.58186,-27.21676 1.4971,-16.74404 1.28423,-34.84531 -0.515,-43.79216 -1.49331,-7.42572 -6.27195,-18.53834 -9.47214,-22.02727 -0.84781,-0.92431 -2.51235,-3.25557 -3.69896,-5.18057 -4.2201,-6.8461 -14.03176,-15 -18.04965,-15 -1.27919,0 -4.18859,-0.9 -6.46533,-2 -2.27673,-1.1 -5.18,-2 -6.45169,-2 -1.27169,0 -2.31217,-0.56652 -2.31217,-1.25894 0,-2.13168 -11.8942,-5.59831 -24.5,-7.14067 -6.6,-0.80753 -20.1,-1.74733 -30,-2.08845 -18.8126,-0.64821 -22.63861,-0.84765 -41.5,-2.16321 -26.62675,-1.85719 -47.30456,-0.71204 -54.5,3.01824 -2.0264,1.05053 -3.38949,1.4427 -7,2.01396 -5.16127,0.81661 -12.84038,5.2039 -16.77943,9.58656 -11.30367,12.57665 -13.76816,17.15223 -14.29087,26.53251 -0.1226,2.2 -1.2043,6.7 -2.40379,10 -2.04591,5.62863 -2.15134,7.26884 -1.7034,26.5 0.26262,11.275 0.7813,21.625 1.15263,23 0.37132,1.375 1.06046,5.65 1.53141,9.5 1.13756,9.29951 4.39586,18.75728 10.85207,31.5 5.913,11.67056 10.20995,16.42562 18.16873,20.10575 17.47939,8.08245 16.88579,7.98724 52.97265,8.49736 50.96303,0.72041 56.4602,1.08347 62.40128,4.12124 3.03533,1.55201 8.59872,7.10246 8.59872,8.57872 0,0.8224 4.73205,6.8087 10,12.65053 3.65877,4.05735 14.5834,9.3702 21.66004,10.53368 7.36839,1.21145 11.81557,1.18571 11.90657,-0.0689 z"
       id="path4954"
       inkscape:connector-curvature="0" />
    <path
       style="fill:#000000"
       d="m 372.66399,835.96458 c -8.25,-0.40931 -19.5,-0.97113 -25,-1.24851 -5.5,-0.27738 -14.725,-1.04491 -20.5,-1.70564 -7.41854,-0.84876 -17.98354,-0.97459 -36,-0.42875 -42.7542,1.2953 -43.57999,1.27225 -52,-1.45129 -14.14011,-4.57377 -23.95604,-12.78551 -28.87976,-24.16 -2.13621,-4.93495 -5.34705,-20.01784 -7.01697,-32.96218 -1.50105,-11.63529 -1.38568,-22.98355 0.38538,-37.90552 0.81876,-6.89842 1.97538,-16.81758 2.57026,-22.04258 1.7952,-15.76756 5.94432,-26.65932 12.7612,-33.49918 4.64597,-4.66164 6.79674,-5.72877 16.67989,-8.27593 14.60628,-3.76446 39.98581,-4.47078 67.5,-1.87855 7.975,0.75136 19.36531,1.45252 25.31179,1.55813 5.94649,0.10561 11.79649,0.56112 13,1.01224 1.20352,0.45111 8.93821,0.9311 17.18821,1.06663 8.25,0.13553 16.35,0.37677 18,0.53608 1.65,0.15931 6.6,0.56576 11,0.90323 4.4,0.33747 10.7,1.1193 14,1.73741 6.84671,1.28243 28.81127,8.37778 31.92604,10.31326 1.14068,0.70881 3.2675,1.56482 4.72626,1.90224 3.80787,0.88079 10.03079,8.86954 14.02762,18.00811 3.01454,6.89264 4.00562,8.19338 7.88403,10.34737 2.43983,1.35504 6.58031,3.76988 9.20107,5.36633 2.62077,1.59645 5.27521,2.90263 5.89878,2.90263 0.62356,0 3.6543,2.04276 6.73497,4.53946 3.08068,2.4967 6.81692,5.51124 8.30276,6.69898 3.06716,2.45181 8.33061,11.93189 9.72748,17.52032 0.51434,2.05768 1.24177,4.74827 1.61653,5.97909 1.10239,3.62063 -1.72979,3.69158 -7.65897,0.19187 -13.19273,-7.78704 -23.42351,-10.72042 -33.14689,-9.50391 -7.91505,0.99026 -10.99994,3.75239 -13.1851,11.80559 -2.31819,8.54344 -3.26348,14.57806 -4.03648,25.7686 -0.36093,5.225 -0.7593,10.4126 -0.88527,11.528 -0.38777,3.43336 -6.56604,17.75412 -9.42553,21.84765 -2.96043,4.23802 -9.54789,9.38485 -12.7073,9.92831 -1.1,0.18921 -3.8,1.16832 -6,2.1758 -4.69678,2.15087 -18.15883,2.60752 -42,1.42471 z m 40.28727,-5.46772 c 12.89975,-4.20541 16.02788,-6.83943 21.14769,-17.80727 4.05368,-8.68394 5.01933,-12.97854 6.04328,-26.87652 0.81238,-11.0264 3.14055,-22.91319 5.82747,-29.75296 2.63693,-6.71252 9.80601,-9.53618 22.02279,-8.67403 7.49877,0.5292 9.63646,1.16697 18.57281,5.54116 5.55428,2.71871 10.19899,4.84801 10.32159,4.73177 0.79642,-0.75519 -2.50533,-8.93314 -5.31931,-13.17513 -3.48629,-5.25548 -15.16028,-14.3339 -22.90359,-17.81125 -2.2,-0.98797 -6.60236,-3.37156 -9.78303,-5.29688 -5.30415,-3.2107 -6.10181,-4.18419 -9.63283,-11.75616 -2.1174,-4.54057 -4.59865,-8.54294 -5.51389,-8.89415 -0.91524,-0.35121 -1.57199,-1.20709 -1.45944,-1.90195 0.4635,-2.86166 -1.70563,-5.01317 -7.87403,-7.81006 -3.58237,-1.62432 -7.26117,-2.95332 -8.1751,-2.95332 -0.91392,0 -2.08918,-0.37868 -2.61168,-0.84151 -1.09844,-0.97299 -12.64385,-4.48669 -19.95,-6.07152 -8.16397,-1.7709 -12.19203,-2.1371 -29,-2.63641 -18.93294,-0.56244 -30.05833,-1.16508 -33.5,-1.81464 -1.375,-0.25951 -9.925,-0.77923 -19,-1.15494 -9.075,-0.37571 -16.725,-0.80815 -17,-0.96098 -1.34569,-0.74784 -23.03265,-1.74694 -35,-1.61242 -28.32372,0.31838 -38.55466,2.73404 -44.12048,10.41743 -1.58373,2.18629 -2.87952,5.03255 -2.87952,6.32503 0,1.37289 -0.59556,2.34996 -1.43239,2.34996 -1.07315,0 -1.33158,-1.01327 -1.03045,-4.0402 1.04209,-10.47498 -6.48381,4.85983 -9.83517,20.0402 -1.39637,6.325 -2.57293,14.68718 -2.61457,18.58263 -0.0416,3.89545 -0.54777,9.52045 -1.12473,12.5 -2.79038,14.4101 -0.50653,42.36972 5.17829,63.3944 2.40227,8.88453 9.50367,16.43795 20.3913,21.68925 11.7992,5.69097 17.41954,6.45626 36.79857,5.01061 19.73986,-1.47257 47.20125,-1.52685 58.66915,-0.11597 8.76907,1.07885 17.34315,1.58747 44,2.6101 8.525,0.32704 15.71239,0.78474 15.97198,1.01711 1.51531,1.35643 18.46585,-0.18141 24.81529,-2.25138 z"
       id="path4967"
       inkscape:connector-curvature="0" />
  </g>
</svg>
