<?xml version="1.0" encoding="UTF-8" standalone="no"?>
<!-- Created with Inkscape (http://www.inkscape.org/) -->

<svg
   xmlns:dc="http://purl.org/dc/elements/1.1/"
   xmlns:cc="http://creativecommons.org/ns#"
   xmlns:rdf="http://www.w3.org/1999/02/22-rdf-syntax-ns#"
   xmlns:svg="http://www.w3.org/2000/svg"
   xmlns="http://www.w3.org/2000/svg"
   xmlns:sodipodi="http://sodipodi.sourceforge.net/DTD/sodipodi-0.dtd"
   xmlns:inkscape="http://www.inkscape.org/namespaces/inkscape"
   width="297mm"
   height="210mm"
   viewBox="0 0 1052.3622 744.09448"
   id="svg4794"
   version="1.1"
   inkscape:version="0.91 r13725"
   sodipodi:docname="radosny_stoi_mark3.svg"
   inkscape:export-filename="E:\Development\git\Android\Tabi\Materiały\asystent\zaakceptowany\png_z_svg\g4198.png"
   inkscape:export-xdpi="89"
   inkscape:export-ydpi="89">
  <defs
     id="defs4796" />
  <sodipodi:namedview
     id="base"
     pagecolor="#bdbdbd"
     bordercolor="#666666"
     borderopacity="1.0"
     inkscape:pageopacity="0"
     inkscape:pageshadow="2"
     inkscape:zoom="0.7"
     inkscape:cx="137.60344"
     inkscape:cy="343.27634"
     inkscape:document-units="px"
     inkscape:current-layer="layer1"
     showgrid="false"
     inkscape:window-width="1304"
     inkscape:window-height="745"
     inkscape:window-x="54"
     inkscape:window-y="-8"
     inkscape:window-maximized="1"
     inkscape:snap-grids="true" />
  <metadata
     id="metadata4799">
    <rdf:RDF>
      <cc:Work
         rdf:about="">
        <dc:format>image/svg+xml</dc:format>
        <dc:type
           rdf:resource="http://purl.org/dc/dcmitype/StillImage" />
        <dc:title></dc:title>
      </cc:Work>
    </rdf:RDF>
  </metadata>
  <g
     inkscape:label="Layer 1"
     inkscape:groupmode="layer"
     id="layer1"
     transform="translate(0,-308.26772)">
    <g
       id="g4198">
      <g
         id="g4190">
        <path
           id="path4813"
           style="fill:#000000"
           d="m 137.4295,585.26631 c -0.75657,-1.97164 -0.1354,-5.8187 1.38033,-8.54904 1.51573,-2.73035 2.50743,-5.82528 2.20372,-6.87763 -0.30371,-1.05234 2.55599,0.29987 6.35489,3.00491 7.86898,5.60321 8.34955,7.39914 3.32463,12.42406 -4.60293,4.60295 -11.4968,4.60174 -13.26357,-0.002 z m 38.65256,-2.33266 c -1.8247,-7.27023 1.9666,-12.32053 9.24913,-12.32053 4.64215,0 5.42023,1.11037 5.42023,7.7352 0,11.47694 -11.99838,15.22738 -14.66936,4.58533 z m 46.0913,19.692 c 11.19978,-8.11308 21.01217,-23.99602 21.01217,-34.01162 0,-13.71543 -21.72804,-29.85673 -40.25505,-29.9046 -6.376,-0.0152 -27.47431,10.9296 -29.06712,15.08039 -0.67583,1.76117 -1.83851,9.60103 -2.58375,17.42189 -1.46515,15.3761 -1.99107,14.42775 18.84238,33.97753 6.79217,6.37369 21.31763,5.21189 32.05137,-2.56359 z m -42.89315,53.8039 c -0.10695,-3.8395 -4.9172,-9.46211 -10.75629,-12.57245 -4.42601,-2.35764 -5.12516,-2.17425 -5.0983,1.33743 0.0601,7.87622 2.75611,14.09326 6.47214,14.92562 5.14164,1.1517 9.46981,-0.55078 9.38245,-3.6906 z M 334.95066,822.1692 c 4.13603,-2.55619 12.04826,-18.90244 15.38283,-26.91844 0.99788,-2.3988 -2.53692,-8.45723 -5.6376,-13.02028 -8.34899,-12.28666 -13.39193,-26.7286 -13.56102,-38.8361 -0.14232,-10.18202 -0.38395,-10.5828 -4.66743,-7.73866 -2.48457,1.6497 -6.93331,7.50774 -9.88606,13.01786 -4.68067,8.73453 -5.18409,11.9639 -3.92859,25.19945 1.41962,14.96563 -0.53178,20.70636 -5.09894,15.00045 -1.24349,-1.55349 -2.90048,-8.89633 -3.68225,-16.31737 -0.78175,-7.42101 -1.86125,-13.93267 -2.39891,-14.47033 -0.53764,-0.53766 -2.22872,3.19846 -3.7579,8.30246 -2.31241,7.71807 -2.14787,11.84316 0.97762,24.50846 2.06689,8.37564 6.32459,18.59342 9.46157,22.70622 3.13697,4.11279 4.72147,8.83717 5.70361,10.20103 1.57645,2.18915 16.10225,1.44973 21.09307,-1.63475 z m 14.90401,-42.28233 c 5.25518,-9.86353 34.11557,-28.4226 50.73848,-62.34697 6.80959,-13.89714 13.03055,-30.98393 18.09635,-48.92593 8.2229,-29.12381 17.24386,-48.25489 13.8457,-66.09313 -2.84784,-14.94941 -31.07353,-81.83413 -61.06203,-92.08251 -30.61261,-10.46167 -62.89324,-15.78279 -94.65372,-15.60271 -31.95979,0.18123 -32.67526,0.41507 -57.57123,18.81896 -6.2693,4.63448 -15.75872,10.81497 -21.08764,13.73448 -5.3289,2.9195 -9.6889,6.35033 -9.6889,7.62408 0,1.33481 1.15893,1.15696 2.73568,-0.4198 4.09943,-4.0994 22.25907,-3.20422 32.60035,1.60702 5.01542,2.33343 12.96603,7.83513 17.66801,12.22605 7.65581,7.14936 8.54904,9.16441 8.54904,19.28611 0,15.19577 -7.5421,28.88964 -22.74099,41.28985 -11.9245,9.72877 -12.35031,9.87221 -25.75552,8.67682 -15.4811,-1.3805 -20.26669,-4.80333 -31.76224,-22.7176 l -7.21957,-11.25072 2.60152,-20.6104 c 1.43082,-11.33574 2.07404,-21.46387 1.42935,-22.507 -0.64469,-1.04312 -5.54927,-1.89658 -10.89907,-1.89658 -7.18183,0 -10.95043,1.34212 -14.40299,5.12942 -9.25596,10.15332 -13.52878,36.07233 -7.73217,46.90341 3.4352,6.41874 12.06107,9.86825 24.72199,9.88634 5.3289,0.007 9.68892,0.95426 9.68892,2.10362 0,1.14938 -1.53883,2.08976 -3.41962,2.08976 -1.88078,0 -3.41961,1.0259 -3.41961,2.27976 0,1.25386 -3.49025,2.27974 -7.75609,2.27974 -6.64991,0 -8.11304,1.02395 -10.25885,7.17942 -3.52476,10.11109 -3.58524,10.03761 7.5348,9.15319 23.76571,-1.89017 49.17728,22.19095 43.45483,41.17969 -3.62532,12.02982 -25.87596,28.54433 -34.17042,25.36144 -3.92369,-1.50565 -4.3613,2.19236 -1.00216,8.46896 2.3302,4.35403 19.49985,14.34803 33.14386,19.29212 10.07964,3.65254 30.52685,4.01227 43.4271,0.76402 15.73846,-3.96291 53.78603,-24.49699 67.41183,-36.38188 6.33355,-5.52435 12.67246,-10.46129 14.08642,-10.97103 2.43972,-0.87947 4.05051,-2.52908 13.37733,-13.6996 3.76982,-4.51503 3.76982,-4.76873 0,-5.09868 -2.18197,-0.19104 -5.2102,-0.45937 -6.72939,-0.59641 -1.51917,-0.13692 -3.99898,-1.48598 -5.51062,-2.99762 -2.14484,-2.14484 -1.89182,-3.07724 1.15193,-4.24524 10.40566,-3.99302 44.73662,9.41589 44.73662,17.47314 0,5.64294 -0.82618,5.54391 -10.90901,-1.30754 -10.66707,-7.24847 -12.14159,-7.16045 -9.54725,0.56994 4.2589,12.69027 3.6971,37.31338 -0.82879,57.20639 -4.89979,21.53637 -1.95964,41.57292 -0.11947,46.85757 0,0 3.11114,4.3698 6.4332,9.22957 7.48452,15.47975 8.07635,20.43006 4.33986,29.03331 -3.28004,6.44102 -7.0677,13.07645 -11.56362,17.91096 -6.81426,7.32744 -16.5507,8.56323 -26.06027,7.93542 -4.43809,-0.293 -6.97231,-2.11833 -8.49261,-6.11698 -4.9054,-6.87323 -12.71682,-18.89605 -16.00188,-26.9196 -2.61881,-7.56722 -4.76146,-15.63529 -4.76146,-17.92905 0,-2.29374 -1.33517,-4.17045 -2.96705,-4.17045 -1.63188,0 -10.34227,-6.02513 -19.35638,-13.38918 -15.8161,-12.92098 -24.93439,-28.16642 -21.30794,-34.03415 2.6535,-4.29347 6.71948,1.01002 11.5946,10.75746 4.18463,8.36686 22.63033,26.31121 29.34818,28.55048 1.23187,0.41064 3.79583,-2.37266 5.69772,-6.18508 3.3508,-6.71682 3.25854,-7.07365 -2.97718,-11.51388 -3.53933,-2.52021 -7.33053,-4.58222 -8.42485,-4.58222 -1.09432,0 -5.40613,-3.12045 -9.58178,-6.9343 -5.83069,-5.32555 -7.38156,-8.3688 -6.68462,-13.11736 l 0.90751,-6.18305 -11.49149,5.54215 c -13.82571,6.66792 -43.49709,9.13982 -57.3711,4.77953 -20.90046,-6.56851 -36.04469,-16.0742 -43.88345,-27.54466 -4.39308,-6.42844 -9.44183,-11.25617 -11.77144,-11.25617 -5.30202,0 -17.58368,-16.77994 -20.66954,-28.23996 -3.3207,-12.33211 -0.85205,-22.87179 6.8812,-29.3789 3.5686,-3.00278 7.26249,-7.93758 8.20865,-10.96621 0.94616,-3.02863 2.99441,-7.34952 4.55164,-9.60198 2.40944,-3.48509 1.88167,-5.04504 -3.54182,-10.46854 -7.26651,-7.26649 -12.31916,-23.0974 -10.41333,-32.62669 2.58931,-12.94655 13.04153,-31.47385 19.69793,-34.916 8.42634,-4.35744 21.44687,-4.33936 25.82207,0.0359 1.88078,1.88078 5.40239,3.41961 7.82581,3.41961 3.47063,0 4.17484,-1.21014 3.31668,-5.69937 -0.60478,-3.16367 -0.0205,-5.69935 1.31345,-5.69935 1.32163,0 14.52126,-7.97596 29.33251,-17.72436 14.81123,-9.74842 29.73219,-18.95094 33.15767,-20.45006 3.67404,-1.60793 16.56587,-2.66968 31.43674,-2.5891 15.69378,0.0851 26.38883,-0.84293 28.33551,-2.4585 1.71979,-1.4273 8.98361,-11.3069 16.14179,-21.95466 7.1582,-10.64776 16.73872,-22.12762 21.2901,-25.5108 4.55135,-3.3832 9.814,-7.76587 11.69478,-9.73926 1.88079,-1.97342 8.0361,-6.68236 13.67847,-10.46437 25.84056,-17.32054 45.54014,-21.87104 65.51852,-15.13444 15.49737,5.22562 20.85983,9.29385 22.97782,17.43213 5.46276,20.99035 -15.10509,43.31907 -60.79492,65.99979 -13.1311,6.51835 -14.91281,10.59297 -22.35031,12.81559 -14.88475,4.0819 -13.68411,-0.96009 -7.86959,-4.5276 1.98088,-1.21537 11.74615,-7.02863 16.55065,-9.64769 9.72855,-5.3033 26.22931,-13.52434 44.52478,-26.10909 17.91199,-12.32101 24.01724,-20.7072 23.08287,-31.70677 -0.99993,-11.77125 -8.77051,-16.94313 -27.74502,-18.46623 -14.23518,-1.14264 -16.07474,-0.69313 -34.15337,8.34621 -13.86652,6.93326 -24.82279,14.88667 -39.94233,28.99509 -11.45897,10.69262 -23.33449,19.26385 -23.33449,20.79318 0,1.52932 -3.10838,7.00733 -6.90753,12.17337 -8.04231,10.93586 -9.57888,9.83469 21.72587,15.56973 19.60661,3.59194 35.74755,7.98532 45.59488,12.41041 9.06024,4.0714 32.97504,38.55549 42.93921,56.38551 6.47789,11.59163 15.07193,31.21159 14.41932,58.31807 -0.14044,5.83314 -14.37445,60.06616 -32.157,97.80733 -7.0112,14.88037 -17.40234,29.07592 -26.75961,39.28149 -7.81837,8.52715 -22.52278,16.58688 -25.40768,22.19164"
           inkscape:connector-curvature="0"
           sodipodi:nodetypes="cssssccsssssscsssscscscssscssscscssssscssssssssssssssscssssscsssssssssssscsccsssssscccssccssssscssssscsssssssssssssssssssssssssscsssssssssssssssc" />
        <path
           style="fill:#ffffff;fill-opacity:1;stroke:#ffffff;stroke-width:1.01015258;stroke-opacity:1"
           d="m 346.52869,464.02554 c -4.76914,-6.9246 -5.47523,-10.27111 -5.51349,-26.13129 -0.0311,-12.90864 0.21042,-15.11151 3.65537,-33.33504 2.38946,-12.64007 2.43772,-38.06669 0.0889,-46.80114 -0.94591,-3.51727 -1.71981,-6.85176 -1.71981,-7.40997 0,-1.03733 4.51543,1.30901 13.81588,7.1791 5.74708,3.62733 7.39732,3.42539 7.39732,-0.9052 0,-5.69917 -12.26368,-13.24942 -28.09898,-17.29941 -9.02499,-2.30821 -15.2385,-2.47547 -17.92243,-0.48246 -3.9362,2.92292 1.82796,7.59415 9.40338,7.62042 2.52516,0.009 4.29315,0.48795 4.29315,1.1636 0,2.23964 -11.20738,14.23416 -18.11229,19.38439 -3.85342,2.87419 -10.76682,8.10707 -15.36311,11.62863 -14.53432,11.13581 -43.32859,26.76047 -59.12072,32.08072 -10.39923,3.50343 -29.27978,4.45478 -40.74402,2.05301 -8.48235,-1.77707 -27.02315,-10.46322 -34.44651,-16.13779 -7.08475,-5.41574 -9.38752,-13.15716 -3.58372,-12.04769 9.49619,1.81531 30.00487,-14.09111 33.96658,-26.34431 3.87742,-11.99245 -7.13271,-29.06423 -23.97188,-37.16969 -6.02702,-2.90108 -8.09912,-3.34469 -17.92641,-3.83785 l -11.11167,-0.55763 0.31707,-2.52538 c 0.1744,-1.38896 1.31082,-4.57094 2.52539,-7.07107 2.19576,-4.51989 2.24746,-4.55142 9.10652,-5.55584 4.77896,-0.69981 7.1995,-1.55324 7.87888,-2.77792 0.53936,-0.97227 2.06766,-1.76776 3.39622,-1.76776 2.8124,0 4.24329,-1.72604 2.70562,-3.26371 -0.58705,-0.58705 -5.43978,-1.43628 -10.78384,-1.88718 -19.40438,-1.63723 -25.07849,-6.9977 -24.98776,-23.6066 0.0741,-13.56754 4.63246,-27.00714 11.31132,-33.34971 2.82819,-2.68578 3.99086,-3.05457 10.69781,-3.39325 4.13862,-0.20899 8.7288,-0.0778 10.20041,0.29156 l 2.67564,0.67154 -0.65858,9.2877 c -0.36222,5.10824 -1.37556,14.85013 -2.25186,21.64866 l -1.59327,12.36095 6.5601,10.01222 c 7.93667,12.11319 12.95806,17.82243 17.88665,20.33681 5.04622,2.57439 15.90419,4.33691 23.6708,3.84237 6.01184,-0.3828 6.90014,-0.77994 14.12923,-6.31699 10.39999,-7.96573 17.12563,-15.72162 21.5206,-24.81712 3.0593,-6.33128 3.73237,-8.93574 4.09619,-15.85053 0.59117,-11.23553 -0.20056,-14.47388 -4.82239,-19.72456 -5.18842,-5.89436 -17.85308,-14.58293 -25.08847,-17.21191 -7.15789,-2.60081 -25.07988,-3.15403 -27.85024,-0.85967 -0.93416,0.77365 -1.97307,1.13204 -2.30868,0.79642 -0.33562,-0.33562 1.83399,-2.10503 4.82136,-3.93202 5.2434,-3.20672 15.78028,-10.22994 36.51834,-24.3408 14.46723,-9.84399 16.5177,-10.30271 45.68738,-10.22089 32.27758,0.0905 53.77035,3.09832 83.24725,11.64997 15.01046,4.35474 21.02479,7.83631 29.97806,17.35369 10.22743,10.87182 18.18566,23.18647 28.21001,43.65248 11.87104,24.23624 14.05566,30.9363 13.99818,42.93148 -0.0519,10.82978 -0.36372,12.16101 -11.12149,47.47717 -12.54519,41.184 -18.5472,56.12016 -28.91058,71.94463 -7.22236,11.02826 -10.38304,14.71826 -27.56816,32.18503 l -14.49363,14.73116 -3.68561,-5.35133 z M 149.18018,278.51143 c 1.88047,-1.26725 3.85299,-3.53803 4.38338,-5.04617 0.82758,-2.35321 0.54295,-3.18562 -2.00697,-5.86964 -1.63422,-1.72016 -4.6202,-3.97587 -6.63551,-5.01269 l -3.66421,-1.88513 -2.14417,5.60306 c -2.57862,6.73835 -2.70761,10.19745 -0.47238,12.66736 2.26564,2.5035 6.41386,2.32372 10.53986,-0.45679 z"
           id="path4180"
           inkscape:connector-curvature="0"
           transform="translate(0,308.26772)" />
        <path
           style="fill:#ffffff;fill-opacity:1;stroke:#ffffff;stroke-width:1.01015258;stroke-opacity:1"
           d="m 200.10306,300.51983 c -0.55558,-0.18408 -2.25218,-0.60838 -3.77021,-0.94289 -3.6474,-0.80373 -17.94375,-13.49613 -22.00776,-19.53864 -3.19778,-4.75459 -3.21093,-4.82728 -2.61364,-14.45778 1.30205,-20.99405 1.81966,-21.90225 16.77486,-29.43346 7.98894,-4.02311 9.15228,-4.32393 16.72164,-4.32393 7.38189,0 8.85338,0.35495 15.88822,3.83253 8.25685,4.08167 16.48783,11.24523 19.47002,16.94508 2.96463,5.66631 2.38492,11.80907 -1.94039,20.56075 -6.14325,12.43001 -17.67015,23.40477 -27.11154,25.81287 -4.66898,1.19087 -10.21458,1.94193 -11.4112,1.54547 z m -12.41239,-21.46116 c 4.3305,-3.80014 4.74186,-14.31394 0.6458,-16.50608 -1.14576,-0.61319 -3.60663,-0.8291 -5.4686,-0.47979 -7.5707,1.42027 -10.17106,11.18986 -4.4904,16.87052 3.21358,3.21358 5.74681,3.24495 9.3132,0.11535 z"
           id="path4182"
           inkscape:connector-curvature="0"
           transform="translate(0,308.26772)" />
        <path
           style="fill:#ffffff;fill-opacity:1;stroke:#ffffff;stroke-width:1.01015258;stroke-opacity:1"
           d="m 168.57498,350.71772 c -3.05474,-1.9413 -6.11638,-16.36411 -3.47374,-16.36411 1.46458,0 8.81196,5.69944 11.10439,8.61379 2.5623,3.25743 2.84182,7.07821 0.58131,7.94565 -2.21117,0.8485 -6.7389,0.74081 -8.21196,-0.19533 z"
           id="path4184"
           inkscape:connector-curvature="0"
           transform="translate(0,308.26772)" />
        <path
           style="fill:#ffffff;fill-opacity:1;stroke:#ffffff;stroke-width:2.02030516;stroke-opacity:1"
           d="m 334.86717,183.38819 c -11.9748,-2.51006 -22.21533,-5.0067 -22.75672,-5.5481 -0.5414,-0.54139 0.71409,-3.1687 2.78997,-5.83846 2.07588,-2.66976 5.0433,-7.30455 6.59428,-10.29953 1.55098,-2.99498 12.82047,-14.14619 25.04332,-24.78047 26.73178,-23.25752 52.29189,-37.461169 67.38051,-37.443066 21.08456,0.0253 32.62459,6.921456 32.62459,19.496006 0,14.26392 -11.38603,24.10826 -59.05177,51.05603 -14.1442,7.99641 -26.24392,15.39195 -26.88827,16.43453 -0.64435,1.04257 -1.79974,1.80361 -2.56754,1.6912 -0.7678,-0.11241 -11.19356,-2.25808 -23.16837,-4.76814 z"
           id="path4186"
           inkscape:connector-curvature="0"
           transform="translate(0,308.26772)" />
        <path
           style="fill:#ffffff;fill-opacity:1;stroke:#ffffff;stroke-width:2.02030516;stroke-opacity:1"
           d="m 273.42608,451.90654 c -4.65419,-3.90278 -12.19969,-12.69295 -16.76776,-19.5337 l -8.3056,-12.43772 4.64594,-2.57852 c 6.54873,-3.63459 7.67639,-3.35269 7.67639,1.91904 0,4.53197 13.25173,19.59217 17.25778,19.61295 1.06431,0.005 4.61901,2.15748 7.89932,4.78214 5.86418,4.69207 5.90575,4.86131 2.47881,10.09149 -1.91697,2.92566 -4.14629,5.30159 -4.95405,5.27984 -0.80776,-0.0217 -5.27663,-3.23273 -9.93083,-7.13552 z"
           id="path4188"
           inkscape:connector-curvature="0"
           transform="translate(0,308.26772)" />
      </g>
      <g
         transform="translate(-288.78469,17.836116)"
         id="g4174">
        <g
           id="g4168">
          <path
             inkscape:connector-curvature="0"
             d="m 757.1076,622.98812 c -12.928,-1.01607 -20.2871,-3.36079 -38.7557,-12.34798 -38.0396,-18.51103 -57.931,-34.3317 -51.3112,-40.81052 1.9733,-1.93124 3.8854,-1.10936 7.5963,3.26523 2.7276,3.21537 10.6112,9.37069 17.5191,13.67846 6.9079,4.30777 14.602,9.12121 17.0981,10.69652 5.0488,3.18639 5.4305,3.3524 25.9369,11.27935 14.2933,5.52515 17.8023,6.01207 39.5845,5.49257 9.7872,-0.23343 10.8288,-0.77588 10.8288,-5.6395 0,-2.95968 -2.553,-9.14331 -5.6734,-13.74139 -3.1203,-4.59809 -7.241,-11.39161 -9.1569,-15.09673 -1.916,-3.70514 -6.4324,-9.75309 -10.0364,-13.43991 -3.604,-3.68683 -6.921,-7.59224 -7.3712,-8.67868 -1.4091,-3.401 -22.9232,-15.57299 -39.574,-22.38978 -14.0746,-5.76206 -18.5654,-6.4978 -38.0459,-6.2331 -12.1481,0.16506 -24.2825,1.47482 -26.9651,2.91051 -2.6826,1.4357 -6.3189,2.05725 -8.0805,1.38125 -4.4082,-1.6916 -1.4926,-8.24096 3.6686,-8.24096 2.2996,0 4.8151,-1.02588 5.59,-2.27974 0.8011,-1.29622 12.2254,-2.27974 26.4807,-2.27974 23.328,0 26.3757,0.53977 43.821,7.76129 27.9694,11.57797 34.2605,16.04425 47.8845,33.99495 13.3996,17.65514 26.5982,40.97785 26.544,46.90474 -0.018,2.01776 -1.3254,6.22172 -2.9042,9.34214 -3.1785,6.28227 -6.38,6.69505 -34.678,4.47102 z"
             style="fill:#000000"
             id="path4142" />
          <path
             inkscape:connector-curvature="0"
             id="path4164"
             d="m 641.78571,533.07649 c 1.84688,4.61719 -0.28835,0.42593 1.42858,2.14286 0.18823,0.18823 0.19742,0.50133 0.35714,0.71429 0.20203,0.26937 0.54105,0.42555 0.71428,0.71428 0.19369,0.32282 0.16346,0.74862 0.35715,1.07143 0.17324,0.28873 0.51225,0.44491 0.71428,0.71429 0.15972,0.21296 0.19743,0.50132 0.35715,0.71428 0.20203,0.26938 0.5275,0.43412 0.71428,0.71429 0.29532,0.44298 0.47619,0.95238 0.71429,1.42857 0.11905,0.23809 0.19742,0.50133 0.35714,0.71428 1.68217,2.2429 -0.3194,-1.12757 1.42857,1.78572 0.27392,0.45653 0.47619,0.95238 0.71429,1.42857 0.23809,0.47619 0.51656,0.93425 0.71428,1.42857 0.13982,0.34954 0.21733,0.72189 0.35715,1.07143 0.19772,0.49432 0.47619,0.95238 0.71428,1.42857 0.11905,0.2381 0.29258,0.45604 0.35714,0.71429 0.0578,0.23098 -0.0467,0.48081 0,0.71428 0.14711,0.73554 0.39683,1.1508 0.71429,1.78572 0.11905,0.23809 0.27296,0.46175 0.35714,0.71428 0.0376,0.11294 -0.0376,0.24421 0,0.35715 0.16836,0.50507 0.54593,0.92349 0.71429,1.42857 0.0376,0.11294 -0.0376,0.2442 0,0.35714 0.16836,0.50508 0.47619,0.95238 0.71428,1.42857 0.11905,0.2381 0.29259,0.45604 0.35715,0.71429 0.0577,0.23098 -0.0578,0.4833 0,0.71428 0.0646,0.25825 0.25828,0.46713 0.35714,0.71429 0.13982,0.34953 0.26584,0.70621 0.35714,1.07143 0.0289,0.11549 -0.0532,0.25066 0,0.35714 0.0753,0.15059 0.28185,0.20656 0.35715,0.35714 0.16836,0.33672 0.21732,0.7219 0.35714,1.07143 0.0989,0.24716 0.27296,0.46175 0.35714,0.71429 0.35439,1.06315 -0.84567,-0.73279 0.35714,1.07143 0.0934,0.14008 0.28186,0.20655 0.35715,0.35714 0.0532,0.10648 -0.0532,0.25066 0,0.35714 0.0753,0.15059 0.28185,0.20656 0.35714,0.35714 0.0532,0.10648 -0.0842,0.27297 0,0.35715 0.0842,0.0842 0.27296,-0.0842 0.35714,0 0.0842,0.0842 -0.0842,0.27296 0,0.35714 0.0842,0.0842 0.27297,-0.0842 0.35715,0 0.0842,0.0842 -0.0532,0.25066 0,0.35714 0.0753,0.15059 0.23809,0.2381 0.35714,0.35715 0.11905,0.11904 0.20656,0.28185 0.35714,0.35714 0.10648,0.0532 0.27297,-0.0842 0.35714,0 0.0842,0.0842 -0.0842,0.27296 0,0.35714 0.16836,0.16836 0.54593,-0.16836 0.71429,0 0.73894,0.73894 -1.1292,-0.0289 0.35714,0.71429 0.10648,0.0532 0.25067,-0.0532 0.35715,0 0.15058,0.0753 0.20655,0.28185 0.35714,0.35714 0.10648,0.0532 0.27296,-0.0842 0.35714,0 0.0842,0.0842 -0.0842,0.27296 0,0.35714 0.0842,0.0842 0.27297,-0.0842 0.35714,0 0.0842,0.0842 -0.0842,0.27297 0,0.35715 0.0842,0.0842 0.27297,-0.0842 0.35715,0 0.73894,0.73894 -1.1292,-0.0289 0.35714,0.71428 0.10648,0.0532 0.25066,-0.0532 0.35714,0 0.15059,0.0753 0.20656,0.28185 0.35715,0.35714 0.10648,0.0532 0.27296,-0.0842 0.35714,0 0.73894,0.73895 -1.1292,-0.0289 0.35714,0.71429 0.10648,0.0532 0.25067,-0.0532 0.35714,0 0.30117,0.15059 0.41312,0.5637 0.71429,0.71429 0.10648,0.0532 0.27296,-0.0842 0.35714,0 0,0.5255 -0.0842,0.27296 0.35715,0.71428"
             style="fill:#ffffff;fill-rule:evenodd;stroke:#ffffff;stroke-width:1px;stroke-linecap:butt;stroke-linejoin:miter;stroke-opacity:1" />
        </g>
        <path
           style="fill:#ffffff;fill-opacity:1;stroke:#ffffff;stroke-width:0.35714287;stroke-opacity:1"
           d="m 755.83917,305.68822 c -4.32982,-0.33964 -8.16425,-1.10987 -12.67857,-2.54677 -4.87997,-1.55329 -23.10157,-8.6412 -27.41378,-10.66352 -4.58059,-2.14819 -25.67697,-15.31012 -31.57603,-19.70014 -2.42168,-1.80219 -6.33162,-5.15235 -8.68876,-7.44481 -5.70635,-5.54976 -6.45923,-5.89436 -8.47465,-3.87895 l -1.09828,1.09828 -0.81257,-0.83042 c -1.40645,-1.43733 -12.43611,-19.61417 -13.86982,-22.8574 -1.29769,-2.93553 -2.73772,-5.36478 -5.19377,-8.76157 -0.59764,-0.82657 -1.08663,-1.64353 -1.08663,-1.81548 0,-0.17195 -0.47767,-0.78138 -1.0615,-1.3543 -1.32246,-1.29773 -1.33972,-1.57431 -0.0992,-1.58904 0.54018,-0.006 1.86607,-0.3422 2.94643,-0.7462 5.99144,-2.2405 12.32178,-3.09268 25.98833,-3.49852 10.75969,-0.31951 20.68568,0.0266 25.0831,0.87453 8.9387,1.7237 24.79149,8.40963 40,16.87006 9.34056,5.19612 14.05555,8.54846 15.89704,11.30276 0.66786,0.9989 3.286,4.09249 5.8181,6.87466 6.66367,7.32178 8.27318,9.55884 13.44805,18.69151 0.94607,1.66965 3.20707,5.36607 5.02444,8.21429 5.3865,8.44182 7.31237,12.8659 7.31237,16.79793 0,4.24251 -0.77686,4.61883 -10.35714,5.01713 -8.28765,0.34455 -14.2405,0.32772 -19.10715,-0.054 z"
           id="path4172"
           inkscape:connector-curvature="0"
           transform="translate(0,308.26772)" />
      </g>
    </g>
  </g>
</svg>
