<?xml version="1.0" encoding="UTF-8" standalone="no"?>
<!-- Created with Inkscape (http://www.inkscape.org/) -->

<svg
   xmlns:dc="http://purl.org/dc/elements/1.1/"
   xmlns:cc="http://creativecommons.org/ns#"
   xmlns:rdf="http://www.w3.org/1999/02/22-rdf-syntax-ns#"
   xmlns:svg="http://www.w3.org/2000/svg"
   xmlns="http://www.w3.org/2000/svg"
   xmlns:sodipodi="http://sodipodi.sourceforge.net/DTD/sodipodi-0.dtd"
   xmlns:inkscape="http://www.inkscape.org/namespaces/inkscape"
   width="210mm"
   height="297mm"
   viewBox="0 0 744.09448819 1052.3622047"
   id="svg4914"
   version="1.1"
   inkscape:version="0.91 r13725"
   sodipodi:docname="logo.svg">
  <defs
     id="defs4916" />
  <sodipodi:namedview
     id="base"
     pagecolor="#ffffff"
     bordercolor="#666666"
     borderopacity="1.0"
     inkscape:pageopacity="0.0"
     inkscape:pageshadow="2"
     inkscape:zoom="0.49497475"
     inkscape:cx="391.311"
     inkscape:cy="592.25759"
     inkscape:document-units="px"
     inkscape:current-layer="layer1"
     showgrid="false"
     inkscape:window-width="1304"
     inkscape:window-height="745"
     inkscape:window-x="54"
     inkscape:window-y="-8"
     inkscape:window-maximized="1" />
  <metadata
     id="metadata4919">
    <rdf:RDF>
      <cc:Work
         rdf:about="">
        <dc:format>image/svg+xml</dc:format>
        <dc:type
           rdf:resource="http://purl.org/dc/dcmitype/StillImage" />
        <dc:title></dc:title>
      </cc:Work>
    </rdf:RDF>
  </metadata>
  <g
     inkscape:label="Layer 1"
     inkscape:groupmode="layer"
     id="layer1">
    <path
       style="fill:#000000"
       d="m 332.71884,372.98449 c -12.89852,-2.76427 -32.80032,-13.06671 -42.19538,-21.84301 -1.65932,-1.55003 -4.28805,-3.47555 -5.84163,-4.27894 -1.55357,-0.80338 -2.83331,-1.78664 -2.84386,-2.18502 -0.0106,-0.39838 -1.60861,-2.52432 -3.55124,-4.72432 -6.14361,-6.95756 -13.84406,-20.56948 -13.88909,-24.55147 l -0.0405,-3.58 -9.45345,-1.27172 c -6.26823,-0.84323 -10.27268,-1.91612 -11.88486,-3.18426 -1.33727,-1.0519 -3.2241,-1.91255 -4.19296,-1.91255 -2.05057,0 -7.63542,-6.02836 -9.13561,-9.86109 -1.2683,-3.2403 -1.18377,-12.12297 0.16296,-17.12435 0.54957,-2.04095 1.20625,-14.01667 1.45928,-26.61269 0.56187,-27.96964 1.90166,-47.73459 3.55213,-52.40187 3.18047,-8.9939 11.08287,-12.4209 28.49251,-12.35624 21.13942,0.0785 54.67628,1.49152 70,2.94929 1.65,0.15697 5.925,0.55057 9.5,0.87468 3.575,0.3241 22.025,0.78515 41,1.02456 18.975,0.2394 37.2,0.68971 40.5,1.0007 20.25358,1.90864 47.89664,6.62652 52.36505,8.93722 3.88741,2.01026 8.20675,6.57703 9.8103,10.37229 2.55534,6.04791 0.3533,67.73156 -2.70511,75.77578 -0.53363,1.40356 -0.97024,3.88386 -0.97024,5.51178 0,3.44012 -5.62136,15.04891 -9.39893,19.40994 -1.42924,1.65 -2.59918,3.3375 -2.59985,3.75 -6.7e-4,0.4125 -0.66095,0.75 -1.46729,0.75 -0.80634,0 -2.94384,0.63564 -4.75,1.41254 -1.80616,0.77689 -5.98393,1.99079 -9.28393,2.69754 -5.86343,1.25577 -6.31988,1.60489 -20.05298,15.33747 -23.07505,23.07417 -27.1667,26.39731 -37.18129,30.19779 -3.72115,1.41215 -7.21573,2.65669 -7.76573,2.76565 -0.55,0.10896 -2.575,0.71173 -4.5,1.3395 -6.38614,2.08259 -10.34432,2.45422 -29,2.72281 -11.7004,0.16844 -20.57234,-0.17779 -24.13831,-0.94201 z m 46.13831,-3.98103 c 8.73185,-1.68056 22.17715,-6.70802 27.14283,-10.14924 5.09585,-3.53143 10.65636,-8.65849 25.62792,-23.63017 l 12.27075,-12.27085 -3.27075,-0.68681 c -1.79891,-0.37775 -11.37075,-0.93762 -21.27075,-1.24415 -9.9,-0.30653 -20.25,-0.78007 -23,-1.0523 -5.9712,-0.5911 -17.96989,-1.2543 -37,-2.04508 -7.7,-0.31997 -16.475,-0.98114 -19.5,-1.46927 -9.21083,-1.48631 -24.67814,-2.32136 -41.37067,-2.23353 -8.72887,0.0459 -18.96637,-0.24726 -22.75,-0.65154 l -6.87933,-0.73505 0,3.0007 c 0,3.4469 6.44642,14.89842 12.16891,21.61703 10.41161,12.22398 31.1787,25.75943 46.83109,30.5233 3.025,0.92067 5.95,1.84237 6.5,2.04822 1.62694,0.60892 40.68756,-0.28751 44.5,-1.02126 z m 77.5,-51.61671 c 2.2,-0.58467 5.18648,-1.3714 6.63663,-1.74829 7.03525,-1.82846 12.03244,-8.84297 15.91988,-22.34662 1.16196,-4.03625 2.5666,-8.91364 3.12141,-10.83864 0.55482,-1.925 1.35998,-17.45 1.78925,-34.5 0.8677,-34.46376 0.81669,-34.84856 -5.33655,-40.25117 -3.88128,-3.40781 -3.94949,-3.43255 -15.63062,-5.66917 -24.76583,-4.742 -41.8353,-6.49421 -64,-6.56974 -33.55757,-0.11435 -59.88359,-1.23523 -74.5,-3.17197 -4.4,-0.58302 -15.875,-1.20814 -25.5,-1.38914 -9.625,-0.18101 -22.04248,-0.63943 -27.5944,-1.01871 -18.05843,-1.23366 -29.76299,2.39434 -33.04188,10.24181 -1.96861,4.71156 -3.50214,24.967 -3.88997,51.38024 -0.22778,15.51228 -0.75887,23.25946 -1.89511,27.64435 -2.54905,9.83714 -2.05634,13.09244 2.94036,19.42649 2.44441,3.09866 4.35216,4.16476 12.05224,6.73511 5.77984,1.92935 16.96918,3.55103 22.85787,3.3128 1.61101,-0.0652 3.53586,0.38507 4.27745,1.00053 0.87086,0.72275 8.68659,1.22598 22.07089,1.42108 11.3974,0.16613 24.09755,0.56696 28.22255,0.89073 16.5121,1.29604 20.56307,1.67725 22,2.0703 0.825,0.22566 9.15,0.66689 18.5,0.9805 9.35,0.31361 18.8,0.76926 21,1.01254 2.2,0.24328 13.45,0.70741 25,1.03139 11.55,0.32398 23.25,0.96866 26,1.43262 5.58589,0.9424 12.97788,0.52338 19,-1.07704 z m -171.65753,-13.614 c -0.0866,-1.00075 -0.0909,-2.49455 -0.009,-3.31955 0.0815,-0.825 0.38525,-5.775 0.67507,-11 0.28981,-5.225 0.96014,-13.55 1.48961,-18.5 0.86771,-8.11213 2.19152,-29.55851 3.51842,-57 0.66937,-13.84314 1.524,-19.5 2.94601,-19.5 2.04989,0 2.16138,0.69985 1.38876,8.71714 -0.41252,4.28057 -1.00783,15.65786 -1.32291,25.28286 -0.77889,23.79271 -1.36435,33.85968 -2.5984,44.67905 -0.57582,5.04848 -1.15841,14.27348 -1.29464,20.5 -0.23632,10.80132 -0.34838,11.33562 -2.44133,11.6405 -1.53139,0.22308 -2.2412,-0.22976 -2.35117,-1.5 z m 146.69833,-20.14239 c -2.54425,-0.20746 -4.82499,-1.18863 -6.3818,-2.74543 -2.24333,-2.24333 -2.38198,-2.95945 -1.87366,-9.67717 1.08122,-14.28915 2.92596,-29.28503 3.8124,-30.99099 0.49624,-0.95504 0.90226,-3.26244 0.90226,-5.12756 0,-4.98345 1.8032,-6.02155 8.20032,-4.72095 2.91482,0.59261 7.03558,1.28976 9.15723,1.54922 4.28063,0.52347 11.07138,4.14222 14.14367,7.53706 3.01088,3.327 2.83876,12.3718 -0.27697,14.55414 l -2.27575,1.594 2.94834,2.75415 c 3.91583,3.65794 4.77524,8.55684 2.63273,15.00735 -1.68818,5.08262 -6.15247,9.96252 -9.3563,10.22732 -3.79525,0.31368 -17.95027,0.33911 -21.63247,0.0389 z m 23.16402,-4.66351 c 1.93853,-0.66967 5.29518,-8.14136 5.29518,-11.78672 0,-3.42286 -3.43233,-7.70686 -7.25,-9.04895 -2.54125,-0.89337 -2.1438,-3.57776 0.6892,-4.65486 4.7236,-1.79591 5.54504,-7.88056 1.67649,-12.4183 -2.55135,-2.9927 -9.49129,-5.62176 -16.58942,-6.2846 l -6.52627,-0.60943 0,5.64461 c 0,4.35076 -0.34383,5.6446 -1.5,5.6446 -0.825,0 -1.5,0.61057 -1.5,1.35681 0,0.74625 -0.49927,7.32164 -1.10949,14.61198 -1.46792,17.53723 -1.32671,17.84684 8.31771,18.23656 7.79926,0.31516 16.52678,-0.0112 18.4966,-0.6917 z m -13.00567,-5.54761 c -5.32917,-0.93623 -5.96631,-1.88862 -4.36755,-6.52859 1.15748,-3.35925 1.83052,-3.98424 4.58333,-4.25609 6.09207,-0.6016 9.72817,3.87996 7.11285,8.76673 -1.28939,2.40926 -2.77412,2.81808 -7.32863,2.01795 z m 4.09992,-5.17295 c 0.18938,-0.97596 -0.63578,-1.71988 -2.25,-2.02846 -1.95902,-0.37449 -2.54907,-0.0757 -2.54907,1.29071 0,3.02931 4.22825,3.67931 4.79907,0.73775 z m -7.19119,-20.37255 c -0.76098,-1.98308 0.29836,-6.42054 1.53275,-6.42054 0.5081,0 1.28609,0.97932 1.72887,2.17626 l 0.80505,2.17626 0.59185,-2.26323 c 0.68016,-2.60095 3.4168,-2.54596 5.08438,0.10217 0.81586,1.29561 0.62915,2.17324 -0.79781,3.75 -2.27387,2.51261 -8.04612,2.82175 -8.94509,0.47908 z M 263.86902,281.2032 c 0.0135,-2.54934 2.39677,-11.98414 3.46319,-13.70965 0.50846,-0.8227 1.06556,-0.83656 2.01321,-0.0501 1.07892,0.89542 1.0653,2.00735 -0.0772,6.29856 -0.76305,2.86614 -1.39271,5.37613 -1.39924,5.57775 -0.007,0.20161 1.13853,0.14666 2.54458,-0.12212 2.67157,-0.51071 5.90773,1.69546 4.89372,3.33616 -0.31251,0.50566 -3.01665,0.91938 -6.00919,0.91938 -4.97935,0 -5.43997,-0.1909 -5.42911,-2.25 z m -15.01187,0.59617 c 0,-0.44026 0.76213,-4.34709 1.69362,-8.68183 1.5676,-7.29494 1.94364,-8.00058 5.05387,-9.48375 4.2695,-2.03598 6.6271,-0.75591 7.07879,3.84347 0.49011,4.99066 -1.52233,7.9037 -5.94922,8.61159 -3.13276,0.50095 -3.81854,1.04404 -4.07212,3.22482 -0.27039,2.32532 -3.80494,4.63438 -3.80494,2.4857 z m 10.0222,-10.34617 c 1.42185,-2.25172 1.17211,-6 -0.39976,-6 -1.79625,0 -3.30143,1.87281 -4.11709,5.12266 -0.55653,2.21737 -0.33663,2.5938 1.45712,2.4944 1.16191,-0.0644 2.53879,-0.79206 3.05973,-1.61706 z m 133.25946,10.38538 c -0.67009,-0.29202 -1.51377,-2.10569 -1.87484,-4.03037 -0.47447,-2.52915 -1.38438,-3.78219 -3.28166,-4.51921 -5.54151,-2.15265 -6.84796,-1.95958 -9.54883,1.41122 -1.43356,1.78914 -3.06744,3.81548 -3.63083,4.50298 -1.33299,1.62662 -8.74486,1.5825 -11.9455,-0.0711 -3.52008,-1.81864 -3.09784,-5.65458 1.74288,-15.83355 6.2351,-13.11103 7.25712,-15.53828 7.25712,-17.23531 0,-2.3913 8.73348,-13.39012 11.27673,-14.20175 3.08688,-0.98512 9.69605,-0.63809 12.904,0.67755 2.15892,0.88541 3.08353,2.42552 4.75,7.91203 1.1381,3.74693 2.06927,7.93545 2.06927,9.30781 0,1.37237 1.57071,7.37751 3.49046,13.34477 3.98622,12.39055 4.07242,13.10092 1.95619,16.12225 -1.10265,1.57425 -2.48083,2.17776 -4.75,2.08002 -1.75816,-0.0757 -4.54665,0.1326 -6.19665,0.46295 -1.65,0.33036 -3.54825,0.36173 -4.21834,0.0697 z m 12.71834,-6.96099 c 0,-0.72083 -1.32479,-5.2737 -2.94399,-10.11749 -1.61919,-4.8438 -3.37689,-11.5069 -3.906,-14.8069 -1.13829,-7.09941 -3.90306,-14.44495 -5.50859,-14.6354 -3.50919,-0.41626 -9.42068,0.44333 -11.26301,1.63775 -1.16687,0.75651 -2.72761,3.42797 -3.46831,5.93656 -0.7407,2.5086 -1.86235,4.56109 -2.49256,4.56109 -0.6302,0 -1.92248,2.1375 -2.87172,4.75 -0.94924,2.6125 -3.28791,8.04122 -5.19704,12.06382 -4.09639,8.63119 -4.09889,11.54306 -0.0103,12.01114 2.92832,0.33524 6.66157,-2.10677 6.66157,-4.3575 0,-1.65544 2.71782,-3.79837 5.34753,-4.2164 2.82954,-0.4498 10.71528,1.67901 12.78769,3.45211 0.89938,0.76949 1.8886,2.66591 2.19827,4.21429 0.56205,2.81026 0.57195,2.81346 5.61478,1.81637 2.99114,-0.59143 5.05168,-1.53343 5.05168,-2.30944 z m -23.48573,-15.7903 c -1.6693,-1.22062 -1.72822,-1.70334 -0.55398,-4.53822 1.35232,-3.26478 5.03971,-6.20906 5.03971,-4.02406 0,0.62819 0.62017,0.90419 1.37814,0.61332 2.06454,-0.79223 3.62186,1.31804 3.62186,4.90788 0,4.4056 -5.29715,6.10384 -9.48573,3.04108 z m 5.48573,-4.07507 c 0,-0.79254 -0.45,-1.7191 -1,-2.05902 -0.55,-0.33992 -1,0.30852 -1,1.44098 0,1.13246 0.45,2.05902 1,2.05902 0.55,0 1,-0.64844 1,-1.44098 z m -62.37826,18.56805 c -2.72948,-2.84897 -2.80687,-3.20223 -2.03603,-9.2943 0.44072,-3.48302 0.82673,-8.79859 0.8578,-11.81237 l 0.0565,-5.4796 -4.63316,-0.67079 c -2.54823,-0.36893 -5.84294,-1.46347 -7.32157,-2.4323 -2.51434,-1.64747 -2.64518,-2.09096 -2.02068,-6.84961 0.36725,-2.79846 1.42782,-6.42208 2.35683,-8.0525 1.55918,-2.73639 2.07099,-2.94323 6.65384,-2.68914 2.73061,0.1514 6.59294,0.69926 8.58295,1.21746 1.99002,0.51821 7.32961,1.16858 11.86576,1.44527 11.80502,0.72007 14.2985,1.30105 16.24379,3.7848 3.63426,4.64022 1.21372,13.70601 -3.65946,13.70601 -1.27507,0 -3.68908,0.27416 -5.36449,0.60924 -3.36617,0.67323 -3.67162,1.76619 -4.72053,16.89076 -0.65142,9.39303 -2.50776,11.89961 -9.10499,12.2943 -4.33968,0.25963 -5.25349,-0.0546 -7.75655,-2.66723 z m 11.15244,-2.37707 c 0.5605,-0.6875 1.34348,-6.5204 1.73997,-12.96199 0.65708,-10.67522 0.92258,-11.84415 2.99922,-13.20481 1.25307,-0.82105 3.45018,-1.73815 4.88247,-2.03801 1.43229,-0.29985 3.72916,-0.77876 5.10416,-1.06424 2.5652,-0.53259 3.37753,-3.55075 1.67661,-6.22942 -0.86804,-1.36704 -8.30812,-2.92391 -17.67661,-3.69892 -3.3,-0.273 -9.03165,-0.78606 -12.737,-1.14015 -7.54538,-0.72105 -7.96034,-0.39419 -8.15764,6.42564 -0.11252,3.88946 -0.17062,3.85623 10.06694,5.75756 3.4507,0.64087 4.49429,5.51497 3.41327,15.94176 -0.7559,7.2909 -0.65972,9.38224 0.51566,11.21258 1.60827,2.50444 6.46226,3.09835 8.17295,1 z m -69.7163,-40.18026 c -0.9479,-1.14215 -0.78437,-1.64575 0.81181,-2.5 2.83169,-1.51548 3.13031,-1.37904 3.13031,1.43026 0,2.7745 -2.06274,3.33425 -3.94212,1.06974 z m -6.37038,-0.21557 c -1.54048,-1.54049 -0.6474,-4.35417 1.38205,-4.35417 1.55552,0 1.99018,0.5394 1.75,2.17167 -0.33186,2.2553 -1.9392,3.37534 -3.13205,2.1825 z m -5.61936,-5.10417 c 0.12038,-1.5125 -0.11058,-3.51595 -0.51324,-4.45211 -0.86575,-2.01279 0.0259,-3.79789 1.89713,-3.79789 1.79851,0 2.65228,2.49569 1.31221,3.83576 -0.77263,0.77263 -0.71862,1.51428 0.19002,2.60912 1.56011,1.87982 0.68016,4.55512 -1.49824,4.55512 -1.13922,0 -1.54306,-0.8002 -1.38788,-2.75 z m 18.59829,1.32311 c -0.76254,-1.98714 2.06489,-4.24179 3.50873,-2.79795 1.38085,1.38085 0.34634,4.22484 -1.53679,4.22484 -0.78341,0 -1.67079,-0.6421 -1.97194,-1.42689 z m 0.69031,-7.08584 c -0.81718,-2.12953 1.667,-5.05443 2.78968,-3.2846 1.34493,2.12019 0.96669,4.79733 -0.6778,4.79733 -0.84227,0 -1.79261,-0.68073 -2.11188,-1.51273 z m -15.17629,-3.66995 c 0.35204,-2.40461 5.57366,-4.46321 7.19878,-2.83809 0.56955,0.56955 1.68854,0.51969 2.90114,-0.12928 2.34053,-1.25262 3.75579,0.29575 2.98043,3.26075 -0.59353,2.26968 -3.08945,2.4994 -3.91045,0.35991 -0.50742,-1.32231 -0.7714,-1.28846 -1.94961,0.25 -1.18939,1.55305 -1.4904,1.58859 -2.36642,0.27939 -0.67362,-1.00672 -1.00873,-1.08893 -1.01901,-0.25 -0.008,0.6875 -0.94661,1.25 -2.08486,1.25 -1.55822,0 -1.9906,-0.53928 -1.75,-2.18268 z m 225.81955,83.2417 c 0,-0.51754 0.45,-1.2191 1,-1.55902 0.55,-0.33992 1,0.0835 1,0.94098 0,0.85746 -0.45,1.55902 -1,1.55902 -0.55,0 -1,-0.42344 -1,-0.94098 z M 444.73873,193.7032 c -0.0651,-0.4125 -0.0569,-1.11218 0.0183,-1.55485 0.34571,-2.03533 -10.94332,-14.93946 -16.29849,-18.63028 -2.25575,-1.55469 -6.12637,-4.72444 -8.60137,-7.04388 -7.55193,-7.07729 -27.06317,-15.26411 -39.5,-16.574 -2.75,-0.28964 -6.9357,-1.02368 -9.30155,-1.6312 -6.65972,-1.71013 -25.85186,-0.37991 -40.19845,2.78619 -23.65198,5.21966 -33.88268,9.87683 -43.25,19.68808 -3.7125,3.88843 -6.75,7.6639 -6.75,8.38991 0,0.72602 -0.3375,1.32288 -0.75,1.32635 -0.4125,0.003 -1.5333,1.38263 -2.49067,3.06479 -1.77793,3.12392 -3.75933,3.17582 -3.75933,0.0985 0,-2.12959 8.09542,-13.30029 13.64817,-18.83284 2.28149,-2.27319 6.10649,-5.27075 8.5,-6.66125 4.67283,-2.71467 20.79922,-8.42587 27.35183,-9.68671 2.2,-0.42332 6.475,-1.30352 9.5,-1.95601 3.025,-0.65249 7.525,-1.37936 10,-1.61528 2.475,-0.23592 7.91608,-0.77834 12.09128,-1.20538 8.02905,-0.82123 26.50606,1.65919 39.40872,5.29036 9.16953,2.58056 21.60544,9.20572 27.60374,14.70574 2.96794,2.7214 6.56212,5.47535 7.98706,6.1199 1.42494,0.64454 4.35835,3.2165 6.51869,5.71546 2.16033,2.49895 5.71947,6.476 7.9092,8.83787 5.25079,5.66362 5.89275,6.91789 4.43786,8.67093 -1.26595,1.52537 -3.87378,1.97184 -4.07497,0.69764 z"
       id="path4933"
       inkscape:connector-curvature="0" />
  </g>
</svg>
