<?xml version="1.0" encoding="UTF-8" standalone="no"?>
<!-- Created with Inkscape (http://www.inkscape.org/) -->

<svg
   xmlns:dc="http://purl.org/dc/elements/1.1/"
   xmlns:cc="http://creativecommons.org/ns#"
   xmlns:rdf="http://www.w3.org/1999/02/22-rdf-syntax-ns#"
   xmlns:svg="http://www.w3.org/2000/svg"
   xmlns="http://www.w3.org/2000/svg"
   xmlns:sodipodi="http://sodipodi.sourceforge.net/DTD/sodipodi-0.dtd"
   xmlns:inkscape="http://www.inkscape.org/namespaces/inkscape"
   width="210mm"
   height="297mm"
   viewBox="0 0 744.09448819 1052.3622047"
   id="svg4893"
   version="1.1"
   inkscape:version="0.91 r13725"
   sodipodi:docname="problem.svg">
  <defs
     id="defs4895" />
  <sodipodi:namedview
     id="base"
     pagecolor="#ffffff"
     bordercolor="#666666"
     borderopacity="1.0"
     inkscape:pageopacity="0.0"
     inkscape:pageshadow="2"
     inkscape:zoom="0.49497475"
     inkscape:cx="387.25071"
     inkscape:cy="609.79976"
     inkscape:document-units="px"
     inkscape:current-layer="layer1"
     showgrid="false"
     inkscape:window-width="1304"
     inkscape:window-height="745"
     inkscape:window-x="54"
     inkscape:window-y="-8"
     inkscape:window-maximized="1" />
  <metadata
     id="metadata4898">
    <rdf:RDF>
      <cc:Work
         rdf:about="">
        <dc:format>image/svg+xml</dc:format>
        <dc:type
           rdf:resource="http://purl.org/dc/dcmitype/StillImage" />
        <dc:title></dc:title>
      </cc:Work>
    </rdf:RDF>
  </metadata>
  <g
     inkscape:label="Layer 1"
     inkscape:groupmode="layer"
     id="layer1">
    <path
       style="fill:#000000"
       d="m 315.42858,388.69832 c 0,-1.94512 0.50659,-3 1.4407,-3 1.25277,0 1.25357,-0.35872 0.006,-2.75 -0.789,-1.5125 -1.43731,-3.27037 -1.4407,-3.90638 -0.004,-0.66456 -0.85973,-0.93317 -2.0131,-0.63155 -4.47372,1.16994 -9.9929,-3.41901 -9.9929,-8.30878 0,-2.80172 3.08411,-7.48477 5.54554,-8.4206 1.59311,-0.6057 2.32444,-1.5523 2.09142,-2.70704 -0.19707,-0.97661 -0.706,-3.70361 -1.13094,-6.06 -0.72917,-4.04339 -0.87358,-4.19299 -2.56766,-2.65987 -0.98727,0.89347 -2.61478,1.38531 -3.6167,1.09299 -1.00191,-0.29233 -4.93322,-0.81286 -8.73623,-1.15674 -3.80301,-0.34388 -9.20301,-1.49504 -12,-2.55813 -2.79699,-1.06309 -5.12632,-1.93312 -5.17629,-1.9334 -0.52623,-0.003 -8.94231,8.88359 -10.12998,10.6962 -1.47921,2.25756 -1.41843,2.5485 1.07655,5.1527 3.02882,3.1614 3.4684,7.65627 1.18128,12.07908 -2.29311,4.43438 -6.25939,5.24615 -12.09722,2.47591 -3.18413,-1.51096 -3.51861,-1.48444 -6.3055,0.5 -4.02499,2.86605 -6.44984,2.63545 -10.59947,-1.00798 -3.00298,-2.63665 -3.5348,-3.74173 -3.5348,-7.34501 0,-2.97143 0.59885,-4.78338 2,-6.0514 2.05035,-1.85554 2.70172,-4.5 1.10841,-4.5 -1.13657,0 -2.27206,-4.41899 -1.58556,-6.17054 0.28658,-0.7312 2.14457,-2.38438 4.12887,-3.67372 3.56788,-2.31831 7.34397,-2.5478 11.58985,-0.70437 1.23249,0.53511 1.93342,0.21427 2.39788,-1.09762 0.36097,-1.01956 1.75784,-3.3427 3.10415,-5.16252 l 2.44784,-3.30878 -8.0845,-7.83844 c -7.81776,-7.57983 -8.20035,-7.81232 -11.59593,-7.04649 -6.24206,1.40781 -17.67143,0.90947 -22.49104,-0.98066 -2.48599,-0.97493 -6.54497,-2.09581 -9.01997,-2.49083 -5.58802,-0.89188 -8.53403,-2.71389 -11.044,-6.83036 -2.3276,-3.81737 -2.52362,-6.69567 -0.456,-6.69567 0.825,0 1.5,0.6973 1.5,1.54957 0,1.85177 6.74192,9.04185 7.63802,8.14574 0.34372,-0.34372 1.41899,-0.19998 2.38949,0.31941 2.43039,1.30071 10.41711,2.30886 16.7288,2.11166 3.78075,-0.11812 5.18435,0.19199 5,1.1047 -0.37551,1.85904 7.72686,1.03472 13.16403,-1.33929 3.55279,-1.55123 11.5332,-7.13872 14.07966,-9.85788 0.8448,-0.90209 6.16329,-3.83779 13.5,-7.45172 5.34332,-2.63202 8.53835,-3.52311 13.5,-3.76513 6.03187,-0.29423 6.47515,-0.17302 6.15493,1.68294 -0.46807,2.71293 -0.15136,2.58975 -7.29682,2.83805 -6.36201,0.22108 -10.7535,1.78154 -17.85811,6.34564 -7.4251,4.77 -16.94224,11.85316 -16.97045,12.63031 -0.0163,0.44769 3.53006,4.31665 7.88069,8.59768 9.10019,8.95459 15.44002,12.48844 20.65087,11.51088 3.04658,-0.57154 3.43889,-0.40146 3.43889,1.4909 0,3.0705 4.02239,4.39118 14.17977,4.65568 4.77388,0.12431 9.13245,0.50579 9.68573,0.84773 1.38695,0.85719 -0.33819,-4.96315 -2.40687,-8.12035 -1.7518,-2.67359 -1.33113,-5.29652 0.84947,-5.29652 1.34226,0 3.65864,3.91493 3.72583,6.29705 0.0187,0.66162 0.90339,3.00295 1.96607,5.20295 1.06268,2.2 1.94741,4.78104 1.96607,5.73565 0.0187,0.95461 0.56794,3.73227 1.22063,6.17258 1.31283,4.90853 0.17782,7.59177 -3.21132,7.59177 -2.67103,0 -4.21129,5.21818 -2.33215,7.90102 1.77966,2.54082 4.57461,2.67409 8.42171,0.40155 3.5999,-2.12651 4.22648,-1.53489 2.68883,2.53881 -1.48699,3.9395 -0.31577,6.2307 3.7394,7.31522 4.31916,1.15513 8.50683,-1.68293 8.50683,-5.76522 0,-1.90187 -0.60216,-3.40847 -1.5,-3.75301 -2.3892,-0.91682 -1.74848,-3.32525 1.5,-5.63837 1.65,-1.1749 3,-2.75545 3,-3.51233 0,-2.70153 -4.57105,-6.73259 -8.3501,-7.36368 -2.05512,-0.34319 -3.69303,-0.84899 -3.63981,-1.12399 0.0532,-0.275 -0.59651,-2.15924 -1.44384,-4.1872 -2.25565,-5.39853 -3.25145,-17.77129 -1.51658,-18.8435 1.89488,-1.1711 3.14101,-0.14546 2.45384,2.01965 -1.58608,4.99728 2.87292,18.88733 6.09285,18.97963 2.85513,0.0818 7.53257,3.50087 8.9894,6.57091 1.52036,3.20391 1.49968,3.66603 -0.34376,7.68471 -1.07876,2.35169 -2.0173,6.47099 -2.08564,9.15399 -0.0683,2.68301 -0.60887,5.46212 -1.20118,6.17581 -0.59231,0.71369 -0.99622,1.89351 -0.89757,2.62181 0.58479,4.3175 -0.10661,5.82419 -2.67262,5.82419 -2.51835,0 -2.55783,-0.0873 -1.06821,-2.36071 l 1.54679,-2.36071 -5.46753,0.079 c -4.8265,0.0698 -5.53467,0.34654 -6.04019,2.36071 -0.34375,1.36963 -1.32882,2.28171 -2.46426,2.28171 -1.4351,0 -1.89159,-0.72398 -1.89159,-3 z m -63.13118,-16.0613 c 3.15278,-1.92211 3.5793,-1.95393 6.65113,-0.49626 3.94125,1.87025 5.68187,1.95574 7.28005,0.35756 1.69005,-1.69005 1.57289,-8.8 -0.14501,-8.8 -0.73976,0 -2.12247,-0.85908 -3.0727,-1.90907 -1.56034,-1.72415 -1.58402,-2.18426 -0.24448,-4.75 0.81577,-1.56251 3.57947,-5.01867 6.14155,-7.68034 4.37238,-4.54235 4.54669,-4.92557 2.83949,-6.24283 -1.00037,-0.77188 -2.89337,-1.69599 -4.20668,-2.05359 -2.62252,-0.71407 -4.70627,1.31568 -7.6834,7.4843 -1.43193,2.96695 -1.9757,3.29217 -4.77242,2.85427 -1.73599,-0.27181 -4.06945,-0.79262 -5.18546,-1.15734 -1.3196,-0.43126 -2.8057,0.0104 -4.25,1.26303 -2.74771,2.38307 -2.8058,3.80934 -0.22089,5.42364 2.77178,1.73101 2.50453,3.27249 -1,5.76793 -3.82412,2.72301 -4.21941,8.03249 -0.77749,10.4433 2.93706,2.05719 4.60383,1.95992 8.64631,-0.5046 z m 224.01374,18.8113 c -0.18978,-0.404 -0.60712,-7.31072 -1.34237,-22.21582 -0.37891,-7.68121 -0.82676,-14.20621 -0.99521,-14.5 -1.00268,-1.74872 -1.91748,-70.29003 -1.18832,-89.03418 0.28609,-7.35439 -1.11816,-16.07898 -2.90592,-18.05444 -2.45527,-2.71303 -1.80855,-4.94556 1.43263,-4.94556 2.12376,0 3.06095,0.59275 3.55746,2.25 1.25283,4.18173 1.87257,10.21922 1.71935,16.75 -0.46394,19.77455 -0.32045,76.93979 0.19954,79.5 0.33513,1.65 0.86539,11.1 1.17837,21 0.31297,9.9 0.70996,20.5875 0.8822,23.75 0.2368,4.34799 -0.0201,5.75 -1.05357,5.75 -0.75169,0 -1.41957,-0.1125 -1.48416,-0.25 z M 293.7909,385.97828 c -1.87408,-2.04602 -3.18087,-4.31043 -2.90397,-5.03201 0.28778,-0.74994 -0.52268,-1.70211 -1.89188,-2.22268 -3.15373,-1.19904 -4.07727,-4.44749 -2.56618,-9.02614 0.92422,-2.80044 2.08332,-4.05101 4.70984,-5.08158 2.54616,-0.99903 4.13526,-2.65234 5.90374,-6.14227 2.50516,-4.94368 5.06354,-6.53803 4.05223,-2.52528 -2.9297,11.62463 -3.26467,12.25 -6.56149,12.25 -5.68245,0 -7.23026,6.37689 -2.06692,8.51561 1.67073,0.69204 2.85538,1.75913 2.63255,2.37132 -0.61472,1.6889 2.51282,6.53639 4.65609,7.21664 1.04148,0.33055 3.6487,-0.19044 5.79383,-1.15775 4.14228,-1.86791 5.28532,-1.66605 4.35112,0.76842 -0.60954,1.58845 -6.67628,3.78576 -10.45243,3.78576 -1.31844,0 -3.65908,-1.53933 -5.65653,-3.72004 z m -38.57427,0.45402 c -1.49158,-0.60132 -2.94649,-1.70449 -3.23315,-2.4515 -0.7231,-1.88437 2.3168,-2.8437 4.564,-1.4403 2.62779,1.64109 4.24303,1.44757 7.17635,-0.85978 3.53012,-2.77679 4.76715,-0.52284 1.41763,2.58301 -3.1223,2.89516 -6.365,3.60369 -9.92483,2.16857 z m 173.71986,-1.72118 c -0.33556,-0.54296 -0.37259,-3.58046 -0.0823,-6.75 0.89228,-9.74157 1.73778,-29.28245 1.66588,-38.5012 -0.0768,-9.85424 1.39614,-11.71041 2.47032,-3.11295 0.74635,5.9736 -0.17562,41.93011 -1.19492,46.60135 -0.61347,2.81139 -1.77017,3.52458 -2.85901,1.7628 z m 14.56663,-1.87353 c -1.31088,-2.44939 -1.30996,-3.58052 0.0228,-28.13927 0.61189,-11.275 1.19811,-28.69531 1.30272,-38.7118 0.10461,-10.0165 0.46585,-18.48747 0.80277,-18.82438 0.84487,-0.84487 1.891,11.98122 1.96044,24.03618 0.0317,5.5 -0.44865,20.31124 -1.06741,32.91387 -0.61876,12.60263 -0.85305,24.3636 -0.52064,26.13548 0.69806,3.72098 -0.97052,5.44909 -2.5007,2.58992 z m -25.54282,-0.088 c -0.32248,-0.52178 -0.35113,-3.33428 -0.0637,-6.25 0.28746,-2.91573 0.97484,-13.25226 1.52751,-22.97008 1.0274,-18.06461 1.45682,-20.83119 3.23338,-20.83119 0.94197,0 0.17287,33.50858 -0.80599,35.11576 -0.20626,0.33867 -0.44154,4.05117 -0.52283,8.25 -0.1079,5.57343 -0.50335,7.63424 -1.46493,7.63424 -0.72442,0 -1.58097,-0.42691 -1.90344,-0.94868 z m -144.53172,-1.14354 c 0,-0.60075 0.9,-2.23644 2,-3.63486 1.23502,-1.57007 2,-4.05678 2,-6.50135 0,-3.11776 -0.42488,-4.06987 -2,-4.48177 -2.38985,-0.62496 -2.54433,-2.89133 -0.47925,-7.03089 1.85133,-3.71109 4.03959,-5.64862 5.41767,-4.79692 0.63285,0.39112 0.061,2.16279 -1.49222,4.62329 -2.51161,3.97865 -2.51286,5.91477 -0.004,5.91477 3.0617,0 3.37401,8.94297 0.47605,13.63197 -1.97093,3.18934 -5.91825,4.70716 -5.91825,2.27576 z m 72.75,0.34507 c -2.26704,-0.51747 -2.25518,-2.30793 0.0192,-2.9027 2.0873,-0.54584 6.23077,-6.26683 6.23077,-8.60296 0,-2.09986 1.88321,-3.26393 3.18091,-1.96623 1.3372,1.3372 -2.11552,9.02841 -5.29507,11.79522 -1.31221,1.14186 -3.17334,1.89637 -4.13584,1.67667 z m -6.5,-1.91508 c -1.91859,-0.77417 -1.50045,-2.58806 1.29047,-5.59794 1.39726,-1.50688 2.2455,-2.73978 1.88499,-2.73978 -0.36051,0 0.10132,-1.15502 1.02629,-2.5667 1.36621,-2.08511 1.50379,-3.40118 0.73324,-7.01406 -0.60778,-2.84969 -0.60046,-4.66246 0.0204,-5.04616 1.60957,-0.99477 2.74085,0.95537 3.41735,5.89092 0.49998,3.64778 0.23438,5.29705 -1.20129,7.4596 -1.01375,1.52702 -1.92861,3.2264 -2.03301,3.7764 -0.47314,2.49258 -2.41275,6.49248 -3.11366,6.42105 -0.42611,-0.0434 -1.33725,-0.30592 -2.02475,-0.58333 z m 63.08895,-3.58772 c -0.42849,-0.6875 -0.56755,-4.175 -0.30901,-7.75 0.25853,-3.575 0.47006,-12.575 0.47006,-20 0,-14.72797 -0.83945,-17.88008 -6.65193,-24.97784 -2.70882,-3.3078 -4.12464,-9.92916 -1.81833,-8.50378 1.51334,0.93529 9.65882,13.53228 10.95538,16.94249 1.39412,3.66681 1.59983,15.12786 0.57955,32.28913 -0.74339,12.50387 -1.39676,14.93448 -3.22572,12 z m -23.65867,-10.90905 c -1.59467,-0.89242 -1.72987,-1.95285 -1.16976,-9.175 0.34903,-4.50052 0.25524,-7.63295 -0.20896,-6.97851 -2.56799,3.6204 -19.41351,5.32429 -32.4302,3.28024 -8.77943,-1.37866 -11.39421,-1.73675 -13.87136,-1.89966 -2.88842,-0.18995 -4.47146,-1.79502 -3.23718,-3.28223 0.95375,-1.14921 3.23018,-1.01628 14.30805,0.83548 7.24562,1.21116 14.35629,2.06762 15.80149,1.90323 15.52019,-1.76536 15.00524,-1.49546 15.30987,-8.0245 0.1299,-2.78408 -3.61758,-10.93535 -6.22717,-13.54494 -2.00155,-2.00155 -2.04378,-2.29491 -0.54604,-3.79265 1.35925,-1.35925 1.9562,-1.41542 3.66969,-0.34533 2.34459,1.46422 5.47405,0.7908 6.29752,-1.35515 0.30855,-0.80406 1.25012,-1.46193 2.09239,-1.46193 1.87106,0 2.16183,-8.52222 0.42111,-12.34268 -1.11553,-2.44832 -4.67403,-4.65732 -7.50252,-4.65732 -2.73848,0 -5.33939,-1.96105 -4.72486,-3.56247 0.5974,-1.55681 6.25146,-1.71943 7.38136,-0.21229 0.29905,0.39888 1.58701,0.84888 2.86214,1 2.60262,0.30844 2.45884,0.92748 3.53631,-15.22524 l 0.6337,-9.5 -2.78793,-1.17723 c -1.53336,-0.64748 -4.51506,-1.87857 -6.62601,-2.73577 -4.29466,-1.74396 -4.46767,-3.91397 -0.35094,-4.40187 3.88221,-0.4601 5.4072,-4.86574 6.14152,-17.74255 0.71008,-12.45174 0.5228,-12.88365 -6.93815,-16.00103 -3.29135,-1.37521 -6.35945,-1.53828 -19.32664,-1.02717 -8.47781,0.33416 -15.77179,0.82857 -16.20886,1.09869 -2.03597,1.2583 -31.06227,-2.97828 -37.48913,-5.47179 -1.2943,-0.50217 -2.46585,-0.29225 -3.28942,0.58938 -1.76821,1.89288 -3.2979,1.71211 -3.86507,-0.45674 -1.15094,-4.40122 -16.55613,-9.25363 -34.48273,-10.86156 -6.42067,-0.5759 -19.63083,2.33417 -26.29934,5.7935 -3.59708,1.86601 -11.52613,7.96161 -19.89566,15.29515 -3.40867,2.98674 -2.82005,4.99149 1.03519,3.52573 5.52668,-2.10124 11.99745,-1.93894 15.37917,0.38575 4.56566,3.13856 8.16283,10.26145 7.41742,14.68751 -1.26352,7.50245 -2.38379,9.45005 -6.73466,11.70816 -7.02433,3.64566 -9.0591,3.75687 -15.42376,0.84304 -3.1725,-1.45242 -6.10605,-3.18311 -6.51901,-3.84598 -0.58327,-0.93627 -1.20092,-0.92627 -2.76777,0.0448 -1.10932,0.6875 -3.18019,1.25 -4.60194,1.25 -2.95179,0 -4.83177,1.54676 -5.63876,4.6393 -1.00945,3.86843 0.21876,4.38125 7.57409,3.16243 4.55074,-0.75408 7.02166,-0.79332 7.4629,-0.1185 0.36279,0.55485 1.9006,1.31256 3.41734,1.68379 7.72822,1.8915 12.0171,11.25344 8.30944,18.13815 -5.18978,9.63683 -24.71031,11.05556 -32.05276,2.32956 -3.26053,-3.87491 -3.43427,-10.61027 -0.40032,-15.5193 1.16273,-1.88134 1.88482,-3.64988 1.60462,-3.93007 -0.28019,-0.2802 0.0859,-3.06903 0.81347,-6.1974 1.09874,-4.72417 1.09789,-5.94213 -0.005,-7.18796 -2.42323,-2.73719 -4.52916,-9.13817 -3.90023,-11.85478 0.33682,-1.45487 2.02106,-4.75041 3.74276,-7.32343 2.43148,-3.63378 4.0558,-4.93996 7.2756,-5.85063 2.27989,-0.64484 5.09364,-0.87142 6.25277,-0.50353 1.58303,0.50244 2.91564,-0.1569 5.35475,-2.64936 3.04935,-3.11606 10.02871,-9.14986 15.79117,-13.6518 3.18812,-2.49073 19.66448,-8.11476 25.83012,-8.81684 8.13395,-0.92622 32.97645,4.06024 39.08022,7.84429 3.0148,1.86903 3.64139,0.37042 4.39976,-10.52283 0.80176,-11.51652 2.11759,-21.29758 4.00139,-29.74385 0.80627,-3.61502 1.70513,-10.36502 1.99748,-15 1.49334,-23.67654 1.76048,-35.77825 0.87364,-39.57675 -1.1526,-4.93678 -0.30271,-6.82683 2.6486,-5.89011 1.53319,0.48661 2.12485,0.24923 2.12485,-0.85252 0,-0.83981 1.2219,-2.65993 2.71532,-4.04471 2.31757,-2.14897 3.37959,-2.44092 7.25,-1.993 6.66325,0.77112 11.07324,2.5625 10.78256,4.37997 -0.18918,1.18284 0.6994,1.54988 3.75212,1.54988 3.74713,0 4.21264,0.41431 3.65162,3.25 -0.0816,0.4125 -2.27232,0.75 -4.86824,0.75 -4.27801,0 -4.81373,0.26485 -5.72248,2.8291 -0.84696,2.38986 -0.67435,3.08853 1.11174,4.5 2.84092,2.24507 3.84632,5.75778 1.86555,6.51787 -1.96479,0.75396 -6.45816,-3.96951 -7.21144,-7.58074 -0.31364,-1.50357 -0.96547,-2.48951 -1.4485,-2.19098 -0.48304,0.29853 -0.87825,0.10112 -0.87825,-0.43868 0,-1.02985 -4.77838,-2.80711 -8.95203,-3.32961 l -2.45204,-0.30696 -0.15549,13 c -0.0855,7.15 -0.44462,15.8125 -0.79797,19.25 -0.35336,3.4375 -0.87632,8.96267 -1.16214,12.27815 -0.28582,3.31548 -1.13839,9.05298 -1.89458,12.75 -1.2516,6.11899 -1.86201,11.18721 -3.0979,25.72185 -0.23383,2.75 -0.70291,7.76484 -1.0424,11.1441 l -0.61724,6.1441 3.33589,1.06657 c 1.83475,0.58662 7.8359,1.98333 13.3359,3.1038 10.19099,2.07613 13.37193,2.11463 45.66694,0.5526 4.76682,-0.23056 10.16682,0.0436 12,0.6093 1.83318,0.56567 5.6536,1.14003 8.48982,1.27636 l 5.15676,0.24787 0.16189,-12.57235 c 0.27254,-21.16544 0.82493,-27.45318 2.52075,-28.6932 1.21922,-0.89152 1.58129,-3.797 1.76847,-14.19165 0.20376,-11.31536 0.46275,-13.13104 1.92855,-13.52058 1.83737,-0.48828 4.80682,2.17846 4.80682,4.31681 0,0.99474 0.4452,0.92334 1.78113,-0.28565 1.05038,-0.95059 2.99916,-1.47122 4.75,-1.26901 1.63288,0.18859 4.37481,0.3942 6.09318,0.45691 2.06566,0.0754 4.40847,1.29027 6.91419,3.58542 2.08443,1.90926 4.2379,3.62073 4.78548,3.80326 1.35469,0.45156 -0.67745,4.00433 -2.46159,4.30359 -0.74932,0.12568 -2.14989,0.54513 -3.11239,0.93212 -1.32195,0.5315 -1.75,0.20862 -1.75,-1.32005 0,-1.11301 0.51324,-2.19473 1.14053,-2.40383 0.67923,-0.22641 0.10268,-1.50003 -1.42546,-3.14892 -2.3411,-2.5261 -3.09835,-2.74236 -8.64053,-2.4677 -3.341,0.16558 -6.07454,0.3589 -6.07454,0.42959 0,0.86531 8.23916,5.48482 9.19868,5.1575 2.49744,-0.85196 4.88772,3.26497 4.15812,7.16179 -0.60913,3.25339 -0.51883,3.4556 0.98634,2.20881 0.91127,-0.75485 1.65686,-2.01992 1.65686,-2.81128 0,-1.1436 0.9456,-1.29702 4.60859,-0.74772 4.20596,0.63072 4.55742,0.52686 4.02283,-1.18873 -1.07972,-3.46503 0.64086,-4.49843 3.90353,-2.34451 1.63078,1.07659 5.40208,3.19536 8.38068,4.70838 6.11766,3.10755 8.78429,7.50009 9.29408,15.30944 0.25309,3.87696 0.034,4.44686 -1.70971,4.44686 -1.95892,0 -2.11806,-0.41551 -2.3937,-6.25 -0.0834,-1.76571 -0.69821,-2.24706 -2.8563,-2.23635 -4.98738,0.0248 -7.24885,1.12871 -7.89883,3.85584 -0.34482,1.44678 -1.01328,3.12467 -1.48547,3.72865 -0.96451,1.23371 -0.54638,9.95748 0.60702,12.66459 0.41307,0.96951 0.28163,2.32834 -0.29209,3.01962 -0.57372,0.69129 -1.18656,3.23808 -1.36188,5.65955 -0.18446,2.54787 -0.88133,4.58782 -1.65413,4.84217 -1.08518,0.35717 -1.2791,-2.60524 -1.03499,-15.8111 l 0.30038,-16.25061 -3.30915,-2.7626 c -3.46474,-2.89249 -7.79267,-4.29979 -8.70142,-2.82941 -0.29306,0.47417 -0.69473,1.65132 -0.89261,2.61589 -0.19787,0.96457 -0.83636,3.77876 -1.41886,6.25376 -0.58249,2.475 -1.07008,6.4125 -1.08352,8.75 -0.0211,3.659 -0.31995,4.25 -2.14945,4.25 -1.86727,0 -2.04429,-0.39417 -1.45955,-3.25 0.36599,-1.7875 0.88826,-7.975 1.16059,-13.75 0.27232,-5.775 0.70718,-11.49051 0.96633,-12.70112 0.39129,-1.82783 -0.1368,-2.369 -3.11384,-3.191 -1.97177,-0.54444 -5.15438,-2.18687 -7.07247,-3.64987 -1.91808,-1.46299 -3.73593,-2.41147 -4.03966,-2.10774 -0.30374,0.30374 -0.77383,5.63668 -1.04465,11.85099 -0.28199,6.47064 -1.02891,12.1577 -1.74796,13.30888 -0.87303,1.39771 -1.46119,9.92841 -1.9305,28 -0.77602,29.8828 -1.38863,44.39196 -2.50688,59.37358 -0.43583,5.83896 -0.63932,12.86628 -0.4522,15.61628 0.48832,7.17676 0.47444,10.74759 -0.0856,22 -0.66694,13.40181 -2.63147,42.91614 -2.87262,43.15729 -0.10598,0.10599 -1.00408,-0.26137 -1.99576,-0.81634 z M 214.31554,285.06211 c -0.60358,-0.72726 -2.36161,-1.95296 -3.90674,-2.72377 -2.58191,-1.28803 -2.85119,-1.24142 -3.32638,0.5757 -1.10071,4.2091 1.76925,6.30095 6.08834,4.43767 1.71457,-0.73968 1.98395,-1.27845 1.14478,-2.2896 z m 11.10136,-18.00785 c 2.12809,-1.06163 3.27467,-2.6189 4.05101,-5.50201 2.54838,-9.46397 -2.68278,-15.68803 -12.53933,-14.91934 -5.08724,0.39674 -6.10625,0.94567 -7.70191,4.1489 -4.21258,8.45656 -3.12077,13.10319 3.96306,16.86639 3.9942,2.12188 7.08405,1.97179 12.22717,-0.59394 z m -14.32165,-5.02261 c -1.49204,-1.49204 -0.6178,-4.33333 1.33333,-4.33333 1.46667,0 2,0.66667 2,2.5 0,2.35301 -1.81526,3.35141 -3.33333,1.83333 z m -8.60548,-2.83333 c 0.30866,-2.2 1.26698,-5.35 2.12961,-7 2.02201,-3.86761 0.8817,-7.06183 -2.77025,-7.75994 -4.63013,-0.8851 -8.127,1.0221 -10.3702,5.65594 -2.45853,5.07865 -2.53678,6.76267 -0.49745,10.70629 1.43479,2.77459 1.91012,2.97996 6.25,2.70034 4.65478,-0.2999 4.70216,-0.33867 5.25829,-4.30263 z m -10.54694,0.51575 c -1.32834,-1.46781 -1.44363,-2.27918 -0.55877,-3.93256 1.34695,-2.5168 2.90376,-2.65794 4.54593,-0.41215 2.674,3.65691 -0.99321,7.65298 -3.98716,4.34471 z m 236.98575,-68.2068 c 4.87247,-1.43726 5.22145,-1.52661 6.57673,-1.68395 1.5461,-0.17949 -4.02538,-4.54342 -7.57673,-5.93456 -2.35178,-0.92124 -3.8145,-0.8899 -6.76958,0.14501 l -3.76958,1.32017 3.26958,3.61729 c 1.79827,1.9895 3.49458,3.63948 3.76958,3.66661 0.275,0.0271 2.3,-0.48163 4.5,-1.13057 z m -107.95155,-68.6684 2.36391,-1.85945 -2.50323,-1.14055 c -3.5467,-1.61599 -9.92904,-1.42395 -11.39538,0.34288 -1.26667,1.52625 -0.008,2.39351 5.48625,3.77989 3.35177,0.84578 3.60579,0.79863 6.04845,-1.12277 z m -97.29845,233.12881 c -1.77007,-0.61744 -1.55267,-5.82383 0.32143,-7.69793 2.25754,-2.25754 2.71315,-1.96373 2.21526,1.42857 -0.24217,1.65 -0.0682,3 0.3865,3 0.45475,0 0.82681,0.62686 0.82681,1.39301 0,1.58079 -1.88846,2.52569 -3.75,1.87635 z m 3.40499,-10.0981 c -3.55311,-3.92614 -0.19636,-13.08464 4.28961,-11.7037 0.85547,0.26334 3.34845,0.69503 5.53996,0.95931 2.19151,0.26428 4.14368,0.95785 4.33815,1.54126 0.21394,0.64181 1.85412,0.21741 4.15285,-1.07455 5.4437,-3.05953 7.08842,-1.99123 2.93164,1.90419 -3.30134,3.09377 -6.9072,4.24343 -6.9072,2.20223 0,-0.55 -1.15458,-1 -2.56574,-1 -1.41116,0 -3.34791,-0.4186 -4.30388,-0.93022 -2.9976,-1.60427 -4.64815,0.39333 -4.45674,5.39385 0.18877,4.93181 -0.47057,5.52323 -3.01865,2.70763 z m 255.6194,-6.00168 c -1.18922,-0.73498 -1.50014,-8.36483 -1.36943,-33.60556 0.0577,-11.14166 0.91235,-16.17289 2.46265,-14.49735 0.22052,0.23833 0.61037,10.37933 0.86632,22.53555 0.25596,12.15623 0.75308,22.56774 1.10471,23.1367 0.85622,1.38539 -1.60133,3.3348 -3.06425,2.43066 z m -262.63491,-0.86343 c -0.35171,-0.35172 -0.63948,-2.06974 -0.63948,-3.81783 0,-3.39507 2.54043,-6.48832 5.32874,-6.48832 2.23752,0 2.10913,1.56213 -0.32874,4 -1.1,1.1 -2,2.87344 -2,3.94098 0,2.08723 -1.31793,3.40776 -2.36052,2.36517 z m 200.98176,-14.10998 c -0.27324,-0.44211 -0.11737,-2.57961 0.34637,-4.75 0.46374,-2.17039 1.08837,-8.67117 1.38808,-14.44617 1.15862,-22.32545 2.61445,-38.79127 3.6768,-41.5854 0.99714,-2.62263 1.20966,-2.73321 2.12151,-1.10386 0.55735,0.9959 0.74756,2.50342 0.42268,3.35003 -0.32487,0.84661 -0.82617,6.33177 -1.114,12.18926 -0.28782,5.85748 -0.9632,14.92497 -1.50085,20.14997 -0.53764,5.225 -1.15718,12.65 -1.37676,16.5 -0.21957,3.85 -0.71419,7.7875 -1.09914,8.75 -0.74141,1.85376 -2.03891,2.28231 -2.86469,0.94617 z m -21.24187,-6.87857 c -4.79117,-5.09337 -7.37043,-12.57138 -5.77238,-16.73581 1.11189,-2.89754 3.39124,-1.78609 3.42118,1.66821 0.0411,4.74298 4.07787,12.06683 7.03587,12.76512 3.1956,0.75438 3.34621,4.35554 0.20086,4.80248 -1.4387,0.20443 -3.1795,-0.68636 -4.88553,-2.5 z m 5.84565,-5.86503 c -4.25804,-1.79038 -6.56257,-7.3151 -5.69476,-13.65226 0.69419,-5.06928 2.81167,-7.85838 4.60476,-6.06529 0.73368,0.73368 0.72091,1.66567 -0.0424,3.09188 -1.64407,3.07197 -1.31932,6.289 1.02268,10.13075 2.0035,3.28649 2.17657,3.36365 3.49626,1.55887 2.04588,-2.79791 1.79199,-6.51652 -0.44491,-6.51652 -2.77429,0 -3.03238,-0.74019 -1.76031,-5.04842 1.40044,-4.743 3.85848,-7.44766 6.0161,-6.61971 2.611,1.00193 2.40988,15.4265 -0.27366,19.62754 -2.97512,4.65752 -3.51126,4.92801 -6.92378,3.49316 z m -90.72502,-15.45257 c -0.33992,-0.55 -1.3354,-1 -2.21217,-1 -6.14064,0 -22.05827,-11.78776 -25.86916,-19.15733 -0.95069,-1.83847 -2.5264,-4.46767 -3.50156,-5.84267 -2.09934,-2.9601 -4.36387,-13.40102 -3.42926,-15.81103 0.59649,-1.53811 0.78259,-1.51559 2.08357,0.25216 0.78572,1.06762 1.42858,2.83405 1.42858,3.92541 0,3.60363 7.1651,16.56452 11.87295,21.47689 4.47242,4.66671 11.59112,8.93839 19.37705,11.62747 l 3.75,1.29517 0,-3.06915 c 0,-5.6125 -3.2135,-16.11028 -7.10086,-23.19692 -6.44775,-11.75422 -21.19572,-27.01069 -30.6978,-31.75626 -4.65693,-2.32578 -6.12199,-4.22309 -4.50757,-5.83751 1.15252,-1.15252 9.19668,3.11198 14.2601,7.55981 13.25996,11.64784 19.21539,18.53779 24.66377,28.53396 3.46289,6.35339 4.69768,10.26822 6.90851,21.90301 1.30829,6.88502 1.35982,8.55325 0.28529,9.23469 -1.8264,1.15825 -6.56566,1.06899 -7.31144,-0.1377 z m 209.5,-1 c -1.2819,-0.82843 -1.24555,-0.9716 0.25,-0.98469 0.9625,-0.008 1.75,0.43469 1.75,0.98469 0,1.21961 -0.11279,1.21961 -2,0 z m -110.28776,-12.25 c -1.83347,-1.37234 -2.47176,-5.97971 -1.31611,-9.5 1.62828,-4.95996 3.98104,-1.89218 4.21808,5.5 0.17712,5.52326 -0.19029,6.02968 -2.90197,4 z m 17.96724,-1.45959 c -0.32851,-0.53154 -0.54248,-12.40696 -0.47551,-26.38983 0.0887,-18.51881 -0.21495,-26.05258 -1.1181,-27.74013 -1.45126,-2.71171 -0.79512,-5.16045 1.38275,-5.16045 1.18071,0 1.53139,-1.20219 1.53141,-5.25 3e-5,-4.78587 0.30472,-5.49311 3.44657,-8 4.12995,-3.29529 5.88753,-3.393 12.2185,-0.67923 4.98063,2.13495 12.28834,8.47041 12.31807,10.67923 0.0208,1.5454 -3.61188,1.65978 -4.54915,0.14324 -0.49754,-0.80503 -0.87418,-0.79908 -1.38154,0.0218 -0.38364,0.62074 -2.68989,1.46646 -5.125,1.87938 -4.3524,0.73803 -4.43269,0.82245 -4.73498,4.97815 -0.16912,2.32507 -0.74276,4.22739 -1.27475,4.22739 -1.32903,0 -2.98906,-4.65061 -2.30051,-6.44493 0.30863,-0.80427 -0.15399,-2.48331 -1.02805,-3.7312 -1.74986,-2.49822 -2.14564,-6.82383 -0.62437,-6.82383 0.53065,0 1.44648,0.9 2.03518,2 1.16552,2.1778 7.19331,2.79545 9.99513,1.02417 1.28256,-0.81082 1.21147,-1.15955 -0.5,-2.45288 -1.92895,-1.45767 -3.06498,-1.84353 -3.89014,-1.32129 -0.21726,0.1375 -1.3255,-0.59208 -2.46276,-1.62128 -4.71501,-4.26703 -7.95252,0.79849 -8.22638,12.87128 -0.11229,4.95 -0.55862,10.125 -0.99185,11.5 -0.43322,1.375 -1.01291,11.82306 -1.28819,23.21792 -0.45548,18.85352 -1.33268,25.6996 -2.95633,23.07249 z m -33.42948,-3.95269 c -2.26566,-0.91422 -1.30522,-2.94096 2.18163,-4.60372 5.02409,-2.39583 7.84963,-9.06473 8.02949,-18.95142 0.15125,-8.31435 0.5473,-9.37706 3.12582,-8.38759 1.43781,0.55174 1.6027,1.81799 1.1721,9.00123 -0.40124,6.69354 -1.06964,9.40379 -3.35444,13.60172 -2.3757,4.36495 -7.97943,10.21888 -9.49899,9.92311 -0.22309,-0.0434 -0.96811,-0.30592 -1.65561,-0.58333 z m -75.91469,-2.51193 c 0.66176,-2.53059 -2.7979,-13.53467 -5.04248,-16.03854 -1.55104,-1.73021 -1.16587,-4.78725 0.60316,-4.78725 2.37148,0 9.15097,19.49696 7.63335,21.95253 -0.35606,0.57611 -1.3483,1.04747 -2.20499,1.04747 -1.10689,0 -1.39309,-0.62915 -0.98904,-2.17421 z m 158.93582,-10.51502 c -1.59534,-3.34244 -0.14957,-12.63517 1.66907,-10.72799 1.41907,1.48816 1.73578,11.6676 0.3775,12.13335 -0.65026,0.22297 -1.57122,-0.40944 -2.04657,-1.40536 z m -21.86572,-3.46381 c -0.45117,-0.73002 -0.69035,-4.75731 -0.5315,-8.94954 0.44311,-11.69392 -2.76042,-19.30616 -7.37894,-17.53386 -2.04761,0.78574 -3.66346,-1.84404 -2.92962,-4.76791 0.82324,-3.28006 3.41155,-3.35751 6.17034,-0.18462 1.91418,2.2015 2.39359,2.30885 5.51653,1.23523 4.44696,-1.52879 7.29822,-4.22106 5.2875,-4.99265 -2.09856,-0.80529 -3.5392,-4.03642 -2.52869,-5.67146 0.68588,-1.10977 1.77105,-0.51942 5.09529,2.77193 3.48106,3.44659 3.93101,4.29436 2.55875,4.82095 -0.91579,0.35142 -1.66507,1.5053 -1.66507,2.56418 0,1.78589 -3.66944,4.11068 -5.13669,3.25439 -0.35018,-0.20437 -1.18793,0.29262 -1.86167,1.10442 -1.81674,2.18905 -0.43203,6.30171 2.25001,6.68265 3.23014,0.45877 3.6169,4.38452 0.50881,5.1646 -2.13966,0.53702 -2.36877,1.18682 -2.59688,7.36516 -0.25432,6.8881 -1.27674,9.53353 -2.75817,7.13653 z m 5.17855,0.28889 c -1.06164,-1.71778 0.66793,-14.13585 1.96882,-14.13585 0.92432,0 1.17923,1.81227 0.94945,6.75 -0.17277,3.7125 -0.35645,7.0875 -0.40818,7.5 -0.12867,1.0261 -1.85387,0.94764 -2.51009,-0.11415 z m 14.41604,-15.48663 c 0,-4.66433 -1.85473,-9.50111 -4.10518,-10.70551 -2.09771,-1.12266 -2.50289,-3.44987 -0.78545,-4.5113 1.62782,-1.00605 5.74314,4.2753 7.00101,8.98467 0.59981,2.24561 1.46524,5.05052 1.92319,6.23315 0.95935,2.47746 0.38639,3.34977 -2.20024,3.34977 -1.41302,0 -1.83333,-0.76821 -1.83333,-3.35078 z M 330.63027,224.00909 c -0.59552,-1.15491 -0.48167,-5.0706 0.31432,-10.81077 0.68641,-4.95 1.77723,-15.3 2.42403,-23 2.36422,-28.14544 3.26375,-34.73798 4.80996,-35.25151 0.7647,-0.25398 1.24204,0.49074 1.2295,1.91818 -0.0261,2.96515 -2.55161,31.93556 -4.02957,46.22267 -0.61955,5.98914 -1.19924,13.37722 -1.28819,16.41796 -0.1671,5.71175 -1.76474,7.79119 -3.46005,4.50347 z m 13.35218,-0.56077 c -0.21085,-0.6875 -0.63869,-2.825 -0.95075,-4.75 -0.31206,-1.925 -1.2499,-6.875 -2.08408,-11 -2.16067,-10.68448 -1.98065,-14.39887 0.84563,-17.44848 2.9131,-3.14328 3.70611,-3.16953 6.48212,-0.2146 1.67205,1.77981 2.24999,3.74658 2.42432,8.25 0.20604,5.32271 0.0292,5.91308 -1.77111,5.91308 -1.72335,0 -2.03406,-0.74874 -2.24621,-5.41287 -0.27113,-5.96082 -0.55332,-6.63808 -2.31281,-5.55065 -1.57618,0.97413 -0.50839,12.58644 2.01017,21.86082 1.03017,3.79351 1.63945,7.50601 1.35395,8.25 -0.65238,1.70008 -3.23961,1.77092 -3.75123,0.1027 z m -123.55387,-6.06291 c 0,-3.07514 4.11771,-6.78555 11.77015,-10.60593 5.08459,-2.53842 7.96805,-3.2469 15.25,-3.747 8.54476,-0.58683 8.97985,-0.5189 8.97985,1.40212 0,2.57095 -2.51081,4.86426 -3.52643,3.22095 -1.23012,-1.99037 -13.20611,-0.24328 -19.26188,2.80999 -5.34424,2.69451 -10.21169,6.68371 -10.21169,8.36914 0,0.475 -0.675,0.86364 -1.5,0.86364 -0.90098,0 -1.5,-0.92366 -1.5,-2.31291 z m 84.90726,-10.93709 c -0.23371,-3.15023 0.23161,-10.86062 1.04103,-17.25 0.48773,-3.85 1.40173,-11.725 2.03112,-17.5 1.51468,-13.89822 3.90724,-28.19855 5.01871,-29.99696 2.08916,-3.38033 2.12137,2.58749 0.0903,16.73773 -2.74707,19.13879 -3.16389,22.942 -3.69992,33.75923 -0.61261,12.36268 -1.20645,15.5 -2.93384,15.5 -0.80008,0 -1.49642,-0.5625 -1.54743,-1.25 z m -75.22959,-5.40567 c -0.37272,-0.37271 -0.67767,-1.03532 -0.67767,-1.47245 0,-1.09276 7.04392,-2.87808 9.5,-2.40783 1.1,0.21061 2.3375,0.41736 2.75,0.45944 0.4125,0.0421 0.75,0.66287 0.75,1.37953 0,0.84027 -1.33176,1.30057 -3.75,1.29612 -2.0625,-0.004 -4.68255,0.3148 -5.82233,0.70798 -1.13979,0.39318 -2.37729,0.40993 -2.75,0.0372 z m 117.41668,-24.49678 c 0.55344,-19.75145 0.0952,-29.56082 -1.40773,-30.13756 -0.72236,-0.2772 -2.55928,-0.26583 -4.08205,0.0253 -2.1566,0.41226 -2.65511,0.96348 -2.25501,2.49345 0.74045,2.83149 -0.27103,4.77129 -2.48793,4.77129 -2.52256,0 -3.4085,-2.50432 -1.98849,-5.62092 1.60818,-3.52957 -0.15438,-6.8449 -2.77044,-5.21114 -1.01077,0.63123 -2.57238,0.86581 -3.47023,0.52127 -1.82538,-0.7005 -2.25108,-3.68924 -0.52548,-3.68924 0.60884,0 0.8839,-0.58135 0.61124,-1.29189 -1.1157,-2.90747 4.11077,-6.70811 9.22469,-6.70811 3.26097,0 9.05708,4.26548 9.05708,6.6653 0,1.96101 -3.65801,1.62726 -4.55177,-0.4153 -0.42116,-0.9625 -0.71154,-2.03579 -0.64529,-2.3851 0.11301,-0.59582 -7.86689,0.86572 -8.57097,1.5698 -0.17881,0.17881 0.78791,0.60446 2.14827,0.94589 1.36035,0.34142 2.61881,1.34574 2.79657,2.23182 0.2284,1.13853 1.57886,1.67123 4.60442,1.81626 6.61523,0.3171 7.2926,1.59484 8.05377,15.19204 0.36575,6.53361 0.44,16.14966 0.165,21.369 -0.43545,8.26464 -0.74216,9.5359 -2.37582,9.84755 -1.76722,0.33713 -1.85579,-0.35697 -1.52983,-11.98971 z m -14.84435,-45.56516 c -0.6875,-0.24698 -1.25,-1.26341 -1.25,-2.25873 0,-1.94446 1.72514,-2.99933 3.75,-2.29302 0.6875,0.23982 1.25,1.01843 1.25,1.73025 0,1.72955 -2.19416,3.38044 -3.75,2.8215 z"
       id="path4912"
       inkscape:connector-curvature="0" />
  </g>
</svg>
