<?xml version="1.0" encoding="UTF-8" standalone="no"?>
<!-- Created with Inkscape (http://www.inkscape.org/) -->

<svg
   xmlns:dc="http://purl.org/dc/elements/1.1/"
   xmlns:cc="http://creativecommons.org/ns#"
   xmlns:rdf="http://www.w3.org/1999/02/22-rdf-syntax-ns#"
   xmlns:svg="http://www.w3.org/2000/svg"
   xmlns="http://www.w3.org/2000/svg"
   xmlns:sodipodi="http://sodipodi.sourceforge.net/DTD/sodipodi-0.dtd"
   xmlns:inkscape="http://www.inkscape.org/namespaces/inkscape"
   width="210mm"
   height="297mm"
   viewBox="0 0 744.09448819 1052.3622047"
   id="svg4872"
   version="1.1"
   inkscape:version="0.91 r13725"
   sodipodi:docname="prosi.svg">
  <defs
     id="defs4874" />
  <sodipodi:namedview
     id="base"
     pagecolor="#ffffff"
     bordercolor="#666666"
     borderopacity="1.0"
     inkscape:pageopacity="0.0"
     inkscape:pageshadow="2"
     inkscape:zoom="0.49497475"
     inkscape:cx="421.35327"
     inkscape:cy="643.43252"
     inkscape:document-units="px"
     inkscape:current-layer="layer1"
     showgrid="false"
     inkscape:window-width="1304"
     inkscape:window-height="745"
     inkscape:window-x="54"
     inkscape:window-y="-8"
     inkscape:window-maximized="1" />
  <metadata
     id="metadata4877">
    <rdf:RDF>
      <cc:Work
         rdf:about="">
        <dc:format>image/svg+xml</dc:format>
        <dc:type
           rdf:resource="http://purl.org/dc/dcmitype/StillImage" />
        <dc:title></dc:title>
      </cc:Work>
    </rdf:RDF>
  </metadata>
  <g
     inkscape:label="Layer 1"
     inkscape:groupmode="layer"
     id="layer1">
    <path
       style="fill:#000000"
       d="m 255.51123,333.06678 c 0,-0.48455 -2.00792,-3.87534 -4.46205,-7.53509 -5.99578,-8.94128 -11.87395,-21.73257 -13.48488,-29.344 -2.63517,-12.45082 1.37733,-34.64449 9.59051,-53.04639 1.29603,-2.90379 2.35642,-5.52272 2.35642,-5.81982 0,-0.2971 1.35,-2.50235 3,-4.90054 1.65,-2.39819 3,-4.57648 3,-4.84064 0,-0.76402 7.91988,-14.53243 9.45409,-16.43558 14.54178,-18.0387 22.93394,-25.3969 36.80102,-32.26695 4.87974,-2.41753 7.05804,-3.04368 7.84629,-2.25543 0.78825,0.78825 2.0313,0.0506 4.47749,-2.65705 5.81459,-6.43605 10.78608,-9.33865 14.60915,-8.52954 4.88844,1.03458 9.42729,4.12671 11.87794,8.09194 l 2.16679,3.50594 1.59269,-2.30634 c 2.21517,-3.20775 3.17128,-4.07521 7.17454,-6.5093 3.34313,-2.03273 3.64195,-2.05346 6.66725,-0.46258 1.74199,0.91604 4.86302,3.21495 6.93562,5.10869 2.22709,2.03489 3.92847,2.96283 4.15982,2.26878 0.5338,-1.6014 6.14033,0.78843 11.57551,4.93415 2.28899,1.74594 11.71018,10.84948 20.93599,20.23008 l 16.77419,17.05563 6.39441,13.0341 c 9.34303,19.04443 12.47629,26.15857 14.05244,31.90649 0.77333,2.82019 2.11904,7.37761 2.99046,10.12761 1.03152,3.25523 1.63425,9.18744 1.72726,17 0.14114,11.85566 0.0963,12.10825 -3.72776,21 -2.12883,4.95 -4.68389,9.929 -5.6779,11.06445 -0.99401,1.13545 -1.80729,2.51951 -1.80729,3.07569 0,1.32481 -4.31454,5.35986 -5.73112,5.35986 -0.60622,0 -1.28539,-0.54954 -1.50928,-1.2212 -0.22388,-0.67165 -2.15736,-2.13415 -4.29661,-3.25 -4.66149,-2.43145 -12.90434,-12.35725 -14.68478,-17.68299 l -1.27821,-3.82341 -3,2.77406 c -6.44204,5.95687 -11.34588,8.95463 -25.674,15.69475 -16.15311,7.59863 -34.27369,8.42173 -52.23052,2.37252 -5.64137,-1.90044 -11.61497,-2.89565 -19.35744,-3.22498 -2.06667,-0.0879 -3.45392,-0.74358 -3.78583,-1.78934 -0.28814,-0.90782 -1.66464,-1.9369 -3.05891,-2.28683 -2.78806,-0.69976 -12.49499,-6.79972 -16.32537,-10.25907 -2.88461,-2.60519 -3.6114,-2.33614 -4.40474,1.63053 -0.81564,4.07821 -5.83886,12.68945 -10.39041,17.81218 -3.52429,3.96653 -11.27278,8.3654 -11.27278,6.39962 z m 7.33971,-7.55222 c 4.54638,-4.54638 9.36059,-13.13705 10.74857,-19.18019 1.09679,-4.77529 1.03075,-5.05839 -2.34888,-10.06925 -5.06033,-7.50279 -6.17522,-14.84961 -5.43024,-35.78368 0.39931,-11.2209 1.11414,-18.42965 2.08836,-21.0605 0.81468,-2.2 3.18736,-9.7375 5.27262,-16.75 2.27334,-7.64496 4.29959,-12.75 5.06062,-12.75 2.61243,0 1.86273,4.01449 -4.85542,26 -3.08239,10.0873 -3.21178,11.20749 -3.29192,28.5 -0.10775,23.25012 0.77452,26.29466 10.25562,35.38986 6.27784,6.02233 15.70518,12.81848 22.83275,16.46009 1.74448,0.89128 6.07121,1.8636 9.61494,2.16069 3.54374,0.2971 10.40936,1.82403 15.25693,3.39318 7.05648,2.28418 10.85125,2.888 19.03282,3.02847 12.47655,0.21421 19.42072,-1.42467 32.41367,-7.6499 11.4004,-5.46219 14.7609,-7.84875 22.17379,-15.74734 4.93852,-5.26209 5.98858,-7.12371 8.19863,-14.53505 4.09942,-13.74733 4.98141,-21.03771 4.22695,-34.93924 -0.37493,-6.90842 -1.14371,-14.3055 -1.7084,-16.43796 -1.34436,-5.07677 0.20361,-6.98251 3.22085,-3.96527 1.96129,1.96129 2.08681,3.24067 2.20369,22.46111 0.11414,18.76931 -0.0512,20.84854 -2.09086,26.28791 -1.21814,3.2486 -2.22295,6.8486 -2.23292,8 -0.01,1.1514 -1.32991,4.4729 -2.93323,7.38112 -2.72139,4.93629 -2.82271,5.50115 -1.52465,8.5 3.02875,6.99718 11.70627,17.05134 15.54904,18.01581 4.07076,1.0217 6.68366,-1.70622 11.49294,-11.99882 3.95363,-8.4614 4.4332,-10.26497 4.42647,-16.64708 -0.008,-7.60868 -1.3817,-17.8874 -3.16165,-23.65758 -3.83323,-12.42647 -7.04516,-20.24384 -13.74575,-33.45525 -6.8194,-13.44564 -8.60297,-16.07012 -17.66932,-26 -10.40317,-11.39402 -25.02876,-25.58987 -29.1396,-28.28339 -3.95458,-2.59114 -3.54152,-0.77683 0.99028,4.34968 2.37699,2.68893 6.04938,7.28088 8.16085,10.20433 3.63374,5.0311 3.80841,5.61227 3.26609,10.86682 -0.81671,7.91318 -4.8245,15.43165 -11.00472,20.64447 -5.84296,4.92835 -10.6736,6.93696 -14.55716,6.05294 -9.29608,-2.11607 -18.19316,-6.25944 -20.76647,-9.67096 l -1.73694,-2.30271 -3.48888,3.86177 c -3.80437,4.21099 -7.53858,6.53112 -13.49356,8.38379 -3.09656,0.96338 -5.45589,0.9099 -12,-0.27199 -9.37629,-1.69339 -11.86077,-2.72944 -16.49724,-6.8795 -4.9595,-4.43921 -6.49765,-8.0917 -6.44455,-15.30322 0.0375,-5.08961 0.66558,-7.49635 3.26221,-12.5 3.19353,-6.15387 9.48089,-13.668 11.48691,-13.7282 1.34857,-0.0405 4.92672,-4.92224 4.16565,-5.68331 -0.31787,-0.31787 -2.27572,0.50041 -4.35078,1.81839 -2.07506,1.31799 -5.5717,3.29202 -7.77033,4.38675 -7.61857,3.79339 -29.31836,27.46249 -33.93032,37.00959 -0.79707,1.65 -3.46787,6.53139 -5.93511,10.84754 -6.1845,10.81905 -10.22902,21.35239 -12.72968,33.15246 -3.29842,15.56456 -3.481,21.84056 -0.8888,30.55102 2.08287,6.99899 8.36874,20.84549 9.96413,21.94898 0.39758,0.275 1.27513,1.5481 1.95011,2.82911 1.15495,2.19195 4.22486,6.17089 4.76109,6.17089 0.13443,0 1.77729,-1.53287 3.6508,-3.40638 z m 66.66029,-43.09447 c -7.25094,-3.24202 -11.88672,-11.79763 -10.51625,-19.40838 0.83421,-4.63267 5.87797,-12.90477 9.78858,-16.05392 3.99769,-3.21927 15.30117,-4.31187 16.34935,-1.58034 0.35623,0.92831 3.06765,2.75806 6.02537,4.0661 2.95773,1.30805 5.64526,3.07557 5.97231,3.92783 0.32704,0.85226 1.10897,1.55489 1.73763,1.56141 1.83638,0.019 8.64301,10.57149 8.64301,13.39944 0,3.49391 -6.38104,10.41246 -11.83715,12.83427 -6.03171,2.67729 -21.33834,3.41071 -26.16285,1.25359 z m 27.08108,-20.69489 c 1.23986,-2.9933 1.14999,-3.24799 -2.10519,-5.96553 -5.31122,-4.43401 -11.02017,-3.21344 -10.94409,2.33984 0.0596,4.34621 2.71982,6.39372 8.61116,6.62767 2.62997,0.10444 3.35435,-0.38554 4.43812,-3.00198 z M 332.2622,226.00121 c 1.62263,-1.48205 3.65605,-3.7939 4.51871,-5.13745 2.23718,-3.48433 4.06747,-20.25676 3.52978,-32.34642 -0.39252,-8.82583 -0.77193,-10.65047 -2.62909,-12.6439 -1.1937,-1.28129 -2.17037,-2.68321 -2.17037,-3.11538 0,-1.19802 -5.60968,-3.83712 -8.15618,-3.83712 -2.27667,0 -6.85316,4.34019 -19.30739,18.31048 -3.27996,3.67924 -6.43859,6.68952 -7.01917,6.68952 -0.58059,0 -2.50948,2.64459 -4.28644,5.87687 -5.38197,9.7898 -4.28909,21.17222 2.46807,25.70526 4.26191,2.8591 9.13808,4.42495 16.30111,5.23466 7.47518,0.84499 12.05911,-0.45116 16.75097,-4.73652 z m -18.39584,-4.07254 c -3.31512,-1.33772 -7.47709,-7.4981 -8.0744,-11.95142 -0.71601,-5.3382 1.01246,-9.15357 5.94115,-13.11438 4.95494,-3.98189 9.35245,-4.45289 15.68161,-1.67958 4.83279,2.11763 5.85493,3.22699 7.77844,8.44224 3.74718,10.15979 -10.72582,22.58085 -21.3268,18.30314 z m 12.64487,-10.11472 c 0,-5.32597 -1.03693,-5.97007 -6.35563,-3.9479 -3.09592,1.17707 -2.5416,4.68896 0.9944,6.30007 1.29868,0.59172 2.36123,1.6645 2.36123,2.38395 0,0.75191 0.63778,1.06336 1.5,0.7325 1.05053,-0.40313 1.5,-2.04177 1.5,-5.46862 z m -4.14984,-11.89301 c 0.91864,-2.63523 0.81889,-3 -0.82039,-3 -3.23649,0 -5.02977,1.14589 -5.02977,3.21398 0,1.36693 0.4748,1.8178 1.5,1.42439 0.825,-0.31658 1.5,-0.13972 1.5,0.39301 0,2.12217 1.86579,0.79237 2.85016,-2.03138 z m 48.3266,29.4086 c 7.8293,-4.04869 13.45314,-12.26489 14.44127,-21.09813 0.46996,-4.20108 0.13472,-5.43786 -2.64638,-9.76303 -7.63049,-11.86693 -22.91033,-27.54744 -26.84355,-27.54744 -2.45436,0 -7.30694,4.52646 -9.66181,9.01249 -1.42464,2.71393 -1.87125,6.03838 -2.01343,14.98751 -0.10049,6.325 -0.51631,14.05529 -0.92406,17.17843 -0.5483,4.19965 -0.38816,6.11223 0.61492,7.34419 3.49172,4.28848 6.37947,6.49888 10.20286,7.8097 9.20596,3.15618 10.22231,3.45899 11.95308,3.5613 0.98981,0.0585 3.18451,-0.60975 4.8771,-1.48502 z m -11.67676,-9.56484 c -3.64288,-0.96034 -8.27165,-5.11297 -9.60329,-8.61544 -1.05215,-2.76735 -0.48863,-7.29773 1.37617,-11.06363 1.02613,-2.07225 6.13226,-5.63995 7.06295,-4.93495 0.19623,0.14864 1.01699,-0.27766 1.82391,-0.94735 1.75011,-1.45246 6.14566,-0.80577 10.00042,1.47129 3.20743,1.89467 5.73932,8.19855 5.1167,12.73947 -0.94745,6.90989 -9.44132,13.02078 -15.77686,11.35061 z m 9.44312,-7.84376 c 1.22011,0 -0.006,-4.80738 -1.55386,-6.09191 -1.70384,-1.41405 -4.38926,0.43018 -4.38926,3.01435 0,2.24383 2.11661,4.24679 3.80364,3.59942 0.74797,-0.28703 1.71073,-0.52186 2.13948,-0.52186 z m -6.1267,-11.25 c 0.34834,-3.02733 -0.45623,-3.32687 -4.26937,-1.58948 -4.19082,1.90946 -2.86437,4.9856 1.95295,4.52903 1.37844,-0.13064 2.09834,-1.04419 2.31642,-2.93955 z m 74.56762,-20.19159 c -0.92344,-2.40644 0.0321,-5.01486 1.97401,-5.38885 1.45914,-0.281 1.69906,0.0752 1.17112,1.73852 -0.78618,2.47704 0.6797,2.74019 2.8994,0.52049 2.18877,-2.18877 1.96964,-3.70584 -0.92857,-6.42857 -2.72294,-2.55807 -3.17537,-4.92463 -1.3,-6.8 2.49157,-2.49157 7.8,-0.7662 7.8,2.53518 0,1.01138 -0.47032,1.08348 -1.93931,0.2973 -2.98638,-1.59826 -3.22636,0.26693 -0.45006,3.49792 2.87307,3.3436 2.59531,6.87701 -0.76406,9.7196 -2.50329,2.11822 -7.69543,2.30744 -8.46253,0.30841 z m 14.06713,-0.63741 c -0.36677,-0.59345 -0.1744,-2.95595 0.42749,-5.25 0.60189,-2.29405 1.21291,-5.74231 1.35784,-7.66281 0.18556,-2.45904 0.80311,-3.5941 2.08792,-3.83766 1.62813,-0.30863 1.7504,0.14773 1.13645,4.24181 -0.43887,2.92665 -0.31496,4.58766 0.34225,4.58766 0.56662,0 1.18021,-0.3375 1.36355,-0.75 0.37896,-0.85268 6.98778,-5.95595 11.03118,-8.51818 2.72128,-1.72444 4.957,-0.7261 2.57412,1.14944 -0.69958,0.55063 -3.07197,2.60583 -5.27197,4.5671 l -4,3.56595 2.75,2.44488 c 2.68951,2.3911 3.70409,5.54081 1.7848,5.54081 -0.53087,0 -2.5134,-1.35933 -4.40563,-3.02073 l -3.44042,-3.02073 -2.17594,3.52073 c -2.1798,3.52699 -4.31229,4.46322 -5.56164,2.44173 z m -36.17826,-1.74974 c -1.657,-1.02758 0.80485,-16.96822 2.82063,-18.26377 3.37177,-2.16706 9.8019,1.32099 9.87466,5.35653 0.0416,2.30814 -4.12352,8.7077 -5.67773,8.7236 -0.66524,0.007 -2.24024,1.12213 -3.5,2.47849 -1.38176,1.48772 -2.7773,2.16421 -3.51756,1.70515 z m 7.89835,-9.82625 c 2.24811,-2.03451 2.34702,-3.93215 0.24695,-4.73802 -2.64625,-1.01546 -3.16399,-0.71717 -3.70966,2.13731 -0.84727,4.43219 0.40209,5.37053 3.46271,2.60071 z m 6.41222,6.79007 c -0.294,-0.47571 -0.0369,-3.51321 0.57125,-6.75 1.54487,-8.22179 1.60817,-8.38508 3.25033,-8.38508 1.195,0 1.37463,1.25466 0.96637,6.75 -0.2758,3.7125 -0.68308,7.3125 -0.90506,8 -0.46006,1.42487 -3.0797,1.68466 -3.88289,0.38508 z m -175.4945,-13.56434 c -0.71878,-3.61617 -1.89291,-6.66526 -2.68346,-6.96862 -2.27665,-0.87363 -1.62803,-2.49585 1.84448,-4.61308 4.05449,-2.47206 6.9566,-2.52321 9.09501,-0.1603 2.35546,2.60275 2.05068,5.96371 -0.89048,9.81976 -1.40001,1.83551 -2.47169,3.90298 -2.38152,4.59439 0.35769,2.74258 -0.15254,3.75711 -1.88955,3.75711 -1.43452,0 -2.0853,-1.3521 -3.09448,-6.42926 z m 6.25389,-8.11961 c -0.71024,-1.85086 -2.96428,-1.8801 -3.66748,-0.0476 -0.29623,0.77195 -0.27276,2.42011 0.0522,3.66257 l 0.59075,2.25903 1.79072,-2.21144 c 0.98489,-1.2163 1.54013,-2.86445 1.23386,-3.66258 z m 8.60454,8.35356 c -1.90098,-7.05971 -2.81334,-14.25753 -1.92507,-15.18746 1.56969,-1.64332 3.84852,0.21218 3.77822,3.07634 -0.0379,1.54353 0.47204,5.38745 1.13319,8.54204 0.66114,3.15459 0.91995,6.19209 0.57514,6.75 -1.24493,2.01435 -2.45311,0.93528 -3.56148,-3.18092 z m 8.80259,-1.57821 c -2.14589,-0.45754 -2.26968,-2.5503 -0.25,-4.22648 1.03636,-0.8601 1.5,-0.89795 1.5,-0.12244 0,1.64637 4.55031,1.36921 5.98943,-0.36483 1.71761,-2.06958 0.66661,-4.13126 -2.51282,-4.92925 -9.41103,-2.362 -10.15601,-10.58347 -0.95902,-10.58347 3.18611,0 2.89876,2.34211 -0.34592,2.81955 -1.19442,0.17575 -2.17167,0.90866 -2.17167,1.62868 0,1.17524 1.90563,2.2064 7.27268,3.93535 2.37575,0.76532 3.07951,2.92556 2.30246,7.06758 -0.75839,4.04257 -5.1584,5.98355 -10.82514,4.77531 z m 14.76527,-5.20178 c -0.36741,-0.59448 -0.84485,-2.53073 -1.06097,-4.30278 -0.21612,-1.77206 -0.68072,-4.96509 -1.03243,-7.09565 -0.44469,-2.69381 -0.24013,-4.12055 0.67158,-4.68402 1.94944,-1.20482 2.90655,-0.17848 2.90655,3.11678 0,3.46549 1.12551,3.81606 2.51287,0.78269 0.54292,-1.18706 1.9941,-2.81327 3.22484,-3.61381 1.9738,-1.28386 2.30725,-1.27431 2.82732,0.081 0.33211,0.86547 -0.3176,2.4437 -1.48771,3.61381 -1.14253,1.14253 -2.07732,2.45509 -2.07732,2.9168 0,1.22486 4.97451,3.2943 6.15903,2.56223 0.59909,-0.37026 0.8734,0.33567 0.67507,1.73729 -0.38762,2.73924 -2.35404,3.11957 -5.691,1.10072 -2.51783,-1.52328 -3.73805,-0.90482 -4.29604,2.1774 -0.40374,2.23022 -2.36279,3.17545 -3.33179,1.60757 z"
       id="path4891"
       inkscape:connector-curvature="0" />
  </g>
</svg>
