<?xml version="1.0" encoding="UTF-8" standalone="no"?>
<!-- Created with Inkscape (http://www.inkscape.org/) -->

<svg
   xmlns:dc="http://purl.org/dc/elements/1.1/"
   xmlns:cc="http://creativecommons.org/ns#"
   xmlns:rdf="http://www.w3.org/1999/02/22-rdf-syntax-ns#"
   xmlns:svg="http://www.w3.org/2000/svg"
   xmlns="http://www.w3.org/2000/svg"
   xmlns:sodipodi="http://sodipodi.sourceforge.net/DTD/sodipodi-0.dtd"
   xmlns:inkscape="http://www.inkscape.org/namespaces/inkscape"
   width="210mm"
   height="297mm"
   viewBox="0 0 744.09448819 1052.3622047"
   id="svg4872"
   version="1.1"
   inkscape:version="0.91 r13725"
   sodipodi:docname="prosi_mark2.svg">
  <defs
     id="defs4874" />
  <sodipodi:namedview
     id="base"
     pagecolor="#eeeeee"
     bordercolor="#666666"
     borderopacity="1.0"
     inkscape:pageopacity="0"
     inkscape:pageshadow="2"
     inkscape:zoom="0.49497475"
     inkscape:cx="153.89353"
     inkscape:cy="733.76474"
     inkscape:document-units="px"
     inkscape:current-layer="layer1"
     showgrid="true"
     inkscape:window-width="1304"
     inkscape:window-height="745"
     inkscape:window-x="54"
     inkscape:window-y="-8"
     inkscape:window-maximized="1">
    <inkscape:grid
       type="xygrid"
       id="grid4143"
       spacingx="16"
       spacingy="16" />
  </sodipodi:namedview>
  <metadata
     id="metadata4877">
    <rdf:RDF>
      <cc:Work
         rdf:about="">
        <dc:format>image/svg+xml</dc:format>
        <dc:type
           rdf:resource="http://purl.org/dc/dcmitype/StillImage" />
        <dc:title></dc:title>
      </cc:Work>
    </rdf:RDF>
  </metadata>
  <g
     inkscape:label="Layer 1"
     inkscape:groupmode="layer"
     id="layer1">
    <g
       id="g4191"
       inkscape:export-filename="C:\git\Tabi\Materiały\asystent\zaakceptowany\png_z_svg\g4191.png"
       inkscape:export-xdpi="89"
       inkscape:export-ydpi="89"
       transform="matrix(2.0688222,0,0,2.0688222,-328.24331,-119.70298)">
      <path
         inkscape:connector-curvature="0"
         id="path4891"
         d="m 221.22954,349.35741 c 0,-0.61387 -2.54378,-4.90957 -5.65285,-9.54601 -7.59589,-11.32747 -15.04279,-27.53241 -17.08363,-37.17513 -3.33843,-15.77361 1.7449,-43.89018 12.14996,-67.20306 1.6419,-3.67873 2.98528,-6.99658 2.98528,-7.37297 0,-0.37639 1.71028,-3.17016 3.80062,-6.20837 2.09034,-3.0382 3.80062,-5.79782 3.80062,-6.13247 0,-0.96792 10.03349,-18.41075 11.97714,-20.8218 18.42259,-22.85275 29.05439,-32.17466 46.62223,-40.87814 6.18201,-3.0627 8.94164,-3.85596 9.94025,-2.85734 0.99862,0.99861 2.5734,0.0641 5.67242,-3.36615 7.36635,-8.15366 13.66459,-11.83089 18.50794,-10.80585 6.19303,1.31069 11.94318,5.22802 15.04784,10.25147 l 2.74505,4.44158 2.01774,-2.92184 c 2.80634,-4.06382 4.01761,-5.16278 9.08923,-8.24646 4.23533,-2.57521 4.61389,-2.60147 8.44656,-0.58603 2.20689,1.16051 6.16083,4.07293 8.78656,6.47206 2.82144,2.57795 4.97687,3.75353 5.26996,2.87426 0.67626,-2.02877 7.77902,0.99884 14.66471,6.25094 2.89986,2.21189 14.83531,13.74492 26.52324,25.62895 l 21.25078,21.60732 8.10091,16.51256 c 11.83643,24.12688 15.80587,33.13959 17.80266,40.42148 0.97971,3.57282 2.68455,9.3465 3.78853,12.8304 1.30681,4.12396 2.07039,11.63932 2.18822,21.53684 0.17881,15.01962 0.122,15.33962 -4.7226,26.60434 -2.69696,6.27103 -5.93389,12.57879 -7.19318,14.01726 -1.25928,1.43847 -2.28961,3.1919 -2.28961,3.89651 0,1.67837 -5.46597,6.79026 -7.2606,6.79026 -0.768,0 -1.62843,-0.69619 -1.91207,-1.5471 -0.28362,-0.8509 -2.7331,-2.7037 -5.44326,-4.11734 -5.90551,-3.08034 -16.34816,-15.65507 -18.60375,-22.40211 l -1.61933,-4.84377 -3.80062,3.51438 c -8.16125,7.5466 -14.3738,11.34438 -32.52571,19.88326 -20.46394,9.6265 -43.42042,10.66926 -66.16945,3.00568 -7.1469,-2.40762 -14.7147,-3.66842 -24.52343,-4.08564 -2.61821,-0.11136 -4.37568,-0.94202 -4.79616,-2.26687 -0.36504,-1.15009 -2.10889,-2.4538 -3.87526,-2.89712 -3.53211,-0.88651 -15.82957,-8.61438 -20.68217,-12.99694 -3.65444,-3.30045 -4.57519,-2.9596 -5.58025,2.06567 -1.03331,5.16658 -7.3971,16.07593 -13.16333,22.56578 -4.46483,5.02509 -14.28119,10.5979 -14.28119,8.10751 z m 9.29849,-9.56771 c 5.75968,-5.75969 11.85868,-16.64298 13.61707,-24.29887 1.3895,-6.04969 1.30583,-6.40834 -2.97573,-12.75647 -6.4108,-9.50508 -7.82322,-18.81257 -6.87943,-45.33339 0.50588,-14.21546 1.41148,-23.34803 2.64569,-26.68098 1.0321,-2.78712 4.03798,-12.33618 6.67974,-21.22013 2.88004,-9.6852 5.44704,-16.15264 6.41117,-16.15264 3.30961,0 2.35984,5.08585 -6.15121,32.93871 -3.90499,12.77933 -4.06891,14.19847 -4.17044,36.10589 -0.13651,29.45496 0.98122,33.312 12.99257,44.83447 7.95323,7.62953 19.89647,16.23939 28.9262,20.85285 2.21004,1.12914 7.69146,2.36095 12.18091,2.73732 4.48947,0.37639 13.18734,2.31082 19.3286,4.29873 8.93967,2.89377 13.74716,3.65873 24.11217,3.83669 15.80621,0.27138 24.6036,-1.80488 41.06402,-9.69146 14.44286,-6.9199 18.70019,-9.94337 28.09138,-19.94988 6.25648,-6.6664 7.58677,-9.02484 10.38663,-18.41407 5.19344,-17.41612 6.31081,-26.65211 5.35501,-44.26359 -0.47499,-8.75209 -1.44894,-18.12326 -2.16433,-20.82481 -1.70313,-6.43163 0.25795,-8.84596 4.08041,-5.0235 2.48471,2.48471 2.64372,4.10552 2.7918,28.45538 0.1446,23.77834 -0.0649,26.41246 -2.64886,33.30346 -1.54323,4.11556 -2.8162,8.6763 -2.82883,10.13498 -0.0127,1.45868 -1.68482,5.6666 -3.71603,9.35095 -3.44765,6.25365 -3.57601,6.96926 -1.93154,10.76842 3.83705,8.86454 14.83037,21.60189 19.69867,22.82375 5.15714,1.29436 8.46735,-2.16157 14.5601,-15.20099 5.00875,-10.71952 5.6163,-13.00441 5.60778,-21.08974 -0.0101,-9.63923 -1.75044,-22.66107 -4.00541,-29.97116 -4.85622,-15.74276 -8.92533,-25.64638 -17.41413,-42.38356 -8.63932,-17.03392 -10.89887,-20.35881 -22.38479,-32.93871 -13.1795,-14.43478 -31.70827,-32.41912 -36.91618,-35.83147 -5.00995,-3.28264 -4.48666,-0.98414 1.25456,5.51049 3.01134,3.40654 7.6638,9.22396 10.33876,12.9276 4.60349,6.37376 4.82477,7.11003 4.13772,13.76688 -1.03466,10.025 -6.11203,19.54995 -13.94158,26.15393 -7.40229,6.2436 -13.5221,8.78825 -18.44208,7.66831 -11.77696,-2.68079 -23.04843,-7.92992 -26.30849,-12.25188 l -2.20048,-2.91724 -4.41997,4.89237 c -4.81965,5.33479 -9.55043,8.2741 -17.09463,10.6212 -3.92295,1.22048 -6.91192,1.15273 -15.20248,-0.34458 -11.87857,-2.14531 -15.02609,-3.45785 -20.89991,-8.71545 -6.28306,-5.62392 -8.2317,-10.25116 -8.16443,-19.38724 0.0475,-6.44789 0.8432,-9.49693 4.1328,-15.83592 4.0458,-7.79617 12.01109,-17.31562 14.55246,-17.39189 1.70847,-0.0513 6.24153,-6.23586 5.27735,-7.20003 -0.4027,-0.40271 -2.88304,0.63395 -5.51188,2.30367 -2.62884,1.66972 -7.05864,4.17057 -9.84403,5.55745 -9.65176,4.80575 -37.14265,34.7915 -42.98541,46.88646 -1.00979,2.09035 -4.39336,8.27445 -7.51904,13.74246 -7.83498,13.70637 -12.95887,27.05078 -16.12689,41.99997 -4.17868,19.71833 -4.40999,27.66922 -1.126,38.70427 2.63874,8.86684 10.60214,26.4086 12.62329,27.80658 0.50369,0.34839 1.61543,1.96125 2.47055,3.58413 1.46317,2.77692 5.35236,7.81773 6.03169,7.81773 0.17031,0 2.25161,-1.94195 4.62511,-4.31545 z m 84.45014,-54.59524 c -9.18602,-4.10722 -15.05897,-14.9461 -13.32276,-24.58795 1.05684,-5.86901 7.44665,-16.34871 12.40089,-20.33829 5.06457,-4.07841 19.38465,-5.46259 20.71256,-2.00209 0.4513,1.17605 3.88632,3.49411 7.63338,5.15124 3.74707,1.65713 7.15183,3.89635 7.56616,4.97606 0.41432,1.0797 1.40493,1.96985 2.20136,1.97811 2.32646,0.0241 10.9496,13.39274 10.9496,16.97539 0,4.42634 -8.08397,13.19127 -14.99617,16.25939 -7.64142,3.39179 -27.03298,4.32094 -33.14502,1.58814 z m 34.3083,-26.2178 c 1.57074,-3.79213 1.45689,-4.11479 -2.66701,-7.55757 -6.72864,-5.61733 -13.96116,-4.07102 -13.86478,2.96428 0.0755,5.5061 3.44567,8.10003 10.90925,8.39642 3.33184,0.13231 4.24954,-0.48843 5.62254,-3.80313 z M 318.4633,213.71889 c 2.05567,-1.87757 4.63175,-4.80639 5.72463,-6.5085 2.83423,-4.4142 5.15297,-25.66275 4.47179,-40.97882 -0.49728,-11.1812 -0.97794,-13.49279 -3.33073,-16.01822 -1.51226,-1.62323 -2.74958,-3.39928 -2.74958,-3.94679 0,-1.51774 -7.10675,-4.86114 -10.33285,-4.86114 -2.88425,0 -8.68208,5.49847 -24.46001,23.19706 -4.1553,4.66113 -8.15688,8.47477 -8.8924,8.47477 -0.73554,0 -3.1792,3.35036 -5.43038,7.44525 -6.81827,12.40244 -5.43373,26.82252 3.12673,32.56531 5.3993,3.62212 11.57679,5.60585 20.65144,6.63165 9.47011,1.0705 15.27737,-0.57156 21.22136,-6.00057 z m -23.3052,-5.15939 c -4.19984,-1.69472 -9.47252,-9.49915 -10.22924,-15.14094 -0.90709,-6.76282 1.28266,-11.59641 7.52668,-16.61426 6.27729,-5.04455 11.84837,-5.64124 19.86662,-2.12781 6.12253,2.68277 7.41745,4.08819 9.8543,10.69525 4.7472,12.87116 -13.58826,28.60707 -27.01836,23.18776 z m 16.01945,-12.81407 c 0,-6.74733 -1.31366,-7.56332 -8.05178,-5.00149 -3.92214,1.4912 -3.21988,5.94032 1.25978,7.98139 1.64526,0.74963 2.99138,2.10871 2.99138,3.02016 0,0.95258 0.80799,1.34715 1.90031,0.92799 1.33089,-0.51072 1.90031,-2.58667 1.90031,-6.92805 z m -5.25732,-15.06694 c 1.1638,-3.3385 1.03743,-3.80062 -1.03933,-3.80062 -4.10022,0 -6.37208,1.4517 -6.37208,4.07171 0,1.73172 0.60151,2.30292 1.90031,1.80452 1.04517,-0.40107 1.90031,-0.17701 1.90031,0.49789 0,2.68852 2.36372,1.00383 3.61079,-2.5735 z m 61.22368,37.25697 c 9.91873,-5.12917 17.04342,-15.53806 18.29526,-26.72866 0.59538,-5.32223 0.17067,-6.88908 -3.35263,-12.36852 -9.66686,-15.0339 -29.02449,-34.89912 -34.00738,-34.89912 -3.10936,0 -9.25696,5.73446 -12.24029,11.41769 -1.80483,3.4382 -2.37063,7.64986 -2.55076,18.98727 -0.12731,8.01298 -0.6541,17.80628 -1.17066,21.7629 -0.69463,5.32042 -0.49175,7.74342 0.77902,9.30416 4.42357,5.43296 8.08198,8.23326 12.92573,9.8939 11.66279,3.99848 12.95037,4.3821 15.14304,4.51171 1.25397,0.0741 4.03437,-0.77247 6.17867,-1.88133 z m -14.79298,-12.11744 c -4.61506,-1.21663 -10.47913,-6.47748 -12.16615,-10.91467 -1.33294,-3.50588 -0.61903,-9.2453 1.74343,-14.01622 1.29998,-2.62528 7.7688,-7.1451 8.94787,-6.25195 0.2486,0.1883 1.28839,-0.35176 2.31066,-1.20018 2.21717,-1.84008 7.78577,-1.0208 12.66927,1.86394 4.0634,2.40031 7.27099,10.38653 6.48221,16.1393 -1.2003,8.75395 -11.96096,16.49568 -19.98729,14.37978 z m 11.96324,-9.93705 c 1.54572,0 -0.008,-6.09034 -1.96854,-7.71768 -2.15855,-1.79142 -5.56064,0.54499 -5.56064,3.8188 0,2.84265 2.68148,5.38015 4.81873,4.56001 0.94758,-0.36363 2.16728,-0.66113 2.71045,-0.66113 z m -7.76175,-14.25232 c 0.4413,-3.83525 -0.57799,-4.21473 -5.40875,-2.01367 -5.30924,2.41904 -3.6288,6.31612 2.47414,5.7377 1.74631,-0.1655 2.65833,-1.32285 2.93461,-3.72403 z m 94.46773,-25.58019 c -1.16988,-3.04866 0.0407,-6.35319 2.50082,-6.82699 1.84854,-0.35599 2.15249,0.0953 1.48366,2.20248 -0.99599,3.1381 0.86109,3.47148 3.67317,0.6594 2.77289,-2.7729 2.49529,-4.69483 -1.17638,-8.14419 -3.44962,-3.24075 -4.02279,-6.23888 -1.64694,-8.61473 3.15651,-3.15651 9.88162,-0.97068 9.88162,3.21175 0,1.28129 -0.59584,1.37263 -2.45686,0.37664 -3.78337,-2.02479 -4.08739,0.33817 -0.57017,4.43142 3.63981,4.23592 3.28793,8.7123 -0.96797,12.3135 -3.17135,2.68352 -9.74913,2.92324 -10.72095,0.39072 z m 17.82127,-0.80752 c -0.46465,-0.75182 -0.22094,-3.74481 0.54157,-6.65108 0.76252,-2.90627 1.53661,-7.27478 1.72022,-9.70781 0.23508,-3.1153 1.01743,-4.55327 2.64513,-4.86183 2.06263,-0.391 2.21753,0.18715 1.43973,5.37383 -0.55599,3.7077 -0.39901,5.81199 0.43359,5.81199 0.71784,0 1.49518,-0.42757 1.72745,-0.95016 0.48009,-1.08023 8.85263,-7.54543 13.9751,-10.79145 3.44752,-2.18465 6.2799,-0.91988 3.26109,1.45619 -0.88628,0.69758 -3.8918,3.30126 -6.67892,5.78594 l -5.06749,4.51761 3.4839,3.09735 c 3.40727,3.02922 4.69261,7.0195 2.26111,7.0195 -0.67254,0 -3.18416,-1.72209 -5.58137,-3.82688 l -4.35858,-3.82688 -2.75664,4.46032 c -2.76153,4.46825 -5.46312,5.65433 -7.04589,3.09336 z m -45.83327,-2.2167 c -2.09921,-1.30181 1.01964,-21.49658 3.57338,-23.13788 4.2716,-2.74539 12.41776,1.67353 12.50994,6.78604 0.0527,2.92413 -5.22398,11.03156 -7.19296,11.0517 -0.84278,0.009 -2.8381,1.4216 -4.43406,3.13993 -1.75052,1.88476 -3.51849,2.74178 -4.4563,2.16021 z m 10.0062,-12.44861 c 2.84808,-2.57747 2.97338,-4.98154 0.31286,-6.00247 -3.35246,-1.28646 -4.00838,-0.90857 -4.69967,2.7077 -1.07338,5.61502 0.5094,6.80378 4.38681,3.29477 z m 8.12348,8.60216 c -0.37247,-0.60267 -0.0467,-4.45079 0.7237,-8.5514 1.95715,-10.41596 2.03734,-10.62283 4.11775,-10.62283 1.51392,0 1.74149,1.58949 1.22427,8.55139 -0.3494,4.70327 -0.86537,9.26401 -1.14659,10.13499 -0.58284,1.80513 -3.90159,2.13425 -4.91913,0.48785 z m -222.32931,-17.1843 c -0.9106,-4.58123 -2.39807,-8.44404 -3.3996,-8.82836 -2.88423,-1.10678 -2.06251,-3.16193 2.33672,-5.84419 5.13653,-3.13179 8.81313,-3.19659 11.52223,-0.20308 2.98407,3.29735 2.59795,7.55526 -1.12813,12.44039 -1.77363,2.32536 -3.13132,4.94458 -3.01708,5.82051 0.45315,3.4745 -0.19325,4.75978 -2.39382,4.75978 -1.81736,0 -2.64181,-1.71293 -3.92032,-8.14505 z m 7.92289,-10.28652 c -0.89978,-2.34481 -3.75537,-2.38185 -4.64623,-0.0603 -0.37529,0.97796 -0.34556,3.06597 0.0661,4.64001 l 0.7484,2.8619 2.26862,-2.80161 c 1.24773,-1.5409 1.95115,-3.6289 1.56314,-4.64003 z m 10.90086,10.5829 c -2.4083,-8.94376 -3.56414,-18.06248 -2.43882,-19.24059 1.9886,-2.08187 4.87559,0.26881 4.78653,3.89734 -0.048,1.95545 0.59801,6.82521 1.43561,10.82168 0.83758,3.99647 1.16546,7.84459 0.72863,8.55139 -1.57717,2.55193 -3.10778,1.18489 -4.51195,-4.02982 z m 11.15177,-1.99939 c -2.71857,-0.57965 -2.8754,-3.23091 -0.31672,-5.35442 1.31294,-1.08963 1.90031,-1.13758 1.90031,-0.15511 0,2.08574 5.76467,1.73461 7.58785,-0.46219 2.17599,-2.6219 0.84451,-5.23379 -3.18343,-6.24474 -11.92258,-2.99236 -12.86637,-13.40792 -1.21495,-13.40792 4.0364,0 3.67236,2.96716 -0.43824,3.57202 -1.51318,0.22265 -2.75123,1.15115 -2.75123,2.06333 0,1.48888 2.41419,2.79523 9.21356,4.98559 3.00978,0.96956 3.90135,3.70631 2.91693,8.95373 -0.96078,5.12142 -6.53504,7.5804 -13.71408,6.04971 z m 18.70572,-6.59 c -0.46546,-0.75313 -1.07031,-3.20611 -1.34411,-5.45107 -0.2738,-2.24498 -0.86239,-6.29014 -1.30796,-8.98929 -0.56336,-3.41272 -0.30421,-5.22022 0.85081,-5.93406 2.46969,-1.52636 3.68223,-0.22612 3.68223,3.94856 0,4.39034 1.42588,4.83447 3.18349,0.99157 0.68781,-1.50385 2.52627,-3.56406 4.08546,-4.57824 2.50056,-1.62649 2.923,-1.61439 3.58186,0.10262 0.42074,1.09644 -0.40236,3.09586 -1.88474,4.57824 -1.44744,1.44744 -2.6317,3.11029 -2.6317,3.69521 0,1.55175 6.30207,4.17346 7.80271,3.24602 0.75897,-0.46907 1.10648,0.42526 0.85523,2.20093 -0.49107,3.47027 -2.98227,3.9521 -7.20978,1.39447 -3.18977,-1.9298 -4.73564,-1.14629 -5.44254,2.75849 -0.51149,2.82541 -2.99335,4.0229 -4.22096,2.03659 z"
         style="fill:#626262;fill-opacity:1" />
      <path
         inkscape:connector-curvature="0"
         id="path4175"
         d="m 223.2885,341.03845 c -1.18275,-1.56964 -2.73964,-3.85982 -3.45974,-5.08929 -0.7201,-1.22947 -1.82492,-2.80673 -2.45515,-3.50502 -3.65534,-4.0501 -12.49846,-25.47054 -13.99883,-33.90895 -1.21386,-6.82704 -0.69998,-15.15146 1.69763,-27.5 3.59322,-18.50646 8.08442,-30.62121 17.87404,-48.21429 2.45929,-4.41964 5.32455,-9.64286 6.36724,-11.60714 4.82588,-9.09136 14.5674,-21.18494 27.49025,-34.12766 6.69739,-6.70769 11.07313,-10.50378 14.42133,-12.51098 8.5077,-5.10023 16.16878,-9.15065 16.56271,-8.75672 0.37702,0.37703 -1.20047,3.28471 -2.65625,4.89609 -0.74121,0.82043 -2.01902,1.77948 -2.83958,2.13121 -1.9766,0.84727 -3.84406,2.57953 -7.04168,6.53186 -5.25681,6.49754 -9.19465,13.56614 -10.58414,18.99898 -1.00346,3.9235 -1.00353,12.1078 -1.4e-4,16.03104 1.23053,4.81129 3.93943,8.55489 9.24808,12.78049 4.58353,3.64843 7.89348,4.97917 16.60801,6.67713 10.90442,2.12465 13.80824,2.15991 19.38199,0.23533 6.69824,-2.31285 10.48871,-4.81972 15.72809,-10.40193 2.11238,-2.25059 3.94637,-4.09198 4.07554,-4.09198 0.12917,0 0.892,0.87038 1.69518,1.93418 2.80044,3.70916 9.53852,7.45879 19.06826,10.61118 9.28395,3.07108 11.98487,3.11724 17.68509,0.30225 8.22451,-4.06159 15.82562,-12.03356 19.41742,-20.36482 2.60088,-6.0328 4.05304,-14.20773 3.20051,-18.01725 -0.65351,-2.92019 -5.61696,-9.96448 -13.71354,-19.46272 -3.89307,-4.56703 -5.68579,-7.08102 -5.39035,-7.55906 0.36242,-0.5864 3.78524,1.62732 7.78289,5.03362 4.97378,4.23804 22.03449,21.0831 29.50268,29.12976 13.83854,14.91044 16.37132,18.56563 25.68415,37.06602 5.32122,10.57088 8.55955,17.79602 11.69423,26.09138 6.63332,17.55386 8.8326,28.51761 8.85911,44.16403 0.0117,6.89845 -0.0832,8.36425 -0.67054,10.35714 -1.72064,5.83832 -8.39251,19.56051 -11.21239,23.06078 -3.14189,3.89997 -6.05069,4.68002 -9.7106,2.60406 -4.61248,-2.61627 -13.0096,-12.5965 -16.63566,-19.77198 -2.72404,-5.39052 -2.71105,-5.66971 0.57136,-12.27934 2.85991,-5.75889 3.68806,-7.90688 4.07822,-10.57781 0.14347,-0.98214 1.19932,-4.67857 2.34635,-8.21428 2.42916,-7.48791 2.73864,-9.4966 3.02639,-19.64286 0.26886,-9.48029 -0.36106,-37.67141 -0.88964,-39.81427 -0.92676,-3.75707 -5.25588,-6.83564 -6.45684,-4.59163 -0.4769,0.89111 -0.28163,4.01718 0.52062,8.33447 1.25528,6.75525 1.80749,15.11246 1.81708,27.5 0.0107,13.77281 -0.22733,15.822 -3.1938,27.5 -3.3937,13.35985 -5.52319,18.32174 -10.11857,23.57704 -5.07223,5.80064 -11.54545,11.73443 -16.0593,14.72103 -6.76652,4.47707 -20.74395,11.1608 -29.36335,14.04096 -9.4009,3.14129 -19.75886,4.15616 -32.5,3.18435 -5.96785,-0.4552 -9.96769,-1.25755 -17.5476,-3.52 -7.63903,-2.2801 -13.11534,-3.49519 -19.59591,-4.34798 -8.91076,-1.1726 -10.59397,-1.74103 -17.60772,-5.94631 -8.40098,-5.03702 -17.81751,-12.328 -24.57355,-19.02667 -8.07788,-8.00927 -9.81837,-11.55724 -11.0395,-22.50385 -0.48652,-4.36131 -0.48945,-36.18724 -0.004,-40.82364 0.54463,-5.19906 1.06527,-7.34175 4.98838,-20.52967 4.72271,-15.87588 6.06686,-21.09076 6.32924,-24.55545 0.18559,-2.45057 0.12539,-2.96524 -0.40935,-3.49998 -2.01452,-2.01452 -3.01009,0.34848 -11.26183,26.73017 -1.59743,5.10715 -3.20157,10.35417 -3.56476,11.66007 -2.35498,8.46756 -3.33114,44.65357 -1.48227,54.94708 1.1363,6.32633 2.98971,11.08213 6.1241,15.71428 2.83488,4.18952 3.57309,5.82545 3.57309,7.91818 0,6.17583 -4.95456,17.3988 -11.24619,25.47468 -2.20978,2.83644 -7.04174,7.67857 -7.66245,7.67857 -0.1781,0 -1.29153,-1.28425 -2.47429,-2.85388 z m 114.24007,-54.80371 c 6.72474,-0.89805 10.70766,-2.16702 14.18628,-4.51981 6.64772,-4.49625 11.94661,-11.49001 11.38177,-15.02231 -0.67191,-4.20186 -7.73266,-14.91749 -10.77029,-16.34534 -0.92243,-0.4336 -1.78568,-1.16715 -2.10878,-1.79198 -0.685,-1.32463 -2.63367,-2.67177 -6.97469,-4.82171 -4.203,-2.08158 -7.67511,-4.36951 -8.24388,-5.43227 -0.78347,-1.46391 -2.6531,-2.04429 -6.57755,-2.04182 -7.25849,0.005 -12.80825,2.04011 -16.64042,6.10334 -3.71295,3.93682 -7.95791,10.90479 -9.63479,15.8152 -1.01726,2.97884 -1.09856,8.0432 -0.18347,11.42858 2.21663,8.20037 9.57562,15.60619 16.63725,16.7431 3.16113,0.50894 14.78529,0.43833 18.92857,-0.11498 z"
         style="fill:#ffffff;fill-opacity:1;stroke:#626262;stroke-width:0;stroke-miterlimit:4;stroke-dasharray:none;stroke-dashoffset:0;stroke-opacity:1" />
      <path
         inkscape:connector-curvature="0"
         id="path4177"
         d="m 341.66259,262.41351 c -5.55191,-0.55739 -8.26639,-2.86881 -8.67617,-7.38791 -0.72123,-7.95388 7.62515,-9.1823 14.96081,-2.20193 2.46607,2.34664 2.58479,3.04638 1.05996,6.24723 -1.65329,3.47049 -2.45167,3.83384 -7.3446,3.34261 z"
         style="fill:#ffffff;fill-opacity:1;stroke:#626262;stroke-width:0;stroke-miterlimit:4;stroke-dasharray:none;stroke-dashoffset:0;stroke-opacity:1" />
      <path
         inkscape:connector-curvature="0"
         id="path4179"
         d="m 307.975,202.58437 c -0.24554,-0.0991 -0.44643,-0.46626 -0.44643,-0.81596 0,-0.81368 -1.58715,-2.40312 -3.24342,-3.24809 -1.94185,-0.99066 -3.54229,-2.98868 -3.54229,-4.42228 0,-1.71478 0.91219,-2.61095 3.67696,-3.61236 2.58876,-0.93767 4.17731,-1.09687 5.2447,-0.52562 1.8937,1.01348 1.86778,10.6596 -0.0329,12.23584 -0.78662,0.65235 -0.92327,0.6844 -1.65665,0.38847 z"
         style="fill:#ffffff;fill-opacity:1;stroke:#626262;stroke-width:0;stroke-miterlimit:4;stroke-dasharray:none;stroke-dashoffset:0;stroke-opacity:1" />
      <path
         inkscape:connector-curvature="0"
         id="path4181"
         d="m 302.46413,183.4459 c -0.0966,-0.68038 -0.33313,-0.80357 -1.5427,-0.80357 -1.78749,0 -2.32143,-0.33751 -2.32143,-1.46738 0,-2.49868 2.27639,-4.06833 5.90008,-4.06833 1.84159,0 1.95706,0.0519 1.95706,0.87963 0,2.1012 -2.27947,6.26322 -3.43027,6.26322 -0.24674,0 -0.49998,-0.3616 -0.56274,-0.80357 z"
         style="fill:#ffffff;fill-opacity:1;stroke:#626262;stroke-width:0;stroke-miterlimit:4;stroke-dasharray:none;stroke-dashoffset:0;stroke-opacity:1" />
      <path
         inkscape:connector-curvature="0"
         id="path4183"
         d="m 358.49726,195.40005 c -1.39023,-1.45108 -1.81147,-2.91847 -1.34021,-4.66859 0.71907,-2.67044 3.65847,-3.84183 5.2871,-2.10699 1.15113,1.2262 2.21069,3.84873 2.21944,5.49332 0.008,1.4497 -0.0199,1.48243 -1.57888,1.875 -2.5292,0.63686 -3.53378,0.50706 -4.58745,-0.59274 z"
         style="fill:#ffffff;fill-opacity:1;stroke:#626262;stroke-width:0;stroke-miterlimit:4;stroke-dasharray:none;stroke-dashoffset:0;stroke-opacity:1" />
      <path
         inkscape:connector-curvature="0"
         id="path4185"
         d="m 350.2736,184.95784 c -0.55274,-0.16591 -1.23578,-0.49321 -1.51786,-0.72732 -0.77257,-0.64117 -0.62001,-2.2559 0.29429,-3.11484 1.21558,-1.14197 4.85252,-2.63347 6.12032,-2.50992 1.04744,0.10208 1.11412,0.19928 1.21576,1.77221 0.25766,3.98741 -2.12897,5.77562 -6.11251,4.57987 z"
         style="fill:#ffffff;fill-opacity:1;stroke:#626262;stroke-width:0;stroke-miterlimit:4;stroke-dasharray:none;stroke-dashoffset:0;stroke-opacity:1" />
      <path
         inkscape:connector-curvature="0"
         id="path4187"
         d="m 349.63413,216.01183 c -7.96364,-2.877 -11.74208,-5.28701 -15.21896,-9.70714 -1.99077,-2.53086 -2.02065,-3.23771 -1.04444,-24.70994 0.77593,-17.06687 1.39366,-22.92368 2.71053,-25.69876 1.79135,-3.77499 9.74072,-11.75563 11.70958,-11.75563 5.30524,0 29.50079,25.91912 35.77111,38.31926 2.15724,4.26614 1.601,11.93284 -1.34973,18.60344 -2.5177,5.69169 -9.49536,13.35053 -14.47985,15.89343 -5.04289,2.57268 -8.92265,2.37018 -18.09824,-0.94466 z m 11.7078,-11.12593 c 4.97267,-2.25903 10.1666,-7.99476 11.10388,-12.26215 1.46042,-6.64927 -1.96498,-14.61423 -7.82032,-18.18427 -3.77945,-2.30436 -7.83115,-2.52987 -12.88867,-0.71738 -8.80428,3.15525 -12.12183,7.76681 -12.12183,16.84992 0,4.45108 0.46917,5.60007 3.78807,9.27686 6.19294,6.86075 10.97111,8.20241 17.93887,5.03702 z"
         style="fill:#ffffff;fill-opacity:1;stroke:#626262;stroke-width:0;stroke-miterlimit:4;stroke-dasharray:none;stroke-dashoffset:0;stroke-opacity:1" />
      <path
         inkscape:connector-curvature="0"
         id="path4189"
         d="m 295.67335,219.25069 c -6.26928,-0.94225 -14.27083,-3.61748 -17.91025,-5.98808 -5.93306,-3.86461 -8.18109,-9.33301 -7.6276,-18.55443 0.67929,-11.31749 3.03358,-14.96421 22.7069,-35.1724 14.02879,-14.41019 17.46367,-17.43291 19.80117,-17.42513 7.13802,0.0238 13.41304,6.89744 15.01261,16.4449 1.30762,7.80487 0.34352,30.99635 -1.68747,40.59202 -3.03669,14.34728 -15.14277,22.38052 -30.29536,20.10312 z m 13.05287,-10.86749 c 8.65744,-3.6173 15.68127,-13.91151 14.33891,-21.01524 -1.61801,-8.56239 -10.10492,-14.91272 -19.95787,-14.93346 -9.87124,-0.0208 -19.853,10.76012 -18.62063,20.11139 0.75671,5.74194 4.9091,12.8031 8.99356,15.29361 3.79416,2.31349 10.44285,2.5506 15.24603,0.5437 z"
         style="fill:#ffffff;fill-opacity:1;stroke:#626262;stroke-width:0;stroke-miterlimit:4;stroke-dasharray:none;stroke-dashoffset:0;stroke-opacity:1" />
    </g>
  </g>
</svg>
