<?xml version="1.0" encoding="UTF-8" standalone="no"?>
<!-- Created with Inkscape (http://www.inkscape.org/) -->

<svg
   xmlns:dc="http://purl.org/dc/elements/1.1/"
   xmlns:cc="http://creativecommons.org/ns#"
   xmlns:rdf="http://www.w3.org/1999/02/22-rdf-syntax-ns#"
   xmlns:svg="http://www.w3.org/2000/svg"
   xmlns="http://www.w3.org/2000/svg"
   xmlns:sodipodi="http://sodipodi.sourceforge.net/DTD/sodipodi-0.dtd"
   xmlns:inkscape="http://www.inkscape.org/namespaces/inkscape"
   width="210mm"
   height="297mm"
   viewBox="0 0 744.09448819 1052.3622047"
   id="svg4838"
   version="1.1"
   inkscape:version="0.91 r13725"
   sodipodi:docname="przetwarzanie.svg">
  <defs
     id="defs4840" />
  <sodipodi:namedview
     id="base"
     pagecolor="#ffffff"
     bordercolor="#666666"
     borderopacity="1.0"
     inkscape:pageopacity="0.0"
     inkscape:pageshadow="2"
     inkscape:zoom="0.49497475"
     inkscape:cx="641.23708"
     inkscape:cy="551.15979"
     inkscape:document-units="px"
     inkscape:current-layer="layer1"
     showgrid="false"
     inkscape:window-width="1304"
     inkscape:window-height="745"
     inkscape:window-x="54"
     inkscape:window-y="-8"
     inkscape:window-maximized="1" />
  <metadata
     id="metadata4843">
    <rdf:RDF>
      <cc:Work
         rdf:about="">
        <dc:format>image/svg+xml</dc:format>
        <dc:type
           rdf:resource="http://purl.org/dc/dcmitype/StillImage" />
        <dc:title></dc:title>
      </cc:Work>
    </rdf:RDF>
  </metadata>
  <g
     inkscape:label="Layer 1"
     inkscape:groupmode="layer"
     id="layer1">
    <path
       style="fill:#000000"
       d="m 404.03568,306.36928 c -2.89693,-3.07165 -3.38964,-4.26048 -3.1487,-7.59741 0.24013,-3.32586 -0.10769,-4.17372 -2.18375,-5.32312 -3.87088,-2.14309 -6.11007,-1.7016 -9.92721,1.9573 -1.94819,1.86743 -6.691,5.48594 -10.53959,8.04113 l -6.99743,4.6458 -12.62339,-0.14354 c -13.0017,-0.14785 -18.53012,-1.50054 -23.12404,-5.65798 -0.97803,-0.88511 -3.23613,-1.76064 -5.01798,-1.94563 -1.78185,-0.18499 -5.39689,-1.49984 -8.03342,-2.92191 -3.77682,-2.03711 -5.09468,-2.33576 -6.21264,-1.40794 -2.21055,1.8346 -12.66512,2.393 -18.51743,0.98905 -7.1931,-1.7256 -13.88298,-8.24352 -16.92946,-16.4943 -3.88949,-10.5339 -6.37936,-30.55838 -3.98377,-32.03894 1.29818,-0.80232 4.93699,2.31818 4.93699,4.23377 0,2.05571 3.52531,8.58758 6.6193,12.26458 2.7611,3.28138 10.21674,8.53788 10.99954,7.75509 0.23643,-0.23644 -0.29585,-3.08142 -1.18285,-6.32219 -1.8961,-6.92768 -2.75412,-22.53452 -1.50911,-27.44989 0.47957,-1.89333 1.83711,-7.71742 3.01676,-12.94242 1.17965,-5.225 2.62671,-10.625 3.21568,-12 0.97725,-2.28146 1.32962,-37.8444 0.38433,-38.78968 -0.20534,-0.20535 -2.21193,1.41091 -4.45907,3.59169 -4.41323,4.2829 -8.07366,5.53284 -11.92012,4.07042 -2.43535,-0.92592 -2.43646,-0.93331 -1.90533,-12.64945 0.42545,-9.38483 1.05555,-13.08604 3.15921,-18.55705 4.92516,-12.80895 21.47478,-34.66593 26.24827,-34.66593 1.73774,0 1.73066,2.63358 -0.009,3.3011 -0.73825,0.28329 -4.00075,3.98541 -7.25,8.22693 -13.86372,18.09747 -17.46777,26.10824 -17.81699,39.60202 -0.1258,4.86073 0.0836,9.34311 0.46542,9.96083 1.22132,1.97615 4.80208,-0.064 9.1383,-5.20646 3.6603,-4.3409 4.16864,-5.52455 3.94414,-9.18379 -0.47888,-7.80541 2.5664,-24.1003 5.48279,-29.33774 1.4893,-2.67459 3.58799,-6.43564 4.66374,-8.3579 6.83933,-12.22113 17.29953,-23.17321 26.21486,-27.447581 8.0219,-3.84601 21.1243,-4.75623 28.28151,-1.9647 2.59517,1.01219 5.03541,1.85542 5.42275,1.87382 0.38734,0.0184 2.75819,1.750351 5.26856,3.848761 6.10367,5.10203 11.42358,15.76945 12.24358,24.55067 0.53116,5.68807 0.91526,6.58888 3.42005,8.02088 3.62501,2.07242 5.27912,6.11289 4.49921,10.99018 -0.42475,2.65619 -0.0907,4.90648 1.07449,7.2387 0.92996,1.86135 1.62645,5.02171 1.54776,7.02302 -0.36832,9.36765 -9.93586,21.25207 -19.53059,24.26014 -3.81671,1.19659 -3.42562,6.42935 0.86128,11.52405 3.31644,3.94136 5.4114,3.99885 5.4114,0.1485 0,-3.44933 1.88248,-5.57766 6.72177,-7.59964 4.54435,-1.89875 6.28662,-1.85464 9.26959,0.23471 1.40122,0.98145 3.82705,1.58668 5.70954,1.4245 2.6846,-0.23129 3.48395,0.18059 4.44531,2.29055 1.5901,3.48989 -0.38899,10.03619 -3.68756,12.1975 -1.85843,1.21769 -2.46239,2.49837 -2.47396,5.24596 -0.0177,4.19083 -0.64773,5.39511 -3.64908,6.97465 -2.14094,1.12673 -2.14486,1.17981 -0.36211,4.89971 0.99126,2.06834 3.02639,8.26063 4.52253,13.76063 2.14942,7.90161 2.59278,11.2359 2.11283,15.88975 -0.60722,5.88791 -3.39514,16.6534 -6.21975,24.01738 -1.58879,4.14212 -1.6013,4.1139 2.98157,6.72613 1.37712,0.78495 1.6842,0.76456 1.16391,-0.0773 -0.96588,-1.56282 1.31735,-4.09487 5.12933,-5.68832 4.84962,-2.02719 10.46233,0.18734 11.96684,4.72159 0.6737,2.03038 0.79292,4.29641 0.29494,5.60618 -0.66094,1.73842 -0.4212,2.32994 1.14589,2.82731 3.09286,0.98164 5.20515,4.94082 4.45592,8.35202 -0.99246,4.51864 -5.90891,9.11902 -9.78621,9.15706 -1.78271,0.0175 -4.11481,0.6925 -5.18243,1.5 -3.59807,2.72145 -8.45252,1.86072 -12.25705,-2.17325 z m 10.34563,-3.50462 c -0.12377,-2.64083 0.23553,-3.17767 2.23728,-3.34281 1.58156,-0.13047 2.54703,0.42391 2.86663,1.64607 0.26727,1.02205 1.38026,1.84281 2.49892,1.84281 2.24989,0 6.74661,-4.6706 6.7485,-7.00945 10e-4,-1.79714 -3.66881,-4.31252 -5.04841,-3.45988 -1.41546,0.8748 -4.95037,-0.46466 -4.95037,-1.87582 0,-0.6657 0.9,-1.98097 2,-2.92282 5.11787,-4.38206 -0.93645,-10.97714 -7.06574,-7.69685 -1.34099,0.71768 -1.93426,2.0979 -1.93426,4.5 0,1.90565 -0.41818,3.46482 -0.92929,3.46482 -1.26259,0 -11.68514,-7.17507 -16.39719,-11.28811 -3.12776,-2.73016 -3.57543,-3.54841 -2.45164,-4.48107 1.06675,-0.88532 2.00949,-0.59569 4.2069,1.29249 1.55763,1.33844 3.17769,2.21991 3.60012,1.95883 1.55257,-0.95954 6.12714,-17.17674 6.62388,-23.48214 0.43515,-5.52366 -0.0191,-8.20787 -3.02408,-17.87012 -1.94488,-6.25357 -4.23197,-12.139 -5.08242,-13.07874 -0.85045,-0.93974 -1.54628,-2.13568 -1.54628,-2.65764 0,-0.52196 -0.9,-1.71962 -2,-2.66147 -1.1,-0.94185 -2,-2.61686 -2,-3.72224 0,-1.10539 -0.30965,-2.00979 -0.68812,-2.00979 -1.12476,0 -7.29763,4.43633 -7.30505,5.25 -0.0101,1.1129 -2.7906,0.90888 -3.51157,-0.25767 -0.76257,-1.23386 0.62535,-2.64357 6.68492,-6.78988 5.24379,-3.58811 7.76829,-4.05072 7.92612,-1.45245 0.0585,0.9625 0.17096,2.5985 0.25,3.63556 0.19671,2.58107 2.81698,4.03875 5.87862,3.27033 3.78866,-0.9509 4.21702,-3.47036 1.28879,-7.58037 -2.3222,-3.2594 -2.40154,-3.68261 -0.89743,-4.78677 1.17549,-0.86292 2.20382,-0.91486 3.57578,-0.18061 2.3798,1.27363 4.38096,-0.14654 5.03617,-3.57403 0.74076,-3.87506 -0.62381,-5.2009 -3.67319,-3.56892 -1.41077,0.75502 -2.56504,2.00472 -2.56504,2.77711 0,0.80858 -0.74241,1.25093 -1.75,1.04271 -1.01836,-0.21045 -1.67741,-1.1644 -1.57637,-2.28177 0.0955,-1.05607 -0.24544,-2.70316 -0.75763,-3.6602 -0.82417,-1.53996 -1.29099,-1.58882 -4.05929,-0.42484 -4.11252,1.72919 -5.46829,4.12115 -3.12337,5.51052 1.63149,0.96666 1.57538,1.19901 -0.73334,3.03678 -1.375,1.09452 -3.2875,2.00003 -4.25,2.01226 -0.9625,0.0122 -1.75,0.38184 -1.75,0.82135 0,0.83536 -5.77989,3.20089 -7.821,3.20089 -1.71649,0 -1.44392,-2.75236 0.37328,-3.76932 1.33712,-0.74829 1.10721,-1.64357 -1.65867,-6.45907 -2.72394,-4.74248 -3.47013,-5.42851 -4.91981,-4.52317 -1.79398,1.12035 -4.9738,0.43925 -4.9738,-1.06537 0,-0.48383 1.83937,-1.60222 4.08749,-2.4853 2.50425,-0.9837 3.82076,-2.03721 3.39885,-2.71987 -0.37875,-0.61283 -1.27584,-0.88892 -1.99353,-0.61351 -2.01334,0.77259 -4.78227,-2.87702 -4.01556,-5.29273 0.75402,-2.3757 3.52275,-2.82501 3.52275,-0.57166 0,1.74246 5.49313,2.12914 6.52514,0.45932 0.35375,-0.57237 1.48281,-0.77418 2.50904,-0.44847 4.05751,1.2878 10.85693,-4.7156 13.90533,-12.27742 1.95741,-4.85553 0.86629,-11.50584 -2.56307,-15.62167 -3.80417,-4.56569 -8.71087,-7.03833 -11.25981,-5.67418 -1.43966,0.77048 -2.22924,0.63166 -3.22388,-0.56681 -1.10783,-1.33486 -1.03526,-1.79339 0.45647,-2.88418 0.97555,-0.71334 2.82309,-1.18179 4.10563,-1.041 1.96861,0.2161 2.42469,-0.30498 2.92752,-3.34481 0.96622,-5.84124 0.70446,-11.92908 -0.54616,-12.70201 -1.32877,-0.82122 -5.83621,3.93396 -5.83621,6.15699 0,0.79433 -0.9,1.44424 -2,1.44424 -1.30637,0 -2,-0.66667 -2,-1.92226 0,-2.45106 6.33004,-10.66718 7.93758,-10.30262 1.49827,0.33978 0.46616,-3.54352 -1.55586,-5.85386 -0.75995,-0.86831 -1.4038,-1.99331 -1.43078,-2.5 -0.11098,-2.08403 -7.81887,-8.28807 -12.95094,-10.42413 -7.36456,-3.065281 -18.57245,-2.820941 -25.08506,0.54686 -1.54859,0.8008 -3.37628,1.45601 -4.06153,1.45601 -4.71655,0 -20.30241,17.61424 -22.6206,25.56449 -0.70834,2.42927 -2.59916,6.35979 -4.20182,8.73449 -3.66514,5.4307 -4.50948,13.31299 -3.98491,37.20102 0.62219,28.33365 0.50428,34.82666 -0.70821,39 -2.36641,8.14508 -6.42676,27.13777 -6.70504,31.36351 -0.15804,2.39994 0.27056,8.42128 0.95246,13.38077 1.38284,10.0575 6.26583,21.453 11.38713,26.57429 4.33852,4.33853 12.89437,9.72858 18.40044,11.592 2.68007,0.90702 6.95507,2.87319 9.5,4.36928 4.19096,2.46373 5.73581,2.75368 16.38812,3.0758 6.46854,0.19561 12.80738,0.093 14.08631,-0.22797 2.26446,-0.56834 16.82386,-11.47755 18.12274,-13.57918 0.35767,-0.57874 -0.50176,-1.49026 -1.90986,-2.02562 -1.40809,-0.53536 -2.56017,-1.44864 -2.56017,-2.02951 0,-2.41499 3.20859,-1.91301 10.14359,1.58696 4.04603,2.04196 8.48141,4.02574 9.85641,4.40841 2.72569,0.75856 2.96175,3.85542 0.40483,5.31094 -1.1901,0.67747 -1.15423,1.28881 0.23471,4 1.99024,3.88491 3.07406,4.66515 6.50791,4.68501 2.33642,0.0135 2.63012,-0.35429 2.5,-3.13076 z m -72.61036,-13.90975 c -5.86583,-2.2139 -10.74663,-7.23528 -11.49904,-11.83025 -0.32547,-1.98766 -0.47729,-7.37011 -0.33739,-11.96099 0.21879,-7.17962 -0.007,-8.53839 -1.61657,-9.71511 -3.43062,-2.50853 -0.60719,-15.37543 3.91591,-17.84559 1.1,-0.60073 2.225,-1.37321 2.5,-1.71661 0.275,-0.3434 1.96363,-0.9419 3.75251,-1.33001 2.47178,-0.53625 4.10431,-0.17919 6.80107,1.48749 4.25772,2.63142 6.00289,5.21685 6.87298,10.18219 0.43366,2.47472 2.22416,5.42187 5.36224,8.82615 4.87741,5.29116 8.06253,11.558 8.15682,16.04883 0.0772,3.67633 -5.50422,14.36052 -9.06879,17.3599 -3.51633,2.95881 -7.92066,3.10542 -14.83974,0.494 z m 12.71371,-3.29017 c 2.30002,-1.42149 6.37598,-9.92966 6.90554,-14.41462 0.52163,-4.41785 0.29785,-5.0427 -3.29837,-9.21003 -2.12189,-2.45886 -4.83196,-5.39977 -6.02239,-6.53536 -1.19043,-1.13559 -2.49027,-3.8488 -2.88854,-6.02936 -1.56184,-8.55133 -6.96309,-12.61679 -12.9618,-9.75621 -4.87888,2.32658 -5.87891,6.35288 -3.48683,14.03863 1.36788,4.395 1.69065,7.78898 1.31158,13.7913 -0.45333,7.1782 -0.27106,8.30151 1.85236,11.41554 3.48224,5.10674 14.65215,9.13288 18.58845,6.70011 z m -9.57163,-94.40401 c -4.26046,-13.02761 -4.79942,-18.85466 -2.69723,-29.16145 1.99504,-9.78148 4.41385,-15.83262 7.3946,-18.49909 3.34698,-2.99408 3.41044,-1.41552 0.22822,5.67704 -3.45781,7.70681 -5.57255,20.0762 -4.70146,27.4995 0.65484,5.58056 5.2509,18.234 6.62305,18.234 0.44752,0 3.0034,-2.45681 5.67972,-5.45958 6.28579,-7.0525 9.14286,-14.7409 11.28204,-30.36003 1.76341,-12.87542 1.43745,-19.0141 -1.45548,-27.4109 -1.5968,-4.63474 -1.29659,-5.76949 1.52639,-5.76949 1.39776,0 1.94098,0.69172 1.94098,2.47158 0,1.35937 0.74603,5.86675 1.65785,10.01641 1.54556,7.03378 1.54459,8.33962 -0.0143,19.27842 -1.66124,11.65687 -4.27018,21.68814 -7.0153,26.97364 -3.31067,6.37434 -13.088,16.25995 -16.08188,16.25995 -0.64824,0 -2.61348,-4.3875 -4.3672,-9.75 z M 312.52257,293.5104 c 2.25087,-0.64812 2.23137,-0.71154 -1.17926,-3.83555 -3.75414,-3.43866 -8.60945,-10.10203 -8.60945,-11.81552 0,-0.58442 -0.73366,-0.78105 -1.63035,-0.43696 -3.71799,1.42673 -14.90827,-7.44645 -19.43617,-15.41164 l -1.98962,-3.5 0.52886,3 c 0.29087,1.65 0.77177,5.01576 1.06866,7.47946 0.29689,2.4637 2.0815,7.6387 3.9658,11.5 4.08786,8.37679 8.69464,12.08182 16.64432,13.38627 5.37674,0.88226 6.42752,0.8461 10.63721,-0.36606 z m -40.59792,-10.24967 c -2.87455,-7.51535 -3.58207,-21.25872 -1.2162,-23.62459 0.56397,-0.56397 1.05295,-0.82291 1.08662,-0.57541 0.0337,0.2475 0.19209,3.375 0.35206,6.95 0.15998,3.575 1.04948,9.10289 1.97667,12.2842 1.60038,5.49106 1.50591,7.7158 -0.32764,7.7158 -0.45081,0 -1.29299,-1.2375 -1.87151,-2.75 z m 14.67437,-30.23161 c -2.86851,-4.42389 -8.33094,-22.36221 -7.48269,-24.57272 0.83412,-2.17368 3.87569,-0.54086 3.27455,1.75789 -0.83417,3.18987 4.95961,18.2316 8.65593,22.47241 1.91445,2.19647 1.59536,4.32403 -0.64853,4.32403 -0.66965,0 -2.37932,-1.79172 -3.79926,-3.98161 z m 145.39213,-60.83821 c -0.98455,-0.62526 -0.99694,-2.98861 -0.0596,-11.37651 1.16233,-10.40146 1.222,-10.56958 3.39902,-9.57766 2.33298,1.06298 6.4033,10.10722 6.4033,14.22812 0,5.04499 -5.9364,9.14329 -9.74271,6.72605 z m 5.26562,-5.25235 c 0.36172,-1.1397 0.32744,-3.2772 -0.0762,-4.75 l -0.73385,-2.67783 -0.75675,2.5 c -1.09248,3.6091 -1.10386,7 -0.0235,7 0.51294,0 1.22857,-0.93248 1.5903,-2.07217 z m -24.09112,-10.60769 c -0.30759,-1.00108 -1.25581,-3.24433 -2.10715,-4.98501 -2.70872,-5.53835 0.51896,-7.2188 5.08849,-2.64927 3.43829,3.43829 3.34292,8.63578 -0.1676,9.13428 -1.49201,0.21186 -2.44361,-0.29543 -2.81374,-1.5 z m -6.8608,-24.20527 c -0.90379,-1.46237 1.59883,-7.42796 4.34816,-10.36487 2.73501,-2.92161 7.488,-3.73733 8.37086,-1.43662 1.19903,3.12461 -0.59054,6.72756 -4.40692,8.87248 -2.1357,1.20033 -3.88309,2.54956 -3.88309,2.99828 0,1.10155 -3.74157,1.04303 -4.42901,-0.0693 z m 7.85972,-8.01749 c -0.26308,-0.26308 -1.25511,0.33267 -2.20452,1.3239 -1.64929,1.72194 -1.62798,1.74325 0.47833,0.47833 1.21249,-0.72815 1.98927,-1.53915 1.72619,-1.80223 z"
       id="path4857"
       inkscape:connector-curvature="0" />
    <path
       style="fill:#000000"
       d="m 362.78748,715.784 c -1.29844,-1.0817 -3.56081,-1.96673 -5.0275,-1.96673 -1.46669,0 -3.77934,-0.77931 -5.13921,-1.73181 -1.35988,-0.9525 -2.60075,-1.59498 -2.7575,-1.42773 -0.15674,0.16724 -2.18174,-0.57658 -4.5,-1.65295 -5.45644,-2.53343 -27.18667,-9.7691 -31.71501,-10.56038 -7.09371,-1.23955 -36.64819,-8.72088 -41.5,-10.50518 -4.72552,-1.73785 -19.692,-6.01378 -23,-6.57111 -6.5912,-1.11047 -9.1823,-1.93 -16.43872,-5.19934 -14.38813,-6.4825 -16.819,-8.2702 -19.58438,-14.40274 -1.70424,-3.77931 -1.70359,-4.25468 0.0157,-11.55539 1.91728,-8.14144 3.94256,-11.16789 9.47211,-14.1545 2.99398,-1.61711 3.82143,-1.6934 6.09024,-0.56157 2.18782,1.09143 3.44406,1.06866 7.53529,-0.13655 2.70037,-0.79548 6.25976,-1.68793 7.90976,-1.98323 5.53741,-0.99101 17.07698,-3.81706 35,-8.57154 15.66028,-4.15424 33.79399,-10.63907 36.63116,-13.09973 2.60873,-2.26254 4.7261,-2.4218 5.49678,-0.41345 0.5068,1.32071 2.65864,2.00519 8.87206,2.82211 1.1,0.14462 2.5625,0.61399 3.25,1.04304 1.53325,0.95685 1.65226,4.3613 0.16972,4.85548 -0.75044,0.25014 -0.70015,1.19437 0.16471,3.09254 0.88252,1.93692 2.43439,3.05415 5.33028,3.83744 2.24691,0.60775 4.69884,1.28408 5.44874,1.50295 0.8096,0.23629 1.15309,1.20237 0.8456,2.37824 -0.28482,1.08916 0.0816,3.97206 0.81421,6.40644 1.8025,5.98924 1.02131,8.58896 -2.58087,8.58896 -3.7431,0 -4.45947,-1.41745 -4.08806,-8.08895 l 0.31114,-5.58895 -2.96757,0.43555 c -2.49785,0.3666 -3.05732,0.9886 -3.53458,3.92962 -0.70591,4.35006 0.62051,6.54194 5.6795,9.38525 3.12526,1.75649 5.41387,2.19643 10.89913,2.09514 5.96483,-0.11015 7.40142,0.22128 10.19502,2.35206 5.01449,3.82474 15.56303,3.08846 15.56303,-1.08629 0,-2.30546 2.12169,-2.61721 7.84451,-1.15264 7.76392,1.98693 15.56011,0.77987 21.95881,-3.39981 2.84677,-1.85954 5.4499,-4.21247 5.78473,-5.22874 0.65421,-1.98564 0.78291,-1.97727 10.41195,0.67704 10.7569,2.96521 27.43505,5.74607 33.16267,5.52942 2.48758,-0.0941 5.04363,0.15077 5.6801,0.54413 2.09951,1.29757 1.27461,4.60204 -1.40294,5.62005 -1.4081,0.53536 -2.27239,1.43903 -1.92065,2.00816 0.35175,0.56913 -0.29618,2.6207 -1.43982,4.55903 -1.14365,1.93834 -2.07936,4.13603 -2.07936,4.88376 0,0.74773 -0.5625,1.58648 -1.25,1.86389 -0.72518,0.29262 -0.49048,0.53753 0.55902,0.58333 0.99496,0.0434 1.58946,0.4342 1.32111,0.86839 -0.26835,0.4342 1.51406,1.85149 3.96091,3.14954 3.44273,1.82636 4.316,2.77857 3.8615,4.21055 -0.32302,1.01776 -0.15514,1.85047 0.37308,1.85047 1.57196,0 2.24393,3.00152 1.13561,5.07244 -0.56738,1.06016 -1.74383,1.92756 -2.61434,1.92756 -0.8705,0 -5.46717,1.73522 -10.21481,3.85604 -4.74765,2.12083 -9.84973,4.14942 -11.33798,4.50799 -1.48824,0.35856 -3.96324,1.1687 -5.5,1.80031 -1.53675,0.63161 -3.9191,1.32061 -5.2941,1.53112 -1.375,0.21051 -3.85,1.00416 -5.5,1.76366 -1.65,0.75951 -10.97366,4.54368 -20.71925,8.40926 -9.74559,3.86559 -18.61721,7.50891 -19.7147,8.09627 -1.0975,0.58737 -4.11848,1.31762 -6.71329,1.62279 -2.59481,0.30517 -5.63582,1.19784 -6.7578,1.98371 -2.65326,1.85841 -3.6066,1.76915 -6.45574,-0.60442 z m 16.86078,-7.69391 c 4.675,-1.91196 10.975,-4.51194 14,-5.77774 3.025,-1.26579 10,-3.94667 15.5,-5.95749 5.5,-2.01083 11.41801,-4.3044 13.15113,-5.09682 1.73312,-0.79242 3.78062,-1.44077 4.55,-1.44077 0.76938,0 1.82637,-0.35969 2.34887,-0.79931 0.5225,-0.43962 4.55,-2.2828 8.95,-4.09595 4.4,-1.81315 10.68413,-4.54648 13.96474,-6.07407 l 5.96473,-2.77743 -3.21473,-0.70608 c -1.76811,-0.38834 -3.21474,-1.12032 -3.21474,-1.62662 0,-0.50629 -1.125,-0.92054 -2.5,-0.92054 -2.7067,0 -2.89221,-0.47151 -2.5574,-6.5 0.15135,-2.72517 0.90823,-4.53594 2.37484,-5.68161 1.18397,-0.92488 1.82581,-2.00848 1.4263,-2.40799 -0.39952,-0.39951 -0.16779,-1.41454 0.51494,-2.25562 1.05875,-1.30433 0.94717,-1.41222 -0.75868,-0.73356 -1.1,0.43763 -3.575,1.22141 -5.5,1.74175 -1.925,0.52034 -4.175,1.21524 -5,1.54423 -0.825,0.32898 -3.525,1.37759 -6,2.33023 -17.91194,6.89439 -23.06332,8.96175 -27.20303,10.91716 -2.58666,1.22183 -5.16482,1.9361 -5.72924,1.58727 -1.24294,-0.76818 -19.06773,7.35636 -19.06773,8.69107 0,0.52917 -1.64537,0.6805 -3.75,0.3449 -4.22938,-0.6744 -7.78534,0.78349 -9.95323,4.08067 -1.39601,2.12322 -1.35693,2.14343 2.39201,1.23664 8.44161,-2.04185 9.31122,-2.13838 9.31122,-1.03356 0,0.61137 -1.575,1.76966 -3.5,2.57397 -3.81145,1.59253 -4.70013,2.69105 -1.5,1.8542 2.13354,-0.55794 2.32019,-0.0864 1.36971,3.46025 -0.34591,1.29078 -1.38073,2.25 -2.42732,2.25 -1.0034,0 -2.10247,0.45 -2.44239,1 -0.33992,0.55 0.30852,1 1.44098,1 2.51803,0 2.67968,1.53441 0.30902,2.93317 -1.35365,0.7987 -1.01392,0.89488 1.5,0.42469 4.5953,-0.85948 4.43138,2.09714 -0.20103,3.62598 -5.71156,1.88498 -9.771,-1.61895 -6.11326,-5.2767 0.8239,-0.8239 1.06247,-1.81315 0.55982,-2.32143 -0.48174,-0.48714 -1.10802,-2.17842 -1.39174,-3.7584 -0.70529,-3.92768 -1.38208,-4.34066 -2.46136,-1.50192 -1.79562,4.72284 -2.14297,13.73121 -0.58936,15.28482 0.79581,0.79581 1.44693,2.16265 1.44693,3.03741 0,2.05406 2.72658,1.43575 14,-3.1748 z m 12.95035,-19.36559 c -1.24219,-2.32106 1.04531,-5.19468 5.47617,-6.87929 3.56177,-1.35418 6.12081,0.32603 3.48682,2.28938 -0.87266,0.65047 -2.09591,2.13897 -2.71833,3.30777 -1.59082,2.98727 -4.9617,3.67938 -6.24466,1.28214 z m -33.27755,13.69989 c 0.17128,-7.31876 1.48549,-11.40822 5.73543,-17.84693 1.7496,-2.65067 1.74798,-2.75937 -0.0499,-3.34068 -1.02208,-0.33048 -2.75833,-0.95877 -3.85833,-1.3962 -1.1,-0.43744 -4.025,-1.32771 -6.5,-1.97838 -4.90766,-1.29021 -13.61476,-3.89494 -16,-4.7864 -0.825,-0.30834 -1.95,-0.68013 -2.5,-0.82621 -0.55,-0.14608 -3.87112,-1.20311 -7.38027,-2.34896 -3.50915,-1.14585 -7.13165,-2.08336 -8.05,-2.08336 -0.91835,0 -2.09723,-0.36657 -2.61973,-0.8146 -0.5225,-0.44804 -4.55,-1.79063 -8.95,-2.98355 -22.24512,-6.03104 -27.04915,-7.42538 -28.78617,-8.355 -1.03909,-0.55611 -2.92732,-1.19934 -4.19606,-1.42941 -1.26874,-0.23006 -8.09177,-2.2623 -15.16229,-4.51607 -7.07051,-2.25378 -15.78048,-4.89634 -19.35548,-5.87236 -3.575,-0.97602 -8.43981,-2.56662 -10.81069,-3.53466 -3.40887,-1.39186 -4.82149,-1.52734 -6.7523,-0.64761 -3.18262,1.45011 -5.81121,5.87617 -7.38442,12.43403 -1.63262,6.80555 0.28782,12.26653 4.92992,14.01873 1.65962,0.62644 3.01749,1.46898 3.01749,1.87232 0,0.93831 15.53907,8.3463 19.5,9.2963 3.073,0.73704 3.73936,0.88627 11.5,2.57537 2.475,0.53869 8.55,2.13105 13.5,3.5386 15.44687,4.39235 41.86089,11.42958 45,11.98891 6.65777,1.18629 25.18485,6.97473 32.17016,10.05097 1.7436,0.76785 4.56546,1.67515 6.27081,2.01622 1.70536,0.34108 3.34284,1.01201 3.63886,1.49097 0.29601,0.47896 1.07415,0.86888 1.72919,0.86648 0.79772,-0.003 1.24804,-2.44259 1.36378,-7.38852 z m 11.8272,-26.60712 c -2.2,-1.01842 -4.99133,-1.88505 -6.20295,-1.92584 -1.21162,-0.0408 -3.23662,-0.49298 -4.5,-1.00486 -1.26338,-0.51189 -8.82205,-2.5806 -16.79705,-4.59714 -7.975,-2.01654 -15.4,-4.06958 -16.5,-4.56231 -3.57659,-1.60209 -10.93977,-4.05767 -13.5,-4.50217 -6.6799,-1.15974 -13.00477,-2.77167 -18,-4.5874 -18.63688,-6.77436 -24.10728,-8.38524 -31.95328,-9.40934 -3.62729,-0.47345 -5.00594,-1.75059 -5.03141,-4.66094 -0.0186,-2.11974 0.83042,-2.16901 5.71445,-0.33163 4.31132,1.62192 14.43608,4.70144 21.77024,6.62159 2.75,0.71997 5.9,1.87687 7,2.57088 2.26313,1.42786 11.1917,4.2462 23,7.26005 4.4,1.12301 11.375,3.00386 15.5,4.17965 13.21939,3.76806 27.9631,7.58725 34.7643,9.00529 2.34536,0.48901 5.12827,1.35149 6.18425,1.91664 1.05598,0.56514 2.81205,1.02753 3.90238,1.02753 1.09032,0 2.15436,0.51587 2.36453,1.14637 0.25686,0.77058 2.33303,0.31296 6.33333,-1.39596 11.73642,-5.01377 16.34706,-6.75041 17.92177,-6.75041 0.8799,0 2.59647,-0.64157 3.81462,-1.42571 1.21815,-0.78415 5.36482,-2.41408 9.21482,-3.62209 3.85,-1.208 8.4625,-2.81643 10.25,-3.57428 4.32268,-1.83271 9.51824,-4.06037 13.5,-5.78829 1.7875,-0.7757 3.91782,-1.5983 4.73404,-1.82801 0.81622,-0.22971 -2.33378,-1.1534 -7,-2.05267 -4.66622,-0.89926 -11.76744,-2.34963 -15.78049,-3.22305 l -7.29645,-1.58804 -4.70355,3.44165 c -2.58695,1.8929 -6.47269,4.17703 -8.63498,5.07585 -4.37492,1.81855 -15.73764,2.31375 -19.50369,0.85 -1.99507,-0.77543 -2.80826,-0.52505 -4.5,1.38553 -1.52541,1.72275 -3.5755,2.50182 -7.84699,2.98201 -4.98874,0.56082 -6.42944,0.30775 -10.5,-1.84439 -3.28534,-1.73699 -6.04326,-2.42965 -9.0828,-2.28119 -6.21056,0.30336 -13.99599,-2.85275 -17.94628,-7.27517 -3.10343,-3.47435 -3.26867,-4.02145 -2.63363,-8.71954 0.37265,-2.75694 0.96269,-5.13243 1.31119,-5.27887 3.4198,-1.43701 3.58735,-2.2449 0.92704,-4.46996 -1.80964,-1.51357 -2.80383,-3.41986 -3,-5.75228 -0.27066,-3.21804 -0.60354,-3.54221 -4.29341,-4.18119 -4.04782,-0.70096 -15.00025,1.55206 -16.08615,3.30908 -0.29253,0.47333 -1.29582,0.86061 -2.22952,0.86061 -0.93369,0 -5.74464,1.36297 -10.69098,3.02881 -4.94634,1.66585 -9.66835,3.22212 -10.49335,3.45839 -4.53622,1.2991 -33.95642,8.60176 -36.5,9.06 -5.34047,0.96211 -10.71429,2.57184 -10.22364,3.0625 0.26304,0.26303 1.77096,0.69877 3.35095,0.9683 1.57998,0.26953 6.92269,1.79185 11.87269,3.38293 4.95,1.59109 11.7,3.62379 15,4.51711 3.3,0.89333 11.625,3.3635 18.5,5.48928 6.875,2.12578 19.025,5.72925 27,8.00772 16.61834,4.74789 20.78553,5.97364 30.5,8.9714 3.85,1.18806 10.33854,3.03718 14.41897,4.10914 4.08043,1.07197 7.64293,2.17299 7.91667,2.44672 0.27373,0.27374 2.33519,0.46433 4.58103,0.42354 l 4.08333,-0.0742 -4,-1.85167 z m -73.5,-29.06741 c -1.375,-1.11262 -3.55605,-2.45803 -4.84677,-2.98981 -1.29072,-0.53177 -2.57789,-1.85069 -2.86038,-2.93093 -0.37722,-1.44248 -0.94904,-1.74158 -2.15323,-1.12629 -3.64933,1.86465 -7.13962,2.19728 -7.13962,0.68041 0,-1.39708 2.40427,-2.77061 9.75,-5.57005 1.7875,-0.68121 3.25,-1.59184 3.25,-2.02362 0,-1.25861 3.81099,0.0928 4.37003,1.54961 0.31087,0.81011 -0.63354,1.7229 -2.43082,2.34944 -1.61657,0.56353 -2.93921,1.25405 -2.93921,1.53448 0,0.28042 2.1375,1.74473 4.75,3.254 5.59308,3.2312 6.50812,4.32423 5.07035,6.05663 -1.40004,1.68695 -1.85911,1.61229 -4.82035,-0.78387 z m 8.8125,-5.26295 c -0.7317,-0.73169 -1.88607,-1.14512 -2.56528,-0.91871 -1.33988,0.44662 -2.79153,-2.62148 -3.56631,-7.53752 -0.65028,-4.12615 1.41413,-4.54646 7.53585,-1.53428 2.59421,1.27648 5.42084,2.32087 6.28138,2.32087 1.99625,0 3.10604,2.79582 1.67702,4.22484 -0.7872,0.7872 -1.45909,0.78441 -2.41632,-0.01 -1.39007,-1.15366 -3.98763,-0.18529 -3.69321,1.37682 0.63782,3.38398 -0.93957,4.39156 -3.25313,2.078 z m 12.6875,-8.80008 c -4.63182,-1.25378 -10.40101,-4.22896 -10.95898,-5.65157 -0.82553,-2.10481 7.58876,-4.3062 11.45898,-2.99797 0.825,0.27887 2.85,0.91679 4.5,1.41759 2.28038,0.69214 3,1.50446 3,3.38647 0,1.71014 -0.55421,2.47862 -1.79188,2.48466 -0.98553,0.005 -2.11053,0.49568 -2.5,1.09081 -0.4527,0.69177 -1.79023,0.78916 -3.70812,0.27001 z m 3.5,-3.26257 c 0,-0.21616 -0.69837,-0.661 -1.55194,-0.98855 -0.88992,-0.34149 -1.29132,-0.17385 -0.94098,0.39301 0.58726,0.95021 2.49292,1.40545 2.49292,0.59554 z m 17.55583,-45.51665 c -0.30921,-0.50032 0.33923,-3.01262 1.44098,-5.58291 1.10176,-2.57028 2.00319,-5.25583 2.00319,-5.96789 0,-2.21939 2.89771,-4.04183 4.26019,-2.67935 0.90058,0.90058 0.72764,2.04815 -0.73956,4.90762 -1.05324,2.05271 -2.05181,4.02761 -2.21904,4.38868 -0.16722,0.36108 0.86217,0.13608 2.28755,-0.5 2.46509,-1.10004 2.56352,-1.43715 2.01656,-6.90649 -0.421,-4.20972 -0.2443,-5.7459 0.65963,-5.73469 3.28239,0.0407 4.07353,1.94046 3.84982,9.24448 -0.13194,4.30786 -2.06003,6.38325 -7.78061,8.37501 -4.5851,1.59641 -5.05091,1.63313 -5.77871,0.45554 z m 60.17048,-4.69736 c -0.92206,-0.92207 0.37675,-13.67641 1.54331,-15.15531 0.74874,-0.94921 1.3349,-0.98085 2.36306,-0.12756 0.96886,0.80409 1.36732,0.81517 1.36732,0.038 0,-1.51723 5.35951,-4.14812 8.45034,-4.14812 2.30578,0 2.54966,0.38068 2.54966,3.97976 0,3.8225 -2.36306,11.47359 -4.16477,13.48463 -0.4752,0.53041 -2.32003,1.01945 -4.09962,1.08675 -1.77958,0.0673 -4.16816,0.42578 -5.30794,0.79662 -1.13979,0.37083 -2.3554,0.39118 -2.70136,0.0452 z m 8.79786,-6.37292 c 0.83829,0.69572 1.6719,1.08832 1.85246,0.87244 0.7554,-0.90311 2.67109,-10.17811 2.19961,-10.6496 -0.2826,-0.2826 -1.76537,0.30623 -3.29503,1.3085 -1.52967,1.00228 -2.9559,1.6998 -3.16941,1.55005 -0.83613,-0.58644 -2.08196,2.54581 -2.09649,5.27099 -0.013,2.44057 0.21022,2.68528 1.48469,1.62756 1.1978,-0.99408 1.80707,-0.99004 3.02417,0.0201 z M 382.38792,541.2236 c -0.32652,-0.32652 -3.66402,-0.68002 -7.41666,-0.78556 -9.07774,-0.2553 -16.41817,-4.36479 -23.81553,-13.33294 -5.86346,-7.10855 -6.51431,-9.12992 -6.49216,-20.16283 0.0183,-9.12523 0.66142,-10.49522 4.47701,-9.53757 2.13909,0.53688 3.2897,1.85631 4.85998,5.57305 2.18111,5.16253 3.7253,5.74688 4.6652,1.76538 0.87302,-3.69818 3.26758,-2.89633 4.70085,1.57414 2.28202,7.11781 2.51999,7.5871 3.65897,7.21578 0.61748,-0.2013 1.57268,-1.6822 2.12268,-3.29089 1.40115,-4.09821 2.3938,-5.42489 4.05902,-5.42489 1.09559,0 1.44098,1.4477 1.44098,6.03984 0,9.12791 6.20222,19.40393 12.38855,20.52573 4.74306,0.86008 14.92213,-11.53066 18.31518,-22.29463 1.36078,-4.31689 2.0707,-5.27094 3.92219,-5.27094 1.24337,0 2.91761,0.93791 3.72054,2.08425 1.14524,1.63506 1.64237,1.79669 2.3067,0.75 0.46576,-0.73384 1.74684,-1.82253 2.84684,-2.41933 2.8055,-1.52209 5.44402,-10.11461 5.66817,-18.45873 0.20298,-7.55654 1.0751,-9.14149 3.6263,-6.59029 1.33013,1.33012 1.5944,4.11258 1.55467,16.36832 -0.0464,14.32659 -0.14511,15.00373 -3.31729,22.76578 -1.79819,4.4 -4.02536,8.675 -4.94927,9.5 -0.92391,0.825 -1.99324,2.31853 -2.37628,3.31895 -0.47684,1.24539 -1.30551,1.62564 -2.62797,1.20591 -1.06234,-0.33717 -3.59451,0.0818 -5.62705,0.93105 -2.03254,0.84925 -4.70902,1.54409 -5.94773,1.54409 -1.23871,0 -6.15898,1.575 -10.93394,3.5 -9.08866,3.66405 -9.86413,3.87215 -10.82995,2.90633 z m 0.43232,-6.01262 c 0.49568,-0.30635 -0.91702,-2.20776 -3.13934,-4.22535 -2.22231,-2.0176 -5.33374,-6.07696 -6.91427,-9.02081 -1.58053,-2.94385 -3.1542,-4.8986 -3.49703,-4.34388 -1.17351,1.89878 -4.40027,0.0221 -6.26116,-3.64149 -1.0231,-2.0142 -1.95125,-3.82825 -2.06256,-4.03123 -0.11131,-0.20297 -0.9549,0.38347 -1.87465,1.30322 -2.89341,2.89341 -5.59165,1.56539 -7.34171,-3.61345 -2.52205,-7.4633 -3.36369,-6.97279 -2.88138,1.67928 0.39163,7.02532 0.85872,8.62304 3.83385,13.11381 3.17875,4.79812 11.90443,12.01067 16.44233,13.59105 2.12406,0.73973 12.14703,0.14612 13.69592,-0.81115 z m 20.82802,-3.89371 c 8.43383,-1.77633 10,-2.41955 10,-4.10699 0,-0.76615 0.88963,-1.39301 1.97695,-1.39301 3.73647,0 8.48319,-10.52234 9.509,-21.07918 l 0.62391,-6.42082 -2.475,4.8765 c -1.36125,2.68208 -2.23782,5.49458 -1.94794,6.25 0.50355,1.31224 -0.69233,1.8085 -3.47093,1.44033 -0.70621,-0.0936 -1.76273,1.20312 -2.34783,2.88152 -0.71099,2.03955 -1.73159,3.05165 -3.07728,3.05165 -1.75076,0 -1.9297,-0.44648 -1.37149,-3.42202 0.98699,-5.26107 -1.16101,-5.34656 -3.3949,-0.13512 -2.13523,4.9813 -8.46177,14.62 -12.14079,18.49693 -2.05678,2.16743 -2.0958,2.35547 -0.34947,1.68451 1.08117,-0.4154 4.89077,-1.37134 8.46577,-2.1243 z"
       id="path4870"
       inkscape:connector-curvature="0" />
  </g>
</svg>
