<?xml version="1.0" encoding="UTF-8" standalone="no"?>
<!-- Created with Inkscape (http://www.inkscape.org/) -->

<svg
   xmlns:dc="http://purl.org/dc/elements/1.1/"
   xmlns:cc="http://creativecommons.org/ns#"
   xmlns:rdf="http://www.w3.org/1999/02/22-rdf-syntax-ns#"
   xmlns:svg="http://www.w3.org/2000/svg"
   xmlns="http://www.w3.org/2000/svg"
   xmlns:sodipodi="http://sodipodi.sourceforge.net/DTD/sodipodi-0.dtd"
   xmlns:inkscape="http://www.inkscape.org/namespaces/inkscape"
   width="210mm"
   height="297mm"
   viewBox="0 0 744.09448819 1052.3622047"
   id="svg2"
   version="1.1"
   inkscape:version="0.91 r13725"
   sodipodi:docname="radosny_siedzi_tall.svg">
  <defs
     id="defs4" />
  <sodipodi:namedview
     id="base"
     pagecolor="#dddddd"
     bordercolor="#666666"
     borderopacity="1.0"
     inkscape:pageopacity="0"
     inkscape:pageshadow="2"
     inkscape:zoom="0.70710678"
     inkscape:cx="889.59484"
     inkscape:cy="587.22242"
     inkscape:document-units="px"
     inkscape:current-layer="layer1"
     showgrid="false"
     showborder="false"
     showguides="true"
     inkscape:guide-bbox="true"
     inkscape:window-width="1304"
     inkscape:window-height="745"
     inkscape:window-x="54"
     inkscape:window-y="-8"
     inkscape:window-maximized="1">
    <inkscape:grid
       type="xygrid"
       id="grid4149"
       spacingx="16"
       spacingy="16" />
    <sodipodi:guide
       position="192,960"
       orientation="0,1"
       id="guide4151" />
    <sodipodi:guide
       position="256,448"
       orientation="0,1"
       id="guide4153" />
    <sodipodi:guide
       position="0,768"
       orientation="1,0"
       id="guide4161" />
    <sodipodi:guide
       position="304,768"
       orientation="1,0"
       id="guide4163" />
    <sodipodi:guide
       position="480,848"
       orientation="1,0"
       id="guide4165" />
    <sodipodi:guide
       position="784,832"
       orientation="1,0"
       id="guide4167" />
    <sodipodi:guide
       position="960,720"
       orientation="1,0"
       id="guide4182" />
  </sodipodi:namedview>
  <metadata
     id="metadata7">
    <rdf:RDF>
      <cc:Work
         rdf:about="">
        <dc:format>image/svg+xml</dc:format>
        <dc:type
           rdf:resource="http://purl.org/dc/dcmitype/StillImage" />
        <dc:title></dc:title>
      </cc:Work>
    </rdf:RDF>
  </metadata>
  <g
     inkscape:label="Layer 1"
     inkscape:groupmode="layer"
     id="layer1">
    <path
       style="fill:#000000"
       d="m 107.77323,600.6669 c -1.1524,-2.15327 -2.09526,-6.284 -2.09526,-9.17943 0,-2.89541 -1.49543,-7.54672 -3.32318,-10.33622 -2.67533,-4.08304 -2.87436,-6.0569 -1.02092,-10.12475 2.17193,-4.76688 1.81068,-5.26368 -6.3808,-8.77495 -4.7757,-2.0471 -15.45029,-7.93336 -23.72134,-13.08059 -8.27103,-5.1472 -16.54419,-9.35855 -18.38483,-9.35855 -5.59353,0 -8.52101,5.44987 -7.22326,13.44695 1.08442,6.68248 0.93222,6.9985 -1.69763,3.52498 -4.11591,-5.43636 -3.67974,-12.97011 1.04188,-17.99604 l 4.05942,-4.32109 -4.8306,-4.53813 -4.83064,-4.53814 -5.64718,5.23366 -5.647207,5.23365 -5.33066,-5.10711 c -6.322429,-6.05726 -10.361516,-6.43791 -14.9156667,-1.40562 -4.476042,4.94596 -4.225786,9.62375 0.699413,13.07349 l 4.0491697,2.83616 -4.0491697,3.66445 c -7.174057,6.49245 -3.470503,23.27756 5.1360817,23.27756 5.563419,0 9.519624,-4.46813 7.837492,-8.85168 -1.749259,-4.55851 1.836725,-4.12531 6.253779,0.75548 4.386778,4.84736 10.626698,5.18901 16.727398,0.91592 3.92295,-2.74775 4.32792,-2.75719 3.29947,-0.0771 -1.46278,3.81188 -7.81053,5.91685 -16.841527,5.58474 -3.814174,-0.14028 -7.912872,0.50257 -9.108201,1.42846 -4.96862,3.84877 -11.635287,3.93847 -15.3669567,0.2068 -5.04596,-5.04596 -7.33236501,-17.66067 -4.130297,-22.78799 1.775852,-2.84359 1.856631,-4.58386 0.2857,-6.15481 -3.705629,-3.70562 -2.43683401,-11.43823 2.723592,-16.59867 4.358632,-4.35862 5.6346507,-4.66255 11.2933127,-2.68991 3.508716,1.22313 6.859865,3.47574 7.447019,5.00581 1.576718,4.10885 4.184887,3.39898 7.803658,-2.12395 2.90695,-4.4366 2.91595,-5.48319 0.0938,-10.94052 -1.71635,-3.31902 -4.573151,-7.48713 -6.348451,-9.26244 -2.954423,-2.95434 5.477011,-3.22776 99.535961,-3.22776 79.9274,0 102.22404,0.53974 100.33495,2.42886 -5.26352,5.26351 -2.65043,7.69138 8.27814,7.69138 19.31285,0 54.41123,-12.15057 65.7008,-22.74471 l 4.5541,-4.27357 0,5.09925 c 0,2.80458 -1.85104,6.77442 -4.11343,8.82185 -2.26238,2.04744 -6.05816,6.97042 -8.43507,10.93997 -17.21253,28.74584 -30.62797,35.48132 -58.6358,29.43904 -27.9298,-6.02543 -26.48706,-6.08813 -37.30374,1.62148 -12.9435,9.22556 -28.81329,15.88842 -39.10316,16.4173 -13.31138,0.68419 -18.99854,11.87802 -9.2725,18.25076 3.3867,2.21907 5.06012,5.17431 5.06012,8.93619 0,7.53421 -3.3996,10.47839 -12.09927,10.47839 -4.73681,0 -8.44042,1.40018 -10.70764,4.0481 -4.76361,5.5635 -18.6988,5.64914 -21.65093,0.13303 z m 21.38108,-6.00137 c 1.32867,-4.11073 2.80259,-5.94394 3.66155,-4.55412 1.80457,2.91988 14.67084,3.06627 16.45025,0.18722 2.40264,-3.88755 -0.90265,-11.29722 -6.09472,-13.66288 -2.80976,-1.2803 -5.10865,-3.56523 -5.10865,-5.07771 0,-3.99392 15.45477,-24.95735 19.56075,-26.53297 3.28217,-1.25947 3.28572,-1.11435 0.0604,2.4498 -9.20118,10.16717 0.49078,11.30544 18.71621,2.19806 13.91023,-6.95101 35.9478,-26.32317 42.41587,-37.28571 l 4.12033,-6.98363 -96.19346,0 c -76.40225,0 -95.886077,0.52053 -94.6994,2.53006 12.40328,21.00367 60.39784,53.72734 80.32357,54.76628 9.03097,0.47088 9.70235,2.61521 1.39039,4.44082 -10.865,2.38635 -12.76044,13.92465 -2.70216,16.44911 4.50862,1.13162 4.66278,1.53356 1.80079,4.69601 -6.46335,7.14193 -2.02291,14.84074 7.99241,13.85725 4.91256,-0.4824 6.50976,-1.92031 8.30595,-7.47759 z m -2.91499,-30.56455 c -0.006,-1.66984 2.64809,-8.50101 5.89786,-15.18036 3.24977,-6.67936 5.33114,-9.86724 4.62527,-7.08416 -1.92505,7.5899 -10.5107,25.7552 -10.52313,22.26452 z m 136.88902,-28.16041 c 4.13025,-2.12951 9.6629,-5.9052 12.29478,-8.3904 5.92747,-5.5971 16.63976,-22.25402 15.49896,-24.09987 -0.46267,-0.74861 -10.12128,1.73874 -21.46359,5.52744 -13.37943,4.46915 -25.67984,7.14627 -35.0221,7.62237 -13.34885,0.6803 -14.80286,1.21248 -19.92389,7.29226 -3.0383,3.6071 -5.02367,7.07081 -4.41194,7.69714 2.35455,2.41063 26.58755,7.84066 35.82337,8.02715 5.92367,0.11954 12.61597,-1.31035 17.20441,-3.67609 z m -29.61155,27.91208 c -12.70236,-3.01641 -8.80283,-4.58644 4.52132,-1.82036 12.3752,2.56909 27.32847,1.1682 36.32995,-3.40351 3.16481,-1.60738 6.26484,-2.41187 6.88892,-1.78778 0.62409,0.62407 -2.26098,2.5535 -6.41126,4.2876 -9.69747,4.05187 -30.08001,5.3953 -41.32893,2.72405 z m 36.10906,-16.88487 c 0,-1.70902 1.70266,-3.10728 3.78369,-3.10728 2.08105,0 8.4568,-3.72077 14.16834,-8.26838 5.71156,-4.54759 10.34584,-7.50776 10.29841,-6.57816 -0.0969,1.90154 -16.71035,14.98672 -23.69634,18.66396 -3.7861,1.99289 -4.5541,1.87313 -4.5541,-0.71014 z m -30.36073,-52.64447 c 0,-0.52803 2.96019,-2.45639 6.57816,-4.28523 3.61799,-1.82885 14.14887,-8.32337 23.40194,-14.43228 9.25308,-6.10887 17.29297,-10.63789 17.86642,-10.06444 1.2234,1.22339 -17.68656,14.28946 -33.84184,23.3834 -11.02221,6.20453 -14.00468,7.35419 -14.00468,5.39855 z m 30.46058,-2.58204 c 0.13507,-2.05396 18.11658,-10.88268 18.11658,-8.89504 0,1.52732 -14.48434,10.41308 -16.97397,10.41308 -0.68335,0 -1.19753,-0.68313 -1.14261,-1.51804 z M 114.6211,355.6871 C 107.93,352.98026 99.77387,341.8916 97.32727,332.17532 l -2.25011,-8.93604 -14.94008,0 -14.94007,0 0,8.09618 c 0,9.01168 -6.23305,17.34045 -11.47251,15.32989 -1.68483,-0.64654 -5.62599,0.64927 -8.75815,2.87958 -3.13217,2.23029 -7.88725,4.05507 -10.56687,4.05507 -6.482174,0 -13.731525,-7.02491 -13.731525,-13.30637 0,-2.77887 -1.474499,-7.30287 -3.276682,-10.05333 -2.783885,-4.24873 -2.889399,-5.93586 -0.701517,-11.21785 3.376088,-8.15061 10.565727,-12.79305 17.224184,-11.12188 3.61737,0.9079 6.75609,0.0595 10.40796,-2.81295 5.85303,-4.604 16.69557,-5.43654 20.61397,-1.58281 2.06395,2.02986 3.34445,1.58537 6.47696,-2.24827 2.14743,-2.62809 3.90442,-6.17893 3.90442,-7.89075 0,-1.71182 -3.77566,-14.19404 -8.39036,-27.73828 -6.94508,-20.38391 -9.36277,-25.18393 -14.03535,-27.86563 -3.10472,-1.78187 -7.99329,-6.95975 -10.86346,-11.50643 -2.87018,-4.54667 -5.57097,-8.26666 -6.00177,-8.26666 -0.43078,0 -5.34405,3.06922 -10.918408,6.82046 -5.574344,3.75126 -12.952436,7.80258 -16.3957667,9.00294 l -6.260613,2.18244 0,-16.30094 c 0,-19.68949 3.968391,-36.15579 13.5395467,-56.18043 7.15054,-14.96029 21.344551,-31.60887 31.134971,-36.51909 3.06226,-1.53584 1.15504,1.22541 -5.06021,7.32599 -22.136082,21.72773 -34.5541867,49.97813 -34.5541867,78.60851 0,19.27173 1.357756,19.89777 16.9943947,7.8357 10.084952,-7.77949 10.160212,-7.92283 10.490862,-19.97998 l 0.33302,-12.14429 1.75411,12.03583 c 4.80861,32.99445 23.27243,45.97983 69.60597,48.95306 16.98873,1.09017 19.41378,0.73117 35.98284,-5.32705 18.058,-6.60264 26.65,-12.95879 34.15679,-25.26836 l 3.72297,-6.10491 0.009,5.35294 c 0.0211,14.8258 -14.83284,47.78407 -28.60468,63.46933 -8.10556,9.23175 -10.19557,17.38833 -7.58022,29.58329 2.03629,9.49488 2.39061,9.88099 9.06742,9.88099 3.82157,0 10.65423,-1.13851 15.18364,-2.53006 7.94317,-2.44031 8.19537,-2.78136 7.10965,-9.61422 -0.78412,-4.93475 -0.53833,-6.16297 0.81004,-4.04809 2.98183,4.6769 2.43641,14.16833 -0.81416,14.16833 -1.5465,0 -4.92933,1.71466 -7.5174,3.81033 -4.2166,3.41439 -4.44424,4.38383 -2.19084,9.32952 2.06808,4.53895 3.5514,5.36704 8.35173,4.66249 5.06785,-0.7438 5.98772,-0.1033 6.98063,4.86119 1.61658,8.08299 9.47892,11.41675 16.33326,6.92563 5.49748,-3.6021 6.36594,-7.32976 3.12051,-13.39392 -1.61471,-3.01711 -1.20899,-4.03733 2.01206,-5.05966 10.13609,-3.21704 13.7681,-15.11862 5.89898,-19.33006 -3.14749,-1.68447 -5.70918,-1.65277 -9.99808,0.12375 -7.65589,3.17118 -10.09155,1.26792 -9.89897,-7.7351 0.15808,-7.3918 0.18135,-7.41193 2.19271,-1.90459 1.56887,4.29555 3.35043,5.56613 7.80462,5.56613 10.08007,0 16.1555,3.4064 16.1555,9.05813 0,3.19305 1.13902,5.1102 3.03606,5.1102 2.33466,0 3.03607,-2.59966 3.03607,-11.25277 0,-6.18901 2.23412,-21.14969 4.96466,-33.24594 6.75533,-29.92565 9.5384,-52.60524 8.80603,-71.76134 l -0.6149,-16.06963 -6.8019,-1.75657 c -9.63986,-2.48947 -22.43978,-11.02164 -24.43228,-16.28608 -2.58665,-6.83427 -0.97228,-6.56969 5.60216,0.91819 11.90466,13.55865 42.97915,18.5154 68.17098,10.87411 11.98958,-3.63674 16.85866,-4.00589 13.90715,-1.05438 -2.65866,2.65867 -30.9992,8.07138 -42.26106,8.07138 l -8.73537,0 -1.29835,21.75852 c -1.61461,27.05815 -4.35375,45.96235 -9.31156,64.26351 -2.11102,7.79259 -4.09061,21.67396 -4.39911,30.84749 -0.49316,14.66453 -1.0129,16.68146 -4.30294,16.6984 -5.05539,0.0262 -15.48641,11.5143 -15.48641,17.05604 0,6.15193 -7.19586,13.32392 -13.36824,13.32392 -7.31822,0 -12.94438,-3.54988 -12.94438,-8.1674 0,-3.06178 -1.38531,-3.9769 -6.02018,-3.9769 -4.681,0 -6.73967,-1.39136 -9.25465,-6.25482 -1.77898,-3.44014 -2.74177,-7.53884 -2.13957,-9.10821 0.81245,-2.11719 -0.71644,-2.85339 -5.92567,-2.85339 -6.72284,0 -7.02065,0.31186 -7.02065,7.35128 0,17.49266 -18.3814,31.23768 -33.56188,25.09654 z m -73.5796,-6.20641 c 2.15327,-1.15238 3.91503,-3.40666 3.91503,-5.00951 0,-2.07621 1.60064,-2.622 5.56614,-1.89793 3.06136,0.55901 6.81851,0.18439 8.34919,-0.83244 3.50883,-2.33088 3.58969,-11.25485 0.1601,-17.66315 -2.30901,-4.31444 -2.097,-5.46099 1.77105,-9.57837 5.21062,-5.54644 5.56443,-8.59422 1.19243,-10.27191 -7.01285,-2.69107 -11.1932,-1.07615 -15.32006,5.91837 -3.68272,6.24174 -4.51854,6.73428 -6.59923,3.88879 -3.87749,-5.30281 -15.584561,-3.11139 -19.345029,3.62114 -3.709038,6.64049 -0.960203,12.75354 5.63072,12.52182 3.781895,-0.13304 3.893444,0.22251 1.252894,3.99244 -4.124218,5.88814 -3.593441,10.61768 1.599801,14.25518 5.306384,3.71671 6.633294,3.83517 11.827004,1.05557 z m 96.78107,-4.36112 c 7.23656,-7.40172 7.91927,-13.48925 3.44102,-30.68234 -1.5792,-6.06301 -2.39556,-14.57034 -1.81415,-18.90518 1.16006,-8.64886 -2.39134,-13.65669 -8.80846,-12.42083 -5.03749,0.97012 -12.81872,13.29651 -12.81872,20.30636 0,3.75623 -0.80406,5.39534 -2.21797,4.52147 -1.41617,-0.87523 -1.72908,-4.63101 -0.86558,-10.38927 1.3112,-8.74377 1.22058,-8.94795 -2.9751,-6.7025 -5.54304,2.96656 -12.15778,18.3446 -12.15778,28.26452 0,9.05846 4.76169,21.5173 10.66706,27.91004 6.67536,7.2263 19.4899,6.34146 27.54968,-1.90227 z M 95.54771,317.67315 c -0.006,-1.94815 1.5151,-7.7974 3.37912,-12.99833 l 3.38911,-9.45628 -6.75544,-5.68431 c -9.50645,-7.99915 -18.2192,-22.50538 -18.2192,-30.33396 0,-4.48616 -1.41975,-7.56756 -4.47166,-9.70522 -8.11329,-5.68274 -8.72209,-0.32965 -1.92016,16.88334 8.4529,21.39089 8.32475,29.2932 -0.69235,42.69255 -3.89629,5.78987 -7.08416,10.89092 -7.08416,11.33566 0,0.44475 7.28657,0.80862 16.19237,0.80862 14.07577,0 16.19107,-0.46299 16.18237,-3.54207 z M 93.53368,203.41177 C 80.21613,200.4886 77.3413,197.09988 77.3413,184.32495 c 0,-9.27299 0.70817,-11.2359 5.08932,-14.10655 7.428,-4.86702 21.00347,-5.84674 29.84225,-2.15366 8.75091,3.65636 15.65125,13.772 15.66206,22.96 0.006,5.95036 -0.83288,6.74716 -11.20061,10.62623 -6.16451,2.30646 -11.85715,4.09599 -12.65031,3.97678 -0.79316,-0.11925 -5.54081,-1.11642 -10.55033,-2.21598 z m 27.96886,-21.33026 c 0.45872,-3.22867 -0.8156,-5.19965 -4.42504,-6.84423 -6.37871,-2.90634 -11.39953,-1.0871 -11.39953,4.1305 0,8.47391 14.64933,10.9861 15.82457,2.71373 z M 280.7581,166.03198 c -21.71414,-19.74338 -44.58402,-28.921 -72.67657,-29.16491 -14.79475,-0.12853 -17.31359,-0.55861 -12.83943,-2.19271 3.06137,-1.11811 5.56612,-2.92497 5.56612,-4.01524 0,-2.32325 -24.30466,-13.70446 -30.76192,-14.405 -3.6556,-0.39656 -4.72001,0.92411 -6.13862,7.61645 -2.19994,10.37828 -11.23564,23.5025 -18.63665,27.06946 -8.05047,3.87994 -21.81021,3.1729 -31.16905,-1.60164 -6.93664,-3.5388 -8.36658,-3.67949 -11.70509,-1.1516 -5.56872,4.21662 -22.79102,3.75708 -30.27701,-0.80786 -3.42839,-2.09062 -7.40989,-6.64134 -8.84776,-10.11268 -1.43788,-3.47133 -3.32028,-6.31152 -4.18315,-6.31152 -4.88849,0 -19.5669,21.92356 -22.36005,33.39679 -1.35124,5.55043 -1.49436,5.63738 -1.66567,1.01203 -0.40595,-10.96041 16.3417,-36.43286 23.95385,-36.43286 0.88315,0 2.69634,-3.89532 4.02933,-8.65628 2.57037,-9.18045 10.37891,-19.50115 17.70389,-23.399615 6.32455,-3.366004 19.43026,-2.903414 24.03478,0.848363 3.88568,3.166082 3.88539,3.187302 -0.0278,1.928529 -2.1761,-0.700036 -7.66443,-1.781015 -12.19627,-2.402175 -7.77575,-1.065788 -8.72649,-0.601283 -16.88499,8.249658 -8.44187,9.15835 -8.63114,9.67044 -8.0442,21.76426 0.5141,10.59287 1.35742,12.94828 5.82731,16.27585 6.64418,4.94625 23.42192,5.96087 26.18917,1.58379 1.05567,-1.66985 1.9551,-6.67936 1.9987,-11.13226 0.25881,-26.42969 14.21342,-41.233705 39.0668,-41.444704 4.01762,-0.03394 8.77136,2.795492 16.19237,9.638354 6.7443,6.21887 14.4904,11.02862 21.63736,13.43518 15.13975,5.09792 26.03936,11.28553 27.39312,15.55083 0.88904,2.80113 3.42361,3.54321 12.10163,3.54321 13.20292,0 35.27056,6.97373 46.89256,14.8188 10.62096,7.16934 30.33483,25.22894 28.98342,26.5513 -0.55661,0.54464 -6.47695,-3.97868 -13.15632,-10.0518 z M 143.39202,147.89575 c 9.03064,-4.28532 16.93525,-17.64055 16.93525,-28.61301 0,-6.62127 -1.36586,-9.72847 -6.81716,-15.50855 -6.20235,-6.576411 -7.79953,-7.221813 -17.71042,-7.156572 -19.15853,0.126071 -28.48424,9.311022 -29.75754,29.308162 l -0.79337,12.45938 9.66982,6.40503 c 10.82104,7.16755 18.21412,7.97392 28.47342,3.10556 z m -26.24444,-18.29038 c -2.32896,-2.32893 -1.47399,-4.72279 1.6867,-4.72279 1.66984,0 3.03608,1.36624 3.03608,3.03608 0,3.16069 -2.39386,4.01564 -4.72278,1.68671 z m -32.70172,1.38237 c -1.49284,-2.41544 0.40192,-6.10516 3.13513,-6.10516 2.46287,0 2.47884,5.47834 0.0205,6.99772 -1.03631,0.6405 -2.4563,0.23883 -3.15553,-0.89256 z"
       id="path4147"
       inkscape:connector-curvature="0"
       inkscape:export-xdpi="89"
       inkscape:export-ydpi="89" />
    <path
       id="path4153"
       style="fill:#000000"
       d="m 566.67671,131.42948 c -1.3603,-3.54488 0.21129,-6.99892 3.39089,-7.45249 3.68066,-0.52503 5.42392,2.65426 3.41938,6.23616 -1.70209,3.04148 -5.82717,3.77822 -6.81027,1.21633 z m 33.84344,51.9142 c 1.28811,-0.49429 2.22455,-2.49453 2.22455,-4.75163 0,-3.03801 -0.96749,-4.29872 -4.38535,-5.71445 -5.13188,-2.1257 -8.73029,-0.58292 -9.41896,4.03827 -0.33212,2.22865 0.73053,3.49188 4.21907,5.01547 2.56464,1.12009 4.76946,2.08815 4.89956,2.15127 0.13009,0.0632 1.23762,-0.26942 2.46113,-0.73893 z m -27.3089,16.811 c -10.74969,-2.87635 -12.80447,-5.31873 -13.68307,-16.26436 -0.88008,-10.96397 0.45857,-13.88771 8.52221,-18.61331 10.28971,-6.03018 24.89996,-4.5661 33.76834,3.38387 8.46978,7.59265 12.08658,21.0869 6.90298,25.755 -3.91253,3.52345 -16.84982,8.07585 -22.55375,7.93627 -2.87198,-0.0703 -8.70249,-1.05915 -12.95671,-2.19747 z m 43.77794,136.4807 c 7.08355,-6.75015 8.31013,-11.31781 5.99944,-22.34116 -1.08959,-5.198 -2.27417,-9.92518 -2.63243,-10.50484 -1.51592,-2.45283 -1.96395,-12.64387 -0.743,-16.90105 2.22429,-7.75571 -3.3167,-13.36098 -9.7855,-9.89898 -3.82124,2.04506 -10.30728,15.05957 -9.53047,19.12325 0.91277,4.77486 -0.97388,7.225 -3.77394,4.90114 -2.61336,-2.16888 -2.88162,-8.34175 -0.58192,-13.38909 2.21023,-4.85094 0.46761,-6.12779 -3.39829,-2.48997 -5.51914,5.19346 -9.93266,18.65114 -9.18437,28.00492 0.79609,9.95151 6.67347,22.76 12.01724,26.18899 5.883,3.77502 16.17083,2.49305 21.61324,-2.69321 z m -103.66306,19.68996 c 1.22351,-0.46949 2.22456,-1.7352 2.22456,-2.8127 0,-2.75298 2.46539,-2.43641 6.64801,0.85364 7.69591,6.05359 13.24518,1.60399 14.18385,-11.37313 0.49712,-6.87252 1.03965,-8.36861 2.89864,-7.99332 1.25789,0.25393 3.39225,-0.55069 4.74304,-1.78809 5.36049,-4.91048 15.65253,-8.79233 25.10429,-9.46858 l 9.5643,-0.68434 -0.63126,-4.03524 c -0.34719,-2.21937 -0.90275,-5.78825 -1.23458,-7.93083 -0.35168,-2.27079 1.04463,-7.98993 3.34772,-13.71196 3.11208,-7.73202 3.55955,-10.04357 2.10735,-10.88635 -5.2957,-3.07339 -13.92029,-12.34669 -17.81659,-19.15669 -3.29343,-5.75635 -4.43442,-9.53556 -4.51147,-14.94314 -0.099,-6.94911 -0.29178,-7.29756 -4.82767,-8.72578 l -4.72454,-1.4876 0.91952,5.75039 c 0.50573,3.16271 2.21752,7.85058 3.80397,10.4175 3.70312,5.99179 7.24891,19.10868 7.21833,26.70268 -0.017,4.23831 -1.30398,7.92035 -4.51969,12.93159 -4.54385,7.08099 -27.33959,29.66215 -29.94399,29.66215 -0.77563,0 -3.57263,-1.89858 -6.2155,-4.21907 -6.40389,-5.62269 -11.74373,-5.58785 -16.53638,0.10787 -4.15358,4.93624 -4.43768,6.70297 -1.68355,10.46946 1.5678,2.1441 2.36322,2.33997 3.99687,0.98418 2.00471,-1.66378 3.89026,-1.00451 3.89026,1.3602 0,0.66115 -1.74037,1.9719 -3.86747,2.91274 -7.70242,3.40689 -9.20617,8.18962 -4.4686,14.21249 2.87771,3.65839 5.98993,4.51756 10.33058,2.8519 z m 20.07633,-130.77352 c 1.22916,1.0753 4.56751,2.6885 7.91209,4.94567 7.68368,5.18554 13.99434,7.99021 20.64585,9.00912 2.70723,0.4147 6.5044,1.11571 8.43813,1.5578 1.93374,0.44207 7.94591,1.16461 13.36037,1.60565 5.41447,0.44104 11.58234,1.01597 13.70635,1.27763 10.22803,1.26003 41.61377,-10.27749 48.70088,-17.9026 7.02202,-7.55513 10.01673,-11.77483 10.01834,-14.11639 0.002,-3.061 4.09518,-4.89572 5.57613,-2.49951 0.97225,1.57312 -1.78792,13.97632 -5.49523,24.69373 -0.80269,2.32049 -1.88963,5.48479 -2.41542,7.03178 -3.96534,11.66692 -21.47697,38.44789 -25.2453,38.60823 -0.86016,0.0365 -2.18033,3.89404 -2.93372,8.57211 -1.19048,7.39219 -0.92765,10.01553 2.00783,20.04056 3.97476,13.57432 3.56986,18.35437 -2.33408,27.55484 -11.04676,17.21492 -32.48154,16.08697 -42.43218,-2.23287 -2.03077,-3.73881 -3.01439,-4.17831 -9.98257,-4.46022 -8.65895,-0.35031 -20.79909,3.6687 -26.14217,8.65441 -1.77025,1.65184 -3.88295,5.64156 -4.69488,8.86603 -2.05059,8.14365 -8.81493,16.06732 -13.6358,15.97286 -2.0708,-0.0405 -5.03081,-0.95178 -6.5778,-2.02489 -2.22809,-1.54559 -3.99958,-1.63082 -8.52311,-0.41005 -7.63755,2.0612 -11.93224,0.71686 -15.73651,-4.92588 -3.69368,-5.47868 -3.93164,-8.64041 -1.0641,-14.13841 1.47819,-2.83416 1.67981,-4.74667 0.69452,-6.58773 -3.40608,-6.36429 1.17916,-14.53338 10.9861,-19.57293 3.87384,-1.99067 10.86771,-0.11252 15.43868,4.14598 2.95523,2.75324 2.96368,2.75038 11.13551,-3.75753 8.34222,-6.6436 17.45481,-16.95783 20.97238,-23.73796 3.45141,-6.6526 2.54631,-11.07613 -7.41772,-36.25291 -2.70065,-6.82392 -4.58634,-13.25127 -4.19043,-14.283 0.74939,-1.9529 -3.46082,-5.54208 -5.74514,-6.76782 -1.62353,-0.87117 -6.18203,-3.99238 -7.43166,-5.9767 -0.9288,-1.03429 1.37955,-3.94947 2.40466,-2.889 m 92.15918,170.84652 c -2.94245,-1.08848 -10.15974,-9.11055 -10.15974,-11.29261 0,-0.76499 0.65512,-2.61501 1.45582,-4.11116 1.19471,-2.23231 0.99066,-2.72024 -1.13755,-2.72024 -4.63128,0 -7.30709,-3.33053 -8.24443,-10.26179 -0.82643,-6.11088 -0.53772,-7.13687 3.06685,-10.89925 4.13213,-4.31301 8.66951,-5.2238 13.40316,-2.69041 2.31624,1.23962 2.96448,0.86389 4.24621,-2.46113 0.83196,-2.15823 1.86381,-7.24658 2.293,-11.30743 0.65036,-6.15365 1.24334,-7.38335 3.56031,-7.38335 2.17535,0 2.60328,0.67573 1.96751,3.10693 -0.44687,1.70882 -1.59995,7.36475 -2.56238,12.5687 -1.94301,10.50592 -3.34425,11.6304 -12.64047,10.14398 -6.41942,-1.02642 -8.99786,2.49268 -7.09193,9.67918 1.10413,4.16329 1.68681,4.56765 6.37182,4.42191 3.33716,-0.10379 5.15655,0.4751 5.15655,1.64074 0,0.99065 -0.67107,2.02485 -1.49123,2.29824 -0.82017,0.27339 -1.55228,2.6448 -1.62692,5.26979 -0.23712,8.34002 8.47747,12.6406 15.5609,7.67916 2.76858,-1.93916 3.09249,-3.03737 2.29253,-7.77234 l -0.93159,-5.51408 5.56793,0.89034 c 6.90456,1.10408 10.62918,-0.77877 13.03629,-6.59001 1.71901,-4.15006 1.60899,-4.67385 -1.51253,-7.20151 -2.23024,-1.80593 -4.62615,-2.47395 -7.09914,-1.97935 -2.55195,0.51039 -4.68178,-0.13754 -6.73274,-2.04833 -1.64997,-1.5372 -2.99996,-3.06266 -2.99996,-3.38992 0,-0.32728 3.82096,-8.50081 8.49101,-18.16341 6.24245,-12.916 9.03563,-17.35937 10.54765,-16.77916 1.13117,0.43408 2.05668,0.94695 2.05668,1.13972 0,0.19279 -3.24135,6.50752 -7.203,14.03276 -6.04625,11.48498 -6.96914,14.19552 -5.74673,16.87841 0.82717,1.81541 3.17945,3.54466 5.44506,4.00285 5.44306,1.10081 10.31737,5.9813 10.31737,10.33046 0,7.3991 -8.23636,15.98371 -15.3353,15.98371 -1.62102,0 -2.94731,0.90073 -2.94731,2.00163 0,1.1009 -1.57993,3.87927 -3.51095,6.17416 -3.64254,4.3289 -10.66962,6.24388 -15.86275,4.32281 z m 117.31424,19.15549 c -0.52348,-1.36417 0.6287,-2.83998 3.29272,-4.2176 2.25388,-1.16553 5.78796,-4.33482 7.85348,-7.04286 4.25304,-5.57602 6.23437,-6.23515 6.23437,-2.07399 0,3.22864 -11.52919,15.43288 -14.57926,15.43288 -1.09784,0 -2.35842,-0.94429 -2.80131,-2.09843 z m -30.4355,13.78703 c 0,-0.53272 5.60811,-6.38668 12.46247,-13.00878 6.85437,-6.62211 15.78615,-16.65726 19.8484,-22.30032 6.85478,-9.52231 9.65473,-11.51038 10.90944,-7.74624 0.27624,0.82874 -0.32551,2.37135 -1.33722,3.428 -1.01172,1.05665 -4.56084,5.40191 -7.88695,9.65613 -9.80976,12.54708 -28.43325,30.9398 -31.328,30.9398 -1.46747,0 -2.66814,-0.43586 -2.66814,-0.96859 z m 45.00336,36.83065 c 0,-2.15091 0.80018,-3.51589 2.06105,-3.51589 2.95939,0 9.40388,-6.70943 15.30466,-15.93383 4.72402,-7.38483 7.94869,-10.02658 7.94869,-6.51182 0,5.4391 -19.01939,29.47743 -23.32286,29.47743 -1.18674,0 -1.99154,-1.42081 -1.99154,-3.51589 z m -37.23926,24.88325 c -0.40277,-1.04964 -0.73233,-2.17309 -0.73233,-2.49659 0,-0.32348 4.72303,-0.58814 10.49561,-0.58814 7.16084,0 12.85804,-0.90601 17.93102,-2.85151 11.97654,-4.59302 14.19408,-5.90398 19.46714,-11.50851 3.6814,-3.91283 5.41403,-4.90012 6.57028,-3.74387 0.8637,0.86369 1.24136,2.42774 0.83925,3.47563 -1.28297,3.34337 -14.59859,11.97154 -23.84838,15.45316 -10.64521,4.00684 -29.51944,5.39516 -30.72259,2.25983 z m -120.2725,29.5427 c 0,-1.39229 0.63075,-3.1622 1.40168,-3.93311 0.7709,-0.77092 3.23672,-6.43501 5.47957,-12.58689 2.35494,-6.45932 4.88228,-11.18519 5.98169,-11.18519 2.7945,0 1.86178,4.81461 -2.98123,15.38864 -2.34095,5.11114 -4.25628,10.15873 -4.25628,11.21685 0,1.05812 -1.00104,2.308 -2.22456,2.77749 -3.19785,1.22714 -3.40087,1.12698 -3.40087,-1.67779 z m -2.23812,-391.96283 c -1.19023,-4.74229 1.30103,-7.59683 4.73795,-5.42887 3.62146,2.28434 3.15465,8.14911 -0.69216,8.69613 -2.36845,0.33678 -3.33768,-0.44594 -4.04579,-3.26726 z m 27.0273,16.91424 c 4.52816,-2.34922 10.62959,-9.73777 13.09235,-15.85415 3.3626,-8.35127 2.60265,-15.82599 -2.3383,-22.99904 -5.63766,-8.184486 -10.5845,-10.305833 -21.68524,-9.299248 -15.01454,1.361464 -23.58638,11.018328 -24.79681,27.935528 l -0.70252,9.81847 5.6759,5.29268 c 3.12174,2.91098 7.79785,5.99517 10.39133,6.85377 5.48165,1.81474 15.08507,0.99039 20.36329,-1.74801 z m 78.05161,289.36533 c 2.18855,-2.18855 3.26695,-36.73275 1.51281,-48.45908 -0.84664,-5.65968 -2.27138,-15.82786 -3.16612,-22.59594 -1.34373,-10.16442 -2.0552,-12.30561 -4.08889,-12.30561 -4.33042,0 -9.89841,6.44367 -9.96765,11.53528 -0.0817,6.01091 -1.19876,18.96674 -2.09112,24.25412 -0.38487,2.28054 -3.63951,8.48849 -7.23249,13.79543 -4.95907,7.32472 -6.48774,10.84443 -6.34612,14.61163 0.23999,6.38434 4.49065,13.19703 11.15723,17.88215 4.31963,3.03571 6.50754,3.618 12.04171,3.20472 3.71965,-0.27778 7.40093,-1.14299 8.18064,-1.9227 z m 27.24706,31.37764 c 17.7234,-2.34685 29.61041,-14.38271 35.04337,-35.4822 3.17119,-12.31563 2.91811,-12.74811 -3.82351,-6.53389 -3.3267,3.06644 -10.7628,8.34726 -16.52467,11.73518 -5.76187,3.38791 -10.79256,6.55985 -11.17931,7.04876 -0.38675,0.48892 -4.88031,2.5488 -9.98567,4.57754 -10.81944,4.29934 -19.4998,5.76172 -19.64688,3.30991 -0.0545,-0.90853 -0.99612,0.87955 -2.09248,3.97353 -1.09638,3.09398 -2.89233,7.20758 -3.99104,9.14132 l -1.99767,3.51588 12.87988,-0.0844 c 7.0839,-0.0465 16.677,-0.58715 21.31798,-1.20169 z m -231.2426,59.59473 c 2.05425,-1.09938 2.55266,-2.47149 2.01217,-5.53939 -0.81812,-4.64387 1.80331,-7.25059 3.76551,-3.74433 0.71007,1.26884 2.2089,2.30698 3.33071,2.30698 1.1218,0 2.03964,1.01225 2.03964,2.24944 0,1.82957 1.20872,2.12881 6.47552,1.60321 3.56155,-0.35543 6.99812,-1.49178 7.63683,-2.52525 1.15761,-1.87304 -0.70325,-6.88769 -3.15082,-8.49085 -0.70101,-0.45917 -1.57958,-3.29392 -1.95236,-6.29944 -0.59563,-4.80233 -0.13205,-5.94106 3.82559,-9.39645 l 4.50338,-3.93189 -4.6684,-4.53541 c -3.15377,-3.06395 -4.8718,-3.94077 -5.29534,-2.70255 -0.98144,2.86916 -7.81715,8.7148 -10.19084,8.7148 -1.1781,0 -2.76672,-1.42112 -3.53026,-3.15807 -1.94564,-4.42601 -8.25731,-7.24879 -11.87683,-5.31169 -6.69735,3.58432 -7.18014,13.31325 -0.74084,14.9294 4.46945,1.12177 4.44888,3.01029 -0.0552,5.06246 -5.47438,2.49429 -6.10671,8.11243 -2.0994,18.65251 1.46192,3.8451 5.24182,4.64746 9.9709,2.11652 z m 34.35056,-300.59873 c 1.08528,0.96525 -1.01055,4.0724 -2.42473,2.90154 -0.98892,-0.85419 -3.04682,-3.67796 -3.94318,-5.40104 -5.33696,-10.25937 -4.31724,-10.03393 -13.4636,-2.97646 -8.17287,6.30633 -22.17065,12.91712 -24.4145,11.53035 -1.64852,-1.01884 -1.69646,-19.40642 -0.0838,-32.12611 2.51774,-19.85784 13.08951,-44.76106 24.80477,-58.43096 6.29606,-7.34645 18.28771,-17.06112 21.06008,-17.06112 3.78971,0 1.95021,3.85944 -3.7086,7.78098 -17.47712,12.11165 -33.28102,41.91533 -36.49351,68.82097 -1.63711,13.71146 -0.85324,23.25449 1.90915,23.24207 2.33804,-0.01 10.8658,-5.5477 17.74922,-11.52479 l 5.99242,-5.20338 -1.01415,-8.11695 c -0.55778,-4.46432 -0.98053,-14.91064 -0.93947,-23.21405 0.0757,-15.29525 1.99351,-22.84011 8.51602,-33.50222 3.41403,-5.58077 14.62783,-15.60331 16.60781,-14.84351 1.06628,0.40917 1.80249,-0.37317 1.80249,-1.9154 0,-7.03978 4.83129,-17.02786 11.08045,-22.9075 9.87029,-9.286582 13.64283,-10.335906 26.89113,-7.479712 5.72698,1.234682 8.43813,3.108116 8.43813,5.830832 0,2.19962 -5.14181,2.67765 -5.85981,0.54478 -0.25783,-0.76591 -4.26983,-1.789231 -8.91555,-2.274033 l -8.44675,-0.881476 -7.28586,6.948909 c -4.00721,3.8219 -7.79329,8.80058 -8.41351,11.06376 -1.78657,6.51928 -1.15525,19.85948 1.06723,22.55124 5.34747,6.4766 23.02753,9.77917 27.7475,5.18314 1.12258,-1.0931 2.01815,-6.07889 2.28285,-12.70916 0.67468,-16.89865 2.01632,-20.77262 9.9086,-28.61087 7.92935,-7.875063 12.83258,-9.704254 26.04303,-9.715589 8.61149,-0.007 9.47471,0.298148 14.87754,5.265985 3.1546,2.900614 6.86604,7.014194 8.24767,9.141314 1.38161,2.12711 3.54949,3.86747 4.8175,3.86747 2.85899,0 19.09948,5.83245 25.59866,9.19324 8.02336,4.14898 12.55668,8.06793 12.55668,10.85499 0,1.95474 0.69442,2.4226 2.66661,1.79665 6.16583,-1.95696 15.65493,-0.83844 28.00164,3.30068 7.19883,2.41335 13.84696,4.3879 14.77359,4.3879 2.05311,0 19.22236,12.80343 30.60414,22.82212 7.71598,6.79188 10.33945,10.9304 6.92897,10.9304 -0.77349,0 -1.40635,1.44649 -1.40635,3.21443 0,2.86887 -1.1718,3.46816 -10.89926,5.57416 -14.66666,3.17536 -31.94985,5.57335 -36.19514,5.02197 l -3.46626,-0.45018 -0.66678,22.50168 c -0.65329,22.04632 -4.17944,44.53145 -9.81435,62.5828 -4.40402,14.10829 -5.63087,48.85689 -2.5075,71.02093 1.09001,7.73495 2.20209,15.6457 2.47128,17.57944 0.26919,1.93374 1.45332,9.52806 2.6314,16.87627 3.68451,22.98193 2.34201,53.48355 -2.81044,63.85363 -1.11591,2.24595 -2.02893,4.22185 -2.02893,4.39089 0,0.16906 2.82465,0.11857 6.277,-0.11222 15.83556,-1.05863 55.38881,-27.87771 61.59298,-41.76311 0.95041,-2.12711 2.45513,-3.86747 3.34379,-3.86747 3.48629,0 4.6428,10.3523 1.36692,12.23572 -1.07589,0.61856 -3.58749,7.27694 -5.58138,14.79642 -9.50491,35.84579 -21.05277,44.37911 -60.6151,44.79168 l -16.09274,0.16781 -5.53459,7.2496 c -10.6802,13.9897 -17.93706,20.19448 -33.19957,28.38642 -10.79279,5.79286 -26.89459,9.94708 -29.65982,7.65213 -1.95016,-1.61849 -3.28486,-0.28015 -6.99208,7.01114 -1.8745,3.68676 -2.04476,5.00243 -0.70513,5.44897 0.97134,0.32379 3.68571,2.3039 6.03194,4.40025 5.28347,4.72078 5.59502,11.3518 0.77443,16.48308 -2.70552,2.8799 -4.35458,3.37723 -10.1743,3.06833 -5.88304,-0.31225 -7.14573,0.0802 -8.25466,2.56535 -0.72004,1.61369 -2.85661,3.63903 -4.74791,4.50078 -4.50933,2.05458 -13.26585,1.92629 -16.09874,-0.23587 l -4e-5,-4e-5 c -3.42868,-2.61687 -6.16321,-11.30816 -4.4955,-14.2882 1.07273,-1.91684 0.63357,-3.24826 -1.91048,-5.79232 -3.73296,-3.73296 -4.32853,-9.92976 -1.34629,-14.0082 1.80346,-2.46636 1.49987,-2.84623 -3.86747,-4.83944 -3.20352,-1.18965 -8.56114,-3.74515 -11.90584,-5.6789 -9.52767,-5.5084 -17.4401,-10.24266 -23.50089,-14.06132 -6.87774,-4.3334 -7.61168,-4.39084 -11.55372,-0.90428 -3.6795,3.2544 -4.0162,7.3852 -1.06342,13.0469 2.5665,4.92105 2.71135,9.52621 0.36025,11.45349 -3.52379,2.88858 -13.25401,4.63326 -17.28748,3.09975 -3.02451,-1.14993 -4.3688,-0.99378 -6.27186,0.72847 -1.33224,1.20566 -4.53219,2.79721 -7.11102,3.53682 -6.39334,1.83359 -10.24869,-0.91218 -13.12226,-9.34561 -2.81751,-8.26897 -2.86937,-13.09801 -0.18182,-16.93502 1.84067,-2.62795 1.84067,-3.17657 0,-4.70419 -4.79228,-3.97725 0.37208,-19.58635 6.89593,-20.84272 7.28785,-1.4035 18.0086,3.88884 16.62491,8.20698 -0.41063,1.28144 0.75048,0.7988 2.95793,-1.22954 5.15627,-4.73795 5.17638,-8.386 0.0864,-15.64674 -12.86889,-18.35674 -14.95069,-45.29072 -5.65245,-73.13047 5.80963,-17.39452 14.33618,-36.56522 16.26313,-36.56522 3.03516,0 2.62027,2.93221 -1.94727,13.76224 -14.11607,33.4705 -16.88854,48.58443 -12.71107,69.29352 3.09257,15.33097 8.76053,25.85428 19.71928,36.61145 19.1615,18.80901 58.28351,40.23671 67.96736,37.22671 1.2816,-0.39837 3.27419,-0.13219 4.42796,0.5914 1.70449,1.06902 1.76028,1.6532 0.29761,3.11586 -0.99011,0.9901 -2.56696,1.86935 -3.50413,1.9539 -0.93719,0.0846 -2.96969,0.25978 -4.51667,0.38944 -4.16922,0.34944 -5.99978,1.90876 -7.02199,5.98159 -1.23355,4.91484 2.1728,8.23855 7.72344,7.53607 2.99807,-0.37941 4.2208,0.0577 4.2208,1.50856 0,1.12349 -0.63286,2.04272 -1.40636,2.04272 -2.03767,0 -7.03178,5.30517 -7.03178,7.46977 0,3.35014 5.62714,8.00013 9.68131,8.00013 5.44171,0 9.24718,-4.5714 8.83988,-10.61911 -0.37295,-5.53773 1.00031,-6.10817 4.74452,-1.97085 3.4414,3.80271 13.71573,3.42626 14.46669,-0.53006 1.03073,-5.43031 -1.08928,-9.13783 -6.18723,-10.82031 -2.76173,-0.91145 -5.3293,-2.45971 -5.70569,-3.44059 -1.85393,-4.83116 17.47065,-30.27964 22.99313,-30.27964 2.86894,0 2.10791,1.98777 -2.42294,6.3286 -5.86614,5.62012 -5.3505,6.81111 2.46112,5.6847 10.46697,-1.50933 31.60852,-14.208 42.68373,-25.638 10.66744,-11.00915 13.90489,-16.011 18.82682,-29.08738 5.01969,-13.33608 4.81971,-14.85337 -1.84008,-13.96011 -3.97959,0.53379 -7.1716,-0.19109 -12.3056,-2.79452 -8.40352,-4.26137 -10.86935,-6.86026 -14.67775,-15.46977 -3.65922,-8.27231 -2.74593,-14.43329 3.35565,-22.63707 8.12215,-10.92046 9.28514,-14.09003 10.20789,-27.82017 1.16837,-17.38456 2.92777,-21.43466 11.01899,-25.36569 l 6.45022,-3.13376 -1.00593,-6.37995 c -2.18181,-13.83771 -0.76313,-41.92806 3.08228,-61.03094 2.04186,-10.14336 3.94659,-18.82127 4.23274,-19.28427 1.5988,-2.58691 4.77949,-24.20619 5.98535,-40.68269 2.16184,-29.53863 1.77083,-32.2753 -4.61864,-32.32463 -4.88745,-0.0377 -20.46035,-8.70641 -24.01658,-13.36885 -3.72996,-4.89024 -4.55815,-10.56073 -1.54242,-10.56073 1.03844,0 3.09523,2.27507 4.57066,5.05568 3.01465,5.68154 10.63885,10.17101 23.74149,13.98004 6.57211,1.91058 11.05933,2.21087 21.73844,1.45482 7.40126,-0.52399 15.35542,-1.5138 17.67591,-2.19958 2.32049,-0.68579 7.28768,-2.12129 11.03819,-3.19006 l 6.81913,-1.94318 -5.94387,-5.52409 c -3.26913,-3.03825 -7.28703,-6.79154 -8.92865,-8.34064 -7.32177,-6.90907 -15.51433,-12.41073 -22.32939,-14.99518 -24.60615,-9.33122 -24.82401,-9.378 -42.19161,-9.05786 -9.09307,0.1676 -17.24311,-0.13417 -18.11121,-0.67074 -2.8217,-1.74391 0.23164,-4.10266 5.31078,-4.10266 10.16703,0 0.9882,-7.00522 -17.27213,-13.18196 l -10.04016,-3.39619 -0.89281,5.58325 c -1.18535,7.41287 -8.01623,20.64869 -12.99809,25.18576 -10.78754,9.82438 -27.76802,9.68407 -41.47133,-0.34269 -1.90362,-1.39289 -3.11145,-1.01918 -6.83657,2.11531 -4.05859,3.41506 -5.41501,3.75211 -13.17297,3.2732 -13.03193,-0.80449 -22.22815,-6.72303 -25.48748,-16.40335 l -1.49874,-4.4513 -6.47369,6.08282 c -3.56053,3.34556 -8.53495,10.1964 -11.05431,15.22412 -4.10631,8.19472 -4.60889,10.52479 -4.85345,22.50168 -0.34047,16.67344 2.41029,33.63949 6.99716,43.1569 1.28995,2.67654 3.01166,6.3724 4.21651,7.77811"
       inkscape:connector-curvature="0"
       sodipodi:nodetypes="sssscssssccssssssssscssssssssscssscsscssssssscsscssssssssscccsssssscssscssssssscssssssssssssccsssssssssssssssscssscssssssssssssssssssssssssssssssssssssssssssssssssssssssssssssssscsssssssssssssscssssscsscccccssssssssscscssssssccccsssssssscscsssssssssscsssssscssssssssssssscssssssssssssscsssssssscscccsssssssssssssssssssssssscscssssssssssscssssssssssscsssssssssssscsssscsscsssssscssssc"
       inkscape:export-xdpi="89"
       inkscape:export-ydpi="89" />
    <g
       id="g4234">
      <path
         sodipodi:nodetypes="cscscsssssscssscsssssscssssscscsscscsscccsssssscsscssscsscssscscscsccssssssscsscsccsccsssscsccscsssssssscssccsscsscsccssccssssssssscssssssccssscssscssscssscscsssccsscssssssssssccsssssscscccsccsscscsscsssssssscsscsssccscsscsssccscccsscssccscsccsssssscscsssssssssccscsscccccccsscssssscccsssccssssscscsssccscsssssccccscscccssscsccscscscccsccsccssscsscssssscsscsccsssssssscsscscscssssscs"
         inkscape:connector-curvature="0"
         id="path4180"
         d="m 1067.7012,602.63899 c -2.9393,-1.80587 -4.8253,-6.6626 -4.8253,-12.42573 0,-4.20777 -0.5754,-6.2201 -2.5396,-8.88252 -2.8762,-3.89837 -3.2265,-7.91532 -1.0564,-12.11185 0.8158,-1.57756 1.1834,-3.16814 0.8169,-3.53462 -0.3664,-0.36646 -4.8053,-2.63997 -9.864,-5.05224 -5.0587,-2.41227 -15.3335,-8.1131 -22.8329,-12.66852 -7.4993,-4.55543 -14.2772,-8.28259 -15.0619,-8.28259 -0.7847,0 -2.7629,1.33623 -4.3961,2.96941 -3.5944,3.59432 -3.8026,7.0316 -0.8762,14.45609 2.651,6.72561 2.0263,9.21045 -2.8704,11.41856 -3.8995,1.75842 -13.35349,2.43556 -15.49815,1.11005 -0.63674,-0.3935 -4.06736,0.76145 -7.62375,2.56656 -9.91489,5.03256 -14.10466,2.91715 -17.77817,-8.97623 -2.45318,-7.94235 -2.45378,-8.74205 -0.0102,-14.12491 1.21932,-2.68604 1.56796,-4.53022 0.93082,-4.92397 -2.4165,-1.49352 -2.9867,-5.79486 -1.46292,-11.03656 2.0381,-7.0107 5.49198,-10.19108 10.83596,-9.97797 5.2108,0.2078 11.28273,3.15582 12.57723,6.10652 1.30963,2.98513 1.86154,2.89249 5.00204,-0.83983 3.65238,-4.34055 3.31797,-7.20211 -1.87963,-16.08636 -5.82833,-9.96258 -9.39183,-19.99027 -10.69486,-30.09617 -0.57354,-4.4481 -1.50518,-10.83025 -2.0703,-14.18255 -1.70774,-10.1297 -2.98802,-18.84605 -4.10342,-27.93585 -2.72664,-22.22169 3.39345,-45.11968 22.98074,-85.98094 1.91214,-3.98894 3.47665,-7.54537 3.47665,-7.90316 0,-0.35779 -1.73213,0.34633 -3.84916,1.56474 -4.9548,2.85164 -9.71649,2.0714 -14.81026,-2.42681 -3.25875,-2.87772 -3.82254,-4.07969 -4.56482,-9.73075 -0.46567,-3.54611 -1.30507,-6.74604 -1.86521,-7.11094 -4.02784,-2.62397 -4.35017,-10.74907 -0.6928,-17.4687 3.59752,-6.60997 7.98792,-8.30381 17.26303,-6.66014 4.13644,0.73303 7.50337,-0.86492 7.50337,-3.56106 0,-1.57716 6.85141,-7.97198 9.70271,-9.05602 4.7063,-1.78936 10.0828,-1.16429 14.2377,1.65528 l 3.907,2.65133 2.3381,-2.90529 c 5.6108,-6.97182 4.9948,-12.92835 -3.681,-35.59309 -2.8183,-7.36266 -5.4194,-15.23287 -5.7802,-17.48934 -0.5756,-3.59943 -1.4819,-4.70733 -7.3886,-9.03215 -5.0881,-3.72534 -7.6959,-6.5873 -10.676,-11.71632 -2.40138,-4.13305 -4.6137,-6.78685 -5.65769,-6.78685 -0.94291,0 -4.19688,1.87899 -7.23101,4.17554 -5.97198,4.52018 -20.60031,12.07804 -23.37723,12.07804 -1.30923,0 -1.86652,-1.26045 -2.35799,-5.3332 -0.80069,-6.6355 0.91741,-28.66573 2.87191,-36.82454 3.60037,-15.02917 12.38421,-34.33441 20.58699,-45.24653 6.02175,-8.01075 29.79182,-22.29826 33.02712,-22.9563 1.5437,-0.54432 2.4702,-1.07194 1.0901,0.46336 -0.3104,0.3453 -2.5875,1.73483 -3.5387,2.17478 -3.7224,1.72169 -12.3388,8.23453 -12.9937,8.74759 -19.95849,15.5497 -33.93968,46.11801 -35.274,74.74808 -0.62191,13.34403 -0.061,17.11582 2.54551,17.11582 2.12252,0 10.93064,-5.76609 18.11259,-11.85701 l 5.19333,-4.40447 -0.51382,-21.40022 c -0.57233,-23.84083 0.0914,-29.00315 5.03719,-39.17207 3.3513,-6.89056 12.7615,-17.11153 17.7142,-19.24039 2.5998,-1.11745 3.2858,-2.117 3.8425,-5.59859 1.7304,-10.8212 13.9434,-25.927895 22.9144,-28.343547 4.0793,-1.098469 13.3951,0.179146 19.4943,2.199645 3.8238,1.266731 5.7664,2.879102 6.2788,4.214321 0.5145,1.340833 0.083,2.482241 -1.2079,2.644971 -1.0917,0.13757 -5.1732,-2.322015 -6.3936,-3.121661 -1.2483,-0.818023 -6.8641,-2.357851 -9.8366,-2.498328 -2.2932,-0.108372 -5.3485,-0.567594 -7.8096,0.0711 -3.5798,1.753641 -5.4295,3.588148 -7.2647,5.799109 -8.3328,10.03845 -10.8357,12.90411 -10.2857,24.40673 0.4214,8.81541 0.5814,9.34707 3.6347,12.07513 6.1382,5.48453 21.0247,7.90378 25.6397,4.16681 2.0054,-1.6239 2.4205,-3.43926 3.5622,-15.57867 1.4853,-15.79436 2.7955,-19.15747 10.3104,-26.46592 7.2676,-7.067892 12.091,-8.892286 23.5807,-8.919176 11.4859,-0.02692 13.3928,0.915027 22.3842,11.056866 4.702,5.30359 6.9539,7.06594 9.5711,7.49067 5.2174,0.84666 24.0268,8.54888 28.6076,11.71447 2.2349,1.54441 5.1314,4.44743 6.4366,6.45117 2.2891,3.51388 2.5157,3.61116 6.3865,2.74145 2.4631,-0.55341 6.5193,-0.50136 10.5012,0.13476 9.2151,1.47211 31.4188,8.57806 35.3377,11.30924 20.4381,14.24425 37.5644,30.347 32.2758,30.347 -0.548,0 -1.2862,1.15489 -1.6406,2.56642 -0.3542,1.41153 -1.3915,2.95675 -2.3049,3.43383 -4.6941,2.45153 -32.9303,7.20579 -42.7961,7.20579 l -6.1018,0 0,9.90453 c -0.01,24.08347 -2.8839,47.30359 -8.6558,69.83963 -4.7092,18.38662 -5.8905,30.45888 -5.3013,54.17775 0.3956,15.92218 1.2487,25.00085 4.2014,44.70848 3.1445,20.98825 3.7553,27.90365 4.0376,45.71321 0.4119,26.00007 1.0377,37.70854 2.6366,49.32829 0.6845,4.97375 0.9482,10.45934 0.5862,12.19019 -0.362,1.73085 -0.8753,5.66123 -1.1408,8.73417 -0.894,10.35073 -1.2346,11.81763 -4.5004,19.37963 -1.791,4.14721 -3.8737,8.96668 -4.6282,10.70994 l -1.3718,3.16955 12.4027,-0.20768 c 6.8214,-0.11422 14.6883,-0.79038 17.4819,-1.50257 22.6698,-5.77935 38.7061,-12.41484 46.6776,-19.31412 2.6105,-2.25937 5.1757,-4.10795 5.7005,-4.10795 0.5246,0 0.9539,1.78978 0.9539,3.97728 0,3.1589 -0.6513,4.56983 -3.1656,6.85698 -1.7411,1.58384 -6.1091,7.36221 -9.7065,12.84082 -7.5683,11.52587 -9.2795,13.71965 -15.7568,20.20035 -12.566,12.57263 -27.7151,13.71171 -58.6591,4.41066 -4.7083,-1.41509 -9.2063,-2.57288 -9.9962,-2.57288 -0.7897,0 -3.8894,2.18675 -6.888,4.85942 -12.5787,11.21119 -34.202,20.95396 -45.5255,20.51235 -2.3121,-0.0902 -4.7026,-0.12156 -5.3122,-0.0698 -1.3452,0.11438 -6.5105,9.36513 -6.5105,11.66003 0,0.90214 0.4558,1.64026 1.0129,1.64026 0.5571,0 2.8299,1.64148 5.0505,3.64773 4.8281,4.36177 6.057,8.84562 3.6829,13.43662 -2.4862,4.8077 -5.3602,6.28019 -12.258,6.28014 -5.8178,-5e-5 -6.2807,0.18776 -9.287,3.76844 -3.0139,3.5899 -3.4954,3.78371 -10.1584,4.08935 -3.8471,0.17647 -7.7946,-0.17066 -8.7723,-0.77139 z m 13.5162,-3.05308 c 2.7233,-1.45744 5.023,-6.30409 5.023,-10.58586 0,-4.18116 0.5492,-4.39849 3.6807,-1.45656 2.7126,2.54828 10.3005,3.67386 13.44,1.99364 1.5418,-0.82511 2.1804,-2.13171 2.1804,-4.46063 0,-4.48407 -2.2627,-7.36692 -7.6541,-9.75178 -2.4948,-1.10359 -4.5361,-2.64985 -4.5361,-3.43613 0,-4.02518 10.8563,-19.89948 17.7461,-25.94887 6.956,-6.10742 8.4263,-3.12846 1.6425,3.32786 -4.8729,4.63765 -4.2291,6.04826 2.4455,5.35936 11.4471,-1.18144 31.4441,-13.19974 45.2916,-27.22048 9.2093,-9.32454 15.2708,-19.17547 18.7001,-30.3912 3.3636,-11.00106 3.8154,-37.10863 0.9533,-55.0877 l -0.6029,-3.78732 -3.594,1.50166 c -6.0283,2.51874 -12.5096,1.92477 -19.7186,-1.8071 -7.4882,-3.87643 -12.2021,-9.45133 -14.7048,-17.39064 -2.3476,-7.44751 -1.4767,-10.80297 5.715,-22.01883 7.0151,-10.94062 7.5709,-12.66494 9.0734,-28.14847 1.6111,-16.60184 3.0058,-19.28891 12.2618,-23.62421 l 5.0657,-2.3726 -0.7732,-5.15429 c -0.4252,-2.83486 -0.7237,-13.38267 -0.6633,-23.43957 0.1131,-18.82791 1.682,-32.77352 5.5426,-49.26869 4.0798,-17.43103 4.9623,-22.09661 6.5327,-34.53887 2.2063,-17.48071 3.169,-43.66431 1.706,-46.39806 -0.766,-1.43119 -2.5534,-2.33698 -5.4821,-2.77819 -3.898,-0.58721 -16.1214,-6.65023 -20.1152,-9.97744 -3.3587,-2.79817 -6.0712,-7.29323 -6.0712,-10.06105 0,-4.1392 1.325,-3.62905 5.4358,2.09303 4.2312,5.88948 9.3503,9.09774 20.4683,12.82803 7.6963,2.5822 8.9072,2.70153 22.8567,2.25239 12.6659,-0.40782 16.4307,-0.947 26.8695,-3.84817 l 12.1398,-3.3739 -8.5844,-8.02737 c -16.8791,-15.78418 -22.9308,-19.50967 -42.5213,-26.17671 -11.1827,-3.8057 -13.5846,-4.27422 -21.8215,-4.25657 -15.4342,0.0331 -26.1678,-0.86954 -25.7363,-2.16427 0.2127,-0.63785 2.3566,-1.49604 4.7645,-1.90709 2.4077,-0.41104 4.5539,-0.92355 4.7693,-1.1389 1.1928,-1.19273 -1.4945,-3.88479 -6.5816,-6.59324 -5.9037,-3.14329 -21.927,-9.32684 -24.1683,-9.32684 -0.6849,0 -1.7351,2.28451 -2.3339,5.0767 -1.3556,6.32116 -5.9824,16.48252 -9.946,21.8433 -8.594,11.6238 -27.4855,13.92075 -41.1742,5.00627 -4.785,-3.11624 -5.4084,-3.08177 -10.841,0.59938 -5.4956,3.72389 -11.9248,4.01743 -21.721,0.99173 -7.7825,-2.40378 -13.8434,-7.78296 -15.9453,-14.15194 -0.7492,-2.27024 -1.6639,-4.1277 -2.0327,-4.1277 -1.85,0 -9.5695,7.95732 -13.598,14.01713 -8.37357,12.5956 -9.03144,15.35664 -8.52097,35.75948 0.50122,20.02721 2.01859,28.21707 7.15237,38.60226 3.5878,7.25772 7.2006,10.21382 20.5336,16.80128 9.4505,4.66922 26.5938,7.6688 45.2053,7.9096 12.5735,0.16268 14.4319,-0.06 22.3486,-2.67827 4.7491,-1.57063 12.833,-4.88032 17.9641,-7.35485 7.4184,-3.57753 10.3316,-5.65576 14.2219,-10.14534 2.6909,-3.1054 5.8103,-7.56137 6.932,-9.90216 2.3268,-4.8555 5.5837,-6.36207 5.5723,-2.57757 -0.02,6.70279 -6.8843,28.88196 -12.2056,39.43864 -3.9759,7.88738 -14.2722,23.14919 -18.7508,27.7933 -6.4843,6.72404 -7.242,15.03636 -2.9818,32.7145 2.831,11.74724 2.7209,15.2793 -0.6846,21.95444 -8.6652,16.98508 -26.9427,20.61283 -39.2148,7.78339 -5.3115,-5.55266 -9.2829,-15.35778 -10.0626,-24.84305 -0.6264,-7.61963 -0.4218,-9.00023 2.6906,-18.16223 l 3.3684,-9.91575 -2.9796,-2.08629 c -5.22,-3.65491 -13.5168,-13.17833 -16.725,-19.19746 -1.8433,-3.45822 -3.32,-8.00478 -3.6338,-11.18733 -0.9,-9.1297 -1.2643,-9.97389 -4.9731,-11.52349 -1.9176,-0.80125 -4.0169,-1.45682 -4.665,-1.45682 -1.9244,0 -0.1774,7.77068 3.6555,16.25954 4.482,9.92692 6.6362,18.2807 6.7132,26.03353 0.073,7.38965 -1.3033,10.46665 -8.824,19.72191 -6.8848,8.47272 -7.5425,10.33284 -7.5425,21.33022 0,13.845 -2.8521,18.90798 -10.997,19.52151 -1.215,0.0915 -2.2091,0.4936 -2.2091,0.89352 0,0.39991 -0.5875,1.33118 -1.3056,2.06948 -3.5355,3.63479 -8.81975,13.85476 -12.24967,23.69105 -1.36377,3.91102 -4.39202,12.08792 -6.72959,18.17087 -6.6719,17.36241 -8.39955,24.98777 -8.54177,37.70083 -0.0691,6.14589 0.49055,14.60284 1.24299,18.79321 0.75244,4.19038 1.97959,11.04736 2.72715,15.23774 0.74757,4.19038 1.64984,10.81879 2.00509,14.72981 0.77986,8.58605 4.54358,22.96952 7.91285,30.23987 7.72746,16.67471 28.38265,34.54672 56.51335,48.89854 12.0952,6.17077 19.7529,8.73254 26.1036,8.73254 2.3799,0 4.6524,0.52649 5.0501,1.16996 1.0924,1.76745 -2.5601,3.90929 -6.6664,3.90929 -4.6657,0 -7.8177,2.22976 -8.6759,6.13764 -1.1077,5.04311 1.5796,8.08425 7.1437,8.08425 5.4583,0 5.8989,1.64056 1.2294,4.57777 -1.7821,1.12098 -3.6969,3.33697 -4.2552,4.92442 -0.9188,2.61271 -0.6576,3.21384 2.7565,6.34261 3.8893,3.56432 7.3793,4.33125 10.9685,2.41037 z m 0.9596,-35.5988 c 0,-1.19756 0.9521,-4.29928 2.1156,-6.89272 1.1637,-2.59345 3.5636,-8.10854 5.3332,-12.25578 3.0412,-7.12698 5.7572,-10.31802 5.7572,-6.76405 0,3.21348 -9.675,26.2002 -11.4208,27.13452 -1.4449,0.77331 -1.7852,0.54039 -1.7852,-1.22197 z m 54.884,-218.4071 c -5.2211,-2.36832 -6.0862,-3.4076 -6.1077,-7.33721 -0.014,-2.6764 -0.2137,-2.80243 -3.464,-2.19268 -4.4258,0.83028 -7.121,-0.65307 -10.2803,-5.65761 -5.3449,-8.46689 -0.988,-18.2618 8.123,-18.2618 1.4709,0 2.8969,-0.71652 3.2483,-1.63204 0.5342,-1.39226 -0.4271,-8.60382 -1.8056,-13.54536 -0.2245,-0.8049 0.3406,-1.62854 1.2558,-1.83033 1.3213,-0.29132 2.0186,1.22658 3.3852,7.36955 0.9467,4.25505 1.4662,8.40111 1.1544,9.21349 -0.3116,0.81237 -3.3278,2.67448 -6.7023,4.138 -7.1843,3.1157 -8.4142,5.56564 -5.392,10.74037 2.7356,4.68406 5.9815,6.13117 9.5792,4.27073 4.1848,-2.16405 5.2603,-1.85884 4.6525,1.32037 -1.1005,5.75683 4.155,11.44655 10.5729,11.44655 3.0005,0 4.3503,-0.70399 6.885,-3.59083 3.8108,-4.34029 3.8766,-5.46131 0.6234,-10.61485 l -2.5294,-4.00681 4.0435,-1.08882 c 7.3896,-1.9898 11.3434,-8.04924 9.49,-14.54415 -1.2793,-4.48269 -6.9735,-6.02728 -12.0807,-3.2769 -2.7213,1.46552 -4.1918,1.66523 -6.7908,0.92224 l -3.3172,-0.94836 -0.2967,-7.83783 c -0.2466,-6.51303 -0.031,-7.83785 1.2698,-7.83785 1.1398,0 1.5665,1.06388 1.5665,3.90595 0,5.56915 2.077,6.97109 11.0429,7.45361 6.6683,0.35888 7.7517,0.71034 9.9045,3.21306 2.8042,3.26008 3.2168,9.02758 1.0128,14.15775 -1.468,3.41704 -4.7833,7.36313 -6.7318,8.01261 -0.6265,0.20885 -1.3871,2.88261 -1.6902,5.94169 -0.6168,6.22544 -3.091,10.42857 -7.4728,12.69444 -3.9395,2.03725 -7.7192,1.86564 -13.1482,-0.59698 z M 1048.6864,197.8052 c -11.9454,-3.33977 -14.3492,-6.42507 -14.6,-18.73908 -0.1358,-6.66534 0.1861,-8.43228 1.9744,-10.83833 3.5143,-4.72828 10.9122,-7.89345 19.4576,-8.32498 6.7248,-0.33958 8.1032,-0.0613 13.9485,2.81636 7.4604,3.67278 11.8399,8.82484 14.397,16.9368 2.7835,8.83023 0.5651,12.67161 -9.628,16.67233 -7.4241,2.91392 -18.1849,3.53595 -25.5495,1.4769 z m 26.8699,-17.35437 c 1.0024,-1.00233 1.5298,-2.89851 1.3424,-4.82528 -0.2416,-2.48308 -1.1377,-3.6164 -4.1159,-5.20579 -3.5083,-1.87225 -4.0265,-1.90906 -6.603,-0.46898 -2.059,1.15079 -2.796,2.34729 -2.796,4.53901 0,2.41154 0.771,3.41293 4.0634,5.27754 4.8634,2.7543 5.947,2.84564 8.1091,0.6835 z m -95.01063,388.15561 c 0.82761,-0.82754 1.5194,-3.17809 1.53738,-5.22344 0.0183,-2.04535 0.50823,-3.8784 1.0893,-4.07343 0.58106,-0.19504 2.80994,1.25144 4.95297,3.21441 3.14914,2.88445 4.70014,3.56615 8.08616,3.55405 4.82292,-0.0173 9.11592,-1.87453 9.55062,-4.13198 0.1649,-0.85596 -0.874,-3.28602 -2.3087,-5.40011 -1.4347,-2.11409 -2.8838,-5.85197 -3.2202,-8.30639 -0.57738,-4.21271 -0.37654,-4.69769 3.5876,-8.66181 2.3095,-2.30958 4.1992,-4.56931 4.1992,-5.02161 0,-0.98441 -7.2229,-7.0654 -8.39211,-7.0654 -0.45002,0 -2.40117,1.58291 -4.33585,3.51757 -5.45501,5.45509 -7.22015,6.10584 -9.35262,3.44813 -4.32538,-5.39085 -6.68063,-6.9657 -10.41743,-6.9657 -4.07132,0 -6.29258,1.75454 -8.04004,6.35092 -1.43783,3.78168 0.0681,7.3782 3.92382,9.37217 3.84844,1.99007 3.8521,2.62982 0.0284,4.80588 -4.32132,2.45907 -5.51453,6.16892 -4.07762,12.67807 0.63999,2.89915 2.11886,6.48556 3.28638,7.96981 1.75488,2.23091 2.6666,2.58986 5.26067,2.07104 1.72583,-0.34516 3.81492,-1.30464 4.64243,-2.13218 z m 237.96743,-33.84531 c 8.801,-4.05722 14.3242,-9.19301 21.2819,-19.78909 5.6267,-8.56893 7.0306,-11.86169 5.0576,-11.86169 -0.4819,0 -4.1884,1.36588 -8.2368,3.03529 -18.8824,7.78646 -44.8615,12.58901 -56.1165,10.37379 l -4.7865,-0.94206 -5.0826,6.6191 c -2.7954,3.6405 -4.8647,6.97154 -4.5985,7.4023 0.2663,0.43076 1.9645,1.10173 3.774,1.49105 1.8094,0.3893 7.1754,1.8389 11.9245,3.22131 17.1238,4.98454 26.6926,5.10161 36.7829,0.45 z M 1177.7282,433.9333 c 3.1331,-5.06941 3.1579,-40.35116 0.044,-61.35956 -2.9535,-19.92118 -3.7448,-22.85661 -6.1609,-22.85661 -2.619,0 -7.672,4.42733 -8.9619,7.85226 -0.5829,1.54779 -1.5565,8.65786 -2.1635,15.80017 -1.1751,13.82557 -2.5622,17.90539 -9.556,28.10576 -1.705,2.48666 -3.7034,6.27281 -4.441,8.41367 -2.5767,7.47882 1.7111,16.34773 11.2863,23.34486 3.9064,2.85465 4.5797,3.00354 11.6156,2.56837 4.8499,-0.29997 7.7736,-0.95529 8.3383,-1.86892 z M 995.87473,343.78999 c 1.26585,-1.02506 2.39192,-2.96788 2.50234,-4.31736 0.18631,-2.27648 0.55364,-2.43034 5.08833,-2.13128 7.3044,0.48173 9.3123,-0.33355 10.6262,-4.31463 0.958,-2.90253 0.771,-4.8696 -1.1186,-11.76441 -1.9369,-7.06758 -2.0565,-8.42004 -0.8174,-9.24221 0.7984,-0.52972 1.9249,-1.29294 2.5034,-1.69606 1.7432,-1.21467 8.6011,-10.01732 8.5669,-10.99606 -0.056,-1.59128 -4.9817,-4.58536 -8.3766,-5.09157 -4.6856,-0.69862 -8.9965,2.39431 -12.9373,9.28209 -3.23088,5.64707 -3.40866,5.78055 -6.98435,5.24476 -13.99088,-2.09642 -12.99027,-2.13363 -15.70787,0.58406 -3.31695,3.31694 -5.28952,10.38206 -3.8071,13.6357 0.59732,1.311 2.2433,2.91093 3.65777,3.55537 2.16173,0.98496 2.78536,0.87934 3.91295,-0.66266 0.73771,-1.00892 1.86876,-1.6572 2.51331,-1.44064 0.73558,0.24714 0.0427,2.09577 -1.86195,4.96506 -4.31685,6.50422 -4.10474,10.37943 0.74858,13.67734 4.48102,3.04492 8.31717,3.28277 11.49139,0.7125 z m 93.05007,-6.80208 c 9.2679,-5.43139 11.4677,-14.32069 7.3053,-29.51998 -1.683,-6.14521 -2.172,-10.61522 -2.0792,-19.00308 0.1087,-9.80823 -0.1,-11.18871 -1.9686,-13.05788 -2.3473,-2.34732 -7.0363,-2.02582 -10.0351,0.68802 -2.8662,2.59389 -7.3877,12.92931 -7.8859,18.02558 -0.547,5.59758 -1.3972,6.52046 -3.7962,4.1214 -1.724,-1.72398 -1.6957,-4.92425 0.1266,-14.30107 0.789,-4.06008 -0.427,-4.20828 -4.1678,-0.50792 -6.459,6.38942 -10.822,21.95426 -8.7985,31.38915 2.813,13.11686 8.5934,22.81628 14.7107,24.68428 4.7375,1.44668 11.6006,0.40473 16.5887,-2.5185 z m 8.2281,-193.13369 c 9.4374,-3.35566 18.2506,-18.0135 17.1912,-28.59219 -1.3787,-13.76856 -12.342,-22.711731 -25.893,-21.122089 -16.0183,1.879077 -23.5005,10.333039 -25.5737,28.895399 l -1.0614,9.50315 4.741,4.21082 c 6.7894,6.03031 10.3162,8.09745 15.0298,8.80949 5.2109,0.78714 10.0481,0.25744 15.5661,-1.70458 z m -24.0828,-16.54127 c -2.8002,-5.23226 0.6697,-9.54522 4.1859,-5.20289 2.2847,2.82149 2.3198,3.52873 0.2772,5.57147 -2.1034,2.10333 -3.1881,2.01375 -4.4631,-0.36858 z m 126.053,436.44378 c -9.7533,-0.96725 -17.7405,-3.57912 -18.1972,-5.95058 -0.2734,-1.41914 0.8729,-1.31837 8.9926,0.79058 14.787,3.84067 28.6351,2.94623 39.8657,-2.57487 3.3856,-1.66447 6.5297,-2.79519 6.9868,-2.51272 2.0966,1.29578 0.4248,3.68749 -3.8618,5.52497 -9.9507,4.26539 -21.7565,5.9156 -33.7861,4.72262 z m 24.4345,-17.63404 c 0.2659,-2.32289 0.8967,-2.95106 3.2317,-3.21813 3.8211,-0.43703 8.3789,-3.06881 18.0054,-10.39687 8.1602,-6.21178 9.0608,-6.71569 9.0608,-5.06929 0,3.4763 -20.2839,18.44286 -28.2662,20.8564 -2.1277,0.64332 -2.3293,0.4278 -2.0317,-2.17211 z m -32.0246,-48.86126 c -0.2898,-0.46878 6.4796,-4.66862 15.0431,-9.33296 8.5634,-4.66435 19.3723,-11.20434 24.0198,-14.5333 10.0726,-7.21478 13.1069,-8.62163 13.0884,-6.06836 -0.019,2.6666 -24.8104,18.85479 -39.6517,25.89201 -9.0524,4.2923 -11.7968,5.17989 -12.4996,4.04261 z m 32.8629,-4.9126 c 0,-0.89038 1.0285,-1.88266 2.2856,-2.20507 1.2572,-0.32241 5.5999,-2.29507 9.6506,-4.3837 7.9524,-4.10039 9.9348,-3.28495 4.0634,1.6714 -6.4881,5.47701 -15.9996,8.4003 -15.9996,4.91737 z M 1041.554,128.78313 c -2.6456,-3.18771 0.8665,-8.20243 4.8143,-6.87414 1.896,0.63792 1.5323,4.78475 -0.5878,6.70351 -2.2772,2.06071 -2.6455,2.07558 -4.2265,0.17063 z"
         style="fill:#626262;fill-opacity:1" />
      <path
         inkscape:connector-curvature="0"
         id="path4184"
         d="m 1071.6176,597.30812 c -4.6548,-3.66147 -4.6602,-5.13176 -0.036,-9.9581 4.0569,-4.23456 3.5268,-6.90982 -1.3694,-6.90982 -3.7384,0 -6.5633,-2.46219 -6.5633,-5.72051 0,-3.13678 4.4893,-7.00741 8.1274,-7.00741 10.6292,0 9.6464,-4.96404 -1.3669,-6.90399 -15.9475,-2.8091 -47.1453,-20.62809 -63.0421,-36.00724 -17.15961,-16.60076 -21.12448,-28.54214 -28.81442,-86.7831 -2.12751,-16.11307 -0.011,-28.4575 9.23286,-53.84888 11.07826,-30.43036 16.05076,-39.30169 23.04916,-41.12141 5.7829,-1.50368 8.9685,-8.62799 8.9712,-20.06372 0,-9.76061 -0.058,-9.62607 12.0081,-26.87075 5.8936,-8.42309 5.5482,-18.31226 -1.3002,-37.23124 -5.3056,-14.65699 -5.9563,-17.853 -3.6347,-17.853 3.2073,0 6.7072,5.66062 7.5833,12.26487 1.0991,8.28521 6.2367,16.90702 15.7176,26.377 l 6.83,6.82205 -3.2907,10.49296 c -3.0322,9.66827 -3.1547,11.2315 -1.5592,19.89033 2.0995,11.39436 5.6714,18.74297 11.4903,23.63928 10.2746,8.64549 22.6997,7.91979 32.5188,-1.89929 8.1641,-8.16419 9.5465,-14.33543 6.6249,-29.57588 -3.2908,-17.16677 -3.0994,-24.176 0.8061,-29.52303 18.0283,-24.68216 23.8351,-35.32713 29.0956,-53.33753 5.5505,-19.00315 3.8645,-26.27858 -3.3806,-14.58817 -2.0803,3.35659 -5.4556,7.91372 -7.5008,10.12696 -4.7356,5.12484 -19.2569,12.49286 -32.6226,16.55257 -9.1195,2.76994 -12.2412,3.04338 -25.395,2.22446 -20.4268,-1.27172 -32.2784,-4.01767 -44.0589,-10.20813 -11.3956,-5.98819 -14.1396,-8.97375 -18.5063,-20.13497 -2.62974,-6.72172 -3.23278,-11.58794 -3.73882,-30.17061 l -0.60335,-22.15626 4.42447,-8.30122 c 7.0905,-13.3031 18.4942,-23.65597 18.4942,-16.78999 0,3.22585 5.7266,9.27776 11.6278,12.28834 9.0424,4.61306 19.4027,5.10437 26.2683,1.24571 l 5.6919,-3.19905 7.475,3.72496 c 9.9754,4.97096 22.1504,5.1478 31.0925,0.45162 7.1457,-3.75275 13.5264,-13.1341 17.478,-25.69707 2.7978,-8.89485 1.8336,-8.74268 16.941,-2.67372 9.6811,3.88911 14.9473,7.07737 14.9473,9.04933 0,0.75988 -1.1137,1.39135 -2.4748,1.40326 -3.1523,0.0276 -6.9192,2.3694 -5.7278,3.56083 0.4993,0.49931 9.7086,1.39739 20.4651,1.99574 17.2573,0.95997 20.971,1.63581 31.5782,5.74681 15.0072,5.81636 23.4782,11.19525 35.9475,22.82585 l 9.7847,9.12648 -12.6814,3.11006 c -9.0388,2.21674 -17.0133,3.11005 -27.7628,3.11005 -19.4967,0 -28.5596,-3.06583 -38.173,-12.91332 -3.6972,-3.78712 -7.0382,-6.88567 -7.4247,-6.88567 -1.4473,0 -0.6289,5.93971 1.3443,9.75539 2.0732,4.00923 17.3028,12.98533 25.1768,14.83886 l 3.8891,0.91548 -0.028,17.29718 c -0.032,19.84626 -2.513,40.21903 -7.626,62.61232 -4.6953,20.56358 -7.0022,45.82543 -5.9061,64.67391 0.8006,13.76713 0.6448,15.32186 -1.6159,16.11905 -1.3762,0.48524 -4.5247,2.37674 -6.9969,4.20332 -4.8024,3.54832 -6.3764,8.66476 -8.2829,26.92483 -0.7073,6.7743 -2.3512,11.23402 -7.2978,19.79899 -7.7278,13.38033 -8.9569,20.35338 -4.9586,28.13014 6.8862,13.39351 21.7133,20.64772 33.2428,16.26419 3.3179,-1.26148 3.475,-1.04304 4.3224,6.01041 1.3597,11.31727 1.0628,36.49518 -0.53,44.95665 -2.946,15.64926 -13.2612,31.17889 -29.0606,43.7509 -12.0907,9.62079 -28.9924,18.31396 -35.6071,18.31396 l -5.1382,0 3.8001,-3.96647 c 3.838,-4.006 4.9454,-7.34723 2.4351,-7.34723 -4.5901,0 -22.6766,22.67347 -22.6766,28.42768 0,1.55982 2.3623,4.14079 5.7438,6.27542 4.7235,2.98185 5.6655,4.30379 5.3033,7.44237 -0.3887,3.36768 -1.1201,3.86628 -6.2197,4.24004 -3.907,0.28635 -6.3682,-0.28628 -7.5977,-1.76777 -2.8381,-3.4196 -3.8439,-2.67235 -5.5562,4.12771 -1.4379,5.71059 -4.6298,9.2373 -8.3604,9.2373 -0.724,0 -2.9933,-1.31898 -5.0427,-2.93107 z m 19.4968,-45.57443 c 5.3207,-12.94058 5.9401,-18.13429 1.6261,-13.63572 -2.6109,2.72262 -10.707,22.10846 -10.707,25.6376 0,5.97301 3.7019,1.08037 9.0809,-12.00188 z m 62.6491,-207.76053 c 1.8039,-1.69468 3.6732,-5.5578 4.1588,-8.59477 0.4852,-3.03405 2.2878,-7.2075 4.0059,-9.27431 7.1449,-8.59549 8.1442,-14.55891 3.4412,-20.53769 -2.1282,-2.70555 -4.2336,-3.72626 -7.6861,-3.72626 -7.8203,0 -11.9711,-2.27913 -12.9358,-7.10297 -1.4152,-7.07569 -4.0597,-4.01347 -3.6974,4.2814 0.1797,4.11512 0.6415,7.79679 1.0262,8.18146 0.9146,0.91461 7.2084,0.69582 13.8117,-0.48013 4.6318,-0.82485 5.45,-0.53199 6.8017,2.43468 2.3416,5.13937 -0.3939,10.62991 -6.7314,13.51083 -2.9345,1.33396 -5.5808,2.58349 -5.8806,2.77674 -0.2998,0.19324 0.4957,1.93981 1.7678,3.88127 3.0461,4.64897 2.9208,6.33556 -0.7621,10.25579 -5.9673,6.35194 -15.3098,2.59026 -15.3098,-6.1644 0,-5.22213 -0.5605,-5.42396 -7.3153,-2.63439 -3.1966,1.32012 -8.5477,-4.14633 -7.9745,-8.14635 0.2741,-1.91272 2.7108,-4.32371 6.451,-6.38295 6.5984,-3.63297 7.3044,-6.15891 4.5218,-16.17875 -2.1595,-7.77582 -5.9033,-7.21403 -4.7122,0.70711 0.4971,3.30573 0.8982,6.32861 0.8913,6.71752 -0.06,3.3926 -0.7885,4.24264 -3.6364,4.24264 -1.809,0 -4.7599,1.56571 -6.5577,3.47936 -2.7259,2.90154 -3.1336,4.48645 -2.4553,9.54372 0.976,7.2764 6.6268,13.03633 11.8162,12.04432 2.4288,-0.46429 3.3142,0.0113 3.3142,1.77957 0,1.32723 1.1268,3.43287 2.504,4.67918 6.4695,5.85486 15.3474,6.15189 21.1428,0.70738 z m -78.2413,-147.52154 c 6.8732,-2.87179 9.3397,-5.85417 9.3397,-11.29306 0,-22.03648 -29.164,-34.30252 -46.6251,-19.60997 -4.005,3.36996 -4.2866,4.24374 -4.2866,13.30182 0,8.05813 0.5454,10.32896 3.2304,13.45045 6.2548,7.27167 25.8065,9.38828 38.3416,4.15076 z"
         style="fill:#ffffff;fill-opacity:1;stroke:none;stroke-width:10;stroke-miterlimit:4;stroke-dasharray:none;stroke-dashoffset:0;stroke-opacity:1" />
      <path
         inkscape:connector-curvature="0"
         id="path4186"
         d="m 1070.7614,181.36669 c -1.5561,-0.6463 -4.8477,-2.56477 -5.7241,-3.33622 -1.1441,-1.00714 -1.5018,-1.82653 -1.506,-3.4504 0,-0.87082 0.104,-1.61237 0.3006,-2.09915 0.6331,-1.56767 3.4291,-3.40158 5.1861,-3.40158 0.7528,0 1.2508,0.17763 3.0318,1.08148 2.4038,1.21998 3.6717,2.25056 4.2744,3.47442 0.3518,0.71428 0.4117,1.10563 0.4117,2.69194 0,2.62309 -0.5677,3.81112 -2.3769,4.97466 -1.005,0.64632 -2.148,0.66692 -3.5976,0.0649 z"
         style="fill:#ffffff;fill-opacity:1;stroke:none;stroke-width:10;stroke-miterlimit:4;stroke-dasharray:none;stroke-dashoffset:0;stroke-opacity:1" />
      <path
         inkscape:connector-curvature="0"
         id="path4188"
         d="m 1081.8534,145.40211 c -4.6989,-0.78659 -9.8847,-3.96414 -16.7238,-10.24746 l -2.9738,-2.73215 0.6253,-6.21248 c 1.2299,-12.21805 3.8078,-19.48781 8.6371,-24.35647 3.1657,-3.191562 8.2486,-5.801731 13.3429,-6.851959 9.376,-1.932908 16.9698,-0.0084 22.5923,5.725769 9.7773,9.97128 8.7855,25.09853 -2.4329,37.10736 -3.6654,3.92374 -7.4166,6.01848 -12.8171,7.15736 -3.3236,0.70091 -7.5115,0.86844 -10.25,0.41003 z m -4.0518,-17.92197 c 1.7664,-2.0118 1.742,-1.9282 0.9907,-3.39047 -1.1015,-2.14406 -3.0969,-3.84213 -4.5148,-3.84213 -2.5254,0 -3.2245,3.47086 -1.4139,7.01992 1.315,2.5777 2.8052,2.64188 4.938,0.21268 z"
         style="fill:#ffffff;fill-opacity:1;stroke:none;stroke-width:10;stroke-miterlimit:4;stroke-dasharray:none;stroke-dashoffset:0;stroke-opacity:1" />
      <path
         inkscape:connector-curvature="0"
         id="path4190"
         d="m 987.37557,344.45885 c -2.51043,-1.08901 -4.91332,-3.05054 -5.77266,-4.71233 -1.26936,-2.45465 -0.91052,-4.36035 1.75052,-9.29656 1.375,-2.55062 2.5,-4.9896 2.5,-5.41996 0,-1.16359 -1.22491,-0.94937 -2.97057,0.5195 -1.92303,1.61813 -3.48417,1.3433 -5.8589,-1.03143 -1.49361,-1.49361 -1.67053,-1.96508 -1.67053,-4.45177 0,-3.59793 1.54125,-7.67321 3.91255,-10.34533 1.78906,-2.01602 1.99182,-2.10623 4.60163,-2.04744 1.50156,0.0338 5.14354,0.43203 8.0933,0.88488 6.58517,1.01096 6.64087,0.98433 10.23149,-4.89154 4.2366,-6.9329 8.6115,-10.04948 12.8279,-9.13826 2.2122,0.4781 5.8964,2.40416 7.0586,3.69023 0.879,0.9727 0.9037,1.19672 0.25,2.26651 -1.8878,3.08911 -7.2136,9.28687 -8.9913,10.46334 -2.4977,1.65286 -2.5422,2.64682 -0.4842,10.79885 1.6546,6.55365 1.8424,9.22324 0.819,11.64106 -1.3442,3.17599 -2.2893,3.58279 -8.9651,3.85894 l -6.04364,0.25 -0.44707,1.73173 c -1.3102,5.07511 -5.99148,7.3333 -10.84102,5.22958 z"
         style="fill:#ffffff;fill-opacity:1;stroke:none;stroke-width:10;stroke-miterlimit:4;stroke-dasharray:none;stroke-dashoffset:0;stroke-opacity:1" />
      <path
         inkscape:connector-curvature="0"
         id="path4192"
         d="m 1193.642,536.94253 c -3.9073,-0.70548 -23.2412,-5.77294 -25.9136,-6.79198 -0.7562,-0.28838 -1.375,-0.70781 -1.375,-0.93207 0,-0.55316 3.9922,-6.34625 7.089,-10.28678 1.7192,-2.18771 2.7876,-3.13903 3.3438,-2.97741 11.834,3.43894 35.8986,-0.39182 59.6814,-9.50047 4.6044,-1.76346 8.4873,-3.20628 8.6287,-3.20628 1.7942,0 -4.3044,10.60758 -10.7933,18.77319 -5.5559,6.99148 -14.1159,12.65935 -22.2677,14.74424 -4.6096,1.17893 -12.4293,1.25442 -18.3933,0.17756 z"
         style="fill:#ffffff;fill-opacity:1;stroke:none;stroke-width:10;stroke-miterlimit:4;stroke-dasharray:none;stroke-dashoffset:0;stroke-opacity:1" />
      <path
         inkscape:connector-curvature="0"
         id="path4194"
         d="m 971.72415,569.37254 c -3.11748,-3.25631 -5.44475,-11.62365 -4.36057,-15.67771 0.7147,-2.67247 1.03638,-3.08075 4.36426,-5.5392 1.44407,-1.0668 2.62559,-2.26312 2.62559,-2.6585 0,-0.39537 -1.2267,-1.50358 -2.72601,-2.46267 -3.37491,-2.1589 -4.46776,-4.09442 -4.15422,-7.35743 0.58609,-6.0996 6.36509,-9.64445 11.64123,-7.14076 0.91417,0.4338 3.14444,2.3463 4.95616,4.25 1.81172,1.9037 3.68526,3.46043 4.16343,3.4594 1.29027,-0.003 3.44183,-1.48886 7.51097,-5.18784 2.00286,-1.82066 3.77271,-3.31029 3.93301,-3.31029 0.5531,0 4.9301,3.42478 6.6169,5.17737 l 1.6915,1.75744 -2.7171,2.9076 c -4.8848,5.22717 -5.41587,6.04642 -5.41587,8.3552 0,2.96098 1.27407,6.93611 3.55617,11.09504 1.0691,1.94846 1.9438,3.99484 1.9438,4.54751 0,2.24825 -4.2545,4.15984 -9.25824,4.15984 -3.32807,0 -3.38428,-0.0281 -9.75566,-4.875 -3.40687,-2.59171 -3.81826,-2.34247 -4.53948,2.75021 -0.60023,4.23839 -1.32997,5.32068 -4.26085,6.31933 -3.27689,1.11655 -4.29641,1.0167 -5.81502,-0.56954 z"
         style="fill:#ffffff;fill-opacity:1;stroke:none;stroke-width:10;stroke-miterlimit:4;stroke-dasharray:none;stroke-dashoffset:0;stroke-opacity:1" />
      <path
         inkscape:connector-curvature="0"
         id="path4198"
         d="m 1043.2222,142.90384 c -8.2299,-1.32948 -14.518,-4.74514 -16.3468,-8.87951 -0.8163,-1.84547 -0.986,-3.42459 -1.0268,-9.55423 -0.043,-6.50044 0.08,-7.67456 1.0772,-10.22876 1.9316,-4.94948 9.8499,-14.807597 14.0193,-17.453805 2.0204,-1.282255 2.6354,-1.410117 6.75,-1.4034 5.887,0.0096 9.801,0.972124 14.9094,3.666366 l 4.1524,2.190069 -1.8805,2.11905 c -4.0819,4.59977 -5.2392,8.59887 -6.8858,23.79474 -1.3572,12.52613 -1.649,13.48856 -4.5424,14.98482 -1.7227,0.89081 -7.0015,1.28554 -10.226,0.76466 z m 2.6503,-14.23996 c 3.638,-4.14345 1.6034,-8.86609 -2.8316,-6.57265 -2.7314,1.41247 -3.4242,4.56297 -1.5324,6.96809 1.3887,1.76543 2.56,1.6593 4.364,-0.39544 z"
         style="fill:#ffffff;fill-opacity:1;stroke:none;stroke-width:10;stroke-miterlimit:4;stroke-dasharray:none;stroke-dashoffset:0;stroke-opacity:1" />
      <path
         inkscape:connector-curvature="0"
         id="path4224"
         d="m 969.345,221.35105 c -0.36971,-0.19068 -0.82252,-0.82054 -1.125,-1.56486 -0.47286,-1.16359 -0.50453,-1.7567 -0.48034,-8.99572 0.018,-5.37906 0.15349,-8.92017 0.44297,-11.57496 2.31189,-21.20202 10.3894,-41.51806 22.71547,-57.13247 3.27753,-4.15192 9.4927,-10.15358 13.9548,-13.4755 4.3389,-3.23015 8.8432,-6.22851 11.1109,-7.39608 0.825,-0.42478 1.9935,-1.07448 2.5968,-1.44379 l 1.0968,-0.67148 -0.1746,0.97214 c -0.5844,3.25423 -1.1752,4.13885 -3.5837,5.36585 -2.5008,1.27403 -4.2115,2.60108 -7.5221,5.83512 -8.77835,8.57529 -13.54637,17.50794 -15.09046,28.27117 -0.3728,2.59869 -0.4428,21.97313 -0.13321,36.875 l 0.18957,9.125 -1.09403,0.875 c -0.60172,0.48125 -2.37453,1.9505 -3.93957,3.26501 -6.88361,5.78166 -15.11427,11.28742 -17.72054,11.85386 -0.34375,0.0747 -0.90344,-0.008 -1.24376,-0.18329 z"
         style="fill:#ffffff;fill-opacity:1;stroke:#ffffff;stroke-width:0.025;stroke-miterlimit:4;stroke-dasharray:none;stroke-dashoffset:0;stroke-opacity:1" />
      <path
         inkscape:connector-curvature="0"
         id="path4226"
         d="m 1073.9773,339.44551 c -3.4914,-0.86761 -5.1718,-2.06215 -8.0848,-5.74736 -3.0268,-3.82925 -6.4784,-12.06448 -7.8333,-18.68991 -1.9427,-9.49965 1.8753,-23.75538 8.2528,-30.81453 2.645,-2.92762 4.8582,-3.7464 4.2144,-1.55913 -0.2003,0.68059 -0.7506,3.83973 -1.2228,7.02032 -0.7698,5.18397 -0.7328,5.97516 0.3577,7.6394 1.1938,1.82194 2.9988,2.9799 3.6421,2.33655 0.1792,-0.17918 0.6717,-2.20723 1.0944,-4.50678 1.2406,-6.74874 4.7125,-14.90255 7.6689,-18.01036 2.2207,-2.33443 3.1094,-2.78764 5.4664,-2.78764 2.0764,0 3.2436,0.4566 4.4499,1.74061 1.5336,1.63247 1.6714,2.54394 2.2172,14.67246 0.4059,9.02113 1.0162,14.64256 2.018,18.58872 1.8369,7.23533 1.8866,15.22776 0.1189,19.11925 -3.2702,7.19922 -14.8087,12.87483 -22.3598,10.9984 z"
         style="fill:#f4c2b8;fill-opacity:1;stroke:none;stroke-width:0;stroke-miterlimit:4;stroke-dasharray:none;stroke-dashoffset:0;stroke-opacity:1" />
      <path
         inkscape:connector-curvature="0"
         id="path4228"
         d="m 1160.2387,434.47698 c -3.7169,-1.89489 -9.8978,-8.16653 -12.0241,-12.20058 -1.3987,-2.65381 -1.7465,-3.93218 -1.9294,-7.09245 -0.2046,-3.53312 -0.09,-4.13976 1.3701,-7.26268 0.8764,-1.87415 2.9006,-5.43254 4.4984,-7.90754 5.7371,-8.88722 7.0358,-12.6954 8.2699,-24.25 1.1611,-10.87195 1.7208,-15.02126 2.3501,-17.42186 0.6784,-2.58865 4.4706,-6.7354 7.2037,-7.87736 3.2473,-1.35682 3.9296,0.009 5.9375,11.88592 2.8354,16.77141 3.7524,28.03537 3.7641,46.23532 0.01,12.79275 -0.604,21.28085 -1.7291,23.97353 -0.8631,2.06574 -2.6521,2.61651 -9.7632,3.00576 -5.0225,0.27493 -5.3669,0.22777 -7.948,-1.08806 z"
         style="fill:#f4c2b8;fill-opacity:1;stroke:none;stroke-width:0;stroke-miterlimit:4;stroke-dasharray:none;stroke-dashoffset:0;stroke-opacity:1" />
      <path
         inkscape:connector-curvature="0"
         id="path4232"
         d="m 1162.3572,435.37318 c -2.1563,-0.7272 -4.3587,-2.17847 -7.1375,-4.70327 -4.1629,-3.78237 -7.2198,-8.03385 -8.3059,-11.55182 -0.4394,-1.42295 -0.8039,-5.41597 -0.6321,-6.92283 0.2786,-2.4425 1.7941,-5.53918 6.1473,-12.56097 3.8048,-6.13726 5.2552,-9.18382 6.2924,-13.21801 0.7457,-2.89982 1.1476,-5.5619 2.0482,-13.56366 1.2748,-11.32644 1.7207,-14.07083 2.5545,-15.72262 1.6409,-3.25058 5.5666,-6.68039 8.0332,-7.01847 0.7673,-0.10518 0.8459,-0.0755 1.4238,0.53724 1.1263,1.19422 1.8793,4.26707 3.5349,14.42567 2.506,15.37615 3.2732,25.50668 3.2734,43.22191 2e-4,13.76679 -0.5107,21.2416 -1.6485,24.12218 -0.6985,1.76849 -1.9942,2.37857 -6.0378,2.84291 -2.7489,0.31568 -8.7335,0.38573 -9.5459,0.11174 z"
         style="fill:#e2e2e2;fill-opacity:1;stroke:none;stroke-width:0;stroke-miterlimit:4;stroke-dasharray:none;stroke-dashoffset:0;stroke-opacity:1" />
    </g>
  </g>
</svg>
