<?xml version="1.0" encoding="UTF-8" standalone="no"?>
<!-- Created with Inkscape (http://www.inkscape.org/) -->

<svg
   xmlns:dc="http://purl.org/dc/elements/1.1/"
   xmlns:cc="http://creativecommons.org/ns#"
   xmlns:rdf="http://www.w3.org/1999/02/22-rdf-syntax-ns#"
   xmlns:svg="http://www.w3.org/2000/svg"
   xmlns="http://www.w3.org/2000/svg"
   xmlns:sodipodi="http://sodipodi.sourceforge.net/DTD/sodipodi-0.dtd"
   xmlns:inkscape="http://www.inkscape.org/namespaces/inkscape"
   width="297mm"
   height="210mm"
   viewBox="0 0 1052.3622 744.09448"
   id="svg4794"
   version="1.1"
   inkscape:version="0.91 r13725"
   sodipodi:docname="radosny_stoi.svg">
  <defs
     id="defs4796" />
  <sodipodi:namedview
     id="base"
     pagecolor="#ffffff"
     bordercolor="#666666"
     borderopacity="1.0"
     inkscape:pageopacity="0.0"
     inkscape:pageshadow="2"
     inkscape:zoom="0.7"
     inkscape:cx="344.8203"
     inkscape:cy="397.55561"
     inkscape:document-units="px"
     inkscape:current-layer="layer1"
     showgrid="false"
     inkscape:window-width="1304"
     inkscape:window-height="745"
     inkscape:window-x="54"
     inkscape:window-y="-8"
     inkscape:window-maximized="1" />
  <metadata
     id="metadata4799">
    <rdf:RDF>
      <cc:Work
         rdf:about="">
        <dc:format>image/svg+xml</dc:format>
        <dc:type
           rdf:resource="http://purl.org/dc/dcmitype/StillImage" />
        <dc:title></dc:title>
      </cc:Work>
    </rdf:RDF>
  </metadata>
  <g
     inkscape:label="Layer 1"
     inkscape:groupmode="layer"
     id="layer1"
     transform="translate(0,-308.26772)">
    <path
       style="fill:#000000"
       d="m 358.31259,926.90099 c -6.33698,-1.53302 -13.93651,-8.97332 -17.19134,-16.83124 -1.58016,-3.81478 -4.46653,-6.61404 -6.8199,-6.61404 -4.91188,0 -15.88428,-12.43327 -15.88428,-17.99906 0,-2.18396 1.57017,-9.25814 3.48927,-15.72041 4.21494,-14.19331 14.52657,-23.2332 27.03816,-23.70355 4.55666,-0.17121 9.23993,-1.4623 10.40729,-2.86888 2.00163,-2.41183 6.88529,-27.6555 6.92268,-35.78335 0.0404,-8.75918 -6.28718,-5.69535 -12.41092,6.00946 -8.3006,15.8657 -19.28367,21.22077 -40.63233,19.81136 -4.43809,-0.29302 -6.97231,-2.11833 -8.49261,-6.11698 -1.19179,-3.13465 -3.04426,-5.69936 -4.1166,-5.69936 -1.07235,0 -5.21581,4.54796 -9.20768,10.10656 l -7.25797,10.10653 5.50729,5.94249 c 7.89003,8.51348 9.15385,16.05869 4.33933,25.90663 -3.8993,7.97584 -4.65729,8.38129 -16.8728,9.02521 -10.95514,0.57746 -13.1478,1.45927 -15.28338,6.14635 -3.7529,8.23669 -18.01901,11.90564 -27.41011,7.0493 -3.96515,-2.05046 -7.20936,-3.11011 -7.20936,-2.35476 0,0.75532 -2.44339,-1.53048 -5.42975,-5.07956 -4.97096,-5.90764 -5.43509,-8.52054 -5.49277,-30.92266 -0.0626,-24.39716 -0.0428,-24.48674 6.74534,-30.19859 8.58728,-7.22575 16.92186,-9.35932 24.85849,-6.36357 3.40931,1.28686 7.19749,1.69996 8.41818,0.91799 3.63691,-2.32981 15.74535,-23.56968 18.68054,-32.76826 3.6358,-11.39421 7.88703,-11.18004 6.34462,0.31964 -0.65424,4.87779 -5.52273,16.16251 -10.81882,25.07718 -8.31634,13.99845 -10.50808,16.20849 -16.07418,16.20849 -3.54468,0 -6.99342,-0.88755 -7.66384,-1.97234 -1.93206,-3.12613 -12.68107,-1.05706 -17.59057,3.38597 -5.97098,5.40366 -5.03511,17.57605 1.44237,18.76079 2.50771,0.45866 5.9225,1.94198 7.5884,3.29623 2.38559,1.93935 1.41719,3.22028 -4.5595,6.03099 -6.27214,2.94964 -7.70842,5.005 -8.28036,11.84933 -0.61508,7.36044 0.21612,8.84192 7.47958,13.331 12.65242,7.81961 26.26867,3.03441 26.26867,-9.23169 0,-8.5126 2.83693,-9.86327 9.17353,-4.36757 13.41816,11.63751 27.29882,-2.95198 16.91427,-17.778 -2.30047,-3.28436 -5.90932,-5.06675 -10.25885,-5.06675 -7.27387,0 -9.20179,-4.30587 -2.72042,-6.07582 2.19425,-0.59921 8.44042,-7.6524 13.88043,-15.67374 l 9.89085,-14.58427 -4.76143,-13.75857 c -2.61881,-7.56722 -4.76146,-15.63529 -4.76146,-17.92905 0,-2.29374 -1.33517,-4.17045 -2.96705,-4.17045 -1.63188,0 -10.34227,-6.02513 -19.35638,-13.38918 -15.8161,-12.92098 -23.50582,-24.77356 -19.87937,-30.64129 2.6535,-4.29347 5.29091,-2.38284 10.16603,7.3646 4.18463,8.36686 22.63033,26.31121 29.34818,28.55048 1.23187,0.41064 3.79583,-2.37266 5.69772,-6.18508 3.3508,-6.71682 3.25854,-7.07365 -2.97718,-11.51388 -3.53933,-2.52021 -7.33053,-4.58222 -8.42485,-4.58222 -1.09432,0 -5.40613,-3.12045 -9.58178,-6.9343 -5.83069,-5.32555 -7.38156,-8.3688 -6.68462,-13.11736 l 0.90751,-6.18305 -11.49149,5.54215 c -13.82571,6.66792 -43.49709,9.13982 -57.3711,4.77953 -20.90046,-6.56851 -36.04469,-16.0742 -43.88345,-27.54466 -4.39308,-6.42844 -9.44183,-11.25617 -11.77144,-11.25617 -5.30202,0 -17.58368,-16.77994 -20.66954,-28.23996 -3.3207,-12.33211 -0.85205,-22.87179 6.8812,-29.3789 3.5686,-3.00278 7.26249,-7.93758 8.20865,-10.96621 0.94616,-3.02863 2.99441,-7.34952 4.55164,-9.60198 2.40944,-3.48509 1.88167,-5.04504 -3.54182,-10.46854 -7.26651,-7.26649 -12.31916,-23.0974 -10.41333,-32.62669 2.58931,-12.94655 13.04153,-31.47385 19.69793,-34.916 8.42634,-4.35744 21.44687,-4.33936 25.82207,0.0359 1.88078,1.88078 5.40239,3.41961 7.82581,3.41961 3.47063,0 4.17484,-1.21014 3.31668,-5.69937 -0.60478,-3.16367 -0.0205,-5.69935 1.31345,-5.69935 1.32163,0 14.52126,-7.97596 29.33251,-17.72436 14.81123,-9.74842 29.73219,-18.95094 33.15767,-20.45006 3.67404,-1.60793 16.56587,-2.66968 31.43674,-2.5891 15.69378,0.0851 26.38883,-0.84293 28.33551,-2.4585 1.71979,-1.4273 8.98361,-11.3069 16.14179,-21.95466 7.1582,-10.64776 16.73872,-22.12762 21.2901,-25.5108 4.55135,-3.3832 9.814,-7.76587 11.69478,-9.73926 1.88079,-1.97342 8.0361,-6.68236 13.67847,-10.46437 25.84056,-17.32054 45.54014,-21.87104 65.51852,-15.13444 15.49737,5.22562 20.85983,9.29385 22.97782,17.43213 5.46276,20.99035 -15.10509,43.31907 -60.79492,65.99979 -13.1311,6.51835 -17.69073,7.81505 -21.08762,5.99706 -2.38374,-1.27567 -4.33405,-3.19949 -4.33405,-4.27506 0,-2.324 5.64908,-4.7232 11.12107,-4.7232 4.93033,0 26.86066,-11.88284 45.15613,-24.46759 17.91199,-12.32101 24.01724,-20.7072 23.08287,-31.70677 -0.99993,-11.77125 -8.77051,-16.94313 -27.74502,-18.46623 -14.23518,-1.14264 -16.07474,-0.69313 -34.15337,8.34621 -13.86652,6.93326 -24.82279,14.88667 -39.94233,28.99509 -11.45897,10.69262 -20.83449,20.69242 -20.83449,22.22175 0,1.52932 -3.10838,7.00733 -6.90753,12.17337 -8.04231,10.93586 -9.57888,9.83469 21.72587,15.56973 19.60661,3.59194 35.74755,7.98532 45.59488,12.41041 9.06024,4.0714 52.95575,13.90076 76.37142,17.1016 30.08415,4.11236 91.72991,5.06709 143.62385,2.22436 59.81984,-3.27689 85.22527,-2.41253 107.86109,3.66969 4.78073,1.28458 11.5003,2.69098 14.93236,3.12533 3.43206,0.43437 11.68453,2.40655 18.3388,4.38266 13.06251,3.87914 16.41662,3.0834 24.38793,-5.78586 11.67397,-12.98902 25.9193,-49.7423 27.12001,-69.97021 0.78857,-13.28422 -3.86239,-42.79999 -7.94672,-50.43169 -3.44383,-6.4348 -2.90843,-8.26899 3.67216,-12.58079 4.68837,-3.07191 6.37364,-3.2953 7.77347,-1.03034 0.98303,1.59059 4.42181,4.00703 7.64176,5.3699 6.93992,2.93736 36.97952,44.21247 38.74241,53.23293 7.42213,37.97813 6.41239,56.77613 -4.26177,79.33947 -6.18114,13.06584 -30.1383,41.96174 -34.82296,42.00169 -1.84716,0.0152 -0.82629,3.2751 2.84968,9.09821 3.15036,4.99052 5.72795,9.7051 5.72795,10.47686 0,0.77173 1.89185,4.12627 4.2041,7.45447 4.00832,5.76943 6.93155,13.57904 15.38727,41.10794 6.07599,19.78134 0.72609,46.3259 -16.3939,81.34126 -8.79875,17.996 -33.92931,50.19468 -38.79534,49.70673 -1.73679,-0.17416 -3.13753,0.33879 -3.11279,1.13988 0.0696,2.2523 13.41589,39.61463 14.55938,40.75808 0.55687,0.55688 4.42342,-0.20153 8.59232,-1.68512 6.46492,-2.30084 9.15105,-2.01745 18.26173,1.92648 15.22609,6.59124 18.44053,12.3379 14.90811,26.65221 -2.29954,9.31843 -4.15406,11.99587 -10.50492,15.16655 -6.08158,3.03622 -8.5757,6.40058 -11.7952,15.91075 -4.70866,13.90893 -11.06263,20.02147 -21.21042,20.40447 -10.47299,0.39528 -13.57365,-0.30447 -17.70577,-3.99573 -2.04044,-1.82278 -6.55916,-3.83079 -10.0416,-4.46228 -21.53691,-3.90539 -31.17921,-26.93165 -17.59496,-42.01769 7.48143,-8.30855 19.25283,-10.4293 20.63791,-3.71819 0.68828,3.33487 -0.098,3.90283 -3.78361,2.73307 -6.46187,-2.05092 -14.00462,5.96878 -14.00462,14.89017 0,4.87094 2.23422,9.22523 7.31092,14.2484 l 7.31094,7.2338 2.24813,-6.26929 c 2.66789,-7.43988 8.20718,-8.3554 8.20718,-1.35648 0,4.61506 0.2527,4.68416 4.16906,1.13988 2.293,-2.07514 4.8577,-3.77296 5.69937,-3.77296 2.4163,0 1.78112,8.69487 -0.74944,10.25885 -1.25387,0.77493 -2.27976,2.26454 -2.27976,3.31026 0,3.23115 5.36157,4.03921 13.07985,1.97128 11.26867,-3.01917 18.78102,-21.52328 11.63802,-28.66628 -1.99894,-1.99892 -1.91965,-3.50593 0.32686,-6.21283 2.69068,-3.24204 3.34119,-3.23416 7.00893,0.0851 5.57303,5.04353 12.83128,0.92629 15.3828,-8.72585 2.51271,-9.50549 -0.47425,-14.29349 -11.72536,-18.7953 -10.20353,-4.08263 -16.48188,-2.85693 -18.1559,3.54456 -1.92953,7.37855 -8.05914,2.8232 -15.07122,-11.20057 -7.03544,-14.07038 -20.72192,-64.67963 -20.72192,-76.62444 0,-4.87369 1.31861,-8.02724 3.74591,-8.9587 5.19363,-1.99297 5.49054,-1.35677 6.74283,14.44906 0.61003,7.69927 1.88495,16.0959 2.83317,18.65919 1.6056,4.34033 2.44024,3.98311 12.14919,-5.20002 12.50098,-11.82393 22.39431,-26.21235 30.27332,-44.02821 7.0392,-15.91686 12.76259,-36.97248 11.17473,-41.11037 -0.63672,-1.65926 -0.0263,-5.13107 1.35679,-7.71513 1.91021,-3.56929 1.64572,-7.58393 -1.10062,-16.70628 -1.98828,-6.60441 -4.78284,-16.11153 -6.21012,-21.12695 -1.42727,-5.01544 -4.0958,-11.49922 -5.93007,-14.40837 -3.22178,-5.10976 -4.6948,-7.68525 -15.64595,-27.35565 -2.78621,-5.00459 -7.77554,-11.23071 -11.08742,-13.83581 -3.67733,-2.89262 -5.505,-6.08285 -4.69465,-8.19462 1.81854,-4.73896 4.3567,-4.34607 10.79785,1.67142 l 5.49055,5.12943 13.82938,-13.67846 c 17.39726,-17.20742 20.76059,-22.39473 24.95083,-38.48217 7.70034,-29.56355 2.6917,-61.62756 -12.96381,-82.99134 -10.68333,-14.57871 -26.73457,-31.11108 -28.49571,-29.34994 -0.63317,0.63317 0.18922,8.15446 1.82741,16.714 4.35578,22.75805 3.76116,51.92657 -1.33969,65.71714 -9.32268,25.20466 -17.58728,40.51962 -27.7008,51.33175 -10.89131,11.64371 -17.05541,13.81128 -23.50208,8.2644 -3.32761,-2.86316 -16.92615,-8.30192 -20.75737,-8.30192 -0.91271,0 -1.13024,4.69559 -0.48336,10.43464 2.11406,18.75598 -15.28616,43.84775 -33.96141,48.97359 -18.27871,5.017 -30.35741,3.06511 -51.14163,-8.26436 -16.52062,-9.00541 -21.57742,-10.59776 -40.14908,-12.64276 -11.6863,-1.28682 -23.53472,-3.81742 -26.3298,-5.62354 -8.07989,-5.22101 -12.71548,-16.3362 -11.25719,-26.99247 l 1.27332,-9.30472 -38.9849,-0.43192 c -54.01011,-0.59838 -105.71123,-9.43132 -156.20356,-26.68676 -30.61262,-10.46164 -62.89324,-15.78279 -94.65372,-15.60271 -31.95979,0.18123 -32.67526,0.41507 -57.57123,18.81896 -6.2693,4.63448 -15.75872,10.81497 -21.08764,13.73448 -5.3289,2.9195 -9.6889,6.35033 -9.6889,7.62408 0,1.33481 1.15893,1.15696 2.73568,-0.4198 4.09943,-4.0994 22.25907,-3.20422 32.60035,1.60702 5.01542,2.33343 12.96603,7.83513 17.66801,12.22605 7.65581,7.14936 8.54904,9.16441 8.54904,19.28611 0,15.19577 -7.5421,28.88964 -22.74099,41.28985 -11.9245,9.72877 -12.35031,9.87221 -25.75552,8.67682 -15.4811,-1.3805 -20.26669,-4.80333 -31.76224,-22.7176 l -7.21957,-11.25072 2.60152,-20.6104 c 1.43082,-11.33574 2.07404,-21.46387 1.42935,-22.507 -0.64469,-1.04312 -5.54927,-1.89658 -10.89907,-1.89658 -7.18183,0 -10.95043,1.34212 -14.40299,5.12942 -9.25596,10.15332 -13.52878,36.07233 -7.73217,46.90341 3.4352,6.41874 12.06107,9.86825 24.72199,9.88634 5.3289,0.007 9.68892,0.95426 9.68892,2.10362 0,1.14938 -1.53883,2.08976 -3.41962,2.08976 -1.88078,0 -3.41961,1.0259 -3.41961,2.27976 0,1.25386 -3.49025,2.27974 -7.75609,2.27974 -6.64991,0 -8.11304,1.02395 -10.25885,7.17942 -3.52476,10.11109 -3.58524,10.03761 7.5348,9.15319 23.76571,-1.89017 49.17728,22.19095 43.45483,41.17969 -3.62532,12.02982 -25.87596,28.54433 -34.17042,25.36144 -3.92369,-1.50565 -4.3613,2.19236 -1.00216,8.46896 2.3302,4.35403 19.49985,14.34803 33.14386,19.29212 10.07964,3.65254 30.52685,4.01227 43.4271,0.76402 15.73846,-3.96291 53.78603,-24.49699 67.41183,-36.38188 6.33355,-5.52435 12.67246,-10.46129 14.08642,-10.97103 2.43972,-0.87947 4.05051,-2.52908 13.37733,-13.6996 3.76982,-4.51503 3.76982,-4.76873 0,-5.09868 -2.18197,-0.19104 -5.2102,-0.45937 -6.72939,-0.59641 -1.51917,-0.13692 -3.99898,-1.48598 -5.51062,-2.99762 -2.14484,-2.14484 -1.89182,-3.07724 1.15193,-4.24524 10.40566,-3.99302 44.73662,9.41589 44.73662,17.47314 0,5.64294 -0.82618,5.54391 -10.90901,-1.30754 -10.66707,-7.24847 -12.14159,-7.16045 -9.54725,0.56994 4.2589,12.69027 4.05424,37.67052 -0.47165,57.56353 -4.89979,21.53637 -4.23248,29.8299 3.6686,45.59488 11.01707,21.98228 13.13902,25.07717 17.19344,25.07717 3.48786,0 4.10523,-1.74227 3.82259,-10.78722 -0.2694,-8.62065 0.46418,-10.94362 3.65244,-11.56588 3.43629,-0.67067 3.98269,1.06244 3.94015,12.49704 -0.0542,14.57551 -5.27883,54.89294 -8.51507,65.70978 -1.91355,6.39585 -2.77376,6.83923 -13.26899,6.83923 -13.82353,0 -16.27713,1.51614 -21.66897,13.38979 -6.11673,13.46991 -5.61524,20.60738 1.78876,25.45867 5.96603,3.9091 6.43484,3.87917 14.81833,-0.94575 7.38427,-4.24986 8.6574,-4.44573 8.6574,-1.33203 0,2.00779 -1.53883,5.18935 -3.41962,7.07015 -4.77973,4.77972 -4.25971,11.25262 1.32182,16.45258 5.06239,4.71636 14.13409,7.35252 17.56734,5.10492 3.02722,-1.98177 7.57659,-11.20535 7.1518,-14.49981 -0.85824,-6.65603 0.65822,-7.9015 9.62071,-7.9015 7.26585,0 10.4096,-1.25503 13.62775,-5.44031 2.30074,-2.99217 4.20598,-7.31451 4.23386,-9.6052 0.0679,-5.5733 -12.11363,-17.49266 -17.87734,-17.49266 -5.27928,0 -8.87828,-4.3595 -5.38608,-6.52417 1.29095,-0.80021 5.11301,-11.71377 8.49346,-24.25237 6.04596,-22.42555 24.2384,-64.61826 29.1784,-67.67197 1.38745,-0.85765 3.34103,-1.05358 4.34129,-0.43538 2.61103,1.6137 2.24856,9.97389 -0.43242,9.97389 -1.23808,0 -5.86747,7.18118 -10.28751,15.9582 l -8.03641,15.95821 5.79955,0 c 3.18977,0 6.37241,1.4928 7.07256,3.31735 0.70013,1.82454 7.07973,5.00759 14.17685,7.07347 23.32872,6.79064 46.94595,12.58782 56.21899,13.79967 5.01544,0.65546 12.31868,2.18418 16.22939,3.39717 20.57679,6.38223 75.18297,7.02299 108.01666,1.26749 10.6578,-1.86822 25.02018,-4.10523 31.9164,-4.97113 26.87171,-3.37394 62.48391,-15.05781 79.83743,-26.19353 5.8364,-3.74522 11.87552,-6.80947 13.42028,-6.80947 3.84582,0 2.18791,9.33931 -2.06795,11.64924 -8.00094,4.34262 -29.11967,13.42794 -31.21312,13.42794 -4.4918,0 -9.2905,8.19728 -12.01109,20.51769 -1.52283,6.89623 -3.19015,14.10975 -3.70512,16.03004 -0.5952,2.21927 1.46572,4.39811 5.6562,5.97985 15.49946,5.85039 17.74387,24.66756 4.51953,37.89189 -5.72554,5.72553 -8.09581,6.60613 -15.22061,5.65463 -7.6599,-1.02295 -8.75469,-0.47343 -11.85863,5.95205 -7.27424,15.05867 -26.13138,12.60056 -32.20591,-4.19817 -1.5984,-4.42031 -4.16446,-8.03694 -5.70237,-8.03694 -4.91246,0 -12.24607,-11.73107 -12.24607,-19.58915 0,-6.52601 1.37012,-8.37852 9.8892,-13.37105 5.43906,-3.18748 11.59438,-5.79545 13.67848,-5.79545 2.08408,0 3.86549,-0.76941 3.95866,-1.70981 0.21291,-2.14945 1.69133,-11.30581 3.06026,-18.95384 1.03505,-5.78273 0.93188,-5.82642 -9.64077,-4.08226 -49.1992,8.11639 -55.55099,8.69964 -84.77866,7.78474 -26.7485,-0.83733 -38.56854,-2.30625 -74.09167,-9.20769 -18.01572,-3.50006 -62.98824,-15.22255 -70.5971,-18.40175 -4.70078,-1.96412 -9.12402,-2.99397 -9.82939,-2.28859 -0.70539,0.7054 -3.54767,10.25494 -6.31619,21.22118 -4.60015,18.22153 -4.71392,20.12184 -1.32074,22.06578 8.49294,4.86556 16.2515,14.85474 16.2515,20.92384 0,9.64054 -8.94215,21.12752 -17.74848,22.79945 -5.35526,1.01673 -8.51956,3.4568 -11.10369,8.56231 -7.33211,14.48613 -12.40309,17.01914 -27.00156,13.48756 z M 668.1949,913.55172 c 2.04092,-2.04092 3.58246,-7.4363 3.58246,-12.53859 0,-10.37329 1.47518,-11.03118 7.89348,-3.52019 3.98331,4.66148 5.67652,5.14566 11.88446,3.39842 12.35282,-3.47667 15.49328,-23.54751 4.35333,-27.82229 -1.84378,-0.70753 -6.73846,-0.31529 -10.87708,0.87165 -4.13859,1.18695 -7.78798,2.15807 -8.10971,2.15807 -1.81647,0 -0.12581,-5.86282 2.57777,-8.93947 1.7395,-1.97953 4.34457,-9.22366 5.78902,-16.09809 1.44446,-6.87444 3.26903,-15.08152 4.05464,-18.23795 1.17698,-4.72902 0.8603,-5.28981 -1.79949,-3.18656 -1.77531,1.40384 -7.07234,3.24515 -11.77119,4.09179 -11.77345,2.12138 -15.38742,9.53723 -17.54283,35.99769 -0.0721,0.88356 -3.97793,2.30097 -8.6799,3.14974 -16.12484,2.9108 -20.08286,8.27928 -14.2035,19.26496 1.82456,3.4092 3.85845,4.03687 9.45446,2.91767 6.85754,-1.3715 7.06955,-1.18562 5.55046,4.86688 -3.15885,12.58584 9.33961,22.13029 17.84362,13.62627 z M 334.95066,822.1692 c 4.13603,-2.55619 15.38283,-22.23701 15.38283,-26.91844 0,-2.59808 -2.53692,-8.45723 -5.6376,-13.02028 -8.34899,-12.28666 -13.39193,-26.7286 -13.56102,-38.8361 -0.14232,-10.18202 -0.38395,-10.5828 -4.66743,-7.73866 -2.48457,1.6497 -6.93331,7.50774 -9.88606,13.01786 -4.68067,8.73453 -5.18409,11.9639 -3.92859,25.19945 1.41962,14.96563 -0.53178,20.70636 -5.09894,15.00045 -1.24349,-1.55349 -2.90048,-8.89633 -3.68225,-16.31737 -0.78175,-7.42101 -1.86125,-13.93267 -2.39891,-14.47033 -0.53764,-0.53766 -2.22872,3.19846 -3.7579,8.30246 -2.31241,7.71807 -2.14787,11.84316 0.97762,24.50846 2.06689,8.37564 6.32459,18.59342 9.46157,22.70622 3.13697,4.11279 5.70361,8.70324 5.70361,10.20103 0,2.6977 16.10225,1.44973 21.09307,-1.63475 z M 179.28021,656.42955 c -0.10695,-3.8395 -4.9172,-9.46211 -10.75629,-12.57245 -4.42601,-2.35764 -5.12516,-2.17425 -5.0983,1.33743 0.0601,7.87622 2.75611,14.09326 6.47214,14.92562 5.14164,1.1517 9.46981,-0.55078 9.38245,-3.6906 z m 42.89315,-53.8039 c 11.19978,-8.11308 21.01217,-23.99602 21.01217,-34.01162 0,-13.71543 -21.72804,-29.85673 -40.25505,-29.9046 -6.376,-0.0152 -27.47431,10.9296 -29.06712,15.08039 -0.67583,1.76117 -1.83851,9.60103 -2.58375,17.42189 -1.46515,15.3761 -1.99107,14.42775 18.84238,33.97753 6.79217,6.37369 21.31763,5.21189 32.05137,-2.56359 z m -46.0913,-19.692 c -1.8247,-7.27023 1.9666,-12.32053 9.24913,-12.32053 4.64215,0 5.42023,1.11037 5.42023,7.7352 0,11.47694 -11.99838,15.22738 -14.66936,4.58533 z m 525.50929,3.73358 c 12.6105,-8.41166 18.77263,-19.51861 19.19304,-34.59439 l 0.35872,-12.86448 -10.43448,-1.48391 c -35.09339,-4.99071 -44.90023,-5.3281 -105.01697,-3.61311 l -28.46992,0.81222 -2.85913,8.15586 c -5.42887,15.48617 3.01428,25.2077 23.20463,26.7181 21.7172,1.62462 29.48795,3.29387 38.73389,8.32042 5.09256,2.76858 9.77212,5.54672 10.39904,6.17364 10.48478,10.48478 40.76928,11.79547 54.89118,2.37565 z m 67.05236,251.24586 c -3.86717,-19.40375 -12.83106,-35.7186 -34.13222,-62.12303 -9.99404,-12.38835 -12.98821,-20.5993 -7.45034,-20.43117 2.97206,0.0903 7.92449,6.54576 29.39535,38.31696 12.86431,19.03578 21.78736,40.77348 19.34723,47.13235 -2.07578,5.40937 -5.80545,3.90128 -7.16002,-2.89511 z M 546.83787,734.81598 c -10.24582,-7.42204 -15.71507,-20.77209 -12.97784,-31.67808 7.86075,-31.31973 29.57927,-47.90529 67.53277,-51.57209 14.95892,-1.44522 28.11798,1.39206 26.66548,5.74952 -0.426,1.27802 -9.99882,2.63792 -21.27294,3.02206 -15.79889,0.53832 -23.05674,1.92483 -31.65752,6.0478 -31.31725,15.01256 -43.76724,48.87752 -22.97718,62.4997 8.88133,5.81926 18.49092,4.97206 34.5784,-3.04851 14.38164,-7.17009 27.32187,-8.9123 37.59522,-5.06168 2.90282,1.08803 12.06726,2.69401 20.36546,3.56886 13.76178,1.45088 15.60573,1.1268 20.98349,-3.68802 3.38084,-3.02693 6.53301,-8.91623 7.38952,-13.80604 1.33082,-7.59764 0.65864,-9.35998 -6.16513,-16.16384 -8.89632,-8.87035 -31.17298,-17.96796 -43.70481,-17.84869 -6.94625,0.066 -8.54291,-0.68924 -7.96043,-3.76588 2.09696,-11.07627 40.6511,0.005 57.89474,16.6411 13.17295,12.70837 6.25815,40.93063 -11.43284,46.66239 -4.67109,1.51341 -11.96617,1.50688 -21.83332,-0.0205 -35.72409,-5.52628 -36.56094,-5.49154 -51.57623,2.14177 -18.26174,9.28367 -28.95797,9.36601 -41.44684,0.31912 z m -92.77604,-93.64512 c -12.92797,-1.01607 -20.28713,-3.36079 -38.75565,-12.34798 -38.03968,-18.51103 -57.93109,-34.3317 -51.31124,-40.81052 1.97328,-1.93124 3.88539,-1.10936 7.59634,3.26523 2.7276,3.21537 10.61116,9.37069 17.51906,13.67846 6.90786,4.30777 14.602,9.12121 17.09807,10.69652 5.04881,3.18639 5.43056,3.3524 25.93697,11.27935 14.29321,5.52515 17.80225,6.01207 39.58445,5.49257 9.78723,-0.23343 10.8288,-0.77588 10.8288,-5.6395 0,-2.95968 -2.55302,-9.14331 -5.67335,-13.74139 -3.12034,-4.59809 -7.241,-11.39161 -9.15698,-15.09673 -1.91599,-3.70514 -6.43235,-9.75309 -10.03632,-13.43991 -3.604,-3.68683 -6.92103,-7.59224 -7.3712,-8.67868 -1.40916,-3.401 -22.9232,-15.57299 -39.57408,-22.38978 -14.07453,-5.76206 -18.56539,-6.4978 -38.04583,-6.2331 -12.14818,0.16506 -24.28251,1.47482 -26.96513,2.91051 -2.68264,1.4357 -6.31888,2.05725 -8.08054,1.38125 -4.4082,-1.6916 -1.49258,-8.24096 3.66867,-8.24096 2.29958,0 4.81507,-1.02588 5.59,-2.27974 0.8011,-1.29622 12.22532,-2.27974 26.48064,-2.27974 23.328,0 26.37568,0.53977 43.821,7.76129 27.9694,11.57797 34.26049,16.04425 47.88449,33.99495 13.39968,17.65514 26.59828,40.97785 26.544,46.90474 -0.0182,2.01776 -1.32536,6.22172 -2.90412,9.34214 -3.17851,6.28227 -6.38002,6.69505 -34.67805,4.47102 z M 137.4295,585.26631 c -0.75657,-1.97164 -0.1354,-5.8187 1.38033,-8.54904 1.51573,-2.73035 2.50743,-5.82528 2.20372,-6.87763 -0.30371,-1.05234 2.55599,0.29987 6.35489,3.00491 7.86898,5.60321 8.34955,7.39914 3.32463,12.42406 -4.60293,4.60295 -11.4968,4.60174 -13.26357,-0.002 z m 631.2816,-62.45556 c -0.75038,-1.21415 1.82066,-11.21652 5.71336,-22.2275 5.16203,-14.60138 6.88323,-23.10521 6.35921,-31.41872 -0.56298,-8.9317 0.0205,-11.39872 2.70114,-11.39872 5.75756,0 5.69212,22.36591 -0.11655,39.83173 -2.72217,8.18517 -5.86134,15.85671 -6.97592,17.04787 -1.11461,1.19118 -2.02657,4.01235 -2.02657,6.2693 0,4.39267 -3.40591,5.53469 -5.65472,1.89604 z m 93.83239,-45.09718 c -0.5508,-0.9404 -1.11853,-7.56993 -1.26163,-14.73233 -0.27761,-13.89383 -8.32524,-38.54962 -16.18569,-49.58858 -5.77093,-8.10455 -7.0239,-17.17995 -2.37193,-17.17995 6.74967,0 24.98567,45.9327 25.06301,63.12836 0.0264,5.88183 1.12378,11.35907 2.43852,12.17161 1.63412,1.00996 1.5458,2.4951 -0.27915,4.69405 -2.9424,3.54539 -5.86121,4.13948 -7.40313,1.50684 z m 18.9703,-25.21323 c 0,-9.72489 0.9351,-13.98337 3.26705,-14.87823 4.22681,-1.62198 6.34017,8.26552 4.02545,18.83336 -2.98609,13.63318 -7.2925,11.29756 -7.2925,-3.95513 z"
       id="path4813"
       inkscape:connector-curvature="0"
       inkscape:export-filename="C:\git\Android\TabRej\Materiały\asystent_concept\pozycje\png_z_svg\radosny_stoi.png"
       inkscape:export-xdpi="89.900002"
       inkscape:export-ydpi="89.900002" />
  </g>
</svg>
