<?xml version="1.0" encoding="UTF-8" standalone="no"?>
<!-- Created with Inkscape (http://www.inkscape.org/) -->

<svg
   xmlns:dc="http://purl.org/dc/elements/1.1/"
   xmlns:cc="http://creativecommons.org/ns#"
   xmlns:rdf="http://www.w3.org/1999/02/22-rdf-syntax-ns#"
   xmlns:svg="http://www.w3.org/2000/svg"
   xmlns="http://www.w3.org/2000/svg"
   xmlns:sodipodi="http://sodipodi.sourceforge.net/DTD/sodipodi-0.dtd"
   xmlns:inkscape="http://www.inkscape.org/namespaces/inkscape"
   width="210mm"
   height="297mm"
   viewBox="0 0 744.09448819 1052.3622047"
   id="svg4817"
   version="1.1"
   inkscape:version="0.91 r13725"
   sodipodi:docname="radosny_siedzi.svg">
  <defs
     id="defs4819" />
  <sodipodi:namedview
     id="base"
     pagecolor="#ffffff"
     bordercolor="#666666"
     borderopacity="1.0"
     inkscape:pageopacity="0.0"
     inkscape:pageshadow="2"
     inkscape:zoom="1.4"
     inkscape:cx="302.46959"
     inkscape:cy="710.35958"
     inkscape:document-units="px"
     inkscape:current-layer="layer1"
     showgrid="false"
     inkscape:window-width="1304"
     inkscape:window-height="745"
     inkscape:window-x="54"
     inkscape:window-y="-8"
     inkscape:window-maximized="1" />
  <metadata
     id="metadata4822">
    <rdf:RDF>
      <cc:Work
         rdf:about="">
        <dc:format>image/svg+xml</dc:format>
        <dc:type
           rdf:resource="http://purl.org/dc/dcmitype/StillImage" />
        <dc:title></dc:title>
      </cc:Work>
    </rdf:RDF>
  </metadata>
  <g
     inkscape:label="Layer 1"
     inkscape:groupmode="layer"
     id="layer1">
    <path
       style="fill:#000000"
       d="m 335.47533,480.15183 c -2.43799,-1.86075 -4.3824,-8.04075 -3.19656,-10.15974 0.76277,-1.36298 0.45051,-2.3097 -1.35846,-4.11867 -2.65435,-2.65435 -3.07783,-7.06064 -0.95729,-9.96064 1.28236,-1.75373 1.06649,-2.02384 -2.75,-3.44113 -2.27788,-0.84591 -6.08746,-2.66302 -8.46574,-4.03802 -6.77472,-3.91679 -12.40092,-7.28313 -16.71049,-9.99842 -4.89048,-3.08129 -5.41235,-3.12214 -8.21536,-0.64299 -2.61635,2.31406 -2.85576,5.2513 -0.75616,9.2771 1.82493,3.49915 1.92792,6.77369 0.25616,8.14409 -2.50562,2.05395 -9.42437,3.29452 -12.2924,2.2041 -2.1506,-0.81766 -3.10647,-0.70663 -4.45966,0.51799 -0.9473,0.85729 -3.22265,1.98898 -5.05634,2.51488 -4.54604,1.30379 -7.28742,-0.64861 -9.33069,-6.64527 -2.00342,-5.87972 -2.04029,-9.31344 -0.12929,-12.04178 1.30883,-1.86862 1.30883,-2.25872 0,-3.34495 -3.40759,-2.82805 0.26457,-13.92703 4.90341,-14.82038 5.18208,-0.99798 12.80516,2.76519 11.82127,5.83563 -0.29198,0.91119 0.53364,0.568 2.10326,-0.87427 3.66641,-3.36895 3.68071,-5.96293 0.0614,-11.12573 -9.15052,-13.05271 -10.6308,-32.20433 -4.01921,-52 4.13097,-12.36852 10.19385,-26 11.56402,-26 2.15817,0 1.86316,2.08497 -1.38462,9.78575 -10.03734,23.79946 -12.00873,34.54635 -9.03831,49.27171 2.199,10.90121 6.22925,18.38389 14.02156,26.03286 13.62493,13.3743 41.44295,28.61064 48.32873,26.47035 0.91129,-0.28326 2.32814,-0.094 3.14854,0.42052 1.21198,0.76013 1.25165,1.17552 0.21161,2.21556 -0.70402,0.70402 -1.82526,1.32922 -2.49164,1.38933 -0.66639,0.0601 -2.11161,0.18472 -3.21161,0.27692 -2.96456,0.24847 -4.26619,1.35724 -4.99304,4.25326 -0.87713,3.49473 1.54498,5.85808 5.49181,5.35858 2.1318,-0.26979 3.00123,0.041 3.00123,1.07267 0,0.79887 -0.45,1.45249 -1,1.45249 -1.4489,0 -5,3.77229 -5,5.31144 0,2.38215 4.00122,5.68856 6.88397,5.68856 3.86937,0 6.57528,-3.25053 6.28567,-7.5508 -0.26519,-3.93765 0.71127,-4.34327 3.37363,-1.40139 2.44703,2.70395 9.75269,2.43627 10.28666,-0.3769 0.73291,-3.86127 -0.77455,-6.49753 -4.39949,-7.69387 -1.96375,-0.64809 -3.78944,-1.749 -4.05708,-2.44646 -1.31825,-3.43523 12.42266,-21.53058 16.34947,-21.53058 2.03997,0 1.49883,1.41342 -1.72286,4.5 -4.17117,3.99623 -3.80452,4.8431 1.75,4.04215 7.44262,-1.07322 22.47549,-10.10271 30.35061,-18.2301 7.58517,-7.82815 9.88718,-11.38475 13.38696,-20.68281 3.56929,-9.48273 3.42709,-10.56161 -1.3084,-9.92645 -2.82973,0.37955 -5.09943,-0.13588 -8.75,-1.98707 -5.97539,-3.03008 -7.72874,-4.87804 -10.43673,-10.9999 -2.60192,-5.88209 -1.95252,-10.26291 2.38606,-16.09627 5.77532,-7.76508 6.60227,-10.01883 7.25841,-19.78175 0.83077,-12.36143 2.0818,-15.24129 7.83514,-18.03648 l 4.58647,-2.22828 -0.71527,-4.53652 c -1.55139,-9.83941 -0.54263,-29.81328 2.19168,-43.39654 1.45188,-7.21251 2.80625,-13.38301 3.00972,-13.71223 1.13684,-1.83944 3.3985,-17.212 4.25593,-28.92775 1.5372,-21.00368 1.25916,-22.94961 -3.28412,-22.98469 -3.47526,-0.0268 -14.5485,-6.19075 -17.07718,-9.50603 -2.65222,-3.47724 -3.24111,-7.50928 -1.09675,-7.50928 0.73839,0 2.20089,1.6177 3.25,3.59488 2.1436,4.0399 7.56484,7.23217 16.88158,9.94062 4.67315,1.35852 7.86383,1.57205 15.45729,1.03446 5.26273,-0.37259 10.9186,-1.0764 12.5686,-1.56403 1.65,-0.48763 5.18196,-1.50837 7.84879,-2.26832 l 4.8488,-1.38171 -4.22644,-3.92795 c -2.32454,-2.16037 -5.1815,-4.82918 -6.34879,-5.93068 -5.2062,-4.91275 -11.03159,-8.82475 -15.87749,-10.66244 -17.4964,-6.63504 -17.65131,-6.6683 -30.00068,-6.44067 -6.4657,0.11918 -12.26085,-0.0954 -12.87812,-0.47693 -2.00639,-1.24002 0.16471,-2.91723 3.77628,-2.91723 7.22934,0 0.70266,-4.98111 -12.28149,-9.37314 l -7.13914,-2.41489 -0.63483,3.97002 c -0.84286,5.27098 -5.70001,14.68242 -9.2424,17.90853 -7.67057,6.98571 -19.74469,6.88594 -29.48853,-0.24367 -1.35359,-0.99042 -2.21242,-0.72469 -4.8612,1.50411 -2.88589,2.42831 -3.85038,2.66797 -9.36674,2.32743 -9.26646,-0.57203 -15.80551,-4.78046 -18.12308,-11.66373 l -1.06569,-3.16513 -4.60317,4.32524 c -2.53174,2.37888 -6.06885,7.25023 -7.86026,10.82523 -2.91982,5.82692 -3.27718,7.48374 -3.45108,16 -0.24209,11.85578 1.71386,23.91963 4.97539,30.68705 1.37493,2.85288 2.49987,5.70288 2.49987,6.33333 0,2.02351 -2.45133,0.45408 -4.02964,-2.57993 -3.79491,-7.295 -3.06981,-7.1347 -9.5734,-2.11643 -5.81139,4.48417 -15.76462,9.18482 -17.36013,8.19874 -1.17219,-0.72445 -1.20628,-13.79909 -0.0596,-22.84352 1.79026,-14.12008 9.3074,-31.82771 17.63763,-41.5478 4.47686,-5.22375 13.00362,-12.13144 14.97494,-12.13144 2.6947,0 1.38671,2.74428 -2.63703,5.53273 -12.42724,8.61208 -23.66474,29.80422 -25.949,48.93569 -1.16409,9.74964 -0.6067,16.53529 1.35752,16.52646 1.66247,-0.007 7.7262,-3.94474 12.62072,-8.19479 l 4.26095,-3.69991 -0.72111,-5.77162 c -0.39662,-3.17439 -0.69722,-10.60233 -0.66802,-16.50653 0.0538,-10.87581 1.4175,-16.24065 6.05538,-23.82203 2.42757,-3.96825 10.40124,-11.09485 11.80912,-10.55459 0.75818,0.29094 1.28167,-0.26535 1.28167,-1.36196 0,-5.00569 3.43533,-12.1078 7.87885,-16.28856 7.01835,-6.6033 9.70084,-7.34943 19.12115,-5.31851 4.07221,0.87793 6,2.21005 6,4.14606 0,1.56406 -3.65613,1.90396 -4.16667,0.38737 -0.18333,-0.54461 -3.03609,-1.27225 -6.33947,-1.61697 l -6.00613,-0.62678 -5.18067,4.94108 c -2.84936,2.71759 -5.54148,6.25772 -5.98249,7.86697 -1.27035,4.63559 -0.82145,14.12124 0.75886,16.03524 3.80236,4.60524 16.37391,6.95356 19.73008,3.68551 0.79822,-0.77726 1.43502,-4.32244 1.62324,-9.03694 0.47973,-12.01593 1.43372,-14.77054 7.04559,-20.34399 5.63823,-5.59963 9.12471,-6.90029 18.5181,-6.90835 6.12328,-0.005 6.73708,0.212 10.57881,3.74442 2.2431,2.0625 4.88215,4.9875 5.86457,6.5 0.98241,1.5125 2.52389,2.75 3.42552,2.75 2.03291,0 13.58084,4.14721 18.20213,6.53693 5.70508,2.95016 8.92853,5.73676 8.92853,7.71852 0,1.38993 0.49377,1.72261 1.89611,1.27752 4.38426,-1.39151 11.13157,-0.59617 19.91079,2.34698 5.11879,1.71603 9.84599,3.12005 10.50488,3.12005 1.45988,0 13.66821,9.10399 21.76132,16.22785 5.48651,4.82942 7.35195,7.77215 4.9269,7.77215 -0.55,0 -1,1.02854 -1,2.28565 0,2.03993 -0.83321,2.46605 -7.75,3.96355 -10.42885,2.25786 -22.7182,3.96297 -25.73685,3.57091 l -2.46471,-0.32011 -0.47412,16 c -0.46453,15.67622 -2.97183,31.66445 -6.97857,44.5 -3.13152,10.03181 -4.00388,34.74008 -1.78298,50.5 0.77507,5.5 1.56582,11.125 1.75723,12.5 0.19141,1.375 1.03339,6.775 1.87107,12 2.6199,16.34149 1.66531,38.02991 -1.99838,45.40364 -0.79348,1.597 -1.44269,3.00198 -1.44269,3.12218 0,0.12021 2.00849,0.0843 4.46331,-0.0798 11.26,-0.75275 39.38466,-19.82267 43.79618,-29.69599 0.6758,-1.5125 1.74574,-2.75 2.37763,-2.75 2.47896,0 3.3013,7.36109 0.97195,8.70031 -0.76501,0.43983 -2.55091,5.17433 -3.96867,10.52111 -6.75854,25.48844 -14.96975,31.55612 -43.10086,31.84948 l -11.44287,0.11932 -3.93541,5.15489 c -7.59424,9.94749 -12.75429,14.35945 -23.60682,20.18439 -7.6743,4.11906 -19.12361,7.07295 -21.08985,5.44111 -1.38668,-1.15084 -2.33573,-0.1992 -4.97178,4.98533 -1.33289,2.6215 -1.45395,3.55701 -0.50139,3.87453 0.69068,0.23023 2.62076,1.6382 4.28906,3.12883 3.75686,3.35675 3.97839,8.07179 0.55067,11.72043 -1.92378,2.04777 -3.09637,2.4014 -7.23453,2.18176 -4.18318,-0.22203 -5.08103,0.057 -5.86954,1.82411 -0.51199,1.14743 -2.03121,2.58757 -3.37604,3.20032 -3.20639,1.46093 -9.43279,1.3697 -11.44714,-0.16772 z M 273.64454,456.3945 c 1.46069,-0.78173 1.81509,-1.75738 1.43077,-3.93883 -0.58174,-3.30207 1.28225,-5.15559 2.67749,-2.66244 0.5049,0.90222 1.57065,1.6404 2.36832,1.6404 0.79767,0 1.45031,0.71977 1.45031,1.59948 0,1.30093 0.85947,1.51371 4.60447,1.13998 2.53247,-0.25273 4.97607,-1.06075 5.43023,-1.7956 0.82312,-1.33184 -0.50006,-4.89755 -2.24041,-6.03749 -0.49847,-0.3265 -1.12318,-2.34217 -1.38825,-4.47927 -0.42353,-3.41473 -0.0939,-4.22444 2.72022,-6.68142 l 3.20216,-2.7958 -3.3195,-3.22494 c -2.24252,-2.17864 -3.46414,-2.80211 -3.7653,-1.92167 -0.69786,2.04014 -5.55844,6.19673 -7.24627,6.19673 -0.8377,0 -1.9673,-1.0105 -2.51022,-2.24557 -1.38346,-3.14715 -5.87143,-5.15431 -8.44511,-3.77692 -4.76221,2.54866 -5.1055,9.46649 -0.52679,10.61567 3.17804,0.79764 3.16342,2.14049 -0.0392,3.5997 -3.8926,1.77359 -4.34223,5.76841 -1.49279,13.26302 1.0395,2.73408 3.72723,3.30461 7.08988,1.50497 z m 164.42689,-42.37531 c 12.60237,-1.66875 21.05472,-10.22695 24.91787,-25.2299 2.2549,-8.75713 2.07495,-9.06465 -2.71873,-4.64598 -2.36548,2.18042 -7.65298,5.93539 -11.75,8.34439 -4.09703,2.409 -7.67414,4.66444 -7.94914,5.01208 -0.275,0.34765 -3.47018,1.81235 -7.10039,3.2549 -7.69325,3.05708 -13.86549,4.09692 -13.97007,2.35354 -0.0388,-0.64602 -0.7083,0.62541 -1.48788,2.82541 -0.77958,2.2 -2.05661,5.125 -2.83786,6.5 l -1.42045,2.5 9.15833,-0.06 c 5.03707,-0.033 11.85832,-0.4175 15.15832,-0.85447 z M 418.6972,391.70786 c 1.55618,-1.55618 2.32299,-26.11911 1.0757,-34.45721 -0.60201,-4.02436 -1.61509,-11.25452 -2.2513,-16.06702 -0.95547,-7.22749 -1.46137,-8.75 -2.90744,-8.75 -3.07918,0 -7.03834,4.58182 -7.08758,8.20225 -0.0581,4.2741 -0.85239,13.48645 -1.4869,17.24609 -0.27367,1.62159 -2.5879,6.0358 -5.14272,9.80935 -3.52619,5.2083 -4.61317,7.71102 -4.51247,10.38971 0.17066,4.53964 3.19312,9.38385 7.93345,12.71524 3.0715,2.15857 4.62723,2.57261 8.56235,2.27875 2.64488,-0.19752 5.26249,-0.81274 5.81691,-1.36716 z M 363.19798,185.95235 c 3.21978,-1.67044 7.55825,-6.92412 9.30941,-11.27323 2.39101,-5.93823 1.85064,-11.25319 -1.66266,-16.35365 -4.0087,-5.81964 -7.52619,-7.32804 -15.41947,-6.6123 -10.67621,0.96808 -16.77129,7.83467 -17.63197,19.86378 l -0.49953,6.9815 4.03589,3.7634 c 2.21974,2.06988 5.54472,4.26292 7.38884,4.87343 3.89776,1.29039 10.72636,0.70422 14.47949,-1.24293 z m -19.21799,-12.02702 c -0.84632,-3.37203 0.92511,-5.40178 3.36896,-3.86024 2.57507,1.62431 2.24314,5.7945 -0.49217,6.18346 -1.6841,0.23947 -2.37328,-0.31709 -2.87679,-2.32322 z m 1.59144,278.7083 c 0,-0.99 0.4485,-2.2485 0.99667,-2.79667 0.54816,-0.54816 2.3015,-4.57566 3.89629,-8.95 1.6745,-4.59296 3.47159,-7.95333 4.25333,-7.95333 1.98706,0 1.32383,3.42347 -2.11983,10.94222 -1.66455,3.63432 -3.02646,7.22345 -3.02646,7.97583 0,0.75239 -0.7118,1.64112 -1.58179,1.97496 -2.27386,0.87256 -2.41821,0.80135 -2.41821,-1.19301 z m 85.52073,-21.00657 c -0.2864,-0.74635 -0.52073,-1.5452 -0.52073,-1.77522 0,-0.23001 3.35834,-0.41821 7.46298,-0.41821 5.09178,0 9.14281,-0.64422 12.75,-2.02758 8.51601,-3.2659 10.09281,-4.19807 13.84226,-8.18322 2.61769,-2.78225 3.84969,-3.48427 4.67185,-2.66211 0.61414,0.61414 0.88268,1.72626 0.59675,2.47138 -0.91226,2.37732 -10.38044,8.51246 -16.95758,10.98809 -7.56936,2.8491 -20.99003,3.83627 -21.84553,1.60687 z m 26.47927,-17.69343 c 0,-1.52942 0.56897,-2.5 1.46552,-2.5 2.1043,0 6.68671,-4.7708 10.8825,-11.32988 3.35906,-5.25105 5.65198,-7.12948 5.65198,-4.63028 0,3.86751 -13.52389,20.96016 -16.5839,20.96016 -0.84384,0 -1.4161,-1.01028 -1.4161,-2.5 z m -32,-26.18873 c 0,-0.3788 3.98769,-4.5413 8.86154,-9.25 4.87385,-4.7087 11.22487,-11.84427 14.11336,-15.85682 4.87415,-6.77091 6.86507,-8.18455 7.75724,-5.50802 0.19643,0.58928 -0.23145,1.68616 -0.95084,2.4375 -0.71939,0.75134 -3.24302,3.84107 -5.60807,6.86607 -6.97531,8.9217 -20.2177,22 -22.27603,22 -1.04346,0 -1.8972,-0.30993 -1.8972,-0.68873 z m 21.6414,-9.80338 c -0.37222,-0.97 0.44704,-2.01939 2.34132,-2.99895 1.60264,-0.82876 4.11557,-3.08231 5.58428,-5.00789 3.02415,-3.96487 4.433,-4.43355 4.433,-1.47473 0,2.29575 -8.19793,10.97368 -10.3667,10.97368 -0.78063,0 -1.67698,-0.67145 -1.9919,-1.49211 z m -83.41722,-13.62066 c -2.09225,-0.77398 -7.22418,-6.47813 -7.22418,-8.0297 0,-0.54396 0.46583,-1.85943 1.03518,-2.92327 0.84951,-1.58731 0.70442,-1.93426 -0.80887,-1.93426 -3.29311,0 -5.19576,-2.3682 -5.86227,-7.29672 -0.58763,-4.34519 -0.38235,-5.07473 2.18072,-7.75 2.93818,-3.0668 6.16452,-3.71442 9.53043,-1.91304 1.64698,0.88144 2.10791,0.61428 3.0193,-1.75 0.59157,-1.53463 1.32528,-5.15274 1.63045,-8.04024 0.46245,-4.3756 0.88409,-5.25 2.53159,-5.25 1.5468,0 1.85108,0.48049 1.39901,2.20922 -0.31775,1.21507 -1.13765,5.23676 -1.822,8.93707 -1.38159,7.47032 -2.37795,8.26989 -8.98812,7.21296 -4.56457,-0.72985 -6.398,1.77244 -5.04277,6.88245 0.78511,2.96035 1.19942,3.24787 4.53074,3.14424 2.37292,-0.0738 3.66661,0.33782 3.66661,1.16666 0,0.70441 -0.47716,1.43979 -1.06035,1.63418 -0.58319,0.1944 -1.10376,1.88061 -1.15683,3.74713 -0.16861,5.93024 6.02797,8.9882 11.0647,5.46033 1.96862,-1.37886 2.19894,-2.15975 1.63012,-5.52659 l -0.66242,-3.92083 3.95913,0.63309 c 4.90954,0.78506 7.55796,-0.55375 9.26955,-4.68588 1.22232,-2.95094 1.14409,-3.32338 -1.07549,-5.12069 -1.58583,-1.28413 -3.28946,-1.75913 -5.0479,-1.40744 -1.81459,0.36292 -3.32902,-0.0978 -4.78737,-1.45648 -1.17323,-1.09303 -2.13314,-2.17773 -2.13314,-2.41043 0,-0.23271 2.71692,-6.04457 6.03759,-12.91524 4.43875,-9.18402 6.42486,-12.34352 7.5,-11.93095 0.80433,0.30865 1.46241,0.67333 1.46241,0.81041 0,0.13708 -2.30479,4.62722 -5.12175,9.9781 -4.29923,8.16649 -4.95545,10.09384 -4.08625,12.00153 0.58816,1.29086 2.26077,2.52046 3.87175,2.84626 3.87033,0.78274 7.33625,4.25305 7.33625,7.34556 0,5.26118 -5.85654,11.36534 -10.90429,11.36534 -1.15264,0 -2.09571,0.64047 -2.09571,1.42327 0,0.78281 -1.12342,2.75839 -2.49649,4.39019 -2.59005,3.0781 -7.58671,4.43976 -11.27933,3.07377 z m -73.72418,-25.3795 c -1.58431,-1.099 -2.84393,-1.1596 -6.06042,-0.29156 -5.43075,1.46563 -8.48452,0.50973 -11.18958,-3.50259 -2.62641,-3.89566 -2.79562,-6.14383 -0.75663,-10.05323 1.05107,-2.01525 1.19444,-3.37516 0.49384,-4.68426 -2.42192,-4.52538 0.83845,-10.33407 7.81176,-13.91749 2.75452,-1.41548 7.72757,-0.08 10.97779,2.94804 2.10134,1.95771 2.10735,1.95568 7.918,-2.67182 5.9318,-4.72399 12.41138,-12.05801 14.91257,-16.87907 2.45415,-4.73038 1.81057,-7.87577 -5.27443,-25.77792 -1.92032,-4.8522 -3.26115,-9.42242 -2.97963,-10.15605 0.53286,-1.38862 -2.25748,-4.52178 -4.02702,-4.52178 -1.91037,0 -4.75524,-3.97101 -3.64223,-5.08402 0.71568,-0.71568 2.44975,-0.0831 5.59927,2.04244 5.46351,3.68728 9.9871,5.64519 14.71671,6.36969 1.925,0.29488 4.625,0.79334 6,1.10769 1.375,0.31434 5.65,0.82811 9.5,1.14171 3.85,0.3136 8.23571,0.72241 9.74601,0.90847 7.27272,0.89595 29.58981,-7.30789 34.62915,-12.72979 4.99307,-5.37213 7.12248,-8.37258 7.12362,-10.03757 0.001,-2.17655 2.91192,-3.48114 3.96496,-1.77729 0.69132,1.11857 -1.27132,9.93797 -3.90743,17.55867 -0.57076,1.65 -1.34364,3.9 -1.7175,5 -2.81959,8.29586 -15.27138,27.33868 -17.95087,27.45269 -0.61163,0.026 -1.55035,2.76889 -2.08605,6.09527 -0.8465,5.25627 -0.65961,7.12162 1.42768,14.25 2.82629,9.65212 2.53838,13.05102 -1.65966,19.59309 -7.8549,12.24081 -23.09627,11.43877 -30.17175,-1.58771 -1.444,-2.65851 -2.14341,-2.97101 -7.09819,-3.17147 -6.15702,-0.24909 -14.78936,2.60866 -18.5886,6.15379 -1.25875,1.17456 -2.761,4.01147 -3.33833,6.30426 -1.45809,5.7906 -6.26792,11.42479 -9.69584,11.35763 -1.47246,-0.0288 -3.5772,-0.67677 -4.6772,-1.43982 z m -6.08179,-3.11472 c 0.86999,-0.33384 1.58179,-1.23384 1.58179,-2 0,-1.95753 1.75304,-1.73243 4.72713,0.60699 5.47223,4.30445 9.41809,1.14052 10.08554,-8.08696 0.35348,-4.88676 0.73925,-5.95057 2.0611,-5.68371 0.89443,0.18056 2.41208,-0.39158 3.37257,-1.27143 3.81162,-3.49164 11.12986,-6.25186 17.85061,-6.73272 l 6.80077,-0.4866 -0.44886,-2.86929 c -0.24687,-1.57811 -0.64191,-4.11579 -0.87786,-5.63928 -0.25007,-1.61466 0.74279,-5.6813 2.38042,-9.75 2.21288,-5.49791 2.53105,-7.14156 1.49845,-7.74083 -3.76555,-2.18535 -9.89813,-8.77921 -12.66862,-13.62151 -2.34183,-4.0931 -3.15313,-6.78034 -3.20792,-10.62544 -0.0704,-4.94122 -0.20748,-5.18899 -3.43276,-6.20453 l -3.35942,-1.05778 0.65383,4.08886 c 0.35961,2.24888 1.57679,5.58223 2.70484,7.40745 2.63314,4.26051 5.1544,13.58738 5.13265,18.98715 -0.0121,3.01369 -0.9272,5.63183 -3.21375,9.19511 -3.23095,5.035 -19.44003,21.09151 -21.29192,21.09151 -0.55152,0 -2.54034,-1.35 -4.41958,-3 -4.55354,-3.99806 -8.35047,-3.97328 -11.75833,0.0767 -2.95343,3.50995 -3.15544,4.7662 -1.1971,7.44439 1.1148,1.52458 1.6804,1.66386 2.84201,0.69981 1.42547,-1.18304 2.7662,-0.71426 2.7662,0.96718 0,0.47012 -1.2375,1.40213 -2.75,2.07113 -5.47686,2.42249 -6.54611,5.8233 -3.17742,10.1059 2.04621,2.60133 4.25918,3.21225 7.34563,2.02787 z m 73.71045,-14.00071 c 5.03682,-4.79975 5.90899,-8.04762 4.26596,-15.88586 -0.77476,-3.69608 -1.61708,-7.05738 -1.87182,-7.46955 -1.07791,-1.7441 -1.39648,-8.99053 -0.52832,-12.01763 1.58161,-5.51476 -2.35836,-9.50043 -6.95806,-7.03875 -2.71712,1.45416 -7.32907,10.70823 -6.77671,13.59775 0.64903,3.3952 -0.69248,5.13739 -2.68349,3.48499 -1.85825,-1.5422 -2.04901,-5.93147 -0.41378,-9.52042 1.5716,-3.4493 0.3325,-4.35721 -2.41638,-1.77052 -3.92443,3.69286 -7.0627,13.26205 -6.53062,19.91313 0.56607,7.0761 4.74523,16.18368 8.54495,18.62189 4.18315,2.68425 11.4984,1.7727 15.36827,-1.91503 z m -31.12866,-97.04569 c -7.64365,-2.04525 -9.10471,-3.78193 -9.72945,-11.56491 -0.62579,-7.79601 0.32607,-9.87496 6.05978,-13.23514 7.31658,-4.2878 17.70532,-3.24676 24.01125,2.40613 6.02251,5.39882 8.59426,14.99401 4.90842,18.3133 -2.78204,2.50538 -11.9812,5.7424 -16.03702,5.64315 -2.04214,-0.05 -6.18798,-0.75312 -9.21298,-1.56253 z m 19.41821,-11.9536 c 0.91593,-0.35147 1.58179,-1.77375 1.58179,-3.37868 0,-2.1602 -0.68794,-3.05664 -3.11824,-4.06331 -3.64907,-1.51149 -6.20774,-0.41449 -6.69742,2.87145 -0.23616,1.5847 0.51944,2.48293 3,3.56629 1.82361,0.79645 3.39136,1.4848 3.48387,1.52967 0.0925,0.0449 0.88002,-0.19157 1.75,-0.52542 z m -24.06464,-36.914 c -0.96725,-2.52062 0.15024,-4.97664 2.41112,-5.29915 2.61716,-0.37333 3.85672,1.88733 2.43138,4.43427 -1.21029,2.16266 -4.14346,2.68653 -4.8425,0.86488 z m 65.36217,-48.22901 c -0.41209,-3.12615 -1.74182,-8.72755 -3.82798,-16.125 -0.21327,-0.75625 0.17197,-1.58033 0.85609,-1.83128 1.07163,-0.39311 3.08181,3.0462 3.62739,6.20628 0.21328,1.23536 0.94171,1.5 4.12876,1.5 2.33333,0 2.5,-0.33333 2.5,-5 0,-2.75 0.40122,-5 0.89159,-5 0.99648,0 1.63974,2.24659 2.65203,9.2623 0.37794,2.61926 1.08523,5.00832 1.57177,5.30901 1.43223,0.88517 1.01385,3.16512 -0.70161,3.8234 -1.1232,0.43102 -1.91695,-0.26751 -2.71924,-2.39301 -1.1315,-2.99769 -3.01149,-3.72103 -5.52683,-2.12652 -0.97327,0.61698 -1.14478,2.09494 -0.63645,5.48469 0.5664,3.77704 0.41524,4.64013 -0.81268,4.64013 -0.98862,0 -1.67887,-1.29239 -2.00284,-3.75 z m 14.64535,-5.75139 c -0.8277,-2.15697 1.57698,-12.20233 3.25426,-13.59434 0.9503,-0.78868 1.85773,-0.54144 3.44695,0.93914 1.1864,1.1053 2.72573,1.79142 3.42074,1.52472 0.87756,-0.33675 1.27775,0.6787 1.3098,3.32348 0.0254,2.09462 0.19487,4.69115 0.37665,5.77007 0.20853,1.23772 -0.31533,2.09515 -1.41949,2.32333 -1.40764,0.29089 -1.75,-0.33742 -1.75,-3.21169 0,-1.96532 -0.3375,-3.55835 -0.75,-3.54005 -1.7237,0.0765 -5.06814,3.78528 -4.91527,5.45079 0.21644,2.35822 -2.14841,3.16507 -2.97364,1.01455 z m 28.21034,-4.07004 c -0.86429,-0.86428 -1.57143,-2.05903 -1.57143,-2.65499 0,-0.59595 -0.82293,-0.33881 -1.82874,0.57143 -1.00581,0.91025 -3.02952,1.65499 -4.49713,1.65499 -3.30813,0 -5.38504,-4.34259 -4.83507,-10.10959 0.50531,-5.2987 3.16094,-5.3672 3.16094,-0.0815 0,2.09488 0.6753,4.68238 1.50067,5.75 1.47266,1.90491 1.53797,1.89708 3.5,-0.41965 1.10932,-1.30987 1.99933,-3.81501 1.99933,-5.62756 0,-3.67257 2.61161,-6.75812 3.92348,-4.63548 0.42407,0.68617 0.55563,3.48938 0.29236,6.22936 -0.37476,3.90015 -0.11266,5.24942 1.20716,6.2145 1.04547,0.76446 1.43461,1.88745 1.02444,2.95634 -0.82043,2.138 -1.84979,2.17841 -3.87601,0.15219 z m 6.67857,0.90476 c -1.76004,-0.70401 -1.55542,-3.00215 0.33179,-3.72634 2.75826,-1.05845 3.56628,-0.66796 3.23776,1.56468 -0.33688,2.28943 -1.49571,2.9912 -3.56955,2.16166 z m 0.66667,-9 c -0.0458,-0.45833 -0.24209,-1.95833 -0.43612,-3.33333 -0.55536,-3.93553 0.53636,-8.000003 2.14881,-8.000003 1.15632,0 1.40638,1.21146 1.17054,5.671003 -0.18075,3.41798 -0.79651,5.83481 -1.5499,6.08333 -0.6875,0.22678 -1.2875,0.0373 -1.33333,-0.421 z"
       id="path4836"
       inkscape:connector-curvature="0" />
  </g>
</svg>
