<?xml version="1.0" encoding="UTF-8" standalone="no"?>
<!-- Created with Inkscape (http://www.inkscape.org/) -->

<svg
   xmlns:dc="http://purl.org/dc/elements/1.1/"
   xmlns:cc="http://creativecommons.org/ns#"
   xmlns:rdf="http://www.w3.org/1999/02/22-rdf-syntax-ns#"
   xmlns:svg="http://www.w3.org/2000/svg"
   xmlns="http://www.w3.org/2000/svg"
   xmlns:sodipodi="http://sodipodi.sourceforge.net/DTD/sodipodi-0.dtd"
   xmlns:inkscape="http://www.inkscape.org/namespaces/inkscape"
   width="210mm"
   height="297mm"
   viewBox="0 0 744.09448819 1052.3622047"
   id="svg4773"
   version="1.1"
   inkscape:version="0.91 r13725"
   sodipodi:docname="szukanie.svg">
  <defs
     id="defs4775" />
  <sodipodi:namedview
     id="base"
     pagecolor="#ffffff"
     bordercolor="#666666"
     borderopacity="1.0"
     inkscape:pageopacity="0.0"
     inkscape:pageshadow="2"
     inkscape:zoom="0.98994949"
     inkscape:cx="317.64858"
     inkscape:cy="757.40316"
     inkscape:document-units="px"
     inkscape:current-layer="layer1"
     showgrid="false"
     inkscape:window-width="1304"
     inkscape:window-height="745"
     inkscape:window-x="54"
     inkscape:window-y="-8"
     inkscape:window-maximized="1" />
  <metadata
     id="metadata4778">
    <rdf:RDF>
      <cc:Work
         rdf:about="">
        <dc:format>image/svg+xml</dc:format>
        <dc:type
           rdf:resource="http://purl.org/dc/dcmitype/StillImage" />
        <dc:title></dc:title>
      </cc:Work>
    </rdf:RDF>
  </metadata>
  <g
     inkscape:label="Layer 1"
     inkscape:groupmode="layer"
     id="layer1">
    <path
       style="fill:#000000"
       d="m 214.28395,406.68485 c -2.88954,-1.83084 -2.5271,-9.16776 0.89524,-18.12237 4.2379,-11.08854 10.62271,-24.65725 12.00438,-25.51116 2.33438,-1.44273 1.94873,0.60429 -1.47181,7.8124 -4.87883,10.28114 -9.80777,25.67332 -9.19452,28.71276 0.27743,1.375 0.80914,3.7375 1.18159,5.25 0.71081,2.88661 -0.63561,3.61933 -3.41488,1.85837 z m -29.0723,-4.97982 c -0.55086,-1.02929 -1.1292,-3.72856 -1.28518,-5.99837 -0.32784,-4.77036 -1.85695,-4.91876 -3.24042,-0.31447 -0.52623,1.75136 -1.34332,3.18429 -1.81574,3.18429 -2.41147,0 -4.71231,-2.40233 -5.29972,-5.53351 l -0.65834,-3.50921 -2.37968,2.76941 c -1.88561,2.19443 -2.72499,2.5516 -4.04284,1.72032 -0.91474,-0.577 -1.81783,-2.06258 -2.00687,-3.30129 -0.43888,-2.87582 -2.97507,-7.80214 -4.50284,-8.74635 -0.8307,-0.51341 -0.95038,-0.16426 -0.40673,1.18659 1.79061,4.44919 2.98255,14.40105 1.85935,15.52425 -1.90086,1.90086 -3.02789,0.14734 -3.75801,-5.84699 -0.70081,-5.75371 -2.99962,-11.77139 -6.11249,-16.00093 -1.53545,-2.08627 -1.53015,-2.28252 0.0784,-2.89976 3.42864,-1.31569 13.19319,6.47085 15.67857,12.50255 l 1.32378,3.21262 2.48607,-4.03885 c 2.75393,-4.47402 3.21409,-4.69584 5.33716,-2.57276 0.96241,0.96241 1.3165,2.76604 1.03067,5.25 l -0.43541,3.78391 2.34716,-2.5 c 4.32486,-4.60648 6.43443,-6.05232 7.9706,-5.46284 1.15217,0.44213 1.34988,1.36575 0.80793,3.77411 -0.77956,3.46423 -0.52933,9.85884 0.52588,13.43873 0.84043,2.85127 -2.0128,3.15976 -3.50126,0.37855 z m 12.53545,-4.95987 c -0.32023,-0.51814 0.0878,-1.49815 0.90676,-2.17782 1.05588,-0.8763 1.48899,-3.2465 1.48899,-8.14849 0,-6.60286 0.0897,-6.86476 2,-5.84237 1.1,0.5887 2,1.92239 2,2.96376 0,1.04136 0.675,2.56838 1.5,3.39338 2.14228,2.14229 1.8594,3.55572 -0.92339,4.61373 -1.39817,0.53159 -2.56156,1.89171 -2.75,3.21504 -0.334,2.34557 -3.17393,3.67916 -4.22236,1.98277 z m 111.16363,-2.74649 c -5.35267,-0.70513 -10.22104,-1.58423 -10.81861,-1.95354 -0.59756,-0.36932 -5.49744,-0.79437 -10.88863,-0.94457 -11.27489,-0.31412 -14.5867,-1.92906 -17.5832,-8.57411 -2.31978,-5.14434 -1.3296,-14.11052 1.8423,-16.68225 1.48616,-1.20495 2.24178,-3.0271 2.37351,-5.72356 0.1063,-2.17571 0.45237,-4.98821 0.76906,-6.25 0.44616,-1.77766 0.15612,-2.29416 -1.28827,-2.29416 -3.61727,0 -5.4499,-3.52499 -5.84587,-11.24429 -0.30975,-6.03864 0.009,-8.00905 1.89982,-11.74682 2.59882,-5.13711 8.17572,-9.35603 11.52198,-8.71636 1.48686,0.28424 2.25003,-0.056 2.25003,-1.00313 0,-1.42573 4.79451,-10.33536 6.07513,-11.2894 0.36914,-0.275 1.79986,-2.17164 3.17939,-4.21474 1.37953,-2.04311 3.8304,-4.82728 5.44637,-6.18703 2.97795,-2.50578 14.88398,-8.77897 19.10176,-10.06457 1.86543,-0.56859 2.07657,-0.97427 1.11199,-2.13652 -1.60921,-1.93897 -0.13858,-3.72045 12.94297,-15.67876 6.55685,-5.99384 14.03753,-10.29716 22.64239,-13.02519 4.89788,-1.5528 7.39229,-2.04326 18.49242,-3.63609 9.52488,-1.36678 18.07109,0.0455 20.22707,3.3426 0.50774,0.77648 1.39065,0.67828 3,-0.33366 1.25428,-0.78868 3.50906,-2.05468 5.01063,-2.81333 1.50157,-0.75865 2.99062,-1.80086 3.30902,-2.31603 0.31839,-0.51518 1.23547,-0.93668 2.03795,-0.93668 0.80248,0 4.48842,-1.86923 8.19098,-4.15384 3.70256,-2.28461 8.30693,-4.99888 10.23193,-6.03172 1.925,-1.03284 4.85,-2.75694 6.5,-3.83132 1.65,-1.07438 3.9,-2.42159 5,-2.9938 1.1,-0.57221 3.575,-2.16079 5.5,-3.53017 7.13656,-5.07674 11.56559,-7.79587 20.17715,-12.38742 3.12244,-1.66484 5.97395,-3.5072 6.3367,-4.09414 1.21034,-1.95838 26.87677,-13.64969 34.98615,-15.93653 4.4,-1.2408 8.5625,-2.41852 9.25,-2.61715 0.6875,-0.19863 1.25,-1.28939 1.25,-2.42391 0,-1.13452 0.7875,-2.31036 1.75,-2.61297 0.9625,-0.30262 7.375,-2.72512 14.25,-5.38335 6.875,-2.65822 13.625,-5.05933 15,-5.3358 1.375,-0.27647 4.975,-1.23912 8,-2.13923 10.41427,-3.09882 45.40234,-2.44043 52.01437,0.97878 3.79741,1.96372 4.12305,5.49257 0.50686,5.49257 -1.71421,0 -4.60027,2.08197 -9.35692,6.75 -10.23163,10.04099 -19.93331,14.51691 -31.16431,14.37784 l -4.5,-0.0557 3.5,3.05019 c 10.53225,9.17868 12.13754,11.21908 17.46943,22.20449 9.99681,20.59663 10.17117,37.61005 0.58817,57.39301 -1.64811,3.40232 -3.79779,7.17145 -4.77708,8.37585 -5.79154,7.12286 -7.71541,8.95144 -8.92827,8.48602 -0.74374,-0.2854 -1.35225,0.10526 -1.35225,0.86815 0,2.38281 6.37326,5.55196 11.11803,5.52853 3.92887,-0.0194 4.53707,-0.34915 5.88197,-3.18896 1.81571,-3.83396 5.38442,-6.54784 9.72917,-7.39869 2.77302,-0.54305 3.71892,-0.14262 6.69629,2.83475 2.47534,2.47534 4.41114,3.49397 6.76722,3.56096 4.15058,0.11801 7.26181,3.77116 8.85,10.39151 0.98903,4.12271 0.89375,5.28827 -0.69875,8.54785 -1.01416,2.07582 -2.85643,4.21843 -4.09393,4.76135 -1.2375,0.54292 -2.25,1.53976 -2.25,2.2152 0,0.67544 -1.41528,2.83999 -3.14506,4.8101 -2.93472,3.34246 -3.48626,3.56215 -8.24664,3.2848 -4.8105,-0.28027 -5.22556,-0.52547 -7.27433,-4.29723 -1.19501,-2.2 -2.20902,-4.83564 -2.25336,-5.85699 -0.0585,-1.34768 -0.56057,-1.67155 -1.83061,-1.18085 -3.22995,1.24791 -11.48096,2.53782 -16.23348,2.53782 -3.27516,0 -5.41317,-0.60942 -7.01652,-2 -1.26831,-1.1 -2.57467,-2.00426 -2.90301,-2.00947 -0.32834,-0.005 -1.48534,-2.03021 -2.57111,-4.5 -2.12559,-4.83507 -2.67204,-5.22427 -4.40437,-3.13694 -2.04854,2.46834 0.86151,16.58162 4.56074,22.11892 0.72476,1.08487 1.31775,2.69633 1.31775,3.58102 0,2.12153 3.35206,3.65768 9.5,4.35358 4.02654,0.45577 5.5354,1.19397 7.75,3.79165 1.5125,1.77413 2.75,3.97523 2.75,4.89134 0,3.35236 -3.04714,8.82467 -5.82879,10.46784 -2.0959,1.23807 -3.19163,2.99699 -4.11751,6.6096 -1.6657,6.49921 -4.48139,8.47325 -9.76568,6.8466 -2.08341,-0.64133 -4.46302,-1.44107 -5.28802,-1.77719 -0.825,-0.33613 -3.21868,-0.68737 -5.31929,-0.78053 -4.67349,-0.20727 -8.4183,-2.86512 -10.97308,-7.78806 -1.66278,-3.2041 -1.7565,-4.13617 -0.67776,-6.74047 1.38396,-3.34118 5.97668,-6.24634 8.40288,-5.31532 1.29284,0.49611 1.44753,0.0248 0.90483,-2.75708 -0.36003,-1.84552 -1.03328,-3.50549 -1.49609,-3.68882 -0.46282,-0.18334 -0.84149,-0.91547 -0.84149,-1.62696 0,-1.13569 -5.80061,-16.45525 -6.58894,-17.40157 -0.1658,-0.19902 -2.23861,1.20887 -4.60625,3.12865 -3.81965,3.09712 -26.67924,18.73321 -27.3875,18.73321 -0.15278,0 -3.12167,1.30378 -6.59754,2.8973 -10.88926,4.99217 -38.36908,12.87525 -41.15037,11.80471 -0.82055,-0.31584 -1.06682,0.99219 -0.82553,4.38469 0.46419,6.52666 -2.5624,9.49593 -10.67291,10.47073 -3.11903,0.37488 -6.41591,1.33405 -7.3264,2.13149 -0.91049,0.79744 -3.79822,2.09478 -6.41718,2.88297 -4.30856,1.29669 -5.10274,1.26629 -8.34457,-0.31941 -1.97054,-0.96386 -4.20667,-3.06678 -4.96917,-4.67315 -1.67566,-3.53012 -1.81804,-10.27493 -0.25,-11.84297 1.80965,-1.80965 1.31703,-2.90342 -0.7979,-1.77154 -1.06384,0.56935 -2.85259,1.03518 -3.975,1.03518 -1.69139,0 -1.94767,0.47077 -1.49709,2.75 0.74795,3.78347 -2.69613,7.51337 -6.13961,6.64911 -2.11392,-0.53056 -2.45404,-0.27036 -2.45404,1.87747 0,3.75918 -3.44096,5.44055 -10.39059,5.07719 -3.23983,-0.1694 -6.96504,-1.01199 -8.27825,-1.87244 -1.31321,-0.86045 -2.87233,-1.2649 -3.46472,-0.89878 -0.59239,0.36611 -2.54182,0.86305 -4.33208,1.10431 -5.83033,0.78571 -12.04355,-7.77767 -8.33436,-11.48686 0.93333,-0.93333 0.65556,-1.21827 -1.25,-1.28223 -1.3475,-0.0452 -3.61303,-0.27565 -5.03451,-0.51205 -2.23885,-0.37233 -2.94895,0.23977 -5.30936,4.57661 -1.49866,2.75354 -4.38563,6.2439 -6.41548,7.75636 -2.02986,1.51246 -3.91565,2.98991 -4.19065,3.28322 -0.275,0.29331 -2.3,1.31012 -4.5,2.25958 -7.34762,3.17103 -19.08417,3.93861 -32.73212,2.1407 z m 31.42376,-5.27292 c 6.29774,-3.04868 12.09275,-8.58468 15.33469,-14.64927 7.94513,-14.86274 23.41295,-27.43868 35.72367,-29.04471 4.63214,-0.6043 4.75,-0.55363 4.75,2.04197 0,2.45021 -0.2437,2.60813 -3.06777,1.98785 -4.53543,-0.99614 -14.75934,4.54475 -23.11522,12.5274 -3.74936,3.58188 -6.81701,6.97378 -6.81701,7.53756 0,2.17413 49.5221,1.26117 51.73706,-0.9538 0.20998,-0.20998 -0.54496,-2.11088 -1.67764,-4.22422 -1.13268,-2.11334 -2.05942,-4.53868 -2.05942,-5.38964 0,-1.7752 17.07394,-18.98241 18.83539,-18.98241 2.68844,0 0.72073,3.2309 -6.33539,10.40243 -8.74084,8.88382 -9.18778,10.72364 -4,16.46589 3.43468,3.80177 4.47927,7.40842 2.5,8.63168 -1.15291,0.71254 -1.32703,7.46435 -0.23469,9.1003 3.14566,4.71106 12.0126,3.17806 13.59421,-2.3503 0.95351,-3.33287 3.28197,-4.34783 4.24101,-1.84863 0.29576,0.77075 1.29414,1.25518 2.21861,1.07651 0.92447,-0.17867 2.91836,-0.35929 4.43086,-0.40137 3.95992,-0.11017 6.93862,-3.46423 6.55896,-7.38547 -0.27179,-2.80714 -0.63364,-3.15738 -3.00781,-2.91121 -1.79559,0.18618 -3.0273,-0.33388 -3.68023,-1.55388 -1.26903,-2.37122 0.0628,-4.47743 3.0372,-4.80297 1.28803,-0.14097 2.67938,-0.29381 3.09188,-0.33965 1.36589,-0.15176 0.77829,-2.7447 -1.1173,-4.93032 -2.4033,-2.77103 -7.15492,-2.80476 -12.76164,-0.0906 -2.84666,1.37804 -4.0784,2.53665 -3.71197,3.49157 0.84589,2.20436 -2.20779,2.78782 -5.00348,0.95601 -1.37828,-0.90308 -2.95756,-2.9374 -3.5095,-4.52071 -0.93344,-2.67767 -0.67674,-3.16157 3.67518,-6.92785 2.57329,-2.22701 5.47483,-4.8147 6.44786,-5.75041 1.66605,-1.60216 1.87001,-1.59885 3.5,0.0567 1.90866,1.93866 2.30034,1.41555 -6.68127,8.92332 -4.52189,3.77986 -3.51647,4.24335 1.66137,0.76587 10.25709,-6.88875 20.71933,-3.99913 21.61736,5.97061 0.19802,2.19837 0.53404,4.05729 0.74671,4.13092 0.93462,0.32359 14.48228,-2.3829 18.24194,-3.6443 2.27961,-0.76482 5.49474,-1.5309 7.14474,-1.70239 1.65,-0.1715 3.225,-0.55456 3.5,-0.85126 0.66587,-0.71835 12.54225,-5.96049 13.50398,-5.96049 1.04998,0 25.35851,-16.59285 34.58926,-23.61042 6.49476,-4.93756 14.95746,-13.11427 16.58377,-16.02332 0.91973,-1.64516 0.87468,-2.95357 -0.20611,-5.98581 -1.74488,-4.89541 -1.79652,-6.38387 -0.2209,-6.36731 1.1621,0.0122 2.32166,2.18635 9.12078,17.10106 1.85312,4.06506 3.38012,5.95419 5.53393,6.84633 3.26834,1.35379 13.86284,1.15922 15.84529,-0.291 0.6875,-0.50293 1.25,-0.68171 1.25,-0.39729 0,0.28443 1.5858,0.15948 3.524,-0.27765 1.93821,-0.43714 4.42326,-0.55964 5.52234,-0.27222 1.6586,0.43373 1.89397,1.07889 1.38446,3.79481 -1.19337,6.36119 3.20428,9.52801 8.28723,5.96777 1.4207,-0.9951 2.26924,-2.79685 2.4725,-5.25 0.21463,-2.5903 0.7423,-3.64175 1.72176,-3.43085 0.77676,0.16725 2.68926,-0.22484 4.25,-0.87132 2.38093,-0.98622 2.83711,-1.75952 2.83397,-4.8041 -0.005,-4.57969 -3.28171,-10.12868 -5.98156,-10.12868 -1.17131,0 -2.0147,0.66282 -2.0147,1.58333 0,2.62351 -2.38576,1.01133 -4.23837,-2.86408 -2.49665,-5.22265 -5.2542,-6.44733 -9.44065,-4.19277 -3.3768,1.81852 -3.5216,2.07102 -3.71255,6.47352 -0.10805,2.49128 -0.13939,2.49909 -8.98238,2.24037 -8.75911,-0.25628 -8.91609,-0.30564 -12.12953,-3.81389 -3.04391,-3.32318 -4.45763,-7.47607 -4.48551,-13.17648 -0.0164,-3.34685 2.79899,-2.76254 3.71461,0.77094 l 0.7828,3.02094 3.08514,-2.81783 c 4.63676,-4.23503 9.9789,-13.17932 13.09216,-21.9201 2.19938,-6.17495 2.78321,-9.57824 2.79693,-16.30395 0.0215,-10.51251 -1.37528,-15.72033 -7.67616,-28.62113 -4.33716,-8.88016 -5.88512,-10.97272 -12.62488,-17.06652 -4.88688,-4.41851 -9.77358,-7.80674 -13.43161,-9.31289 -5.76436,-2.3734 -7.56589,-5.08866 -4.22647,-6.37012 2.23808,-0.85883 10.63552,0.39768 13.15861,1.96892 2.58179,1.6078 10.36824,0.47727 19.02775,-2.76267 6.23269,-2.33195 20.30255,-15.22315 18.53938,-16.98632 -0.58211,-0.58211 -8.42186,-1.15218 -18.38214,-1.33665 -16.32825,-0.30241 -18.03573,-0.1527 -28.54424,2.50272 -6.1474,1.5534 -14.5721,4.43543 -18.72154,6.40451 -4.14945,1.96908 -8.0761,3.58015 -8.72591,3.58015 -0.6498,0 -0.13243,0.90982 1.14972,2.02183 3.24269,2.81236 1.45783,4.25508 -5.75304,4.65025 -3.17467,0.17398 -7.57212,0.98364 -9.77212,1.79926 -2.2,0.81561 -4.9,1.65062 -6,1.85557 -2.95183,0.54997 -5.4283,1.49116 -11,4.1806 -2.75,1.32742 -8.825,4.15998 -13.5,6.29458 -4.675,2.1346 -9.1176,4.62738 -9.87244,5.5395 -0.75485,0.91213 -1.83737,1.65841 -2.40561,1.65841 -0.56824,0 -2.50812,1.125 -4.31084,2.5 -1.80272,1.375 -3.72019,2.5 -4.26105,2.5 -0.54087,0 -1.13339,0.3375 -1.31673,0.75 -0.18333,0.4125 -2.47083,1.8656 -5.08333,3.22911 -2.6125,1.36352 -4.75,2.85257 -4.75,3.30902 0,0.45645 -0.37299,0.59938 -0.82887,0.31763 -0.45588,-0.28174 -2.36838,0.74074 -4.25,2.27219 -6.73108,5.47843 -55.66203,32.70604 -69.92113,38.90759 -8.23185,3.58018 -18.21675,7.25255 -20.691,7.60997 -1.20505,0.17408 -4.80505,1.23443 -8,2.35632 -3.19495,1.1219 -8.059,2.73224 -10.809,3.57853 -15.84447,4.87603 -26.30806,9.84794 -31.27825,14.86228 -5.21718,5.26352 -8.77969,9.96443 -11.22151,14.80736 -1.2479,2.475 -2.6737,4.76098 -3.16844,5.07995 -0.49475,0.31897 -0.6404,1.25525 -0.32368,2.08062 0.50259,1.30973 1.28234,1.26216 6.12847,-0.37388 4.26502,-1.43986 5.87597,-1.60619 6.94705,-0.71727 0.82694,0.68629 2.75512,0.90201 4.73785,0.53005 3.8351,-0.71947 5.19228,0.40766 8.562,7.11069 2.78214,5.53424 2.66992,8.50238 -0.54478,14.40884 -3.09751,5.69115 -7.33138,9.2303 -12.88754,10.77287 -6.79961,1.8878 -10.35736,1.42007 -13.31967,-1.7511 -2.29126,-2.4528 -2.86039,-2.65641 -4.00381,-1.43238 -0.73308,0.78477 -1.84921,1.22883 -2.48028,0.9868 -0.76104,-0.29187 -1.22946,1.41273 -1.39108,5.0622 l -0.24368,5.50224 3.6398,-0.59066 c 7.53208,-1.22228 12.16726,0.24967 18.05295,5.73293 5.11176,4.76224 5.47687,5.41213 5.54207,9.86479 0.0523,3.5721 -0.47118,5.34253 -2.08883,7.06445 -1.85378,1.97325 -3.28196,5.12551 -1.52716,3.37071 0.34732,-0.34732 1.49326,-0.17027 2.54654,0.39342 3.46996,1.85707 10.16633,2.63497 21.32542,2.47731 9.18708,-0.12979 11.77676,-0.52981 15.6882,-2.42331 z m 34.80836,-61.34471 c -8.39031,-0.94409 -13.95666,-3.10611 -17.4887,-6.79277 -2.55516,-2.66701 -2.65522,-3.01933 -1.03416,-3.64139 0.98709,-0.37878 2.34542,-0.27958 3.01852,0.22045 7.31471,5.43398 9.12014,5.91727 22.00434,5.89033 9.17949,-0.0192 12.25289,-0.37287 20.89823,-2.40483 4.94017,-1.16112 10.60177,-4.43458 10.60177,-6.12981 0,-0.5045 -2.11016,-2.96815 -4.68924,-5.47479 -6.62057,-6.43459 -11.74401,-8.5564 -26.58024,-11.00785 -5.37321,-0.88784 -10.99821,-1.36287 -12.5,-1.05562 -1.50179,0.30725 -5.20552,0.80834 -8.23052,1.11354 -7.2394,0.73039 -16.05655,3.26076 -18.27363,5.2442 -2.14934,1.92284 -4.23528,0.41278 -3.33745,-2.41605 1.06102,-3.34296 7.20495,-5.20648 24.31973,-7.37642 9.16312,-1.16177 25.74982,0.97758 34.19973,4.41109 8.53288,3.46722 17.09162,10.05062 17.09162,13.1469 0,1.35765 0.45,2.46846 1,2.46846 1.64427,0 1.13154,3.57438 -0.75,5.2285 -6.69302,5.88403 -26.55816,10.11669 -40.25,8.57606 z m 90.75,-5.50203 c -4.97636,-6.559 -3.2255,-17.71533 4.634,-29.52738 1.9696,-2.96011 11.04215,-9.01566 12.02897,-8.02884 0.33434,0.33434 1.8407,-0.56818 3.34746,-2.00559 3.85904,-3.68143 7.37652,-4.76357 15.76416,-4.8498 6.17859,-0.0635 8.00196,0.33335 11.82492,2.57375 8.07723,4.73358 11.08376,13.65223 6.40049,18.98662 -1.50584,1.7152 -5.64236,3.69696 -12.50696,5.99194 -8.12659,2.71689 -10.97066,4.18587 -13.69322,7.07263 -1.88995,2.00393 -3.57432,3.94515 -3.74305,4.31382 -0.16872,0.36868 -2.50763,2.58282 -5.19756,4.92032 -4.52359,3.93091 -5.31193,4.24726 -10.5,4.21356 -5.25712,-0.0342 -5.78183,-0.26396 -8.35921,-3.66103 z m 13.12006,-1.73534 c 1.52391,-0.78804 5.43885,-4.43455 8.69985,-8.10334 6.8282,-7.68207 8.80789,-8.87569 19.26257,-11.61403 8.39422,-2.19866 9.93403,-3.1055 11.27878,-6.64244 1.23179,-3.23987 -1.55924,-7.85748 -6.1852,-10.23306 -5.50732,-2.82819 -17.22705,-2.28486 -22.12424,1.02568 -2.034,1.375 -3.90438,3.2875 -4.15638,4.25 -0.57539,2.1976 -3.38864,2.29917 -3.82212,0.138 -0.53607,-2.67273 -8.26293,5.29169 -11.75073,12.112 -6.91803,13.52806 -1.82728,24.56147 8.79747,19.06719 z m -17.96885,-77.67295 c -4.99807,-5.35045 -3.17359,-13.16925 4.46746,-19.14522 2.27223,-1.77709 4.88662,-3.91011 5.80976,-4.74005 0.92313,-0.82993 4.52313,-2.60377 8,-3.94185 3.47686,-1.33809 8.34299,-3.47559 10.81361,-4.75 9.62688,-4.9658 21.23986,-1.83598 28.90417,7.78999 3.84242,4.82588 4.21902,5.77083 3.66949,9.20741 -1.00535,6.28709 -5.21817,11.42611 -12.0657,14.71837 -5.03011,2.41846 -9.65383,2.46496 -16.01412,0.16107 -3.28677,-1.19057 -6.09343,-1.57439 -8.23588,-1.1263 -1.7875,0.37386 -3.25,0.52049 -3.25,0.32585 0,-0.19464 -1.9991,0.7622 -4.44244,2.1263 -3.126,1.74522 -5.97045,2.48019 -9.59879,2.48019 -4.47887,0 -5.53753,-0.40806 -8.05756,-3.10576 z m 16.07923,-3.38433 c 6.32417,-3.2047 15.81769,-3.85432 18.41229,-1.25991 1.22046,1.22037 3.33248,1.75 6.97853,1.75 8.88672,0 16.62874,-6.74145 16.62874,-14.47966 0,-3.02232 -5.58815,-9.28125 -10.53986,-11.80502 -3.71893,-1.89545 -15.57596,-1.87009 -16.21043,0.0347 -0.22901,0.6875 -1.24157,1.25 -2.25014,1.25 -5.53627,0 -22.64655,10.73345 -26.07608,16.35779 -2.32585,3.81433 -2.40002,5.51686 -0.36679,8.4197 2.10921,3.01132 7.1515,2.91081 13.42374,-0.26758 z m -79.64254,145.61904 c 2.74334,-0.12465 2.81538,-0.26222 2.1621,-4.12895 -0.37169,-2.2 -0.52077,-4 -0.3313,-4 0.18948,0 1.81329,0.42124 3.60848,0.9361 2.75932,0.79136 3.57003,0.60759 5.2434,-1.18856 2.4472,-2.62677 2.54255,-4.03854 0.22942,-3.39684 -3.68483,1.02222 -13.20734,1.72242 -24.75,1.81988 l -12,0.10133 -0.20999,2.86721 c -0.27667,3.77757 3.87951,6.86062 6.79452,5.04016 2.3539,-1.47003 5.58399,-1.52465 6.45878,-0.1092 0.93715,1.51635 4.12708,2.5494 7.27022,2.35444 1.47756,-0.0916 3.96352,-0.22465 5.52437,-0.29557 z M 295.37754,377.1917 c 1.5146,-2.29909 0.46061,-6.04856 -1.73469,-6.17099 -0.55,-0.0307 -2.2858,-0.42908 -3.85733,-0.88535 -1.98803,-0.57719 -3.0949,-0.44518 -3.6382,0.43389 -0.42947,0.6949 -1.19016,1.0105 -1.69041,0.70133 -0.50025,-0.30917 -1.56307,-0.15306 -2.36181,0.34692 -1.19555,0.74836 -0.97387,1.35537 1.25411,3.43402 1.48849,1.38873 3.37443,2.52496 4.19098,2.52496 0.81654,0 1.77405,0.4683 2.1278,1.04068 0.74014,1.19757 4.61961,0.22901 5.70955,-1.42546 z m 268.65551,-1.73009 c 1.16719,-3.3482 0.93406,-4.14027 -2.26276,-7.6878 -1.76037,-1.95349 -1.85301,-2.43989 -0.61091,-3.20754 0.93323,-0.57677 2.19282,-0.4447 3.47379,0.36423 2.86326,1.80815 7.1139,0.0157 8.62734,-3.63807 1.00844,-2.4346 0.94322,-3.37907 -0.38447,-5.56722 -2.04375,-3.36827 -8.12814,-4.89664 -10.40986,-2.61491 -1.37669,1.37668 -1.75067,1.29571 -3.67792,-0.79628 -1.91889,-2.0829 -3.2864,-4.78778 -8.39053,-16.59608 -0.79845,-1.8472 -1.74494,-5.30912 -2.1033,-7.69315 l -0.65158,-4.3346 -3.8728,3.45416 c -4.64359,4.14164 -4.583,5.03795 1.22229,18.07978 5.89572,13.24498 5.8769,12.51287 0.39648,15.41904 -3.5921,1.90482 -4.82174,3.16314 -5.05762,5.17555 -0.38826,3.31249 1.14639,6.27576 4.33073,8.36222 2.31042,1.51384 2.69809,1.45831 6.86426,-0.98323 3.42296,-2.00598 4.53299,-2.28165 4.93796,-1.22631 0.28733,0.74875 0.058,1.82583 -0.50973,2.39351 -0.70951,0.70951 -0.13808,1.51653 1.82815,2.58181 4.11222,2.22798 5.0323,2.00937 6.25048,-1.48511 z m -262.88784,-26.401 c 5.46758,-2.79539 9.53825,-9.78891 8.60215,-14.77874 -1.39162,-7.41799 -5.29916,-9.2846 -15.10451,-7.21536 -2.2,0.46427 -4.52857,0.75701 -5.17459,0.65053 -0.64603,-0.10648 -1.46009,0.26833 -1.80902,0.83292 -0.35542,0.57507 0.2711,1.02652 1.42459,1.02652 1.49333,0 2.05902,0.64426 2.05902,2.34501 0,3.08475 -3.03538,5.8765 -5.02284,4.61971 -0.81244,-0.51375 -1.1131,-0.94099 -0.66814,-0.94941 0.44496,-0.008 0.48335,-0.54225 0.0853,-1.18628 -1.31988,-2.1356 -2.33652,2.89481 -1.28611,6.36374 0.55079,1.81898 1.1922,4.20723 1.42536,5.30723 0.78261,3.69218 4.38012,5.68906 8.89788,4.93899 2.23769,-0.37152 5.19459,-1.2512 6.57089,-1.95486 z m -21.30593,-2.58056 c 0.67165,-0.67165 0.89558,-3.31143 0.578,-6.81374 -0.37852,-4.17438 -0.0725,-6.57962 1.13392,-8.9126 1.25824,-2.43317 1.39658,-3.6732 0.58001,-5.19897 -0.91402,-1.70786 -1.39793,-1.82943 -3.27768,-0.82342 -1.36874,0.73253 -1.73217,1.338 -0.95802,1.59605 1.96237,0.65412 1.46695,5.06121 -0.69927,6.22054 -1.53074,0.81922 -2.15854,0.66651 -2.93859,-0.71482 -0.86173,-1.52598 -1.18861,-1.2885 -2.4897,1.80884 -1.6013,3.81203 -0.94783,9.63583 1.39843,12.4629 1.43642,1.73079 5.11072,1.9374 6.6729,0.37522 z m 51.80357,-64.61813 c 4.4,-1.38645 10.25,-3.14254 13,-3.90243 7.48285,-2.06768 19.73355,-6.56265 21.97251,-8.06205 1.08487,-0.72653 2.55985,-1.32096 3.27773,-1.32096 1.97565,0 14.88966,-6.58661 17.27969,-8.81326 l 2.0997,-1.95616 -4.81482,-1.06224 c -4.85548,-1.0712 -6.92259,-1.04276 -13.31481,0.18323 -1.925,0.36921 -5.075,0.84867 -7,1.06547 -6.13135,0.69054 -9.30853,1.7264 -17.51947,5.71193 -6.18935,3.00426 -10.18302,5.97355 -17.5,13.01125 -5.21429,5.01526 -8.58053,8.79182 -7.48053,8.39234 1.1,-0.39947 5.6,-1.86067 10,-3.24712 z m 189.22917,-89.88961 c -0.33229,-0.33229 -1.1948,-0.36781 -1.91667,-0.0789 -0.79773,0.31922 -0.56078,0.55618 0.60417,0.60416 1.05416,0.0434 1.64479,-0.19293 1.3125,-0.52522 z M 207.19204,386.13575 c -0.69924,-0.84253 -0.72265,-3.64231 -0.0723,-8.65242 1.4991,-11.54946 1.34118,-14.70987 -0.72685,-14.54574 -1.46742,0.11646 -1.83659,-0.99143 -2.28626,-6.86111 -0.29494,-3.85 -0.16056,-13.075 0.29863,-20.5 0.45919,-7.425 0.86599,-14.4 0.90399,-15.5 0.038,-1.1 0.6596,-6.5 1.38131,-12 2.00419,-15.27346 2.45669,-21.50958 2.93871,-40.5 0.40871,-16.10199 1.30358,-31.71433 3.10966,-54.2524 l 0.70136,-8.7524 -17.54703,0.16067 c -9.65088,0.0884 -18.98041,0.37105 -20.7323,0.62817 l -3.18525,0.4675 0.72648,6.12423 c 0.81644,6.88257 0.75093,50.75702 -0.0816,54.62423 -0.29599,1.375 -0.72291,15.55 -0.94871,31.5 -0.2258,15.95 -0.69723,38 -1.04764,49 -0.39321,12.34408 -0.23395,22.67957 0.41605,27 0.92206,6.12876 0.84749,7.15429 -0.59915,8.23967 -2.24719,1.686 -2.76809,0.88566 -2.97626,-4.57294 -0.29281,-7.67794 -0.18338,-33.22711 0.16989,-39.66673 0.25396,-4.62924 0.51649,-40.71547 0.33465,-46 -0.0189,-0.55 0.32191,-7.75 0.75741,-16 1.05672,-20.01824 1.11374,-55.39597 0.1025,-63.59989 l -0.81352,-6.59988 -9.68648,0.35718 c -5.32756,0.19646 -13.96148,0.80362 -19.18648,1.34926 -5.225,0.54564 -11.3,1.16627 -13.5,1.37918 -2.2,0.21291 -5.0125,0.71568 -6.25,1.11726 -1.8409,0.5974 -2.25,0.35604 -2.25,-1.32746 0,-3.4368 -0.12044,-3.41234 25.5,-5.17843 8.8,-0.60661 20.725,-1.47368 26.5,-1.92683 10.52968,-0.82623 68.82706,-0.54399 83.12319,0.40243 l 7.62319,0.50466 1.10589,-4.23874 c 1.91541,-7.3415 3.11184,-22.46443 3.65812,-46.23874 0.29066,-12.65 0.6106,-25.89841 0.71096,-29.44091 0.1795,-6.33571 0.13427,-6.45468 -2.76943,-7.28357 -1.62356,-0.46346 -5.20192,-0.60967 -7.95192,-0.32489 -2.75,0.28477 -17.825,0.98485 -33.5,1.55573 -15.675,0.57088 -30.77289,1.24972 -33.55086,1.50854 -5.55458,0.5175 -30.36508,0.50926 -42.94914,-0.0143 -4.4,-0.18305 -10.85013,-0.0891 -14.33363,0.20872 l -6.33362,0.54155 0.65903,5.67831 c 1.5164,13.06537 1.34423,28.16979 -0.8158,71.57078 -0.0548,1.1 0.21756,3.19058 0.60512,4.64574 0.85109,3.19549 -1.41982,4.57268 -3.73027,2.26223 -1.51141,-1.5114 -1.42856,-6.03393 0.30974,-16.90797 0.95261,-5.9591 0.77291,-55.84054 -0.23263,-64.5748 l -0.87205,-7.5748 24.88821,0.27773 24.88821,0.27774 -0.0979,-13.96668 -0.0979,-13.96667 3.34267,0.62709 c 2.05352,0.38524 3.91238,0.15427 4.81988,-0.59889 1.18319,-0.98196 1.58905,-0.93451 2.03914,0.23841 0.35194,0.91715 1.44435,1.29569 2.92331,1.01296 3.46236,-0.66187 4.93773,2.63508 3.72458,8.32316 -0.52233,2.44907 -0.58952,4.67546 -0.1493,4.94753 0.44022,0.27207 1.11525,-0.97175 1.50008,-2.76405 1.10181,-5.13158 2.38735,-7.06645 3.87481,-5.83197 1.57426,1.30651 2.58349,0.39803 2.60331,-2.34343 0.0217,-3.00958 2.49033,-9.65961 3.91193,-10.53821 1.10305,-0.68172 8.62266,0.17119 9.53272,1.08126 0.20923,0.20923 0.049,3.19139 -0.35611,6.62702 -0.40509,3.43563 -0.48162,6.23851 -0.17006,6.22863 0.31155,-0.01 2.03242,-2.25988 3.82415,-5 3.28682,-5.02659 4.52867,-5.71894 7.21295,-4.02134 1.23895,0.78354 1.27303,1.47655 0.21633,4.39879 -1.88646,5.21693 -4.04285,17.47563 -3.46367,19.69042 0.39203,1.49911 -0.001,1.9501 -1.70039,1.9501 -2.10201,0 -2.17746,-0.28184 -1.53922,-5.75 0.36913,-3.1625 1.0282,-7.6625 1.46462,-10 0.43641,-2.3375 0.51408,-4.23578 0.17258,-4.21839 -0.34149,0.0174 -1.84108,2.04238 -3.33241,4.5 -1.87973,3.0978 -3.38084,4.46843 -4.89371,4.46843 -2.11416,0 -2.16173,-0.24613 -1.52445,-7.88763 0.56748,-6.80462 0.43027,-7.97494 -0.99935,-8.52354 -1.93402,-0.74215 -1.67486,-0.95755 -3.74372,3.11151 -0.89495,1.76019 -1.62718,4.62517 -1.62718,6.36663 0,2.69521 -0.30368,3.08688 -2.04108,2.63254 -1.69538,-0.44335 -1.9299,-0.18343 -1.3846,1.53464 0.50081,1.57793 0.29958,1.93144 -0.84866,1.49082 -1.05877,-0.40629 -1.67122,0.25283 -2.06516,2.22254 -0.41418,2.07088 -1.2893,2.94317 -3.36026,3.34938 -3.85804,0.75674 -4.44255,-0.15266 -4.44672,-6.91832 -0.003,-5.33691 -0.13526,-5.69924 -1.43232,-3.93232 -1.10872,1.51037 -1.69661,1.67834 -2.62495,0.75 -3.35556,-3.35556 -5.27551,1.45462 -5.68992,14.25531 l -0.22187,6.85364 13.30777,-0.6745 c 7.31927,-0.37098 17.13277,-0.88161 21.80777,-1.13473 4.675,-0.25312 16.375,-0.70656 26,-1.00763 9.625,-0.30107 19.18506,-0.81624 21.24458,-1.14482 2.05952,-0.32857 4.30952,-0.14541 5,0.40704 0.69048,0.55244 2.98161,0.94706 5.09141,0.87694 4.59304,-0.15266 6.05276,1.21981 4.80048,4.51355 -1.13399,2.98263 -2.6291,27.51395 -2.36833,38.85895 0.28099,12.22496 -2.90072,45.98972 -4.48277,47.57177 -0.70695,0.70696 -1.28537,2.0426 -1.28537,2.96809 0,1.34761 -0.64723,1.57028 -3.25,1.11809 -3.50968,-0.60975 -12.7954,-1.28567 -30.40009,-2.21289 l -11.15009,-0.58726 -0.55883,3.8211 c -0.30735,2.1016 -0.88265,8.0961 -1.27843,13.3211 -0.39579,5.225 -0.76907,9.95 -0.82952,10.5 -0.0605,0.55 -0.43615,9.55 -0.8349,20 -1.41204,37.00504 -1.85734,45.04436 -2.71411,49 -1.19582,5.52096 -3.86289,27.02318 -4.03121,32.5 -0.0761,2.475 -0.0829,9.225 -0.0152,15 0.20457,17.44221 1.78939,9.19668 2.33908,-12.16976 0.27832,-10.81837 0.80647,-20.15587 1.17366,-20.75 0.36719,-0.59413 1.37417,-1.08024 2.23773,-1.08024 1.34553,0 1.48069,1.10854 0.94497,7.75 -0.34382,4.2625 -0.66909,12.25 -0.72281,17.75 -0.11067,11.32915 -1.65305,36.85076 -2.43249,40.25 -0.40833,1.78083 -0.0796,2.25 1.57646,2.25 1.42036,0 1.98854,0.53895 1.76905,1.67808 -0.42135,2.18689 -5.37805,3.56337 -6.77413,1.88119 z m -20.27891,-53.12232 c -0.30968,-0.30968 -0.35388,-2.22218 -0.0982,-4.25 0.61997,-4.91735 -2.1105,-22.3501 -4.05325,-25.87808 -4.98516,-9.05292 -6.58287,-16.0893 -3.86881,-17.03841 0.70652,-0.24707 1.24492,0.35998 1.23833,1.39621 -0.006,1.00833 1.99104,5.88333 4.4388,10.83333 4.17757,8.44812 4.51697,9.76201 5.5349,21.42663 0.86473,9.90909 0.82648,12.59033 -0.1888,13.23468 -1.51984,0.96457 -2.24725,1.03134 -3.00295,0.27564 z m -0.39172,-38.60008 c -1.16679,-0.56527 -2.69193,-2.75637 -3.3892,-4.8691 -1.80935,-5.48239 1.18695,-17.0969 5.30445,-20.56154 4.19739,-3.53187 6.40733,-3.14387 7.65361,1.34377 1.38478,4.98637 1.32299,6.66704 -0.39639,10.78212 -1.20452,2.88281 -1.96372,3.46788 -4.5,3.46788 -2.77238,0 -3.05243,-0.29682 -3.06634,-3.25 -0.0116,-2.46622 -0.24909,-2.88826 -0.98469,-1.75 -1.5692,2.42817 -1.19283,9.59507 0.5812,11.06739 1.24003,1.02914 1.99229,1.05555 3.48643,0.12245 2.51246,-1.56906 2.93237,-1.50463 2.93237,0.44992 0,1.70648 -2.7635,4.32306 -4.5,4.26076 -0.55,-0.0197 -1.95465,-0.49838 -3.12144,-1.06365 z m 6.03474,-21.2316 -0.66239,-3.01587 -1.87546,2.31608 c -2.35651,2.91017 -2.63723,5.97163 -0.37545,4.09452 1.27273,-1.05627 1.5096,-0.80968 1.56339,1.62756 l 0.0634,2.87244 0.97447,-2.43943 c 0.53595,-1.34168 0.67638,-3.79657 0.31206,-5.4553 z m 6.8367,-5.3136 c -0.6875,-0.25209 -1.25,-1.56814 -1.25,-2.92457 0,-1.46595 -1.42112,-3.92951 -3.50382,-6.074 -4.56296,-4.69833 -5.62828,-9.04133 -5.2813,-21.5304 l 0.28512,-10.2627 2.75,-0.31642 c 2.68714,-0.30919 3.74107,1.08587 1.75,2.31642 -1.32,0.81581 -1.28175,14.08779 0.0586,20.33771 0.71046,3.31275 2.00866,5.78263 3.94733,7.51 4.37104,3.89461 5.34323,12.44699 1.24406,10.94396 z m -18.45717,-12.04167 c -0.24224,-0.9625 -0.27685,-6.25 -0.0769,-11.75 0.19993,-5.5 0.45814,-14.275 0.5738,-19.5 0.1701,-7.68432 0.49698,-9.5 1.71029,-9.5 1.26977,0 1.47465,2.14881 1.33483,14 -0.0908,7.7 -0.20334,17.2625 -0.25,21.25 -0.064,5.46523 -0.42538,7.25 -1.4682,7.25 -0.76085,0 -1.58156,-0.7875 -1.8238,-1.75 z m -25.17244,-71.0552 c -0.2737,-0.44286 -0.086,-2.58036 0.41713,-4.75 0.50312,-2.16964 0.9255,-5.37698 0.93862,-7.12741 0.0337,-4.49849 2.99879,-5.25155 6.57933,-1.67101 l 2.72679,2.72679 2.3109,-2.68658 c 3.20794,-3.72945 4.80671,-3.50107 3.94402,0.56341 -0.37939,1.7875 -0.81482,4.825 -0.96762,6.75 -0.18271,2.30195 -0.84119,3.61067 -1.92368,3.82332 -1.58169,0.31072 -2.09263,-0.79505 -1.69748,-3.67367 0.10195,-0.7427 -0.24184,-1.08633 -0.76398,-0.76363 -0.52214,0.3227 -2.06698,-0.2924 -3.43297,-1.36689 -3.01487,-2.3715 -3.75145,-1.79276 -3.75145,2.94754 0,4.4493 -2.79723,7.78848 -4.37961,5.22813 z m 47.51746,-0.26745 c -2.15632,-0.86346 -2.30288,-1.34116 -1.68191,-5.48209 1.14905,-7.66244 3.05308,-11.97559 5.16866,-11.70848 1.03147,0.13024 3.7879,0.29981 6.1254,0.37683 2.79594,0.0921 4.25,0.59434 4.25,1.4679 0,1.55235 -5.93584,2.89102 -8.79516,1.9835 -1.59699,-0.50686 -2.04874,-0.0819 -2.39084,2.24891 -0.42165,2.87292 -0.42053,2.87355 3.41802,1.89922 4.38408,-1.1128 5.65114,-0.48221 3.71607,1.8494 -0.8872,1.06902 -2.44882,1.48107 -4.6425,1.22497 -2.65894,-0.31042 -3.30559,-0.0339 -3.30559,1.41329 0,1.32102 0.77517,1.7992 2.91667,1.7992 1.60416,0 3.12291,-0.5625 3.375,-1.25 0.36216,-0.98771 0.7314,-0.99266 1.7597,-0.0236 1.06307,1.0018 0.96601,1.59694 -0.52999,3.25 -1.94351,2.14756 -5.49615,2.50761 -9.38353,0.95098 z m 14.86215,-1.36833 c 0,-1.34254 0.43695,-2.71104 0.97101,-3.0411 0.53405,-0.33007 1.27098,-2.86141 1.63761,-5.6252 0.66577,-5.01881 2.735,-8.41642 4.472,-7.34289 0.50566,0.31251 0.91938,1.20577 0.91938,1.98502 0,0.77924 0.82784,2.77809 1.83965,4.44187 l 1.83964,3.02506 1.35549,-4.10715 c 1.27802,-3.87245 3.32013,-5.87305 4.64379,-4.54939 1.00067,1.00066 -3.84652,14.65476 -5.20243,14.65476 -0.70018,0 -2.36025,-1.84095 -3.68905,-4.091 l -2.41599,-4.091 -1.28882,4.341 c -1.99279,6.71206 -5.08228,9.38681 -5.08228,4.40002 z m -43.33333,0.77431 c -1.04969,-1.04968 -0.77847,-8.71419 0.43116,-12.18411 1.52153,-4.36467 4.31666,-4.31289 3.35574,0.0622 -0.38794,1.76627 -0.65679,5.36627 -0.59745,8 0.10216,4.53455 -1.15375,6.15764 -3.18945,4.12194 z m 8.95755,-2.13234 c -0.64132,-1.03768 1.4884,-12.07336 2.69232,-13.95099 1.40507,-2.19133 2.6238,-1.377 5.8945,3.93856 l 3.19256,5.18857 1.31571,-3.43857 c 1.82438,-4.76794 2.73397,-6.25632 4.10213,-6.71237 0.64821,-0.21607 1.17865,0.43214 1.17877,1.44048 3.3e-4,2.94679 -4.38404,14.33333 -5.51903,14.33333 -1.34518,0 -3.934,-3.05254 -6.10889,-7.20313 l -1.72754,-3.29687 -1.07238,4.91895 c -1.01947,4.67629 -2.73175,6.75022 -3.94815,4.78204 z m -40.07203,-26.11654 c -0.3471,-0.56162 0.0345,-3.56988 0.84796,-6.68503 1.67413,-6.41093 5.91673,-11.64188 9.07527,-11.18943 1.70647,0.24444 2.04176,1.07563 2.13392,5.29001 0.18092,8.27348 -0.5824,11.5 -2.72063,11.5 -1.36231,0 -1.88871,-0.71721 -1.88871,-2.57332 0,-3.67445 -3.32069,-2.84015 -3.99229,1.00303 -0.52748,3.0184 -2.36045,4.4266 -3.45552,2.65474 z m 8.41601,-11.83445 c -0.0305,-2.63406 -0.0937,-2.66816 -1.5,-0.80887 -1.87079,2.4734 -1.86109,3.55887 0.0318,3.55887 0.97741,0 1.48892,-0.95809 1.4682,-2.75 z m 27.0318,7.65666 c 0,-2.79425 -1.26859,-3.43699 -1.625,-0.82333 -0.0687,0.50417 -0.18125,1.36667 -0.25,1.91667 -0.0687,0.55 -1.025,1 -2.125,1 -1.66548,0 -1.98021,-0.62723 -1.88169,-3.75 0.19998,-6.33813 1.27581,-9.70222 3.22267,-10.07715 1.40886,-0.27132 1.7556,0.18242 1.51901,1.98779 -0.3703,2.82582 1.4899,4.00682 1.99762,1.26825 0.43468,-2.34462 2.02997,-4.42889 3.38983,-4.42889 0.58062,0 0.75004,1.26259 0.40256,3 -0.33846,1.69231 -0.175,3 0.375,3 0.53625,0 0.975,0.9 0.975,2 0,1.1 -0.64722,2 -1.43826,2 -0.94361,0 -1.37352,0.93232 -1.25,2.71081 0.13012,1.87372 -0.35214,2.82276 -1.56174,3.07333 -1.38117,0.28611 -1.75,-0.32034 -1.75,-2.87748 z m 11.25701,-2.80442 c 0.3043,-3.35581 0.14595,-6.3532 -0.35187,-6.66087 -0.49783,-0.30767 -0.90514,-1.20785 -0.90514,-2.00039 0,-1.06022 1.3056,-1.44098 4.94098,-1.44098 5.2023,0 7.49418,1.40972 4.06257,2.49887 -2.72159,0.8638 -5.21073,5.93231 -4.82054,9.81581 0.246,2.4484 -0.10809,3.23713 -1.58113,3.52197 -1.74352,0.33715 -1.85306,-0.12992 -1.34487,-5.73441 z m 33.74299,3.65844 c 0,-1.30813 -0.61409,-3.21824 -1.36465,-4.24469 -1.27128,-1.73858 -1.44763,-1.61483 -2.57755,1.80887 -0.6671,2.02133 -1.60145,3.67514 -2.07634,3.67514 -1.63756,0 -2.21442,-2.19659 -1.14114,-4.34535 0.59191,-1.18506 1.56234,-4.06715 2.15649,-6.40465 1.56828,-6.16988 3.76904,-5.52262 5.95014,1.75 l 1.34958,4.5 1.88957,-4.25 c 1.82412,-4.10277 3.13135,-5.1634 4.21095,-3.41658 0.2833,0.45839 -0.56366,3.49589 -1.88212,6.75 -1.69938,4.19427 -2.99654,6.0096 -4.45607,6.23613 -1.59096,0.24693 -2.05886,-0.22098 -2.05886,-2.05887 z m -63.28141,-0.51914 c -2.26631,-2.50425 -2.17275,-5.39445 0.27539,-8.50676 2.28678,-2.90717 7.11031,-4.90639 9.00798,-3.73357 1.95363,1.20741 0.46305,3.93315 -1.82382,3.33512 -1.9478,-0.50936 -5.17814,2.778 -5.17814,5.26954 0,1.61025 3.59514,2.39899 4.91567,1.07846 0.69148,-0.69148 1.43154,-0.73712 2.04269,-0.12597 1.52977,1.52977 -0.1753,3.20411 -3.99206,3.92014 -2.7594,0.51767 -3.90395,0.24788 -5.24771,-1.23696 z m 41.48141,0.55846 c -2.16952,-2.16952 -1.12285,-13.28229 1.17732,-12.49992 0.65923,0.22422 0.98825,2.05508 0.79704,4.43512 -0.57935,7.21124 3.8729,6.51672 5.87442,-0.91637 1.62655,-6.04052 3.47993,-4.30473 3.29596,3.08685 -0.17547,7.05015 -0.88528,8.44316 -2.89898,5.68925 -1.2531,-1.71371 -1.45352,-1.73829 -2.02523,-0.24843 -0.73815,1.92359 -4.47781,2.19622 -6.22053,0.4535 z m 32.8091,-0.28904 c -1.96866,-2.37209 -0.29894,-8.43779 3.23018,-11.73448 2.87014,-2.68111 3.19481,-2.76512 4.67259,-1.209 1.30148,1.37047 1.33995,1.76349 0.21313,2.17742 -4.24922,1.56094 -7.30832,8.85036 -3.375,8.04217 1.0136,-0.20826 1.62506,-1.08635 1.45309,-2.08671 -0.42326,-2.46213 2.62633,-3.30426 4.62445,-1.277 1.56576,1.58858 1.4641,1.88441 -1.59332,4.63674 -3.55944,3.20426 -7.28381,3.79 -9.22512,1.45086 z m -46.6862,-25.11188 c -0.66063,-1.72158 1.17439,-3.35895 3.79224,-3.38377 0.88833,-0.008 2.80117,-0.94824 4.25076,-2.08849 2.9824,-2.34596 5.40828,-2.23897 7.01304,0.30928 0.86884,1.37968 0.63191,2.1975 -1.1541,3.98351 -1.94105,1.94105 -2.52635,2.07319 -4.29377,0.96941 -1.69172,-1.05649 -2.58295,-1.0103 -5.14236,0.2665 -3.80473,1.89805 -3.71537,1.89917 -4.46581,-0.0564 z"
       id="path4792"
       inkscape:connector-curvature="0" />
  </g>
</svg>
