<?xml version="1.0" encoding="UTF-8" standalone="no"?>
<!-- Created with Inkscape (http://www.inkscape.org/) -->

<svg
   xmlns:dc="http://purl.org/dc/elements/1.1/"
   xmlns:cc="http://creativecommons.org/ns#"
   xmlns:rdf="http://www.w3.org/1999/02/22-rdf-syntax-ns#"
   xmlns:svg="http://www.w3.org/2000/svg"
   xmlns="http://www.w3.org/2000/svg"
   xmlns:sodipodi="http://sodipodi.sourceforge.net/DTD/sodipodi-0.dtd"
   xmlns:inkscape="http://www.inkscape.org/namespaces/inkscape"
   width="210mm"
   height="297mm"
   viewBox="0 0 744.09448819 1052.3622047"
   id="svg4212"
   version="1.1"
   inkscape:version="0.91 r13725"
   sodipodi:docname="zaklopotany.svg">
  <defs
     id="defs4214" />
  <sodipodi:namedview
     id="base"
     pagecolor="#ffffff"
     bordercolor="#666666"
     borderopacity="1.0"
     inkscape:pageopacity="0.0"
     inkscape:pageshadow="2"
     inkscape:zoom="0.7"
     inkscape:cx="415.88014"
     inkscape:cy="769.51503"
     inkscape:document-units="px"
     inkscape:current-layer="layer1"
     showgrid="false"
     inkscape:window-width="1304"
     inkscape:window-height="745"
     inkscape:window-x="54"
     inkscape:window-y="-8"
     inkscape:window-maximized="1" />
  <metadata
     id="metadata4217">
    <rdf:RDF>
      <cc:Work
         rdf:about="">
        <dc:format>image/svg+xml</dc:format>
        <dc:type
           rdf:resource="http://purl.org/dc/dcmitype/StillImage" />
        <dc:title></dc:title>
      </cc:Work>
    </rdf:RDF>
  </metadata>
  <g
     inkscape:label="Layer 1"
     inkscape:groupmode="layer"
     id="layer1">
    <path
       style="fill:#000000"
       d="m 326.23883,430.3249 c -1.26042,-0.26766 -3.84792,-2.0429 -5.75,-3.94498 -3.8293,-3.8293 -4.46168,-7.51414 -1.91382,-11.15173 1.90372,-2.71794 0.43158,-6.23992 -2.6082,-6.23992 -3.86434,0 -18.01614,-8.03552 -24.45695,-13.88689 -3.5177,-3.19577 -5.49396,-2.77299 -11.9079,2.54746 -3.68249,3.05468 -3.75589,3.23802 -2.1908,5.4725 2.40076,3.42756 1.97648,6.66365 -1.30373,9.94385 -2.22548,2.22548 -3.84831,2.92308 -6.8,2.92308 -2.1323,0 -4.41692,-0.54 -5.07692,-1.2 -0.80092,-0.80092 -1.2,-0.83697 -1.2,-0.10841 0,0.60038 -1.15194,1.38071 -2.55988,1.73408 -7.26803,1.82416 -13.96112,-3.46092 -13.71971,-10.83353 0.0737,-2.25068 0.15921,-6.46914 0.19004,-9.37436 0.094,-8.858 5.40719,-12.00054 15.28574,-9.04086 l 3.92822,1.17693 5.47297,-5.47297 5.47296,-5.47296 -2.53643,-5.73533 c -7.45693,-16.86143 -8.91955,-34.61795 -4.64424,-56.38181 0.45478,-2.31507 1.56565,-5.33673 2.4686,-6.71481 2.07085,-3.16052 2.10465,-4.96759 0.0784,-4.19004 -5.56256,2.13456 -14.51178,-10.9108 -10.34401,-15.07857 0.79019,-0.79019 0.79019,-1.65778 0,-3.13426 -1.55509,-2.90572 -1.35116,-8.7725 0.42429,-12.20583 3.15149,-6.09432 15.20281,-8.68569 19.6643,-4.22838 1.81229,1.81059 1.99739,2.48014 0.9676,3.5 -1.02586,1.01597 -1.46533,0.92093 -2.2608,-0.48889 -0.71135,-1.26074 -2.24432,-1.75 -5.48317,-1.75 -5.22313,0 -9.40486,3.27818 -9.40486,7.37276 0,1.35501 -0.27314,3.17547 -0.60699,4.04545 -0.40491,1.0552 -0.0482,1.58179 1.07143,1.58179 1.82864,0 4.53556,2.27996 4.53556,3.82016 0,0.52966 -1.07536,1.23292 -2.3897,1.5628 -4.19816,1.05367 -4.13006,4.9337 0.17319,9.86704 2.07616,2.38016 3.52131,2.20585 7.1707,-0.86491 2.28635,-1.92383 2.93905,-3.1461 2.46971,-4.62484 -0.37811,-1.19133 -0.10718,-2.33796 0.66521,-2.81532 1.60383,-0.99123 4.91089,0.64871 4.91089,2.43527 0,1.57852 3.18806,4.6198 4.84277,4.6198 2.44059,0 8.03198,-4.56446 8.48327,-6.92521 0.57773,-3.02231 -0.1414,-5.07479 -1.77806,-5.07479 -1.22904,0 -4.548,-3.10726 -4.548,-4.25789 0,-0.708 7.92761,-6.15171 11.80168,-8.10395 4.00303,-2.01723 16.95605,-4.9451 18.78032,-4.24507 3.5887,1.37712 -0.26139,3.86339 -7.582,4.89622 -2.6032,0.36728 -13.4168,4.7499 -15.43116,6.25407 -1.89753,1.41693 -1.89318,1.48248 0.25,3.76378 4.26102,4.53565 2.30025,12.02853 -4.00028,15.28667 -4.96443,2.5672 -7.92229,2.70559 -10.89249,0.50963 -2.53877,-1.87699 -2.80024,-1.8959 -4.18649,-0.30274 -0.81323,0.9346 -1.2751,2.26094 -1.02638,2.94742 0.24872,0.68647 -0.46266,2.72844 -1.58084,4.5377 -1.11819,1.80926 -2.99774,7.5476 -4.17678,12.75186 -3.96316,17.49332 -1.21344,38.51679 7.1836,54.9233 5.71439,11.16504 20.93912,24.51218 32.69393,28.66193 4.71965,1.66616 5.4491,1.70698 6.49199,0.36332 3.59735,-4.63486 7.746,-5.59204 15.1749,-3.5012 1.46961,0.41362 3.58578,-0.90204 7.97962,-4.96108 6.01879,-5.56016 9.52962,-7.27827 7.63372,-3.73574 -1.12583,2.10363 -13.94678,14.21177 -15.04842,14.21177 -0.41522,0 -1.56943,-0.9 -2.56492,-2 -2.41759,-2.67141 -3.89426,-2.52345 -7.48501,0.75 -3.35561,3.05908 -3.31857,6.67584 0.0775,7.56393 2.71643,0.71036 2.35898,2.36125 -0.84245,3.89087 -3.74246,1.78813 -3.94447,4.76735 -0.54001,7.96437 3.97277,3.73072 8.59795,4.52289 11.20218,1.91866 1.12336,-1.12336 1.80222,-2.66853 1.50859,-3.43373 -0.59993,-1.56338 3.65579,-3.14828 4.55348,-1.69578 1.06409,1.72174 6.19155,2.38955 7.11778,0.92703 1.72922,-2.73046 0.98555,-6.6045 -1.59202,-8.29339 -1.375,-0.90094 -2.5,-2.02118 -2.5,-2.48943 -4e-5,-1.83595 12.00109,-13.10253 13.95674,-13.10253 2.57774,0 2.73288,3.00689 0.18946,3.67201 -1.01957,0.26662 -3.4806,2.43099 -5.46896,4.8097 -4.48712,5.36803 -3.40979,6.99216 4.01029,6.04575 23.78828,-3.03414 33.83909,-8.23948 52.4998,-27.18976 12.776,-12.97427 15.04528,-15.98232 18.95803,-25.12987 4.4144,-10.32036 5.04951,-23.06005 1.94305,-38.97595 -1.15206,-5.90253 -2.54479,-14.86912 -3.09496,-19.92574 -0.55017,-5.05663 -1.46714,-10.42173 -2.03771,-11.92245 -0.57058,-1.50072 -0.76738,-3.43849 -0.43735,-4.30614 0.44514,-1.17027 0.3078,-1.28767 -0.532,-0.45474 -0.83844,0.8316 -2.47482,0.38241 -6.30924,-1.73188 -2.84746,-1.57009 -5.62719,-2.8623 -6.17719,-2.87159 -0.55,-0.009 -2.30433,1.10484 -3.89852,2.47585 -3.29137,2.8306 -3.49258,4.8632 -2.12883,21.50481 l 0.77852,9.5 -5.18625,10.1035 c -6.17641,12.0325 -6.6393,16.0343 -2.64339,22.85282 3.23529,5.5206 6.87209,7.54368 13.56093,7.54368 6.24286,0 11.32558,-2.0143 13.51523,-5.35613 0.96587,-1.47411 2.24553,-2.2959 3.07778,-1.97654 3.32808,1.27711 0.0185,5.96869 -6.58816,9.33915 -3.70411,1.88969 -5.50194,2.15933 -11.7317,1.75953 -6.70544,-0.43033 -7.67034,-0.77309 -10.89173,-3.86908 -4.39118,-4.22025 -6.15625,-7.52911 -7.33672,-13.7537 -0.77858,-4.10544 -0.57626,-5.68876 1.30969,-10.24937 1.22678,-2.96662 3.56536,-7.41886 5.19683,-9.89386 3.1742,-4.81535 3.3449,-6.93622 2.30858,-28.68168 -0.32285,-6.77429 -0.17831,-7.35295 2.54793,-10.20104 4.77377,-4.98714 7.40159,-5.36381 14.21694,-2.03786 3.24108,1.58167 5.91658,2.88585 5.94556,2.89817 0.029,0.0123 -0.27357,-2.56509 -0.67234,-5.72759 -1.118,-8.86647 -0.16112,-35.72037 1.63021,-45.75 2.07852,-11.63763 3.20394,-20.06715 4.01303,-30.05788 0.60459,-7.4655 0.50295,-8.12715 -1.38245,-9 -4.60873,-2.13362 -15.11622,-12.67345 -18.06832,-18.12394 -3.99236,-7.3711 -5.36244,-12.26428 -3.92046,-14.00176 1.68907,-2.03521 2.84764,-1.56479 2.84764,1.15624 0,7.74646 10.26995,20.71337 23.40628,29.55294 10.07519,6.7797 12.10626,5.31947 11.94608,-8.58856 -0.14943,-12.97473 -7.99479,-31.74614 -17.05447,-40.80582 -1.99717,-1.99717 -3.97408,-3.63122 -4.39313,-3.63122 -0.41905,0 -1.36358,-0.60168 -2.09897,-1.33707 -1.31866,-1.31865 -11.70229,-6.53542 -17.05579,-8.56888 -2.88499,-1.09582 -3.23203,-1.78675 -1.92851,-3.83946 0.72489,-1.14151 5.9368,1.28244 21.72314,10.10298 3.98717,2.22782 11.36277,11.19162 15.31704,18.6153 7.46744,14.01926 10.29819,30.24124 7.20497,41.28913 -1.18111,4.21848 -1.6361,4.738 -4.14955,4.738 -1.55264,0 -3.97106,-0.5231 -5.37426,-1.16244 -1.40321,-0.63934 -2.75031,-0.96342 -2.99356,-0.72017 -0.24325,0.24325 -0.50408,2.45385 -0.57962,4.91244 -0.16337,5.31671 -1.62115,15.61965 -3.67458,25.97017 -1.67646,8.45041 -2.97916,36.84651 -1.81954,39.66233 0.41624,1.01072 0.93914,6.33767 1.16201,11.83767 0.22286,5.5 0.88967,12.7 1.48178,16 0.59212,3.3 1.26899,7.575 1.50416,9.5 0.23518,1.925 1.31429,8.9 2.39803,15.5 2.68578,16.35647 2.64435,30.97379 -0.10719,37.81462 -1.14712,2.85196 -2.50093,5.97288 -3.00847,6.93538 -0.81875,1.55268 -0.38627,1.74598 3.83568,1.71438 6.82568,-0.0511 24.14906,-4.63173 26.70847,-7.06223 0.5225,-0.49618 1.57268,-0.90215 2.33374,-0.90215 0.76105,0 4.64787,-2.7 8.63737,-6 3.9895,-3.3 7.76824,-6 8.39721,-6 0.62897,0 1.41659,1.08777 1.75027,2.41726 0.43393,1.72892 -0.87689,5.44743 -4.60326,13.05848 -5.99169,12.23791 -12.05018,20.16226 -17.59568,23.01469 -2.12831,1.09473 -4.20026,2.44473 -4.60434,3 -0.40408,0.55526 -0.74158,0.65624 -0.75,0.22439 -0.008,-0.43185 -0.80281,-0.36394 -1.76531,0.15092 -3.52306,1.88455 -8.4618,1.92108 -17.00787,0.12578 -4.80817,-1.01007 -9.97963,-2.31023 -11.49213,-2.88925 -3.03338,-1.16125 -3.96633,-4.61153 -1,-3.69826 6.14708,1.89256 19.34527,4.58309 22.5109,4.58898 4.64615,0.009 11.62031,-3.17792 16.0815,-7.34784 4.9119,-4.5912 15.6576,-22.29875 15.6576,-25.80174 0,-0.6727 -1.4034,0.21234 -3.11866,1.96675 -1.71526,1.75441 -3.48312,3.18984 -3.92857,3.18984 -0.44545,0 -1.40456,0.5789 -2.13134,1.28645 -3.42068,3.33015 -28.12583,10.71355 -35.84796,10.71355 -4.47795,0 -5.02645,0.28961 -8.04905,4.25 -5.67312,7.43323 -24.40419,25.35612 -30.93336,29.59869 -9.72081,6.31645 -19.1201,9.75736 -30.70988,11.24231 -9.69269,1.24188 -10.19092,1.42046 -9.67691,3.46842 0.35578,1.41755 -0.28847,3.12449 -1.87581,4.96987 -2.01446,2.34196 -3.13318,2.78272 -6.70746,2.64266 -3.24154,-0.12701 -4.73176,0.34154 -6.0986,1.91752 -1.8459,2.12834 -7.3245,3.17932 -11.71408,2.24716 z m -63.05364,-21.32395 c 1.73931,-3.92937 3.84532,-3.90161 3.84532,0.0507 0,2.84972 0.22506,3.0415 3.2272,2.75 4.36836,-0.42417 6.25284,-3.98438 4.20507,-7.94434 -0.78775,-1.52333 -1.43172,-3.12955 -1.43105,-3.56936 0.002,-1.62247 4.79106,-6.29763 8.75882,-8.55136 l 4.08756,-2.32178 -2.86207,-3.27806 c -1.57414,-1.80294 -3.05955,-3.81141 -3.30091,-4.46326 -0.26167,-0.70671 -2.20427,0.46426 -4.81173,2.90045 -2.40509,2.24711 -5.67939,5.06615 -7.27623,6.26454 -2.66486,1.99991 -3.09321,2.05448 -5.21482,0.66435 -4.89336,-3.20628 -11.38184,-1.01395 -11.38184,3.84568 0,2.14908 0.4647,2.63976 2.5,2.63976 1.375,0 2.5,0.1882 2.5,0.41821 0,1.6073 -1.44894,3.58179 -2.62843,3.58179 -0.77795,0 -1.93296,1.138 -2.56669,2.52889 -0.96608,2.12031 -0.82687,2.96469 0.86159,5.2262 3.77987,5.06273 9.06993,4.72086 11.48821,-0.74241 z m 80.53658,-96.9789 c -2.50213,-2.19689 -3.81117,-4.32749 -4.21491,-6.86017 -0.32209,-2.02049 -1.00257,-4.44146 -1.51218,-5.37994 -3.93775,-7.2516 -0.54567,-16.03298 6.41609,-16.60988 2.50721,-0.20777 4.44138,0.24981 5.63961,1.33419 1.98533,1.7967 1.49556,2.24331 6.36028,-5.79988 0.75908,-1.25505 2.19126,-4.85505 3.18262,-8 1.80465,-5.72499 4.43723,-7.75121 4.43723,-3.4152 0,2.59762 -6.81788,16.87977 -9.88016,20.69703 l -2.00549,2.49993 -2.09613,-2.24993 c -2.99817,-3.21815 -6.41165,-2.89775 -8.76742,0.82294 -1.08541,1.71429 -1.74717,4.11087 -1.49679,5.42067 0.39316,2.05665 0.87028,2.27941 3.8474,1.79629 3.69326,-0.59933 4.6293,0.89397 1.64859,2.63007 -1.54397,0.89928 -1.4707,1.02286 0.62244,1.04969 2.0255,0.026 2.18487,0.25643 1.08979,1.57592 -0.70546,0.85003 -1.88556,1.31415 -2.62244,1.03138 -0.88548,-0.33979 -1.33979,0.28272 -1.33979,1.83581 0,2.76388 5.54927,7.43219 8.33771,7.01408 2.52309,-0.37833 5.66229,-3.38049 5.66229,-5.4151 0,-2.69513 1.09568,-3.06824 3.98981,-1.35863 3.73798,2.20808 8.05335,0.17428 9.21561,-4.34324 1.08081,-4.20095 -1.89872,-9.95382 -4.92948,-9.51781 -1.12009,0.16114 -2.29491,-0.39905 -2.62144,-1.24998 -1.52807,-3.98209 15.52727,-25.54202 20.20545,-25.54202 1.17703,0 2.14005,0.21667 2.14005,0.48148 0,0.26482 -2.93786,3.41934 -6.52857,7.01006 -3.59072,3.59071 -6.96465,7.53655 -7.49762,8.76852 -0.53297,1.23196 -1.49247,2.96746 -2.13223,3.85665 -0.94146,1.30852 -0.56067,2.50947 1.99761,6.30013 3.92468,5.81527 4.25806,11.2769 0.91081,14.92153 -2.49082,2.71212 -8.01294,4.8817 -10.24505,4.02516 -0.81859,-0.31413 -2.42344,0.59275 -3.72339,2.10403 -1.52765,1.776 -3.63931,2.8378 -6.37285,3.20445 -3.57146,0.47903 -4.54687,0.14558 -7.71745,-2.63823 z m -57.58697,-35.8389 c -0.75559,-1.41184 -0.19916,-2.77354 2.55394,-6.25 4.1332,-5.21918 5.36757,-7.93696 9.90672,-21.81223 3.54947,-10.85003 4.30843,-17.70904 3.00227,-27.13265 -0.90712,-6.54461 -5.06402,-22.7019 -7.23954,-28.13906 l -1.54616,-3.86425 -4.79011,4.0105 c -8.94431,7.4886 -17.58932,8.60483 -20.65961,2.66754 -3.06165,-5.92057 -3.26856,-8.47073 -1.45757,-17.96395 2.59208,-13.58768 9.59318,-28.24042 18.55722,-38.83879 4.57342,-5.40724 14.45877,-13.1281 16.03436,-12.52348 2.08343,0.79949 0.69464,4.3944 -1.95451,5.0593 -1.26485,0.31746 -5.55998,4.06807 -9.54472,8.33469 -11.24742,12.04305 -20.15637,31.77676 -20.28003,44.92113 -0.0534,5.67745 0.25027,6.72773 2.63471,9.11218 2.32119,2.32118 2.96953,2.52368 4.67334,1.45963 1.08805,-0.67949 2.54687,-1.23726 3.24183,-1.23949 0.69496,-0.002 3.6322,-1.91472 6.52718,-4.25 l 5.26362,-4.24595 0.34924,-13.5 c 0.48078,-18.58433 3.32348,-25.87518 17.2574,-44.26117 2.40137,-3.16864 4.36613,-6.39383 4.36613,-7.16709 0,-1.75707 3.46583,-9.52417 5.21295,-11.68247 0.71712,-0.8859 3.64762,-2.7984 6.51221,-4.25 6.75823,-3.42465 14.73081,-3.64165 18.71291,-0.50932 2.43059,1.91189 2.97301,1.98867 5.2985,0.75 1.76338,-0.93927 2.70733,-1.03296 2.95592,-0.29339 0.24617,0.7324 2.02435,0.5249 5.45523,-0.63657 3.96404,-1.34196 5.89325,-1.50168 8.72114,-0.72205 5.20421,1.43478 13.83067,7.43875 14.49585,10.08903 0.35416,1.41109 1.86061,2.72433 4.02148,3.50571 4.1575,1.50338 20.61381,15.64466 20.61381,17.71392 0,2.49722 -2.4576,1.6211 -6.05383,-2.15814 -3.64681,-3.8324 -14.79415,-12.37846 -16.14625,-12.37846 -0.43996,0 -0.79992,1.2928 -0.79992,2.87288 0,8.14683 -8.74777,19.08383 -17.29374,21.62171 -7.24262,2.15083 -13.25002,1.96165 -15.70626,-0.49459 -1.1,-1.1 -2.3375,-2.01276 -2.75,-2.02836 -1.60759,-0.0608 -7.03064,-10.70876 -7.62511,-14.97164 -0.65732,-4.71357 1.13947,-12.46523 3.84731,-16.59792 1.27484,-1.94564 1.27091,-2.37039 -0.0319,-3.45164 -1.8677,-1.55006 -12.56767,-1.47167 -15.64933,0.11465 -3.55619,1.83057 -7.79097,6.13658 -7.79097,7.922 0,0.8871 -0.4759,2.08881 -1.05755,2.67046 -1.90737,1.90737 -2.3388,11.67699 -0.65836,14.90832 3.06415,5.89207 6.25928,7.87984 12.71166,7.90822 4.85706,0.0214 6.26094,-0.37249 8.00662,-2.24626 2.27336,-2.44017 3.99763,-2.17465 3.99763,0.61558 0,1.87226 -4.28606,4.82828 -7.5,5.17262 -1.1,0.11785 -4.08884,0.16246 -6.64186,0.0991 -5.7319,-0.14219 -11.88517,-4.66569 -14.21861,-10.45264 -0.85106,-2.11063 -2.00721,-3.5533 -2.56924,-3.20595 -1.60199,0.99008 -7.53163,10.40668 -10.96697,17.41616 -5.96052,12.16188 -6.61192,29.83933 -1.66289,45.12728 8.06704,24.91973 9.34233,37.90464 5.13016,52.23489 -3.22958,10.9874 -4.66668,15.07053 -5.70707,16.21511 -0.47494,0.52252 -0.86352,1.56688 -0.86352,2.32083 0,1.26602 -8.70267,14.22919 -9.55259,14.22919 -0.20738,0 -0.81178,-0.81231 -1.34312,-1.80512 z m 80.63922,-135.57657 c 6.80967,-3.5568 12.52838,-13.38343 12.09206,-20.77812 -0.18664,-3.16325 -1.01369,-4.95165 -3.38784,-7.3258 -6.79699,-6.79699 -14.78001,-8.26782 -21.97821,-4.0494 -2.31341,1.35575 -4.47957,2.19163 -4.81369,1.8575 -1.19837,-1.19837 -3.57587,1.92068 -5.20672,6.83073 -1.16826,3.5173 -1.46791,6.533 -1.01081,10.17304 0.55057,4.38441 1.40359,5.98845 5.59118,10.51382 l 4.94148,5.34008 5.50803,-0.56104 c 3.02942,-0.30858 6.74846,-1.20894 8.26452,-2.00081 z m -17.03548,-12.6268 c -0.40379,-1.54411 0.0325,-2.33824 1.61965,-2.94799 2.5902,-0.9951 3.99311,0.0454 3.50588,2.60026 -0.51872,2.72 -4.43567,2.98574 -5.12553,0.34773 z m -27.70803,83.63093 c 0,-1.81806 1.88092,-3.30346 5.25559,-4.15045 2.35563,-0.59123 2.74877,-1.20468 2.77517,-4.3304 0.0552,-6.53671 0.95928,-17.31647 1.5297,-18.23941 0.30666,-0.4962 1.48348,-0.90218 2.61513,-0.90218 1.72839,0 1.95828,0.43996 1.43701,2.75 -0.34131,1.5125 -0.9079,6.00162 -1.25909,9.97582 -0.72318,8.18378 0.21585,10.27418 4.6153,10.27418 3.57372,0 9.03119,2.76357 9.03119,4.57324 0,1.83737 -2.94829,1.78045 -5.44113,-0.10504 -2.50194,-1.89238 -12.22765,-1.8725 -15.55887,0.0318 -3.19361,1.82563 -5,1.86987 -5,0.12244 z m 4.72488,-33.62863 c -3.44301,-1.03507 -6.1683,-4.21878 -8.32517,-9.72555 -2.32175,-5.92771 -0.72951,-9.46436 5.99823,-13.32314 6.73558,-3.86328 14.81527,-4.09776 20.37193,-0.59121 2.05157,1.29465 4.74158,2.67464 5.97781,3.06665 4.46939,1.41725 4.15935,10.41347 -0.51013,14.80188 -6.48199,6.09182 -15.27083,8.24911 -23.51267,5.77137 z m 18.70369,-12.56524 c 2.80073,-2.80073 1.57764,-4.79184 -3.86215,-6.28733 -6.46208,-1.77653 -9.27333,2.71724 -3.81642,6.10053 3.45277,2.14073 5.67069,2.19468 7.67857,0.1868 z m -20.80274,-35.96127 c -1.07683,-2.80616 -0.7062,-3.4673 1.94372,-3.4673 2.08969,0 2.50988,0.41827 2.25,2.23978 -0.38201,2.6776 -3.30856,3.53421 -4.19372,1.22752 z"
       id="path4771"
       inkscape:connector-curvature="0" />
  </g>
</svg>
