<?xml version="1.0" encoding="UTF-8" standalone="no"?>
<!-- Created with Inkscape (http://www.inkscape.org/) -->

<svg
   xmlns:dc="http://purl.org/dc/elements/1.1/"
   xmlns:cc="http://creativecommons.org/ns#"
   xmlns:rdf="http://www.w3.org/1999/02/22-rdf-syntax-ns#"
   xmlns:svg="http://www.w3.org/2000/svg"
   xmlns="http://www.w3.org/2000/svg"
   xmlns:sodipodi="http://sodipodi.sourceforge.net/DTD/sodipodi-0.dtd"
   xmlns:inkscape="http://www.inkscape.org/namespaces/inkscape"
   width="210mm"
   height="297mm"
   viewBox="0 0 744.09448819 1052.3622047"
   id="svg4191"
   version="1.1"
   inkscape:version="0.91 r13725"
   sodipodi:docname="zaznacza_teren.svg">
  <defs
     id="defs4193" />
  <sodipodi:namedview
     id="base"
     pagecolor="#ffffff"
     bordercolor="#666666"
     borderopacity="1.0"
     inkscape:pageopacity="0.0"
     inkscape:pageshadow="2"
     inkscape:zoom="0.49497475"
     inkscape:cx="651.74621"
     inkscape:cy="587.56153"
     inkscape:document-units="px"
     inkscape:current-layer="layer1"
     showgrid="false"
     inkscape:window-width="1304"
     inkscape:window-height="745"
     inkscape:window-x="54"
     inkscape:window-y="-8"
     inkscape:window-maximized="1" />
  <metadata
     id="metadata4196">
    <rdf:RDF>
      <cc:Work
         rdf:about="">
        <dc:format>image/svg+xml</dc:format>
        <dc:type
           rdf:resource="http://purl.org/dc/dcmitype/StillImage" />
        <dc:title></dc:title>
      </cc:Work>
    </rdf:RDF>
  </metadata>
  <g
     inkscape:label="Layer 1"
     inkscape:groupmode="layer"
     id="layer1">
    <path
       style="fill:#000000"
       d="m 476.40155,428.30644 c -6.54047,-0.98517 -9.56366,-3.06873 -8.96868,-6.18116 0.3756,-1.96481 -0.0353,-2.5543 -2.15075,-3.08523 -2.72437,-0.68377 -9.19076,-0.1937 -18.56787,1.40721 -6.35347,1.0847 -13.96273,0.5608 -22.5,-1.54912 -10.74699,-2.65604 -15.68568,-11.14483 -10.39619,-17.86933 1.1571,-1.47101 5.17362,-4.22049 8.9256,-6.10996 3.75198,-1.88947 7.07454,-3.84437 7.38348,-4.34424 0.30893,-0.49986 -0.75006,-1.45218 -2.35331,-2.11627 -1.60324,-0.66409 -3.7127,-2.08889 -4.68767,-3.16622 -1.698,-1.87626 -1.69441,-2.10415 0.0852,-5.40863 l 1.85783,-3.44983 7.59253,-0.0201 c 7.11598,-0.0188 15.30821,-0.92847 22.84253,-2.53633 2.79413,-0.59627 3.25,-0.41958 3.25,1.25969 0,2.56893 -6.75529,4.15793 -21.18685,4.98364 -11.46295,0.65587 -14.36264,2.12717 -8.4959,4.31083 7.02578,2.61507 7.68275,3.03085 7.68275,4.86215 0,2.28067 -5.11459,6.35862 -11.94272,9.52214 -6.09863,2.82553 -8.00834,4.35908 -9.14222,7.34141 -2.70169,7.10598 15.9375,12.89058 32.08494,9.95743 2.475,-0.44958 8.12834,-1.06371 12.56299,-1.36472 9.12454,-0.61936 11.43701,0.52977 11.43701,5.68334 0,2.71181 0.27817,2.89137 5.48742,3.54222 6.37355,0.79633 9.05776,0.37549 22.84393,-3.58152 17.2612,-4.95444 24.62943,-8.11377 25.3413,-10.86576 0.71605,-2.76813 -2.06625,-5.47733 -4.87617,-4.74807 -2.31168,0.59995 -5.31403,-1.69992 -4.31961,-3.30892 1.33295,-2.15675 8.68087,-0.55536 11.27157,2.45651 4.23475,4.92319 2.24085,10.21472 -5.01144,13.29971 -4.08909,1.73942 -19.69893,6.94707 -24.26639,8.09558 -2.18384,0.54914 -5.99561,1.5137 -8.47061,2.14347 -6.18514,1.57382 -7.77533,1.67416 -13.3127,0.84009 z m -155.51734,-29.589 c -1.28152,-0.24412 -4.03336,-2.14718 -6.11519,-4.22901 -2.90499,-2.90499 -4.17031,-3.56961 -5.44152,-2.85821 -3.05826,1.71149 -7.93309,0.51428 -9.52734,-2.33983 -1.27274,-2.27852 -1.28708,-3.21713 -0.10397,-6.80201 0.75488,-2.28731 2.90423,-5.50361 4.77632,-7.14734 3.14781,-2.76381 3.35544,-3.30517 2.76055,-7.19798 -0.957,-6.26244 -4.46445,-14.64168 -8.20568,-19.6032 -4.13735,-5.48687 -4.46004,-8.75853 -0.62325,-6.31903 3.41621,2.1721 9.99684,15.87324 12.23431,25.47237 0.93328,4.0039 0.85034,5.15494 -0.5224,7.25 -0.8975,1.36975 -2.15803,2.49046 -2.80119,2.49046 -1.53508,0 -4.6006,5.24343 -4.6006,7.86911 0,1.13329 0.87907,2.53099 1.95348,3.106 1.59494,0.85358 2.5887,0.48774 5.41432,-1.99318 l 3.46083,-3.03865 0.66585,3.0316 c 1.74508,7.94528 11.92279,12.10813 13.65404,5.58473 0.42919,-1.61721 0.37804,-3.42514 -0.11367,-4.01762 -1.32132,-1.5921 2.3104,-6.00722 4.31011,-5.23986 2.02208,0.77595 7.65504,-3.82765 7.65504,-6.25616 0,-2.78435 -3.89373,-7.04597 -6.43772,-7.04597 -1.26091,0 -3.51107,0.95848 -5.00035,2.12995 -4.28338,3.36931 -6.54453,1.41521 -10.39938,-8.98719 -4.19443,-11.31878 -6.069,-21.96451 -4.08371,-23.19149 2.0379,-1.25949 2.67837,-0.11868 3.39587,6.04873 1.00706,8.65645 0.84501,8.46611 7.49767,8.80645 5.12034,0.26195 12.15205,-0.62681 26.52762,-3.35293 3.70049,-0.70174 20.2685,-7.25387 23,-9.09577 1.1,-0.74176 6.55685,-4.38819 12.12633,-8.1032 12.78377,-8.52714 17.99717,-12.78768 27.37367,-22.37057 7.44939,-7.61337 15,-16.27711 15,-17.21135 0,-0.26828 2.025,-4.8216 4.5,-10.11849 2.475,-5.29689 4.49875,-10.17598 4.49722,-10.84242 -0.002,-0.66645 0.86569,-3.01172 1.92714,-5.21172 1.06145,-2.2 2.40878,-5.83913 2.99407,-8.08695 0.58528,-2.24782 1.96807,-5.12917 3.07286,-6.40301 1.10479,-1.27383 2.00871,-2.47614 2.00871,-2.67179 0,-0.19564 -2.53552,-0.0577 -5.6345,0.3065 -8.48713,0.9975 -6.60403,-1.66559 2.71141,-3.83447 9.34427,-2.1756 16.15967,-2.25642 20.06301,-0.23793 1.67233,0.8648 3.59477,1.3597 4.2721,1.09978 0.67733,-0.25991 1.79245,0.42563 2.47804,1.52344 1.03529,1.65776 0.95737,2.31554 -0.45978,3.88146 -3.84067,4.2439 4.50879,6.9839 8.65305,2.83964 1.14584,-1.14584 2.33686,-1.82982 2.64671,-1.51996 0.30986,0.30985 1.62101,-1.71942 2.91368,-4.50951 2.08625,-4.50297 4.51586,-6.54724 7.03869,-5.92237 0.9106,0.22555 2.23109,-3.18175 1.63344,-4.21483 -0.23864,-0.4125 -1.72052,-0.75 -3.29308,-0.75 -4.17215,0 -5.86157,-0.90043 -5.3512,-2.85209 0.64573,-2.46926 -3.18705,-6.88258 -6.63489,-7.63985 -2.40719,-0.52871 -3.57638,-0.0654 -6.46202,2.56043 -1.9377,1.76327 -3.27095,3.6139 -2.96278,4.11253 1.30738,2.11538 -1.86211,3.52312 -8.35845,3.71243 -12.02918,0.35053 -25.25343,-5.32895 -25.25343,-10.8457 0,-2.6727 0.29386,-2.60665 4.38544,0.98581 2.05874,1.80759 3.71319,2.61587 4.09382,2 0.35132,-0.56846 0.17634,-1.03356 -0.38886,-1.03356 -0.5652,0 -0.81127,-0.56382 -0.54683,-1.25294 0.26444,-0.68912 -1.21422,-3.83068 -3.28592,-6.98126 -4.31632,-6.56418 -16.89219,-20.7658 -18.38859,-20.7658 -0.55138,0 -2.49437,-1.13791 -4.31777,-2.52868 -5.72688,-4.3681 -15.36576,-8.45318 -22.24389,-9.42724 -7.49269,-1.0611 -10.39391,-3.35072 -4.87667,-3.84865 3.09871,-0.27965 3.51524,-0.72954 5.09222,-5.5 2.31013,-6.98831 3.00607,-19.83018 1.47447,-27.20787 -1.11699,-5.38049 -1.85884,-6.55704 -7.59382,-12.04355 -3.49574,-3.34429 -7.60413,-6.71566 -9.12975,-7.49194 -1.52562,-0.77628 -4.16633,-2.43307 -5.86824,-3.68175 -1.70192,-1.24868 -3.55932,-2.27032 -4.12756,-2.27032 -0.56824,0 -1.58925,-0.67005 -2.26891,-1.48899 -0.67967,-0.81895 -1.59633,-1.26614 -2.03704,-0.99377 -0.4407,0.27237 -1.00311,-0.0701 -1.24979,-0.76101 -0.24667,-0.69093 -0.7842,-0.94464 -1.1945,-0.56381 -0.41029,0.38084 0.14504,1.95584 1.23408,3.5 4.77463,6.77004 9.43224,17.68417 12.29363,28.80758 2.67081,10.38254 2.99572,13.00571 2.41055,19.46142 -0.37198,4.10378 -1.09628,8.56596 -1.60955,9.91596 -1.03794,2.73 -4.53738,6.12262 -6.3154,6.12262 -0.63407,0 -4.52478,2.1375 -8.64603,4.75 -4.12125,2.6125 -8.37111,5.29872 -9.44413,5.96937 -12.54288,7.83946 -36.84306,12.54538 -51.45096,9.96389 l -4.5,-0.79523 2.5,2.09272 c 7.25784,6.07546 24.15804,11.46121 27.0113,8.60795 0.76264,-0.76264 1.34384,-0.64154 2.01408,0.41966 1.35856,2.15102 0.71218,3.28421 -2.33877,4.10016 -8.03813,2.14973 -23.15879,-4.54238 -35.18661,-15.57291 -3.3,-3.02638 -6.32876,-5.50996 -6.73058,-5.51906 -0.40182,-0.009 -3.32682,-1.69596 -6.5,-3.74858 -6.00792,-3.88631 -8.75096,-5.08859 -18.76942,-8.22666 -10.82583,-3.39097 -17.59367,-4.32362 -26.45334,-3.64545 -7.31432,0.55988 -9.70633,1.26476 -17.75235,5.23128 -6.80167,3.35308 -10.50688,5.92767 -13.79665,9.58669 -2.47371,2.75136 -4.49766,5.40381 -4.49766,5.89432 0,0.49052 -0.60038,0.89185 -1.33417,0.89185 -0.7338,0 -3.18861,3.9375 -5.45514,8.75 -7.449,15.81637 -10.22901,25.65271 -10.18845,36.04922 0.0217,5.55382 0.0668,5.64614 1.75,3.58105 2.6728,-3.27916 5.19761,-4.2493 8.55381,-3.28676 3.76551,1.07993 7.67395,4.68628 7.67395,7.0808 0,2.31023 -1.49482,2.34552 -3.20547,0.0757 -3.10019,-4.11358 -8.79453,-4.60374 -8.79453,-0.75702 0,0.76648 -0.94434,2.05504 -2.09853,2.86347 -1.72635,1.20918 -1.96996,2.06166 -1.37361,4.8067 1.01903,4.69064 5.375,10.50589 9.28105,12.39028 2.1208,1.02313 3.19386,2.19365 2.98851,3.25995 -0.54616,2.83601 -3.43938,2.43987 -7.36708,-1.0087 -2.3127,-2.03058 -3.91733,-2.84371 -4.16219,-2.10915 -1.12695,3.38088 -8.92409,11.34975 -12.50839,12.78391 -3.87938,1.55222 -4.05963,1.52921 -7.28379,-0.92998 -3.35774,-2.56108 -6.58136,-9.81334 -7.10029,-15.9737 -0.13547,-1.60832 -0.50026,-3.936 -0.81063,-5.17261 -1.74785,-6.96401 8.48442,-33.46994 17.5273,-45.40316 4.66654,-6.15809 12.56194,-13 15.00168,-13 0.90197,0 2.39055,-1.74821 3.40597,-4 0.99206,-2.2 2.4104,-4 3.15187,-4 0.74147,0 1.34813,-0.47694 1.34813,-1.05986 0,-1.48108 10.03312,-11.94014 11.45389,-11.94014 0.64007,0 3.83261,-1.6071 7.09454,-3.57132 12.39808,-7.46574 29.64718,-7.40854 50.4835,0.16741 4.10744,1.49344 8.14307,3.26784 8.96807,3.94312 0.825,0.67527 3.525,2.24396 6,3.48598 2.475,1.24202 7.0875,4.24575 10.25,6.67496 3.79124,2.91217 5.75,3.90841 5.75,2.92452 0,-1.07265 0.75353,-1.35559 2.67993,-1.00626 1.47396,0.26727 3.04844,0.71372 3.49885,0.99208 1.80363,1.1147 20.14842,0.3591 26.52536,-1.09255 11.44005,-2.60421 22.45706,-7.49276 30.79586,-13.66497 2.75,-2.0355 7.23164,-4.57504 9.95921,-5.64344 3.88496,-1.52174 5.12661,-2.56715 5.73199,-4.82603 1.35537,-5.05736 0.99599,-16.68612 -0.7072,-22.8835 -0.90692,-3.3 -1.82568,-6.9 -2.04169,-8 -0.73341,-3.73473 -5.26925,-14.44823 -7.36039,-17.38496 -1.14506,-1.60808 -2.08192,-3.41682 -2.08192,-4.01941 0,-0.6026 -0.3375,-1.09871 -0.75,-1.10246 -0.81367,-0.007 -5.25,-6.18029 -5.25,-7.30505 0,-0.37847 0.675,-0.68812 1.5,-0.68812 0.825,0 1.5,-0.39752 1.5,-0.88337 0,-0.48585 0.8377,-1.10243 1.86156,-1.37018 1.16656,-0.30506 4.80668,1.50501 9.75,4.84824 4.33864,2.93428 8.3812,5.35086 8.98346,5.37018 2.02483,0.0649 15.87696,13.02395 18.29101,17.11166 2.19144,3.71077 2.38002,5.06022 2.26878,16.23531 -0.0924,9.28404 -0.57617,13.42506 -2.03031,17.37925 -2.07105,5.63174 -1.91994,6.30891 1.40781,6.30891 2.55575,0 15.15152,6.06515 20.96769,10.09642 12.05051,8.35238 27.39251,28.45436 26.25562,34.40163 -0.38807,2.03006 0.0572,2.60636 2.63877,3.41527 5.20634,1.63135 16.13699,1.75549 15.15843,0.17215 -0.86998,-1.40766 7.23871,-9.07059 9.73582,-9.20062 6.44042,-0.33538 10.76067,1.89831 13.08047,6.763 0.87919,1.84368 2.16831,3.35829 2.86471,3.3658 0.6964,0.008 2.20981,0.26699 3.36313,0.57661 1.6718,0.44882 2.3743,-0.1115 3.46492,-2.76365 1.56538,-3.80665 6.26909,-11.04482 8.16133,-12.55881 0.70224,-0.56187 4.41238,-2.3909 8.24476,-4.06452 5.90457,-2.57856 7.13741,-3.55117 8.07829,-6.37311 0.85913,-2.57678 2.01201,-3.64804 5.09605,-4.73526 5.57519,-1.96542 8.51918,-0.93158 11.26639,3.95641 1.59884,2.84476 3.59,4.67254 6.45191,5.92253 5.72038,2.49847 11.91804,8.11138 15.2038,13.7693 1.51936,2.61627 3.05197,4.98185 3.40581,5.25685 1.29479,1.0063 3.20355,6.90983 2.56709,7.93964 -1.10791,1.79265 -2.5397,1.18425 -3.56607,-1.5153 -1.31281,-3.45297 -6.54073,-11.14994 -10.3662,-15.26197 -4.69395,-5.04557 -13.60503,-9.10646 -13.60503,-6.19997 0,0.87988 -10.59777,0.49079 -13.75,-0.50482 -0.6875,-0.21715 -1.25,0.0892 -1.25,0.68079 0,0.60366 -0.74977,0.7879 -1.70878,0.41989 -2.67,-1.02458 -10.18217,1.63557 -13.95534,4.94174 -1.90947,1.67314 -5.14183,6.53831 -7.30828,11 l -3.88453,8 8.67846,1.72725 c 14.0742,2.80115 30.80338,3.28737 44.17847,1.28401 16.51856,-2.47419 22.98048,-2.93078 24.20124,-1.71002 0.57881,0.57881 1.64217,4.7358 2.36301,9.23776 1.67322,10.44993 0.55957,14.6507 -4.56144,17.20613 -2.85955,1.42695 -3.71948,2.61208 -4.71639,6.5 -1.52641,5.95292 -4.28642,30.58758 -4.28642,38.25868 0,5.63573 0.0601,5.7582 3.125,6.37119 8.4462,1.68924 8.72506,1.27134 8.75566,-13.12115 l 0.0197,-9.24615 -3.95016,-0.63166 c -4.1545,-0.66433 -4.47013,-1.00634 -3.02919,-3.28241 0.74904,-1.18316 1.61653,-1.20306 5.46569,-0.12536 6.25426,1.75108 6.67099,2.49313 5.65988,10.07807 -0.47317,3.54951 -0.71738,8.02866 -0.5427,9.95366 0.17468,1.925 -0.12521,5.2456 -0.66643,7.37912 l -0.98404,3.87912 -7.03237,-0.50316 -7.03237,-0.50316 0.69002,7.62404 c 0.60202,6.65172 1.81776,15.95264 4.18385,32.00801 0.45288,3.07302 1.1957,4.52769 2.48411,4.86462 1.82852,0.47817 3.10967,3.96781 4.16221,11.33723 0.61888,4.33309 -0.74982,7.26572 -2.29351,4.91418 -0.54158,-0.825 -1.02908,-1.95 -1.08333,-2.5 -0.28118,-2.85034 -0.68023,-5.3035 -1.31658,-8.09353 l -0.70558,-3.09353 -5.20491,0.8354 c -2.8627,0.45947 -8.77843,1.09066 -13.14607,1.40265 -4.36763,0.31199 -8.29973,0.78887 -8.73798,1.05973 -0.43826,0.27085 -8.33974,0.50083 -17.55885,0.51106 -16.33304,0.0181 -19.78445,-0.36557 -33.26201,-3.69773 -3.575,-0.88387 -8.28962,-1.67837 -10.47692,-1.76555 -3.77221,-0.15034 -4.0909,0.0731 -6.19098,4.3415 -1.21773,2.475 -2.24061,5.0009 -2.27307,5.61311 -0.0325,0.61221 2.47381,1.90979 5.5695,2.8835 3.5252,1.10881 5.8,2.42608 6.08738,3.52504 1.2408,4.74483 40.96167,6.62577 62.6405,2.96627 6.52103,-1.10078 12.25541,-2.24801 12.74307,-2.5494 1.64914,-1.01922 10.86466,-3.14104 11.3845,-2.62121 0.28381,0.28381 0.51602,1.30875 0.51602,2.27764 0,1.34057 -1.37433,2.04475 -5.75,2.94621 -3.1625,0.65153 -7.22414,1.62254 -9.02586,2.15781 -8.57196,2.54659 -29.86002,4.29476 -44.22414,3.63166 -7.975,-0.36815 -15.85,-0.9388 -17.5,-1.26812 -10.76074,-2.14766 -13.27309,-2.8109 -17.15902,-4.52983 -2.38758,-1.05612 -4.34102,-2.3652 -4.34102,-2.90906 0,-0.54387 -0.87698,-1.26719 -1.94885,-1.60738 -3.01054,-0.95552 -3.30651,-3.79226 -1.00692,-9.65103 2.1476,-5.47154 5.43868,-9.86521 7.38954,-9.86521 0.59682,0 1.6673,-0.93219 2.37883,-2.07153 1.78618,-2.86013 5.85343,-17.19753 7.08771,-24.98477 0.56173,-3.54404 1.54321,-9.8187 2.18107,-13.9437 0.63787,-4.125 1.33099,-8.4 1.54028,-9.5 0.51044,-2.68285 0.6672,-17.54447 0.19009,-18.02158 -0.20782,-0.20783 -1.93799,-0.56533 -3.84481,-0.79444 -1.90682,-0.22912 -4.23289,-0.74162 -5.16905,-1.13889 -3.94628,-1.67466 -6.63772,3.72069 -7.13969,14.31243 l -0.38066,8.03198 6.86123,2.08403 c 5.45635,1.65732 6.86123,2.48766 6.86123,4.05525 0,1.9803 -2.40613,2.74114 -3.42994,1.08458 -0.48137,-0.77887 -2.99975,-1.48287 -9.99158,-2.79308 -3.69918,-0.6932 -4.57848,-2.37863 -4.57848,-8.77594 0,-8.99558 1.87747,-17.12008 4.64674,-20.10817 2.12704,-2.29512 2.8537,-2.48621 7.11119,-1.87011 2.60814,0.37743 5.28486,1.1182 5.94827,1.64617 2.54473,2.02522 2.88748,-0.4956 1.60099,-11.77479 -1.20931,-10.60247 -1.56932,-11.85579 -3.9415,-13.72175 -2.41018,-1.89585 -2.56713,-2.48204 -2.04415,-7.6346 l 0.56648,-5.58109 -2.69401,3.25901 c -2.15336,2.60499 -3.43224,3.25721 -6.37258,3.25 -5.30796,-0.013 -9.88665,-5.15012 -7.89956,-8.86302 1.4874,-2.77924 -2.63793,-4.53113 -10.49578,-4.45721 -6.59298,0.062 -8.86522,0.80376 -6.65219,2.17148 0.90731,0.56075 0.60371,2.00656 -1.19603,5.69563 -1.32661,2.71926 -3.3094,7.41911 -4.40621,10.44411 -6.18986,17.07163 -12.1172,29.74447 -15.56722,33.28321 -0.65246,0.66923 -1.91238,2.26803 -2.79982,3.55289 -0.88744,1.28485 -4.52938,5.33485 -8.09321,9 -17.31965,17.81207 -37.4222,31.62788 -56.42987,38.78235 -7.64954,2.87928 -26.55965,6.38155 -34.45643,6.38155 -3.20381,0 -5.82511,0.32246 -5.82511,0.71657 0,0.39411 0.75176,2.68501 1.67057,5.09088 1.5842,4.14818 1.82976,4.33895 4.75,3.69003 8.60628,-1.91245 10.21844,-1.77186 12.46739,1.08722 3.13928,3.99095 3.62435,7.11777 1.72278,11.1054 -1.13255,2.37499 -2.91754,4.00757 -5.62472,5.14448 -3.36271,1.4122 -3.96779,2.12156 -3.97959,4.66542 -0.008,1.65 -0.90561,4.4625 -1.99547,6.25 -1.9882,3.26089 -3.20036,3.60828 -8.841,2.53378 z m 228.83004,-26.36207 c 11.64744,-1.17233 15.14951,-1.87078 14.51641,-2.89516 -0.29654,-0.47981 -0.78015,-3.04457 -1.07469,-5.69947 -0.29454,-2.65489 -0.71469,-5.50208 -0.93367,-6.32708 -0.21898,-0.825 -1.15437,-8.25 -2.07866,-16.5 -1.51786,-13.54819 -1.53664,-34.87809 -0.0379,-43.02501 0.19983,-1.08625 0.69048,-5.99162 1.09033,-10.90084 0.44223,-5.42955 1.27365,-9.4725 2.12258,-10.32142 1.59237,-1.59237 1.83552,-3.25273 0.47635,-3.25273 -0.50558,0 -3.75124,0.72553 -7.21257,1.61228 -5.05662,1.29544 -9.4449,1.50119 -22.33077,1.04696 -15.41773,-0.54347 -29.69221,-1.77182 -37.94803,-3.26552 l -3.9106,-0.70753 0.89982,10.40691 c 1.53803,17.78807 1.04842,37.12836 -1.27608,50.4069 -2.82111,16.11539 -4.84143,24.73712 -7.24377,30.91284 -0.62464,1.60576 -0.75057,3.29536 -0.28065,3.76528 0.46885,0.46885 3.97307,1.51609 7.78716,2.3272 3.8141,0.81111 8.28472,1.87947 9.93472,2.37413 3.80966,1.14211 36.28556,1.17101 47.5,0.0423 z m -29,-23.85661 c 0,-7.1142 0.45277,-14.12577 1.00615,-15.58128 1.21229,-3.18857 3.57074,-2.74773 3.30299,0.61739 -0.10498,1.31933 -0.47121,7.12379 -0.81386,12.89879 -0.72998,12.30326 -1.18201,15 -2.51433,15 -0.59071,0 -0.98095,-5.14578 -0.98095,-12.9349 z m -22.66713,9.35996 c -0.35915,-0.93594 0.0899,-4.00196 0.99782,-6.81338 2.52547,-7.81994 4.6676,-17.08239 4.68462,-20.25602 0.0203,-3.78001 1.26122,-5.57051 3.31464,-4.78254 1.91191,0.73367 2.0266,1.42743 0.76541,4.62983 -0.49755,1.26338 -1.44656,4.99705 -2.10892,8.29705 -1.72874,8.61301 -4.99128,19.38496 -6.07384,20.05402 -0.5097,0.31501 -1.22058,-0.19302 -1.57973,-1.12896 z m 42.8003,-6.17506 c -2.16254,-8.59136 -3.1717,-23.54481 -1.68902,-25.02748 1.33457,-1.33457 2.35782,2.24238 3.05047,10.66345 0.38968,4.73771 1.35191,10.16524 2.13829,12.06116 1.58857,3.82999 1.1982,6.05287 -1.06298,6.05287 -0.89059,0 -1.87364,-1.51286 -2.43676,-3.75 z m -24.77204,-27.28049 c -6.32856,-2.49549 -8.37088,-6.00367 -7.93108,-13.62357 0.30092,-5.21349 3.65603,-12.51264 7.04399,-15.32439 1.89424,-1.57209 12.25161,-1.47964 17.72625,0.15822 2.03516,0.60886 4.93933,2.4003 6.45371,3.98097 2.27159,2.37103 2.8206,3.96462 3.13732,9.10661 0.32491,5.27509 0.0248,6.75701 -1.95372,9.64566 -4.7653,6.95757 -15.47249,9.60697 -24.47647,6.0565 z m 17.30427,-4.61502 c 3.83393,-1.81932 5.3346,-4.62375 5.3346,-9.96925 0,-8.17954 -6.09075,-12.51709 -16.9863,-12.09685 -4.59636,0.17728 -5.54865,0.53533 -5.87063,2.20723 -0.21138,1.0976 -1.23004,3.07078 -2.2637,4.38486 -3.85954,4.90662 -1.94413,12.95414 3.8286,16.08568 4.34548,2.3573 10.17138,2.13399 15.95743,-0.61167 z m -24.36651,-24.04111 c -0.37784,-0.99736 -1.31175,-2.44512 -2.07536,-3.21724 -1.47265,-1.48906 -0.9147,-7.72379 0.85429,-9.54614 1.58266,-1.6304 2.64557,0.63353 3.34102,7.11616 0.65474,6.10316 -0.6403,9.55295 -2.11995,5.64722 z m 29.04726,-0.11775 c -0.74523,-0.47303 -0.83785,-2.57774 -0.28943,-6.57723 0.86518,-6.30969 2.23724,-8.72444 3.9717,-6.98998 0.70456,0.70456 0.56756,3.00394 -0.43504,7.3017 -1.64905,7.06887 -1.73136,7.22769 -3.24723,6.26551 z m -11.92277,-6.44563 c 0.78413,-4.90806 1.55856,-5.99723 3.43822,-4.83553 1.0315,0.6375 1.08781,1.31154 0.24165,2.89261 -0.60679,1.13379 -1.10325,2.99102 -1.10325,4.12718 0,1.24163 -0.6494,2.06574 -1.62781,2.06574 -1.35491,0 -1.51397,-0.7125 -0.94881,-4.25 z m -352.04451,-0.39218 c 2.51713,-2.5532 4.87228,-5.5907 5.23365,-6.75 0.36137,-1.1593 1.12996,-2.41102 1.70796,-2.7816 0.71578,-0.45892 0.65898,-1.14605 -0.1781,-2.15466 -2.52345,-3.04057 -5.19342,-15.0477 -5.04137,-22.67156 0.20494,-10.27589 6.0485,-29.05801 10.65598,-34.25 2.87078,-3.23498 0.36148,-1.78727 -3.46659,2 -8.18182,8.09462 -15.51568,20.08196 -20.03646,32.75 -2.9431,8.2471 -3.58732,11.94017 -3.40159,19.5 0.18553,7.55156 1.58196,12.47598 4.04003,14.2469 0.95663,0.6892 2.03307,2.0406 2.39209,3.0031 1.05394,2.82554 3.22072,2.05133 8.0944,-2.89218 z m 388.87113,-18.89422 c 4.27458,-1.03178 7.75,-2.40408 7.75,-3.06014 0,-0.65422 0.72034,-1.4659 1.60076,-1.80375 1.35727,-0.52083 1.49403,-1.71597 0.89911,-7.85699 -0.38591,-3.9835 -1.01363,-7.57759 -1.39493,-7.98689 -1.0881,-1.16797 -4.85509,-0.98503 -15.10494,0.73357 -21.21856,3.55772 -27.05646,3.47571 -55.62765,-0.78146 -9.96229,-1.4844 -11.46466,-1.09701 -12.76722,3.29206 -1.27048,4.28099 -1.82682,9.98058 -1.21294,12.42647 0.71721,2.85758 3.57887,3.52867 27.60781,6.47435 12.42652,1.52335 39.30105,0.72284 48.25,-1.43722 z M 536.14161,214.5512 c 0.29996,-0.48536 -0.34808,-2.01833 -1.44011,-3.40661 -1.43426,-1.82338 -2.6104,-2.37117 -4.23637,-1.97311 -3.19808,0.78293 -4.75088,2.21602 -4.75088,4.38462 0,1.58341 0.77408,1.87756 4.94098,1.87756 2.71754,0 5.18641,-0.39711 5.48638,-0.88246 z M 246.05767,394.25485 c -2.56642,-1.24174 -5.76361,-8.98473 -5.00114,-12.1118 0.42563,-1.7456 -0.12017,-2.52427 -2.60005,-3.70939 -1.86718,-0.89232 -3.51289,-2.66081 -4.06227,-4.36533 -0.80847,-2.5084 -0.56594,-3.15046 1.94694,-5.15416 1.57876,-1.25886 4.94267,-2.56371 7.47536,-2.89969 l 4.6049,-0.61086 3.39642,-8.08349 c 3.16507,-7.53288 5.09642,-10.0198 6.60772,-8.5085 0.34378,0.34377 0.16053,1.63687 -0.4072,2.87354 -0.56774,1.23667 -1.99342,4.32278 -3.16818,6.85802 -1.17475,2.53524 -2.13592,5.82603 -2.13592,7.31286 0,1.99402 -0.45917,2.64403 -1.75,2.47733 -2.49726,-0.32249 -9.52222,1.18028 -11,2.35311 -3.65516,2.9009 0.31589,7.18399 5.66814,6.11354 3.33191,-0.66638 4.55873,1.43359 1.33186,2.27978 -1.22905,0.32229 -1.83205,1.63992 -2.02562,4.42621 -0.21641,3.11517 0.25711,4.50004 2.20455,6.44748 1.36409,1.36409 2.91609,2.48016 3.44889,2.48016 1.89782,0 6.91477,-5.03749 7.55418,-7.5851 0.62536,-2.49162 0.74326,-2.53008 3.07397,-1.00295 2.81369,1.8436 4.11083,1.97535 5.78624,0.5877 0.66428,-0.55019 2.33279,-1.87291 3.70779,-2.93937 2.38073,-1.84651 2.42683,-2.0731 0.96625,-4.74965 -0.90395,-1.65652 -2.95707,-3.2742 -5,-3.93958 -1.90644,-0.62092 -3.61702,-1.88582 -3.8013,-2.81088 -0.45481,-2.28312 2.32784,-7.9129 5.95049,-12.03887 l 2.98311,-3.39757 -10.05842,-5.05509 c -12.37552,-6.21961 -16.72212,-8.93444 -22.07957,-13.79059 -7.3439,-6.65673 -12.68343,-14.02025 -15.58718,-21.49561 -1.55585,-4.00534 -3.3692,-7.84494 -4.02967,-8.53244 -1.31427,-1.36806 -3.61641,-1.64396 -4.69741,-0.56296 -0.83019,0.83019 -3.48554,1.19637 -10.23298,1.41116 -11.58572,0.36882 -15.33311,-7.42302 -9.49999,-19.75305 3.26973,-6.91157 3.96711,-7.30565 13.987,-7.90413 6.56049,-0.39185 7.04765,-0.26114 11.39314,3.05689 7.00487,5.34862 8.20927,12.9188 2.98682,18.77348 -1.77076,1.98512 -1.72424,1.9919 8.68771,1.26661 14.30185,-0.99626 19.20917,-2.99836 27.77504,-11.33172 3.79137,-3.68845 8.08301,-8.27597 9.53697,-10.19448 2.05661,-2.7137 2.91012,-3.22167 3.84398,-2.28781 1.65002,1.65002 -2.07872,6.8694 -11.12832,15.57707 -9.43109,9.07476 -13.49048,10.76283 -29.49567,12.26557 -3.85,0.36149 -7.16311,0.80748 -7.36247,0.99111 -0.80058,0.73741 2.89886,9.6348 5.69712,13.70193 4.28147,6.22291 13.02407,14.53048 19.27535,18.31622 10.80166,6.54141 22.95806,12.32471 31.50652,14.98894 8.69133,2.70875 10.36619,3.0631 15.63348,3.30755 1.60738,0.0746 2.75,0.69999 2.75,1.50518 0,1.77441 -2.45891,3.8302 -3.42534,2.86376 -0.40773,-0.40772 -1.04133,-0.76791 -1.40799,-0.80041 -2.72375,-0.24141 -10.49317,-1.84633 -14.49248,-2.99367 -5.17468,-1.48455 -5.37074,-1.42012 -10.16997,3.3426 -1.26907,1.25941 -2.60898,3.49141 -2.97757,4.96001 -0.54023,2.15244 -0.1661,3.03736 1.92959,4.56396 3.45506,2.51684 5.85075,7.32691 5.11308,10.26604 -0.76246,3.03785 -7.1955,7.42015 -10.89249,7.42015 -1.8218,0 -4.34222,1.26967 -6.94786,3.5 -4.21823,3.61065 -7.38583,4.25643 -11.38555,2.32119 z M 222.67888,289.76147 c 0.96484,-0.87992 -1.77919,-3.86606 -4.41547,-4.80505 -2.24415,-0.79933 -2.99321,-0.63597 -4.11438,0.89732 -1.58998,2.17443 -1.0855,3.37866 1.91755,4.57729 1.93871,0.77381 5.41568,0.42174 6.6123,-0.66956 z m 241.24537,85.84475 c -0.54211,-1.55509 -2.16113,-4.0958 -3.59783,-5.64602 -3.18199,-3.43343 -3.31683,-4.76924 -0.43871,-4.34609 2.58489,0.38004 9.21767,9.35791 8.43,11.41053 -0.90677,2.36301 -3.35025,1.57414 -4.39346,-1.41842 z m -15.58607,-30.40739 c -3.87212,-6.17586 -4.30551,-7.36386 -2.96092,-8.11634 0.92255,-0.51628 1.83656,-0.50266 2.20607,0.0329 5.32053,7.71101 7.38723,10.31829 8.17896,10.31829 1.59629,0 1.0594,3.7448 -0.62983,4.39301 -0.86998,0.33385 -1.73398,0.60699 -1.92,0.60699 -0.18602,0 -2.37944,-3.25567 -4.87428,-7.23483 z M 332.37866,331.38432 c -4.57375,-3.59771 -5.7862,-7.02118 -4.64927,-13.1277 0.54507,-2.92763 1.51156,-6.67296 2.14777,-8.32296 1.635,-4.24038 5.68577,-9.5 7.31655,-9.5 0.75773,0 1.99286,-0.5625 2.74474,-1.25 5.35456,-4.89607 14.50352,-6.71771 23.81478,-4.74173 5.42541,1.15135 7.69088,2.39454 15.02429,8.24466 2.67895,2.13709 4.18924,7.293 3.43829,11.73783 -0.76756,4.54314 -4.00942,7.19673 -12.50156,10.23302 -4.61925,1.65157 -15.09932,3.2982 -18.29258,2.87413 -0.98591,-0.13093 -3.68591,0.86393 -6,2.21081 -6.42356,3.73872 -9.83192,4.16779 -13.04301,1.64194 z m 10.20092,-4.58016 c 3.89796,-1.84403 7.66074,-2.74004 12.59649,-2.99953 8.0258,-0.42195 16.75918,-2.76816 20.78818,-5.58472 2.35731,-1.64792 2.75,-2.61454 2.75,-6.76918 0,-4.63306 -0.20941,-4.99825 -4.75,-8.28344 -6.18444,-4.47456 -10.13079,-5.73363 -17.97115,-5.73363 -5.0357,0 -7.33811,0.53646 -10.66156,2.48413 -5.14755,3.01667 -8.13269,6.08847 -9.5488,9.82604 -0.58561,1.5456 -1.44877,2.57284 -1.91814,2.28275 -0.95674,-0.5913 -3.15035,5.93222 -3.15035,9.36873 0,2.52953 3.57846,8.03835 5.2216,8.03835 0.59698,0 3.58666,-1.18328 6.64373,-2.6295 z m 95.13467,2.66548 c 0,-0.53021 -2.5875,-3.72888 -5.75,-7.10815 -6.6021,-7.05465 -6.97782,-7.71131 -4.87405,-8.5186 1.03468,-0.39704 3.8866,1.80899 8.66531,6.70282 6.5115,6.66837 6.9708,7.40597 5.34976,8.5913 -2.10356,1.53816 -3.39102,1.66445 -3.39102,0.33263 z M 161.7932,297.85033 c 0.048,-1.16495 0.28494,-1.4019 0.60416,-0.60417 0.28887,0.72187 0.25335,1.58437 -0.079,1.91667 -0.33229,0.33229 -0.56864,-0.25834 -0.52522,-1.3125 z m 39.58772,-35.08334 c -2.69468,-2.69467 5.29576,-11.33333 10.48291,-11.33333 4.67841,0 13.85042,6.03334 13.85042,9.11078 0,1.31617 -2.65929,1.07832 -4.17857,-0.37375 -2.55801,-2.44483 -6.77245,-4.73703 -8.70952,-4.73703 -2.39416,0 -8.11191,4.64424 -8.11191,6.58889 0,1.45114 -2.14712,1.93066 -3.33333,0.74444 z m 87.83333,-5.03449 c -1.1,-0.22823 -5.73154,-2.26361 -10.29231,-4.52307 -8.83205,-4.37551 -13.92589,-9.11675 -14.87083,-13.84147 -0.3192,-1.59601 -0.93896,-2.68022 -1.37724,-2.40934 -0.80411,0.49696 -1.46315,-1.81416 -2.53354,-8.88467 -0.90542,-5.9808 1.67972,-4.12749 4.13886,2.96718 3.86204,11.14203 6.19968,13.77665 17.1213,19.29636 6.82949,3.45158 11.96907,4.57102 16.81376,3.66215 4.52248,-0.84842 4.49666,-2.25971 -0.22317,-12.19833 -3.02462,-6.36899 -5.43609,-9.53114 -12.85278,-16.85379 -10.23965,-10.10981 -19.53801,-15.63343 -27.67405,-16.43955 -0.4125,-0.0409 -0.75,-0.74931 -0.75,-1.57431 0,-4.03466 13.02549,0.49038 22.25714,7.7321 4.82754,3.78694 19.74286,18.94888 19.74286,20.06931 0,0.47017 1.575,4.12941 3.5,8.13165 3.81,7.92133 4.21466,10.04528 2.14663,11.26725 -0.74435,0.43983 -1.56232,1.4536 -1.81771,2.25283 -0.46311,1.44927 -8.78182,2.28914 -13.32892,1.3457 z m 60.57389,-2.89012 c -5.70082,-4.79693 -7.35909,-8.02118 -6.62908,-12.88926 0.58534,-3.90333 1.40763,-4.98995 7.62593,-10.07734 3.83342,-3.13623 7.73274,-6.99372 8.66516,-8.57218 0.93242,-1.57847 2.18502,-2.86994 2.78354,-2.86994 0.59852,0 2.58578,-1.54509 4.41613,-3.43353 1.83035,-1.88844 5.59151,-4.4073 8.35813,-5.59747 4.62503,-1.98964 5.64146,-2.0743 12.61826,-1.0511 4.17675,0.61256 8.71194,1.93503 10.08804,2.94171 3.77847,2.76412 7.97781,9.22878 8.63815,13.29798 0.49616,3.05749 0.0611,4.33453 -2.77487,8.14563 -5.21497,7.00804 -11.65826,10.3943 -22.2548,11.69597 -8.84003,1.08591 -12.36962,2.24668 -18.11165,5.95637 -1.65174,1.06713 -4.66137,2.63307 -6.68807,3.47988 -3.56597,1.48996 -3.78336,1.45682 -6.73487,-1.02672 z m 12.92611,-6.41153 c 6.8154,-4.08871 8.58275,-4.6013 18.74237,-5.43594 3.43331,-0.28205 7.95711,-1.38761 10.05291,-2.45681 4.34795,-2.21816 9.89349,-7.54847 10.78914,-10.37041 1.69207,-5.33125 -3.25796,-13.37877 -9.58622,-15.58481 -4.65072,-1.62125 -12.07707,-1.42638 -16.62608,0.43628 -4.37478,1.79132 -14.08111,10.72248 -15.45928,14.22467 -0.5,1.2706 -1.36553,2.02808 -1.9234,1.6833 -0.55787,-0.34478 -3.48371,1.48281 -6.50187,4.0613 -4.92608,4.20848 -5.48757,5.0908 -5.48757,8.62307 0,3.16117 0.63698,4.51669 3.23941,6.89365 3.6643,3.34682 3.74649,3.33346 12.76059,-2.0743 z m 147.80869,-7.07112 c -0.19689,-0.59066 1.10865,-4.07816 2.90119,-7.75 1.79255,-3.67184 3.43489,-7.12607 3.64965,-7.67607 0.24164,-0.61884 0.87881,-0.54024 1.67168,0.20621 1.03491,0.97433 0.73984,2.41257 -1.53488,7.48131 -3.46764,7.72695 -5.79414,10.41904 -6.68764,7.73855 z m 31.0816,-3.24827 c -4.37382,-5.32593 -6.06758,-9.28577 -4.52091,-10.5694 1.00925,-0.83759 1.58972,-0.49358 2.48586,1.47322 0.64303,1.4113 2.56141,4.29849 4.26307,6.41598 1.70166,2.11748 2.79462,4.33427 2.42879,4.92619 -1.00107,1.61977 -1.79763,1.23559 -4.65681,-2.24599 z m -13.11846,1.5722 c -0.19041,-0.4125 -0.17907,-4.03737 0.0252,-8.05526 0.25337,-4.98349 0.74192,-7.18298 1.53719,-6.92051 2.53327,0.83608 2.65078,15.72577 0.12409,15.72577 -0.73716,0 -1.49608,-0.3375 -1.68649,-0.75 z m 45.72817,-133.25 c 0.33992,-0.55 1.06803,-1 1.61803,-1 0.55,0 0.72189,0.45 0.38197,1 -0.33992,0.55 -1.06803,1 -1.61803,1 -0.55,0 -0.72189,-0.45 -0.38197,-1 z"
       id="path4210"
       inkscape:connector-curvature="0" />
  </g>
</svg>
